M48
; DRILL file {KiCad (5.1.4)-1} date 11/01/2020 16:44:29
; FORMAT={-:-/ absolute / metric / decimal}
; #@! TF.CreationDate,2020-01-11T16:44:29+01:00
; #@! TF.GenerationSoftware,Kicad,Pcbnew,(5.1.4)-1
; #@! TF.FileFunction,Plated,1,2,PTH
FMAT,2
METRIC
T1C0.400
T2C0.800
%
G90
G05
T1
X99.29Y-72.03
X99.29Y-89.83
X99.29Y-107.63
X99.29Y-125.43
X99.29Y-143.23
X99.29Y-161.03
X99.69Y-87.03
X99.69Y-104.83
X99.69Y-122.63
X99.69Y-140.43
X99.69Y-158.23
X99.69Y-176.03
X101.94Y-84.73
X101.94Y-102.53
X101.94Y-120.33
X101.94Y-138.13
X101.94Y-155.93
X101.94Y-173.73
X117.09Y-72.03
X117.09Y-89.83
X117.09Y-107.63
X117.09Y-125.43
X117.09Y-143.23
X117.09Y-161.03
X117.49Y-87.03
X117.49Y-104.83
X117.49Y-122.63
X117.49Y-140.43
X117.49Y-158.23
X117.49Y-176.03
X119.74Y-84.73
X119.74Y-102.53
X119.74Y-120.33
X119.74Y-138.13
X119.74Y-155.93
X119.74Y-173.73
X134.89Y-72.03
X134.89Y-89.83
X134.89Y-107.63
X134.89Y-125.43
X134.89Y-143.23
X134.89Y-161.03
X135.29Y-87.03
X135.29Y-104.83
X135.29Y-122.63
X135.29Y-140.43
X135.29Y-158.23
X135.29Y-176.03
X137.54Y-84.73
X137.54Y-102.53
X137.54Y-120.33
X137.54Y-138.13
X137.54Y-155.93
X137.54Y-173.73
X152.69Y-72.03
X152.69Y-89.83
X152.69Y-107.63
X152.69Y-125.43
X152.69Y-143.23
X152.69Y-161.03
X153.09Y-87.03
X153.09Y-104.83
X153.09Y-122.63
X153.09Y-140.43
X153.09Y-158.23
X153.09Y-176.03
X155.34Y-84.73
X155.34Y-102.53
X155.34Y-120.33
X155.34Y-138.13
X155.34Y-155.93
X155.34Y-173.73
X170.49Y-72.03
X170.49Y-89.83
X170.49Y-107.63
X170.49Y-125.43
X170.49Y-143.23
X170.49Y-161.03
X170.89Y-87.03
X170.89Y-104.83
X170.89Y-122.63
X170.89Y-140.43
X170.89Y-158.23
X170.89Y-176.03
X173.14Y-84.73
X173.14Y-102.53
X173.14Y-120.33
X173.14Y-138.13
X173.14Y-155.93
X173.14Y-173.73
X188.29Y-72.03
X188.29Y-89.83
X188.29Y-107.63
X188.29Y-125.43
X188.29Y-143.23
X188.29Y-161.03
X188.69Y-87.03
X188.69Y-104.83
X188.69Y-122.63
X188.69Y-140.43
X188.69Y-158.23
X188.69Y-176.03
X190.94Y-84.73
X190.94Y-102.53
X190.94Y-120.33
X190.94Y-138.13
X190.94Y-155.93
X190.94Y-173.73
T2
X106.89Y-104.83
X130.49Y-102.13
X124.69Y-107.63
X98.39Y-136.73
X106.01Y-136.73
X163.29Y-130.515
X169.59Y-101.13
X177.21Y-101.13
X185.99Y-161.03
X94.89Y-84.33
X130.495Y-74.575
X124.69Y-122.63
X132.59Y-140.43
X130.495Y-92.375
X198.89Y-119.73
X96.99Y-140.43
X195.89Y-143.23
X106.89Y-143.23
X124.69Y-161.03
X166.09Y-84.33
X114.79Y-122.63
X116.19Y-136.73
X123.81Y-136.73
X114.79Y-176.03
X187.39Y-172.33
X195.01Y-172.33
X185.99Y-122.63
X94.89Y-137.73
X185.99Y-158.23
X151.79Y-172.33
X159.41Y-172.33
X181.09Y-166.115
X112.69Y-102.13
X151.79Y-118.93
X159.41Y-118.93
X124.69Y-125.43
X160.29Y-176.03
X178.09Y-176.03
X150.39Y-89.83
X187.39Y-83.33
X195.01Y-83.33
X187.39Y-118.93
X195.01Y-118.93
X148.29Y-137.73
X109.89Y-166.115
X195.89Y-176.03
X127.69Y-101.93
X150.39Y-125.43
X181.09Y-94.915
X150.39Y-104.83
X132.59Y-107.63
X168.19Y-140.43
X183.89Y-155.53
X168.19Y-158.23
X106.89Y-89.83
X116.19Y-101.13
X123.81Y-101.13
X178.09Y-87.03
X185.99Y-140.43
X145.49Y-155.33
X163.29Y-166.115
X133.99Y-83.33
X141.61Y-83.33
X127.69Y-112.715
X148.295Y-163.575
X142.49Y-89.83
X112.69Y-84.33
X169.59Y-83.33
X177.21Y-83.33
X116.19Y-118.93
X123.81Y-118.93
X198.89Y-130.515
X130.49Y-173.33
X150.39Y-87.03
X98.39Y-118.93
X106.01Y-118.93
X109.89Y-137.53
X198.89Y-148.315
X142.49Y-143.23
X112.69Y-173.33
X169.59Y-172.33
X177.21Y-172.33
X114.79Y-104.83
X183.89Y-137.73
X150.39Y-143.23
X98.39Y-154.53
X106.01Y-154.53
X166.095Y-163.575
X151.79Y-83.33
X159.41Y-83.33
X163.29Y-84.13
X183.89Y-84.33
X96.99Y-122.63
X160.29Y-140.43
X166.095Y-145.775
X124.69Y-158.23
X96.99Y-161.03
X109.89Y-101.93
X130.495Y-110.175
X150.39Y-176.03
X106.89Y-72.03
X142.49Y-87.03
X148.29Y-119.93
X148.295Y-110.175
X109.89Y-148.315
X133.99Y-154.53
X141.61Y-154.53
X142.49Y-161.03
X132.59Y-104.83
X109.89Y-77.115
X168.19Y-107.63
X106.89Y-140.43
X112.695Y-127.975
X195.89Y-161.03
X106.89Y-87.03
X130.49Y-137.73
X183.895Y-145.775
X185.99Y-89.83
X124.69Y-176.03
X109.89Y-94.915
X160.29Y-107.63
X145.49Y-130.515
X181.09Y-137.53
X148.29Y-155.53
X185.99Y-176.03
X160.29Y-87.03
X160.29Y-72.03
X145.49Y-119.73
X112.69Y-137.73
X178.09Y-89.83
X114.79Y-161.03
X160.29Y-104.83
X185.99Y-107.63
X148.295Y-127.975
X195.89Y-125.43
X178.09Y-143.23
X148.295Y-145.775
X98.39Y-172.33
X106.01Y-172.33
X198.89Y-166.115
X96.99Y-72.03
X109.89Y-119.73
X198.89Y-94.915
X168.19Y-89.83
X198.89Y-84.13
X198.89Y-112.715
X114.79Y-125.43
X181.09Y-148.315
X112.69Y-155.53
X178.09Y-161.03
X133.99Y-101.13
X141.61Y-101.13
X166.095Y-74.575
X168.19Y-122.63
X163.29Y-137.53
X132.59Y-161.03
X181.09Y-173.13
X124.69Y-89.83
X183.895Y-110.175
X130.495Y-127.975
X150.39Y-158.23
X116.19Y-154.53
X123.81Y-154.53
X130.495Y-163.575
X183.89Y-173.33
X114.79Y-89.83
X124.69Y-72.03
X168.19Y-72.03
X166.09Y-119.93
X150.39Y-140.43
X94.89Y-155.53
X148.29Y-102.13
X142.49Y-72.03
X133.99Y-118.93
X141.61Y-118.93
X183.89Y-119.93
X187.39Y-136.73
X195.01Y-136.73
X181.09Y-155.33
X109.89Y-155.33
X168.19Y-161.03
X114.79Y-87.03
X181.09Y-84.13
X185.99Y-125.43
X160.29Y-158.23
X142.49Y-176.03
X130.49Y-84.33
X166.095Y-110.175
X160.29Y-143.23
X127.69Y-155.33
X96.99Y-176.03
X94.89Y-102.13
X145.49Y-112.715
X166.09Y-173.33
X148.29Y-84.33
X185.99Y-72.03
X109.89Y-112.715
X166.095Y-127.975
X178.09Y-158.23
X112.695Y-145.775
X168.19Y-176.03
X96.99Y-89.83
X109.89Y-84.13
X163.29Y-112.715
X183.895Y-127.975
X185.99Y-143.23
X151.79Y-154.53
X159.41Y-154.53
X145.49Y-77.115
X195.89Y-87.03
X163.29Y-119.73
X109.89Y-130.515
X168.19Y-143.23
X163.29Y-148.315
X133.99Y-172.33
X141.61Y-172.33
X94.895Y-92.375
X163.29Y-94.915
X124.69Y-87.03
X178.09Y-140.43
X130.49Y-155.53
X181.09Y-101.93
X148.29Y-173.33
X178.09Y-107.63
X96.99Y-107.63
X127.69Y-130.515
X163.29Y-155.33
X114.79Y-143.23
X198.89Y-101.93
X145.49Y-101.93
X116.19Y-83.33
X123.81Y-83.33
X150.39Y-107.63
X94.895Y-127.975
X166.09Y-137.73
X96.99Y-158.23
X198.89Y-173.13
X94.895Y-74.575
X145.49Y-84.13
X114.79Y-107.63
X94.89Y-119.93
X124.69Y-140.43
X195.89Y-104.83
X116.19Y-172.33
X123.81Y-172.33
X98.39Y-101.13
X106.01Y-101.13
X166.09Y-102.13
X150.39Y-122.63
X96.99Y-125.43
X151.79Y-136.73
X159.41Y-136.73
X178.09Y-104.83
X127.69Y-173.13
X150.39Y-161.03
X98.39Y-83.33
X106.01Y-83.33
X150.39Y-72.03
X168.19Y-87.03
X112.695Y-110.175
X142.49Y-125.43
X185.99Y-104.83
X127.69Y-166.115
X151.79Y-101.13
X159.41Y-101.13
X166.095Y-92.375
X195.89Y-122.63
X145.49Y-137.53
X114.79Y-140.43
X130.495Y-145.775
X106.89Y-158.23
X109.89Y-173.13
X132.59Y-89.83
X132.59Y-122.63
X94.89Y-173.33
X198.89Y-77.115
X181.09Y-112.715
X160.29Y-125.43
X166.09Y-155.53
X160.29Y-161.03
X124.69Y-104.83
X127.69Y-77.115
X127.69Y-119.73
X198.89Y-137.53
X94.895Y-163.575
X160.29Y-89.83
X195.89Y-72.03
X142.49Y-107.63
X169.59Y-118.93
X177.21Y-118.93
X133.99Y-136.73
X141.61Y-136.73
X195.89Y-158.23
X106.89Y-161.03
X127.69Y-94.915
X181.09Y-77.115
X106.89Y-122.63
X178.09Y-125.43
X96.99Y-143.23
X112.695Y-163.575
X163.29Y-101.93
X148.295Y-74.575
X130.49Y-119.93
X178.09Y-122.63
X132.59Y-125.43
X169.59Y-154.53
X177.21Y-154.53
X142.49Y-158.23
X96.99Y-104.83
X168.19Y-104.83
X178.09Y-72.03
X112.69Y-119.93
X195.89Y-140.43
X94.895Y-145.775
X183.89Y-102.13
X132.59Y-176.03
X183.895Y-163.575
X132.59Y-72.03
X94.895Y-110.175
X181.09Y-119.73
X127.69Y-137.53
X198.89Y-155.33
X106.89Y-176.03
X148.295Y-92.375
X112.695Y-92.375
X127.69Y-84.13
X181.09Y-130.515
X187.39Y-154.53
X195.01Y-154.53
X145.49Y-148.315
X185.99Y-87.03
X160.29Y-122.63
X106.89Y-107.63
X114.79Y-158.23
X145.49Y-173.13
X112.695Y-74.575
X142.49Y-122.63
X169.59Y-136.73
X177.21Y-136.73
X124.69Y-143.23
X132.59Y-143.23
X187.39Y-101.13
X195.01Y-101.13
X132.59Y-87.03
X183.895Y-74.575
X168.19Y-125.43
X132.59Y-158.23
X145.49Y-94.915
X142.49Y-104.83
X114.79Y-72.03
X106.89Y-125.43
X183.895Y-92.375
X163.29Y-173.13
X96.99Y-87.03
X163.29Y-77.115
X195.89Y-107.63
X142.49Y-140.43
X127.69Y-148.315
X195.89Y-89.83
X145.49Y-166.115
T0
M30
