G04 #@! TF.GenerationSoftware,KiCad,Pcbnew,(5.1.4)-1*
G04 #@! TF.CreationDate,2020-01-11T16:44:35+01:00*
G04 #@! TF.ProjectId,plate,706c6174-652e-46b6-9963-61645f706362,1*
G04 #@! TF.SameCoordinates,Original*
G04 #@! TF.FileFunction,Copper,L1,Top*
G04 #@! TF.FilePolarity,Positive*
%FSLAX46Y46*%
G04 Gerber Fmt 4.6, Leading zero omitted, Abs format (unit mm)*
G04 Created by KiCad (PCBNEW (5.1.4)-1) date 2020-01-11 16:44:35*
%MOMM*%
%LPD*%
G04 APERTURE LIST*
%ADD10C,1.800000*%
%ADD11R,1.600000X1.600000*%
%ADD12C,0.800000*%
%ADD13C,0.800000*%
G04 APERTURE END LIST*
D10*
X178090000Y-176030000D03*
D11*
X177210000Y-172330000D03*
X169590000Y-172330000D03*
D10*
X183895000Y-163575000D03*
X181090000Y-173130000D03*
D11*
X195010000Y-172330000D03*
X187390000Y-172330000D03*
D10*
X183890000Y-173330000D03*
X181090000Y-166115000D03*
X198890000Y-166115000D03*
X185990000Y-176030000D03*
X178090000Y-161030000D03*
X195890000Y-176030000D03*
X185990000Y-161030000D03*
X195890000Y-161030000D03*
X198890000Y-173130000D03*
X163290000Y-173130000D03*
X148290000Y-173330000D03*
X150390000Y-176030000D03*
X160290000Y-161030000D03*
X124690000Y-161030000D03*
X150390000Y-161030000D03*
X168190000Y-161030000D03*
X166095000Y-163575000D03*
X130495000Y-163575000D03*
X166090000Y-173330000D03*
X109890000Y-166115000D03*
X130490000Y-173330000D03*
X132590000Y-176030000D03*
X142490000Y-176030000D03*
X163290000Y-166115000D03*
X109890000Y-173130000D03*
X114790000Y-176030000D03*
X112695000Y-163575000D03*
X142490000Y-161030000D03*
X168190000Y-176030000D03*
D11*
X123810000Y-172330000D03*
X116190000Y-172330000D03*
D10*
X127690000Y-166115000D03*
X114790000Y-161030000D03*
X127690000Y-173130000D03*
X124690000Y-176030000D03*
D11*
X141610000Y-172330000D03*
X133990000Y-172330000D03*
D10*
X112690000Y-173330000D03*
X132590000Y-161030000D03*
D11*
X151790000Y-172330000D03*
X159410000Y-172330000D03*
D10*
X160290000Y-176030000D03*
D11*
X98390000Y-172330000D03*
X106010000Y-172330000D03*
D10*
X106890000Y-176030000D03*
X145490000Y-173130000D03*
X145490000Y-166115000D03*
X94895000Y-163575000D03*
X96990000Y-161030000D03*
X148295000Y-163575000D03*
X94890000Y-173330000D03*
X96990000Y-176030000D03*
X106890000Y-161030000D03*
X178090000Y-158230000D03*
D11*
X177210000Y-154530000D03*
X169590000Y-154530000D03*
D10*
X183895000Y-145775000D03*
X181090000Y-155330000D03*
D11*
X195010000Y-154530000D03*
X187390000Y-154530000D03*
D10*
X183890000Y-155530000D03*
X181090000Y-148315000D03*
X198890000Y-148315000D03*
X185990000Y-158230000D03*
X178090000Y-143230000D03*
X195890000Y-158230000D03*
X185990000Y-143230000D03*
X195890000Y-143230000D03*
X198890000Y-155330000D03*
X163290000Y-155330000D03*
X148290000Y-155530000D03*
X150390000Y-158230000D03*
X160290000Y-143230000D03*
X124690000Y-143230000D03*
X150390000Y-143230000D03*
X168190000Y-143230000D03*
X166095000Y-145775000D03*
X130495000Y-145775000D03*
X166090000Y-155530000D03*
X109890000Y-148315000D03*
X130490000Y-155530000D03*
X132590000Y-158230000D03*
X142490000Y-158230000D03*
X163290000Y-148315000D03*
X109890000Y-155330000D03*
X114790000Y-158230000D03*
X112695000Y-145775000D03*
X142490000Y-143230000D03*
X168190000Y-158230000D03*
D11*
X123810000Y-154530000D03*
X116190000Y-154530000D03*
D10*
X127690000Y-148315000D03*
X114790000Y-143230000D03*
X127690000Y-155330000D03*
X124690000Y-158230000D03*
D11*
X141610000Y-154530000D03*
X133990000Y-154530000D03*
D10*
X112690000Y-155530000D03*
X132590000Y-143230000D03*
D11*
X151790000Y-154530000D03*
X159410000Y-154530000D03*
D10*
X160290000Y-158230000D03*
D11*
X98390000Y-154530000D03*
X106010000Y-154530000D03*
D10*
X106890000Y-158230000D03*
X145490000Y-155330000D03*
X145490000Y-148315000D03*
X94895000Y-145775000D03*
X96990000Y-143230000D03*
X148295000Y-145775000D03*
X94890000Y-155530000D03*
X96990000Y-158230000D03*
X106890000Y-143230000D03*
X178090000Y-140430000D03*
D11*
X177210000Y-136730000D03*
X169590000Y-136730000D03*
D10*
X183895000Y-127975000D03*
X181090000Y-137530000D03*
D11*
X195010000Y-136730000D03*
X187390000Y-136730000D03*
D10*
X183890000Y-137730000D03*
X181090000Y-130515000D03*
X198890000Y-130515000D03*
X185990000Y-140430000D03*
X178090000Y-125430000D03*
X195890000Y-140430000D03*
X185990000Y-125430000D03*
X195890000Y-125430000D03*
X198890000Y-137530000D03*
X163290000Y-137530000D03*
X148290000Y-137730000D03*
X150390000Y-140430000D03*
X160290000Y-125430000D03*
X124690000Y-125430000D03*
X150390000Y-125430000D03*
X168190000Y-125430000D03*
X166095000Y-127975000D03*
X130495000Y-127975000D03*
X166090000Y-137730000D03*
X109890000Y-130515000D03*
X130490000Y-137730000D03*
X132590000Y-140430000D03*
X142490000Y-140430000D03*
X163290000Y-130515000D03*
X109890000Y-137530000D03*
X114790000Y-140430000D03*
X112695000Y-127975000D03*
X142490000Y-125430000D03*
X168190000Y-140430000D03*
D11*
X123810000Y-136730000D03*
X116190000Y-136730000D03*
D10*
X127690000Y-130515000D03*
X114790000Y-125430000D03*
X127690000Y-137530000D03*
X124690000Y-140430000D03*
D11*
X141610000Y-136730000D03*
X133990000Y-136730000D03*
D10*
X112690000Y-137730000D03*
X132590000Y-125430000D03*
D11*
X151790000Y-136730000D03*
X159410000Y-136730000D03*
D10*
X160290000Y-140430000D03*
D11*
X98390000Y-136730000D03*
X106010000Y-136730000D03*
D10*
X106890000Y-140430000D03*
X145490000Y-137530000D03*
X145490000Y-130515000D03*
X94895000Y-127975000D03*
X96990000Y-125430000D03*
X148295000Y-127975000D03*
X94890000Y-137730000D03*
X96990000Y-140430000D03*
X106890000Y-125430000D03*
X178090000Y-122630000D03*
D11*
X177210000Y-118930000D03*
X169590000Y-118930000D03*
D10*
X183895000Y-110175000D03*
X181090000Y-119730000D03*
D11*
X195010000Y-118930000D03*
X187390000Y-118930000D03*
D10*
X183890000Y-119930000D03*
X181090000Y-112715000D03*
X198890000Y-112715000D03*
X185990000Y-122630000D03*
X178090000Y-107630000D03*
X195890000Y-122630000D03*
X185990000Y-107630000D03*
X195890000Y-107630000D03*
X198890000Y-119730000D03*
X163290000Y-119730000D03*
X148290000Y-119930000D03*
X150390000Y-122630000D03*
X160290000Y-107630000D03*
X124690000Y-107630000D03*
X150390000Y-107630000D03*
X168190000Y-107630000D03*
X166095000Y-110175000D03*
X130495000Y-110175000D03*
X166090000Y-119930000D03*
X109890000Y-112715000D03*
X130490000Y-119930000D03*
X132590000Y-122630000D03*
X142490000Y-122630000D03*
X163290000Y-112715000D03*
X109890000Y-119730000D03*
X114790000Y-122630000D03*
X112695000Y-110175000D03*
X142490000Y-107630000D03*
X168190000Y-122630000D03*
D11*
X123810000Y-118930000D03*
X116190000Y-118930000D03*
D10*
X127690000Y-112715000D03*
X114790000Y-107630000D03*
X127690000Y-119730000D03*
X124690000Y-122630000D03*
D11*
X141610000Y-118930000D03*
X133990000Y-118930000D03*
D10*
X112690000Y-119930000D03*
X132590000Y-107630000D03*
D11*
X151790000Y-118930000D03*
X159410000Y-118930000D03*
D10*
X160290000Y-122630000D03*
D11*
X98390000Y-118930000D03*
X106010000Y-118930000D03*
D10*
X106890000Y-122630000D03*
X145490000Y-119730000D03*
X145490000Y-112715000D03*
X94895000Y-110175000D03*
X96990000Y-107630000D03*
X148295000Y-110175000D03*
X94890000Y-119930000D03*
X96990000Y-122630000D03*
X106890000Y-107630000D03*
X183895000Y-92375000D03*
X195890000Y-104830000D03*
X183890000Y-102130000D03*
X185990000Y-104830000D03*
X185990000Y-89830000D03*
X195890000Y-89830000D03*
D11*
X187390000Y-101130000D03*
X195010000Y-101130000D03*
D10*
X198890000Y-94915000D03*
X198890000Y-101930000D03*
D11*
X169590000Y-101130000D03*
X177210000Y-101130000D03*
D10*
X178090000Y-89830000D03*
X181090000Y-101930000D03*
X178090000Y-104830000D03*
X181090000Y-94915000D03*
X168190000Y-89830000D03*
X166095000Y-92375000D03*
X166090000Y-102130000D03*
X168190000Y-104830000D03*
D11*
X116190000Y-101130000D03*
X123810000Y-101130000D03*
D10*
X109890000Y-94915000D03*
X114790000Y-89830000D03*
X124690000Y-104830000D03*
X112695000Y-92375000D03*
X109890000Y-101930000D03*
X127690000Y-101930000D03*
X112690000Y-102130000D03*
X114790000Y-104830000D03*
X124690000Y-89830000D03*
X127690000Y-94915000D03*
X160290000Y-89830000D03*
X130495000Y-92375000D03*
X163290000Y-94915000D03*
X142490000Y-104830000D03*
X132590000Y-104830000D03*
X163290000Y-101930000D03*
X148290000Y-102130000D03*
X150390000Y-104830000D03*
X132590000Y-89830000D03*
X130490000Y-102130000D03*
D11*
X133990000Y-101130000D03*
X141610000Y-101130000D03*
D10*
X142490000Y-89830000D03*
X150390000Y-89830000D03*
X160290000Y-104830000D03*
X145490000Y-101930000D03*
X145490000Y-94915000D03*
D11*
X159410000Y-101130000D03*
X151790000Y-101130000D03*
D10*
X148295000Y-92375000D03*
X96990000Y-89830000D03*
D11*
X106010000Y-101130000D03*
X98390000Y-101130000D03*
D10*
X94890000Y-102130000D03*
X94895000Y-92375000D03*
X106890000Y-104830000D03*
X96990000Y-104830000D03*
X106890000Y-89830000D03*
X195890000Y-72030000D03*
X198890000Y-77115000D03*
X198890000Y-84130000D03*
X183890000Y-84330000D03*
X185990000Y-87030000D03*
X185990000Y-72030000D03*
X195890000Y-87030000D03*
D11*
X195010000Y-83330000D03*
X187390000Y-83330000D03*
D10*
X183895000Y-74575000D03*
X178090000Y-72030000D03*
X181090000Y-77115000D03*
X181090000Y-84130000D03*
X166090000Y-84330000D03*
X168190000Y-87030000D03*
X168190000Y-72030000D03*
X178090000Y-87030000D03*
D11*
X177210000Y-83330000D03*
X169590000Y-83330000D03*
D10*
X166095000Y-74575000D03*
D11*
X151790000Y-83330000D03*
X159410000Y-83330000D03*
D10*
X145490000Y-77115000D03*
X150390000Y-72030000D03*
X160290000Y-87030000D03*
X148295000Y-74575000D03*
X145490000Y-84130000D03*
X163290000Y-84130000D03*
X148290000Y-84330000D03*
X150390000Y-87030000D03*
X160290000Y-72030000D03*
X163290000Y-77115000D03*
X132590000Y-72030000D03*
D11*
X141610000Y-83330000D03*
X133990000Y-83330000D03*
D10*
X130490000Y-84330000D03*
X130495000Y-74575000D03*
X142490000Y-87030000D03*
X132590000Y-87030000D03*
X142490000Y-72030000D03*
X127690000Y-77115000D03*
X127690000Y-84130000D03*
X114790000Y-72030000D03*
D11*
X123810000Y-83330000D03*
X116190000Y-83330000D03*
D10*
X112690000Y-84330000D03*
X112695000Y-74575000D03*
X124690000Y-87030000D03*
X114790000Y-87030000D03*
X124690000Y-72030000D03*
D11*
X98390000Y-83330000D03*
X106010000Y-83330000D03*
D10*
X96990000Y-72030000D03*
X106890000Y-72030000D03*
X96990000Y-87030000D03*
X106890000Y-87030000D03*
X94895000Y-74575000D03*
X94890000Y-84330000D03*
X109890000Y-77115000D03*
X109890000Y-84130000D03*
D12*
X119740000Y-84730000D03*
X117490000Y-87030000D03*
X117090000Y-72030000D03*
X152690000Y-72030000D03*
X153090000Y-87030000D03*
X155340000Y-84730000D03*
X137540000Y-84730000D03*
X135290000Y-87030000D03*
X134890000Y-72030000D03*
X170490000Y-72030000D03*
X170890000Y-87030000D03*
X173140000Y-84730000D03*
X188290000Y-72030000D03*
X188690000Y-87030000D03*
X190940000Y-84730000D03*
X137540000Y-102530000D03*
X170490000Y-89830000D03*
X170890000Y-104830000D03*
X173140000Y-102530000D03*
X134890000Y-89830000D03*
X135290000Y-104830000D03*
X152690000Y-89830000D03*
X153090000Y-104830000D03*
X155340000Y-102530000D03*
X188690000Y-104830000D03*
X117090000Y-89830000D03*
X117490000Y-104830000D03*
X188290000Y-89830000D03*
X190940000Y-102530000D03*
X119740000Y-102530000D03*
X101940000Y-102530000D03*
X99690000Y-104830000D03*
X99290000Y-89830000D03*
X101940000Y-120330000D03*
X170890000Y-122630000D03*
X135290000Y-122630000D03*
X188690000Y-122630000D03*
X117090000Y-107630000D03*
X134890000Y-107630000D03*
X190940000Y-120330000D03*
X119740000Y-120330000D03*
X117490000Y-122630000D03*
X152690000Y-107630000D03*
X188290000Y-107630000D03*
X99690000Y-122630000D03*
X153090000Y-122630000D03*
X170490000Y-107630000D03*
X155340000Y-120330000D03*
X99290000Y-107630000D03*
X173140000Y-120330000D03*
X137540000Y-120330000D03*
X101940000Y-138130000D03*
X170890000Y-140430000D03*
X135290000Y-140430000D03*
X188690000Y-140430000D03*
X117090000Y-125430000D03*
X134890000Y-125430000D03*
X190940000Y-138130000D03*
X119740000Y-138130000D03*
X117490000Y-140430000D03*
X152690000Y-125430000D03*
X188290000Y-125430000D03*
X99690000Y-140430000D03*
X153090000Y-140430000D03*
X170490000Y-125430000D03*
X155340000Y-138130000D03*
X99290000Y-125430000D03*
X173140000Y-138130000D03*
X137540000Y-138130000D03*
X101940000Y-155930000D03*
X170890000Y-158230000D03*
X135290000Y-158230000D03*
X188690000Y-158230000D03*
X117090000Y-143230000D03*
X134890000Y-143230000D03*
X190940000Y-155930000D03*
X119740000Y-155930000D03*
X117490000Y-158230000D03*
X152690000Y-143230000D03*
X188290000Y-143230000D03*
X99690000Y-158230000D03*
X153090000Y-158230000D03*
X170490000Y-143230000D03*
X155340000Y-155930000D03*
X99290000Y-143230000D03*
X173140000Y-155930000D03*
X137540000Y-155930000D03*
X101940000Y-173730000D03*
X170890000Y-176030000D03*
X135290000Y-176030000D03*
X188690000Y-176030000D03*
X117090000Y-161030000D03*
X134890000Y-161030000D03*
X190940000Y-173730000D03*
X119740000Y-173730000D03*
X117490000Y-176030000D03*
X152690000Y-161030000D03*
X188290000Y-161030000D03*
X99690000Y-176030000D03*
X153090000Y-176030000D03*
X170490000Y-161030000D03*
X155340000Y-173730000D03*
X99290000Y-161030000D03*
X173140000Y-173730000D03*
X137540000Y-173730000D03*
X99690000Y-87030000D03*
X101940000Y-84730000D03*
X99290000Y-72030000D03*
D13*
X122915001Y-77855001D02*
X117090000Y-72030000D01*
X122915001Y-81604999D02*
X122915001Y-77855001D01*
X117490000Y-87030000D02*
X122915001Y-81604999D01*
X153090000Y-87030000D02*
X158515001Y-81604999D01*
X158515001Y-81604999D02*
X158515001Y-77855001D01*
X158515001Y-77855001D02*
X152690000Y-72030000D01*
X140715001Y-77855001D02*
X134890000Y-72030000D01*
X140715001Y-81604999D02*
X140715001Y-77855001D01*
X135290000Y-87030000D02*
X140715001Y-81604999D01*
X170890000Y-87030000D02*
X176315001Y-81604999D01*
X176315001Y-81604999D02*
X176315001Y-77855001D01*
X176315001Y-77855001D02*
X170490000Y-72030000D01*
X188690000Y-87030000D02*
X194115001Y-81604999D01*
X194115001Y-81604999D02*
X194115001Y-77855001D01*
X194115001Y-77855001D02*
X188290000Y-72030000D01*
X153090000Y-104830000D02*
X158515001Y-99404999D01*
X140715001Y-95655001D02*
X134890000Y-89830000D01*
X158515001Y-99404999D02*
X158515001Y-95655001D01*
X176315001Y-99404999D02*
X176315001Y-95655001D01*
X170890000Y-104830000D02*
X176315001Y-99404999D01*
X194115001Y-99404999D02*
X194115001Y-95655001D01*
X194115001Y-95655001D02*
X188290000Y-89830000D01*
X188690000Y-104830000D02*
X194115001Y-99404999D01*
X176315001Y-95655001D02*
X170490000Y-89830000D01*
X140715001Y-99404999D02*
X140715001Y-95655001D01*
X158515001Y-95655001D02*
X152690000Y-89830000D01*
X135290000Y-104830000D02*
X140715001Y-99404999D01*
X117490000Y-104830000D02*
X122915001Y-99404999D01*
X122915001Y-99404999D02*
X122915001Y-95655001D01*
X122915001Y-95655001D02*
X117090000Y-89830000D01*
X105115001Y-95655001D02*
X99290000Y-89830000D01*
X105115001Y-99404999D02*
X105115001Y-95655001D01*
X99690000Y-104830000D02*
X105115001Y-99404999D01*
X153090000Y-122630000D02*
X158515001Y-117204999D01*
X140715001Y-113455001D02*
X134890000Y-107630000D01*
X158515001Y-117204999D02*
X158515001Y-113455001D01*
X105115001Y-117204999D02*
X105115001Y-113455001D01*
X122915001Y-113455001D02*
X117090000Y-107630000D01*
X99690000Y-122630000D02*
X105115001Y-117204999D01*
X140715001Y-117204999D02*
X140715001Y-113455001D01*
X158515001Y-113455001D02*
X152690000Y-107630000D01*
X122915001Y-117204999D02*
X122915001Y-113455001D01*
X135290000Y-122630000D02*
X140715001Y-117204999D01*
X105115001Y-113455001D02*
X99290000Y-107630000D01*
X117490000Y-122630000D02*
X122915001Y-117204999D01*
X170890000Y-122630000D02*
X176315001Y-117204999D01*
X176315001Y-117204999D02*
X176315001Y-113455001D01*
X194115001Y-113455001D02*
X188290000Y-107630000D01*
X194115001Y-117204999D02*
X194115001Y-113455001D01*
X176315001Y-113455001D02*
X170490000Y-107630000D01*
X188690000Y-122630000D02*
X194115001Y-117204999D01*
X153090000Y-140430000D02*
X158515001Y-135004999D01*
X140715001Y-131255001D02*
X134890000Y-125430000D01*
X158515001Y-135004999D02*
X158515001Y-131255001D01*
X105115001Y-135004999D02*
X105115001Y-131255001D01*
X122915001Y-131255001D02*
X117090000Y-125430000D01*
X99690000Y-140430000D02*
X105115001Y-135004999D01*
X140715001Y-135004999D02*
X140715001Y-131255001D01*
X158515001Y-131255001D02*
X152690000Y-125430000D01*
X122915001Y-135004999D02*
X122915001Y-131255001D01*
X135290000Y-140430000D02*
X140715001Y-135004999D01*
X105115001Y-131255001D02*
X99290000Y-125430000D01*
X117490000Y-140430000D02*
X122915001Y-135004999D01*
X170890000Y-140430000D02*
X176315001Y-135004999D01*
X176315001Y-135004999D02*
X176315001Y-131255001D01*
X194115001Y-131255001D02*
X188290000Y-125430000D01*
X194115001Y-135004999D02*
X194115001Y-131255001D01*
X176315001Y-131255001D02*
X170490000Y-125430000D01*
X188690000Y-140430000D02*
X194115001Y-135004999D01*
X153090000Y-158230000D02*
X158515001Y-152804999D01*
X140715001Y-149055001D02*
X134890000Y-143230000D01*
X158515001Y-152804999D02*
X158515001Y-149055001D01*
X105115001Y-152804999D02*
X105115001Y-149055001D01*
X122915001Y-149055001D02*
X117090000Y-143230000D01*
X99690000Y-158230000D02*
X105115001Y-152804999D01*
X140715001Y-152804999D02*
X140715001Y-149055001D01*
X158515001Y-149055001D02*
X152690000Y-143230000D01*
X122915001Y-152804999D02*
X122915001Y-149055001D01*
X135290000Y-158230000D02*
X140715001Y-152804999D01*
X105115001Y-149055001D02*
X99290000Y-143230000D01*
X117490000Y-158230000D02*
X122915001Y-152804999D01*
X170890000Y-158230000D02*
X176315001Y-152804999D01*
X176315001Y-152804999D02*
X176315001Y-149055001D01*
X194115001Y-149055001D02*
X188290000Y-143230000D01*
X194115001Y-152804999D02*
X194115001Y-149055001D01*
X176315001Y-149055001D02*
X170490000Y-143230000D01*
X188690000Y-158230000D02*
X194115001Y-152804999D01*
X153090000Y-176030000D02*
X158515001Y-170604999D01*
X140715001Y-166855001D02*
X134890000Y-161030000D01*
X158515001Y-170604999D02*
X158515001Y-166855001D01*
X105115001Y-170604999D02*
X105115001Y-166855001D01*
X122915001Y-166855001D02*
X117090000Y-161030000D01*
X99690000Y-176030000D02*
X105115001Y-170604999D01*
X140715001Y-170604999D02*
X140715001Y-166855001D01*
X158515001Y-166855001D02*
X152690000Y-161030000D01*
X122915001Y-170604999D02*
X122915001Y-166855001D01*
X135290000Y-176030000D02*
X140715001Y-170604999D01*
X105115001Y-166855001D02*
X99290000Y-161030000D01*
X117490000Y-176030000D02*
X122915001Y-170604999D01*
X170890000Y-176030000D02*
X176315001Y-170604999D01*
X176315001Y-170604999D02*
X176315001Y-166855001D01*
X194115001Y-166855001D02*
X188290000Y-161030000D01*
X194115001Y-170604999D02*
X194115001Y-166855001D01*
X176315001Y-166855001D02*
X170490000Y-161030000D01*
X188690000Y-176030000D02*
X194115001Y-170604999D01*
X105115001Y-77855001D02*
X99290000Y-72030000D01*
X105115001Y-81604999D02*
X105115001Y-77855001D01*
X99690000Y-87030000D02*
X105115001Y-81604999D01*
M02*
