G04 #@! TF.GenerationSoftware,KiCad,Pcbnew,(5.1.4)-1*
G04 #@! TF.CreationDate,2020-01-11T16:44:35+01:00*
G04 #@! TF.ProjectId,plate,706c6174-652e-46b6-9963-61645f706362,1*
G04 #@! TF.SameCoordinates,Original*
G04 #@! TF.FileFunction,Profile,NP*
%FSLAX46Y46*%
G04 Gerber Fmt 4.6, Leading zero omitted, Abs format (unit mm)*
G04 Created by KiCad (PCBNEW (5.1.4)-1) date 2020-01-11 16:44:35*
%MOMM*%
%LPD*%
G04 APERTURE LIST*
%ADD10C,0.100000*%
G04 APERTURE END LIST*
D10*
X199890000Y-162029998D02*
G75*
G02X197890001Y-160029999I1000000J2999998D01*
G01*
X182889999Y-169529999D02*
X182890000Y-175030000D01*
X111690000Y-162030000D02*
X111689999Y-167780001D01*
X199890000Y-162029999D02*
X199889999Y-167780000D01*
X182090000Y-169530000D02*
X182090001Y-175030001D01*
X126690002Y-177030000D02*
G75*
G02X128690001Y-175030001I2999998J-1000000D01*
G01*
X199889999Y-167780000D02*
X199890001Y-175030001D01*
X184889999Y-160030001D02*
G75*
G02X182890000Y-162030000I-2999998J1000000D01*
G01*
X182890000Y-162030000D02*
X182889999Y-167780001D01*
X128690000Y-169530000D02*
X128690001Y-175030001D01*
X149289999Y-160030000D02*
X155014998Y-160029999D01*
X182090000Y-162029998D02*
G75*
G02X180090001Y-160029999I1000000J2999998D01*
G01*
X197890002Y-177030000D02*
G75*
G02X199890001Y-175030001I2999998J-1000000D01*
G01*
X95889999Y-160030000D02*
X101614998Y-160029999D01*
X113689999Y-160030000D02*
X119414998Y-160029999D01*
X167089999Y-160030001D02*
G75*
G02X165090000Y-162030000I-2999998J1000000D01*
G01*
X174615000Y-177030001D02*
X180090001Y-177030000D01*
X128690000Y-162029999D02*
X128689999Y-167780000D01*
X131489999Y-160030000D02*
X137214998Y-160029999D01*
X121215000Y-160030001D02*
X126690001Y-160030000D01*
X156815000Y-160030001D02*
X162290001Y-160030000D01*
X165090000Y-175030001D02*
G75*
G02X167089999Y-177030000I-1000000J-2999998D01*
G01*
X165090000Y-162030000D02*
X165089999Y-167780001D01*
X182890000Y-175030001D02*
G75*
G02X184889999Y-177030000I-1000000J-2999998D01*
G01*
X182090000Y-169530000D02*
G75*
G02X182890000Y-169530000I400000J0D01*
G01*
X192415000Y-177030001D02*
X197890001Y-177030000D01*
X103415000Y-160030001D02*
X108890001Y-160030000D01*
X165089999Y-169529999D02*
X165090000Y-175030000D01*
X111690000Y-175030001D02*
G75*
G02X113689999Y-177030000I-1000000J-2999998D01*
G01*
X182090000Y-162029999D02*
X182089999Y-167780000D01*
X182890001Y-167780000D02*
G75*
G02X182089999Y-167780000I-400001J0D01*
G01*
X139015000Y-160030001D02*
X144490001Y-160030000D01*
X167089999Y-177030000D02*
X174615000Y-177030001D01*
X180090002Y-177030000D02*
G75*
G02X182090001Y-175030001I2999998J-1000000D01*
G01*
X184889999Y-177030000D02*
X192415000Y-177030001D01*
X174615000Y-160030001D02*
X180090001Y-160030000D01*
X184889999Y-160030000D02*
X190614998Y-160029999D01*
X167089999Y-160030000D02*
X172814998Y-160029999D01*
X192415000Y-160030001D02*
X197890001Y-160030000D01*
X129490000Y-175030001D02*
G75*
G02X131489999Y-177030000I-1000000J-2999998D01*
G01*
X110890000Y-162029999D02*
X110889999Y-167780000D01*
X108890002Y-177030000D02*
G75*
G02X110890001Y-175030001I2999998J-1000000D01*
G01*
X139015000Y-177030001D02*
X144490001Y-177030000D01*
X146490000Y-162029998D02*
G75*
G02X144490001Y-160029999I1000000J2999998D01*
G01*
X144490002Y-177030000D02*
G75*
G02X146490001Y-175030001I2999998J-1000000D01*
G01*
X129490000Y-162030000D02*
X129489999Y-167780001D01*
X95889999Y-160030001D02*
G75*
G02X93890000Y-162030000I-2999998J1000000D01*
G01*
X111689999Y-169529999D02*
X111690000Y-175030000D01*
X164290000Y-162029998D02*
G75*
G02X162290001Y-160029999I1000000J2999998D01*
G01*
X146490000Y-169530000D02*
X146490001Y-175030001D01*
X149289999Y-177030000D02*
X156815000Y-177030001D01*
X147289999Y-169529999D02*
X147290000Y-175030000D01*
X162290002Y-177030000D02*
G75*
G02X164290001Y-175030001I2999998J-1000000D01*
G01*
X121215000Y-177030001D02*
X126690001Y-177030000D01*
X128690000Y-169530000D02*
G75*
G02X129490000Y-169530000I400000J0D01*
G01*
X93890000Y-162030000D02*
X93890000Y-175030000D01*
X129490001Y-167780000D02*
G75*
G02X128689999Y-167780000I-400001J0D01*
G01*
X128690000Y-162029998D02*
G75*
G02X126690001Y-160029999I1000000J2999998D01*
G01*
X113689999Y-160030001D02*
G75*
G02X111690000Y-162030000I-2999998J1000000D01*
G01*
X93890000Y-175030001D02*
G75*
G02X95889999Y-177030000I-1000000J-2999998D01*
G01*
X165090001Y-167780000D02*
G75*
G02X164289999Y-167780000I-400001J0D01*
G01*
X146490000Y-169530000D02*
G75*
G02X147290000Y-169530000I400000J0D01*
G01*
X131489999Y-177030000D02*
X139015000Y-177030001D01*
X146490000Y-162029999D02*
X146489999Y-167780000D01*
X110890000Y-169530000D02*
G75*
G02X111690000Y-169530000I400000J0D01*
G01*
X111690001Y-167780000D02*
G75*
G02X110889999Y-167780000I-400001J0D01*
G01*
X149289999Y-160030001D02*
G75*
G02X147290000Y-162030000I-2999998J1000000D01*
G01*
X95889999Y-177030000D02*
X103415000Y-177030001D01*
X110890000Y-169530000D02*
X110890001Y-175030001D01*
X147290001Y-167780000D02*
G75*
G02X146489999Y-167780000I-400001J0D01*
G01*
X156815000Y-177030001D02*
X162290001Y-177030000D01*
X131489999Y-160030001D02*
G75*
G02X129490000Y-162030000I-2999998J1000000D01*
G01*
X103415000Y-177030001D02*
X108890001Y-177030000D01*
X147290000Y-162030000D02*
X147289999Y-167780001D01*
X113689999Y-177030000D02*
X121215000Y-177030001D01*
X110890000Y-162029998D02*
G75*
G02X108890001Y-160029999I1000000J2999998D01*
G01*
X164290000Y-169530000D02*
X164290001Y-175030001D01*
X129489999Y-169529999D02*
X129490000Y-175030000D01*
X164290000Y-169530000D02*
G75*
G02X165090000Y-169530000I400000J0D01*
G01*
X147290000Y-175030001D02*
G75*
G02X149289999Y-177030000I-1000000J-2999998D01*
G01*
X164290000Y-162029999D02*
X164289999Y-167780000D01*
X199890000Y-144229998D02*
G75*
G02X197890001Y-142229999I1000000J2999998D01*
G01*
X182889999Y-151729999D02*
X182890000Y-157230000D01*
X111690000Y-144230000D02*
X111689999Y-149980001D01*
X199890000Y-144229999D02*
X199889999Y-149980000D01*
X182090000Y-151730000D02*
X182090001Y-157230001D01*
X126690002Y-159230000D02*
G75*
G02X128690001Y-157230001I2999998J-1000000D01*
G01*
X174615000Y-160029999D02*
G75*
G02X174615000Y-159230001I0J399999D01*
G01*
X199889999Y-149980000D02*
X199890001Y-157230001D01*
X184889999Y-142230001D02*
G75*
G02X182890000Y-144230000I-2999998J1000000D01*
G01*
X182890000Y-144230000D02*
X182889999Y-149980001D01*
X128690000Y-151730000D02*
X128690001Y-157230001D01*
X172814998Y-159229999D02*
G75*
G02X172815000Y-160030001I1J-400001D01*
G01*
X149289999Y-142230000D02*
X155014998Y-142229999D01*
X182090000Y-144229998D02*
G75*
G02X180090001Y-142229999I1000000J2999998D01*
G01*
X197890002Y-159230000D02*
G75*
G02X199890001Y-157230001I2999998J-1000000D01*
G01*
X95889999Y-142230000D02*
X101614998Y-142229999D01*
X113689999Y-142230000D02*
X119414998Y-142229999D01*
X167089999Y-142230001D02*
G75*
G02X165090000Y-144230000I-2999998J1000000D01*
G01*
X174615000Y-159230001D02*
X180090001Y-159230000D01*
X128690000Y-144229999D02*
X128689999Y-149980000D01*
X131489999Y-142230000D02*
X137214998Y-142229999D01*
X121215000Y-142230001D02*
X126690001Y-142230000D01*
X156815000Y-142230001D02*
X162290001Y-142230000D01*
X165090000Y-157230001D02*
G75*
G02X167089999Y-159230000I-1000000J-2999998D01*
G01*
X165090000Y-144230000D02*
X165089999Y-149980001D01*
X182890000Y-157230001D02*
G75*
G02X184889999Y-159230000I-1000000J-2999998D01*
G01*
X182090000Y-151730000D02*
G75*
G02X182890000Y-151730000I400000J0D01*
G01*
X192415000Y-159230001D02*
X197890001Y-159230000D01*
X103415000Y-142230001D02*
X108890001Y-142230000D01*
X165089999Y-151729999D02*
X165090000Y-157230000D01*
X111690000Y-157230001D02*
G75*
G02X113689999Y-159230000I-1000000J-2999998D01*
G01*
X182090000Y-144229999D02*
X182089999Y-149980000D01*
X192415000Y-160029999D02*
G75*
G02X192415000Y-159230001I0J399999D01*
G01*
X182890001Y-149980000D02*
G75*
G02X182089999Y-149980000I-400001J0D01*
G01*
X139015000Y-142230001D02*
X144490001Y-142230000D01*
X167089999Y-159230000D02*
X172814998Y-159229999D01*
X180090002Y-159230000D02*
G75*
G02X182090001Y-157230001I2999998J-1000000D01*
G01*
X190614998Y-159229999D02*
G75*
G02X190615000Y-160030001I1J-400001D01*
G01*
X184889999Y-159230000D02*
X190614998Y-159229999D01*
X174615000Y-142230001D02*
X180090001Y-142230000D01*
X184889999Y-142230000D02*
X190614998Y-142229999D01*
X167089999Y-142230000D02*
X172814998Y-142229999D01*
X192415000Y-142230001D02*
X197890001Y-142230000D01*
X137214998Y-159229999D02*
G75*
G02X137215000Y-160030001I1J-400001D01*
G01*
X129490000Y-157230001D02*
G75*
G02X131489999Y-159230000I-1000000J-2999998D01*
G01*
X110890000Y-144229999D02*
X110889999Y-149980000D01*
X108890002Y-159230000D02*
G75*
G02X110890001Y-157230001I2999998J-1000000D01*
G01*
X139015000Y-159230001D02*
X144490001Y-159230000D01*
X146490000Y-144229998D02*
G75*
G02X144490001Y-142229999I1000000J2999998D01*
G01*
X144490002Y-159230000D02*
G75*
G02X146490001Y-157230001I2999998J-1000000D01*
G01*
X129490000Y-144230000D02*
X129489999Y-149980001D01*
X95889999Y-142230001D02*
G75*
G02X93890000Y-144230000I-2999998J1000000D01*
G01*
X111689999Y-151729999D02*
X111690000Y-157230000D01*
X164290000Y-144229998D02*
G75*
G02X162290001Y-142229999I1000000J2999998D01*
G01*
X146490000Y-151730000D02*
X146490001Y-157230001D01*
X149289999Y-159230000D02*
X155014998Y-159229999D01*
X147289999Y-151729999D02*
X147290000Y-157230000D01*
X103415000Y-160029999D02*
G75*
G02X103415000Y-159230001I0J399999D01*
G01*
X162290002Y-159230000D02*
G75*
G02X164290001Y-157230001I2999998J-1000000D01*
G01*
X121215000Y-159230001D02*
X126690001Y-159230000D01*
X128690000Y-151730000D02*
G75*
G02X129490000Y-151730000I400000J0D01*
G01*
X93890000Y-144230000D02*
X93890000Y-157230000D01*
X129490001Y-149980000D02*
G75*
G02X128689999Y-149980000I-400001J0D01*
G01*
X101614998Y-159229999D02*
G75*
G02X101615000Y-160030001I1J-400001D01*
G01*
X128690000Y-144229998D02*
G75*
G02X126690001Y-142229999I1000000J2999998D01*
G01*
X113689999Y-142230001D02*
G75*
G02X111690000Y-144230000I-2999998J1000000D01*
G01*
X93890000Y-157230001D02*
G75*
G02X95889999Y-159230000I-1000000J-2999998D01*
G01*
X165090001Y-149980000D02*
G75*
G02X164289999Y-149980000I-400001J0D01*
G01*
X146490000Y-151730000D02*
G75*
G02X147290000Y-151730000I400000J0D01*
G01*
X131489999Y-159230000D02*
X137214998Y-159229999D01*
X146490000Y-144229999D02*
X146489999Y-149980000D01*
X110890000Y-151730000D02*
G75*
G02X111690000Y-151730000I400000J0D01*
G01*
X111690001Y-149980000D02*
G75*
G02X110889999Y-149980000I-400001J0D01*
G01*
X155014998Y-159229999D02*
G75*
G02X155015000Y-160030001I1J-400001D01*
G01*
X119414998Y-159229999D02*
G75*
G02X119415000Y-160030001I1J-400001D01*
G01*
X149289999Y-142230001D02*
G75*
G02X147290000Y-144230000I-2999998J1000000D01*
G01*
X95889999Y-159230000D02*
X101614998Y-159229999D01*
X110890000Y-151730000D02*
X110890001Y-157230001D01*
X156815000Y-160029999D02*
G75*
G02X156815000Y-159230001I0J399999D01*
G01*
X147290001Y-149980000D02*
G75*
G02X146489999Y-149980000I-400001J0D01*
G01*
X156815000Y-159230001D02*
X162290001Y-159230000D01*
X131489999Y-142230001D02*
G75*
G02X129490000Y-144230000I-2999998J1000000D01*
G01*
X103415000Y-159230001D02*
X108890001Y-159230000D01*
X147290000Y-144230000D02*
X147289999Y-149980001D01*
X113689999Y-159230000D02*
X119414998Y-159229999D01*
X121215000Y-160029999D02*
G75*
G02X121215000Y-159230001I0J399999D01*
G01*
X110890000Y-144229998D02*
G75*
G02X108890001Y-142229999I1000000J2999998D01*
G01*
X164290000Y-151730000D02*
X164290001Y-157230001D01*
X129489999Y-151729999D02*
X129490000Y-157230000D01*
X164290000Y-151730000D02*
G75*
G02X165090000Y-151730000I400000J0D01*
G01*
X147290000Y-157230001D02*
G75*
G02X149289999Y-159230000I-1000000J-2999998D01*
G01*
X164290000Y-144229999D02*
X164289999Y-149980000D01*
X139015000Y-160029999D02*
G75*
G02X139015000Y-159230001I0J399999D01*
G01*
X199890000Y-126429998D02*
G75*
G02X197890001Y-124429999I1000000J2999998D01*
G01*
X182889999Y-133929999D02*
X182890000Y-139430000D01*
X111690000Y-126430000D02*
X111689999Y-132180001D01*
X199890000Y-126429999D02*
X199889999Y-132180000D01*
X182090000Y-133930000D02*
X182090001Y-139430001D01*
X126690002Y-141430000D02*
G75*
G02X128690001Y-139430001I2999998J-1000000D01*
G01*
X174615000Y-142229999D02*
G75*
G02X174615000Y-141430001I0J399999D01*
G01*
X199889999Y-132180000D02*
X199890001Y-139430001D01*
X184889999Y-124430001D02*
G75*
G02X182890000Y-126430000I-2999998J1000000D01*
G01*
X182890000Y-126430000D02*
X182889999Y-132180001D01*
X128690000Y-133930000D02*
X128690001Y-139430001D01*
X172814998Y-141429999D02*
G75*
G02X172815000Y-142230001I1J-400001D01*
G01*
X149289999Y-124430000D02*
X155014998Y-124429999D01*
X182090000Y-126429998D02*
G75*
G02X180090001Y-124429999I1000000J2999998D01*
G01*
X197890002Y-141430000D02*
G75*
G02X199890001Y-139430001I2999998J-1000000D01*
G01*
X95889999Y-124430000D02*
X101614998Y-124429999D01*
X113689999Y-124430000D02*
X119414998Y-124429999D01*
X167089999Y-124430001D02*
G75*
G02X165090000Y-126430000I-2999998J1000000D01*
G01*
X174615000Y-141430001D02*
X180090001Y-141430000D01*
X128690000Y-126429999D02*
X128689999Y-132180000D01*
X131489999Y-124430000D02*
X137214998Y-124429999D01*
X121215000Y-124430001D02*
X126690001Y-124430000D01*
X156815000Y-124430001D02*
X162290001Y-124430000D01*
X165090000Y-139430001D02*
G75*
G02X167089999Y-141430000I-1000000J-2999998D01*
G01*
X165090000Y-126430000D02*
X165089999Y-132180001D01*
X182890000Y-139430001D02*
G75*
G02X184889999Y-141430000I-1000000J-2999998D01*
G01*
X182090000Y-133930000D02*
G75*
G02X182890000Y-133930000I400000J0D01*
G01*
X192415000Y-141430001D02*
X197890001Y-141430000D01*
X103415000Y-124430001D02*
X108890001Y-124430000D01*
X165089999Y-133929999D02*
X165090000Y-139430000D01*
X111690000Y-139430001D02*
G75*
G02X113689999Y-141430000I-1000000J-2999998D01*
G01*
X182090000Y-126429999D02*
X182089999Y-132180000D01*
X192415000Y-142229999D02*
G75*
G02X192415000Y-141430001I0J399999D01*
G01*
X182890001Y-132180000D02*
G75*
G02X182089999Y-132180000I-400001J0D01*
G01*
X139015000Y-124430001D02*
X144490001Y-124430000D01*
X167089999Y-141430000D02*
X172814998Y-141429999D01*
X180090002Y-141430000D02*
G75*
G02X182090001Y-139430001I2999998J-1000000D01*
G01*
X190614998Y-141429999D02*
G75*
G02X190615000Y-142230001I1J-400001D01*
G01*
X184889999Y-141430000D02*
X190614998Y-141429999D01*
X174615000Y-124430001D02*
X180090001Y-124430000D01*
X184889999Y-124430000D02*
X190614998Y-124429999D01*
X167089999Y-124430000D02*
X172814998Y-124429999D01*
X192415000Y-124430001D02*
X197890001Y-124430000D01*
X137214998Y-141429999D02*
G75*
G02X137215000Y-142230001I1J-400001D01*
G01*
X129490000Y-139430001D02*
G75*
G02X131489999Y-141430000I-1000000J-2999998D01*
G01*
X110890000Y-126429999D02*
X110889999Y-132180000D01*
X108890002Y-141430000D02*
G75*
G02X110890001Y-139430001I2999998J-1000000D01*
G01*
X139015000Y-141430001D02*
X144490001Y-141430000D01*
X146490000Y-126429998D02*
G75*
G02X144490001Y-124429999I1000000J2999998D01*
G01*
X144490002Y-141430000D02*
G75*
G02X146490001Y-139430001I2999998J-1000000D01*
G01*
X129490000Y-126430000D02*
X129489999Y-132180001D01*
X95889999Y-124430001D02*
G75*
G02X93890000Y-126430000I-2999998J1000000D01*
G01*
X111689999Y-133929999D02*
X111690000Y-139430000D01*
X164290000Y-126429998D02*
G75*
G02X162290001Y-124429999I1000000J2999998D01*
G01*
X146490000Y-133930000D02*
X146490001Y-139430001D01*
X149289999Y-141430000D02*
X155014998Y-141429999D01*
X147289999Y-133929999D02*
X147290000Y-139430000D01*
X103415000Y-142229999D02*
G75*
G02X103415000Y-141430001I0J399999D01*
G01*
X162290002Y-141430000D02*
G75*
G02X164290001Y-139430001I2999998J-1000000D01*
G01*
X121215000Y-141430001D02*
X126690001Y-141430000D01*
X128690000Y-133930000D02*
G75*
G02X129490000Y-133930000I400000J0D01*
G01*
X93890000Y-126430000D02*
X93890000Y-139430000D01*
X129490001Y-132180000D02*
G75*
G02X128689999Y-132180000I-400001J0D01*
G01*
X101614998Y-141429999D02*
G75*
G02X101615000Y-142230001I1J-400001D01*
G01*
X128690000Y-126429998D02*
G75*
G02X126690001Y-124429999I1000000J2999998D01*
G01*
X113689999Y-124430001D02*
G75*
G02X111690000Y-126430000I-2999998J1000000D01*
G01*
X93890000Y-139430001D02*
G75*
G02X95889999Y-141430000I-1000000J-2999998D01*
G01*
X165090001Y-132180000D02*
G75*
G02X164289999Y-132180000I-400001J0D01*
G01*
X146490000Y-133930000D02*
G75*
G02X147290000Y-133930000I400000J0D01*
G01*
X131489999Y-141430000D02*
X137214998Y-141429999D01*
X146490000Y-126429999D02*
X146489999Y-132180000D01*
X110890000Y-133930000D02*
G75*
G02X111690000Y-133930000I400000J0D01*
G01*
X111690001Y-132180000D02*
G75*
G02X110889999Y-132180000I-400001J0D01*
G01*
X155014998Y-141429999D02*
G75*
G02X155015000Y-142230001I1J-400001D01*
G01*
X119414998Y-141429999D02*
G75*
G02X119415000Y-142230001I1J-400001D01*
G01*
X149289999Y-124430001D02*
G75*
G02X147290000Y-126430000I-2999998J1000000D01*
G01*
X95889999Y-141430000D02*
X101614998Y-141429999D01*
X110890000Y-133930000D02*
X110890001Y-139430001D01*
X156815000Y-142229999D02*
G75*
G02X156815000Y-141430001I0J399999D01*
G01*
X147290001Y-132180000D02*
G75*
G02X146489999Y-132180000I-400001J0D01*
G01*
X156815000Y-141430001D02*
X162290001Y-141430000D01*
X131489999Y-124430001D02*
G75*
G02X129490000Y-126430000I-2999998J1000000D01*
G01*
X103415000Y-141430001D02*
X108890001Y-141430000D01*
X147290000Y-126430000D02*
X147289999Y-132180001D01*
X113689999Y-141430000D02*
X119414998Y-141429999D01*
X121215000Y-142229999D02*
G75*
G02X121215000Y-141430001I0J399999D01*
G01*
X110890000Y-126429998D02*
G75*
G02X108890001Y-124429999I1000000J2999998D01*
G01*
X164290000Y-133930000D02*
X164290001Y-139430001D01*
X129489999Y-133929999D02*
X129490000Y-139430000D01*
X164290000Y-133930000D02*
G75*
G02X165090000Y-133930000I400000J0D01*
G01*
X147290000Y-139430001D02*
G75*
G02X149289999Y-141430000I-1000000J-2999998D01*
G01*
X164290000Y-126429999D02*
X164289999Y-132180000D01*
X139015000Y-142229999D02*
G75*
G02X139015000Y-141430001I0J399999D01*
G01*
X199890000Y-108629998D02*
G75*
G02X197890001Y-106629999I1000000J2999998D01*
G01*
X182889999Y-116129999D02*
X182890000Y-121630000D01*
X111690000Y-108630000D02*
X111689999Y-114380001D01*
X199890000Y-108629999D02*
X199889999Y-114380000D01*
X182090000Y-116130000D02*
X182090001Y-121630001D01*
X126690002Y-123630000D02*
G75*
G02X128690001Y-121630001I2999998J-1000000D01*
G01*
X174615000Y-124429999D02*
G75*
G02X174615000Y-123630001I0J399999D01*
G01*
X199889999Y-114380000D02*
X199890001Y-121630001D01*
X184889999Y-106630001D02*
G75*
G02X182890000Y-108630000I-2999998J1000000D01*
G01*
X182890000Y-108630000D02*
X182889999Y-114380001D01*
X128690000Y-116130000D02*
X128690001Y-121630001D01*
X172814998Y-123629999D02*
G75*
G02X172815000Y-124430001I1J-400001D01*
G01*
X149289999Y-106630000D02*
X155014998Y-106629999D01*
X182090000Y-108629998D02*
G75*
G02X180090001Y-106629999I1000000J2999998D01*
G01*
X197890002Y-123630000D02*
G75*
G02X199890001Y-121630001I2999998J-1000000D01*
G01*
X95889999Y-106630000D02*
X101614998Y-106629999D01*
X113689999Y-106630000D02*
X119414998Y-106629999D01*
X167089999Y-106630001D02*
G75*
G02X165090000Y-108630000I-2999998J1000000D01*
G01*
X174615000Y-123630001D02*
X180090001Y-123630000D01*
X128690000Y-108629999D02*
X128689999Y-114380000D01*
X131489999Y-106630000D02*
X137214998Y-106629999D01*
X121215000Y-106630001D02*
X126690001Y-106630000D01*
X156815000Y-106630001D02*
X162290001Y-106630000D01*
X165090000Y-121630001D02*
G75*
G02X167089999Y-123630000I-1000000J-2999998D01*
G01*
X165090000Y-108630000D02*
X165089999Y-114380001D01*
X182890000Y-121630001D02*
G75*
G02X184889999Y-123630000I-1000000J-2999998D01*
G01*
X182090000Y-116130000D02*
G75*
G02X182890000Y-116130000I400000J0D01*
G01*
X192415000Y-123630001D02*
X197890001Y-123630000D01*
X103415000Y-106630001D02*
X108890001Y-106630000D01*
X165089999Y-116129999D02*
X165090000Y-121630000D01*
X111690000Y-121630001D02*
G75*
G02X113689999Y-123630000I-1000000J-2999998D01*
G01*
X182090000Y-108629999D02*
X182089999Y-114380000D01*
X192415000Y-124429999D02*
G75*
G02X192415000Y-123630001I0J399999D01*
G01*
X182890001Y-114380000D02*
G75*
G02X182089999Y-114380000I-400001J0D01*
G01*
X139015000Y-106630001D02*
X144490001Y-106630000D01*
X167089999Y-123630000D02*
X172814998Y-123629999D01*
X180090002Y-123630000D02*
G75*
G02X182090001Y-121630001I2999998J-1000000D01*
G01*
X190614998Y-123629999D02*
G75*
G02X190615000Y-124430001I1J-400001D01*
G01*
X184889999Y-123630000D02*
X190614998Y-123629999D01*
X174615000Y-106630001D02*
X180090001Y-106630000D01*
X184889999Y-106630000D02*
X190614998Y-106629999D01*
X167089999Y-106630000D02*
X172814998Y-106629999D01*
X192415000Y-106630001D02*
X197890001Y-106630000D01*
X137214998Y-123629999D02*
G75*
G02X137215000Y-124430001I1J-400001D01*
G01*
X129490000Y-121630001D02*
G75*
G02X131489999Y-123630000I-1000000J-2999998D01*
G01*
X110890000Y-108629999D02*
X110889999Y-114380000D01*
X108890002Y-123630000D02*
G75*
G02X110890001Y-121630001I2999998J-1000000D01*
G01*
X139015000Y-123630001D02*
X144490001Y-123630000D01*
X146490000Y-108629998D02*
G75*
G02X144490001Y-106629999I1000000J2999998D01*
G01*
X144490002Y-123630000D02*
G75*
G02X146490001Y-121630001I2999998J-1000000D01*
G01*
X129490000Y-108630000D02*
X129489999Y-114380001D01*
X95889999Y-106630001D02*
G75*
G02X93890000Y-108630000I-2999998J1000000D01*
G01*
X111689999Y-116129999D02*
X111690000Y-121630000D01*
X164290000Y-108629998D02*
G75*
G02X162290001Y-106629999I1000000J2999998D01*
G01*
X146490000Y-116130000D02*
X146490001Y-121630001D01*
X149289999Y-123630000D02*
X155014998Y-123629999D01*
X147289999Y-116129999D02*
X147290000Y-121630000D01*
X103415000Y-124429999D02*
G75*
G02X103415000Y-123630001I0J399999D01*
G01*
X162290002Y-123630000D02*
G75*
G02X164290001Y-121630001I2999998J-1000000D01*
G01*
X121215000Y-123630001D02*
X126690001Y-123630000D01*
X128690000Y-116130000D02*
G75*
G02X129490000Y-116130000I400000J0D01*
G01*
X93890000Y-108630000D02*
X93890000Y-121630000D01*
X129490001Y-114380000D02*
G75*
G02X128689999Y-114380000I-400001J0D01*
G01*
X101614998Y-123629999D02*
G75*
G02X101615000Y-124430001I1J-400001D01*
G01*
X128690000Y-108629998D02*
G75*
G02X126690001Y-106629999I1000000J2999998D01*
G01*
X113689999Y-106630001D02*
G75*
G02X111690000Y-108630000I-2999998J1000000D01*
G01*
X93890000Y-121630001D02*
G75*
G02X95889999Y-123630000I-1000000J-2999998D01*
G01*
X165090001Y-114380000D02*
G75*
G02X164289999Y-114380000I-400001J0D01*
G01*
X146490000Y-116130000D02*
G75*
G02X147290000Y-116130000I400000J0D01*
G01*
X131489999Y-123630000D02*
X137214998Y-123629999D01*
X146490000Y-108629999D02*
X146489999Y-114380000D01*
X110890000Y-116130000D02*
G75*
G02X111690000Y-116130000I400000J0D01*
G01*
X111690001Y-114380000D02*
G75*
G02X110889999Y-114380000I-400001J0D01*
G01*
X155014998Y-123629999D02*
G75*
G02X155015000Y-124430001I1J-400001D01*
G01*
X119414998Y-123629999D02*
G75*
G02X119415000Y-124430001I1J-400001D01*
G01*
X149289999Y-106630001D02*
G75*
G02X147290000Y-108630000I-2999998J1000000D01*
G01*
X95889999Y-123630000D02*
X101614998Y-123629999D01*
X110890000Y-116130000D02*
X110890001Y-121630001D01*
X156815000Y-124429999D02*
G75*
G02X156815000Y-123630001I0J399999D01*
G01*
X147290001Y-114380000D02*
G75*
G02X146489999Y-114380000I-400001J0D01*
G01*
X156815000Y-123630001D02*
X162290001Y-123630000D01*
X131489999Y-106630001D02*
G75*
G02X129490000Y-108630000I-2999998J1000000D01*
G01*
X103415000Y-123630001D02*
X108890001Y-123630000D01*
X147290000Y-108630000D02*
X147289999Y-114380001D01*
X113689999Y-123630000D02*
X119414998Y-123629999D01*
X121215000Y-124429999D02*
G75*
G02X121215000Y-123630001I0J399999D01*
G01*
X110890000Y-108629998D02*
G75*
G02X108890001Y-106629999I1000000J2999998D01*
G01*
X164290000Y-116130000D02*
X164290001Y-121630001D01*
X129489999Y-116129999D02*
X129490000Y-121630000D01*
X164290000Y-116130000D02*
G75*
G02X165090000Y-116130000I400000J0D01*
G01*
X147290000Y-121630001D02*
G75*
G02X149289999Y-123630000I-1000000J-2999998D01*
G01*
X164290000Y-108629999D02*
X164289999Y-114380000D01*
X139015000Y-124429999D02*
G75*
G02X139015000Y-123630001I0J399999D01*
G01*
X167089999Y-88830000D02*
X172814998Y-88829999D01*
X184889999Y-88830000D02*
X190614998Y-88829999D01*
X192415000Y-88830001D02*
X197890001Y-88830000D01*
X174615000Y-88830001D02*
X180090001Y-88830000D01*
X131489999Y-88830000D02*
X137214998Y-88829999D01*
X149289999Y-88830000D02*
X155014998Y-88829999D01*
X156815000Y-88830001D02*
X162290001Y-88830000D01*
X139015000Y-88830001D02*
X144490001Y-88830000D01*
X113689999Y-88830000D02*
X119414998Y-88829999D01*
X121215000Y-88830001D02*
X126690001Y-88830000D01*
X95889999Y-88830000D02*
X101614998Y-88829999D01*
X103415000Y-88830001D02*
X108890001Y-88830000D01*
X111690000Y-90830000D02*
X111689999Y-96580001D01*
X165090000Y-103830001D02*
G75*
G02X167089999Y-105830000I-1000000J-2999998D01*
G01*
X199889999Y-96580000D02*
X199890001Y-103830001D01*
X182890001Y-96580000D02*
G75*
G02X182089999Y-96580000I-400001J0D01*
G01*
X199890000Y-90829999D02*
X199889999Y-96580000D01*
X165090000Y-90830000D02*
X165089999Y-96580001D01*
X174615000Y-105830001D02*
X180090001Y-105830000D01*
X167089999Y-88830001D02*
G75*
G02X165090000Y-90830000I-2999998J1000000D01*
G01*
X182090000Y-98330000D02*
X182090001Y-103830001D01*
X199890000Y-90829998D02*
G75*
G02X197890001Y-88829999I1000000J2999998D01*
G01*
X184889999Y-88830001D02*
G75*
G02X182890000Y-90830000I-2999998J1000000D01*
G01*
X165089999Y-98329999D02*
X165090000Y-103830000D01*
X182890000Y-103830001D02*
G75*
G02X184889999Y-105830000I-1000000J-2999998D01*
G01*
X180090002Y-105830000D02*
G75*
G02X182090001Y-103830001I2999998J-1000000D01*
G01*
X182090000Y-98330000D02*
G75*
G02X182890000Y-98330000I400000J0D01*
G01*
X182090000Y-90829999D02*
X182089999Y-96580000D01*
X167089999Y-105830000D02*
X172814998Y-105829999D01*
X182090000Y-90829998D02*
G75*
G02X180090001Y-88829999I1000000J2999998D01*
G01*
X174615000Y-106629999D02*
G75*
G02X174615000Y-105830001I0J399999D01*
G01*
X192415000Y-105830001D02*
X197890001Y-105830000D01*
X172814998Y-105829999D02*
G75*
G02X172815000Y-106630001I1J-400001D01*
G01*
X182890000Y-90830000D02*
X182889999Y-96580001D01*
X197890002Y-105830000D02*
G75*
G02X199890001Y-103830001I2999998J-1000000D01*
G01*
X182889999Y-98329999D02*
X182890000Y-103830000D01*
X192415000Y-106629999D02*
G75*
G02X192415000Y-105830001I0J399999D01*
G01*
X184889999Y-105830000D02*
X190614998Y-105829999D01*
X190614998Y-105829999D02*
G75*
G02X190615000Y-106630001I1J-400001D01*
G01*
X128690000Y-98330000D02*
X128690001Y-103830001D01*
X128690000Y-90829999D02*
X128689999Y-96580000D01*
X126690002Y-105830000D02*
G75*
G02X128690001Y-103830001I2999998J-1000000D01*
G01*
X111690000Y-103830001D02*
G75*
G02X113689999Y-105830000I-1000000J-2999998D01*
G01*
X103415000Y-106629999D02*
G75*
G02X103415000Y-105830001I0J399999D01*
G01*
X121215000Y-105830001D02*
X126690001Y-105830000D01*
X128690000Y-98330000D02*
G75*
G02X129490000Y-98330000I400000J0D01*
G01*
X93890000Y-90830000D02*
X93890000Y-103830000D01*
X129490001Y-96580000D02*
G75*
G02X128689999Y-96580000I-400001J0D01*
G01*
X128690000Y-90829998D02*
G75*
G02X126690001Y-88829999I1000000J2999998D01*
G01*
X113689999Y-88830001D02*
G75*
G02X111690000Y-90830000I-2999998J1000000D01*
G01*
X113689999Y-105830000D02*
X119414998Y-105829999D01*
X121215000Y-106629999D02*
G75*
G02X121215000Y-105830001I0J399999D01*
G01*
X101614998Y-105829999D02*
G75*
G02X101615000Y-106630001I1J-400001D01*
G01*
X110890000Y-90829999D02*
X110889999Y-96580000D01*
X119414998Y-105829999D02*
G75*
G02X119415000Y-106630001I1J-400001D01*
G01*
X95889999Y-105830000D02*
X101614998Y-105829999D01*
X110890000Y-98330000D02*
X110890001Y-103830001D01*
X103415000Y-105830001D02*
X108890001Y-105830000D01*
X111690001Y-96580000D02*
G75*
G02X110889999Y-96580000I-400001J0D01*
G01*
X110890000Y-98330000D02*
G75*
G02X111690000Y-98330000I400000J0D01*
G01*
X110890000Y-90829998D02*
G75*
G02X108890001Y-88829999I1000000J2999998D01*
G01*
X108890002Y-105830000D02*
G75*
G02X110890001Y-103830001I2999998J-1000000D01*
G01*
X93890000Y-103830001D02*
G75*
G02X95889999Y-105830000I-1000000J-2999998D01*
G01*
X95889999Y-88830001D02*
G75*
G02X93890000Y-90830000I-2999998J1000000D01*
G01*
X111689999Y-98329999D02*
X111690000Y-103830000D01*
X146490000Y-98330000D02*
X146490001Y-103830001D01*
X131489999Y-88830001D02*
G75*
G02X129490000Y-90830000I-2999998J1000000D01*
G01*
X139015000Y-105830001D02*
X144490001Y-105830000D01*
X147289999Y-98329999D02*
X147290000Y-103830000D01*
X149289999Y-105830000D02*
X155014998Y-105829999D01*
X137214998Y-105829999D02*
G75*
G02X137215000Y-106630001I1J-400001D01*
G01*
X129490000Y-103830001D02*
G75*
G02X131489999Y-105830000I-1000000J-2999998D01*
G01*
X146490000Y-90829999D02*
X146489999Y-96580000D01*
X156815000Y-106629999D02*
G75*
G02X156815000Y-105830001I0J399999D01*
G01*
X146490000Y-98330000D02*
G75*
G02X147290000Y-98330000I400000J0D01*
G01*
X155014998Y-105829999D02*
G75*
G02X155015000Y-106630001I1J-400001D01*
G01*
X131489999Y-105830000D02*
X137214998Y-105829999D01*
X144490002Y-105830000D02*
G75*
G02X146490001Y-103830001I2999998J-1000000D01*
G01*
X146490000Y-90829998D02*
G75*
G02X144490001Y-88829999I1000000J2999998D01*
G01*
X164290000Y-90829998D02*
G75*
G02X162290001Y-88829999I1000000J2999998D01*
G01*
X149289999Y-88830001D02*
G75*
G02X147290000Y-90830000I-2999998J1000000D01*
G01*
X147290001Y-96580000D02*
G75*
G02X146489999Y-96580000I-400001J0D01*
G01*
X147290000Y-90830000D02*
X147289999Y-96580001D01*
X162290002Y-105830000D02*
G75*
G02X164290001Y-103830001I2999998J-1000000D01*
G01*
X129490000Y-90830000D02*
X129489999Y-96580001D01*
X165090001Y-96580000D02*
G75*
G02X164289999Y-96580000I-400001J0D01*
G01*
X156815000Y-105830001D02*
X162290001Y-105830000D01*
X129489999Y-98329999D02*
X129490000Y-103830000D01*
X164290000Y-98330000D02*
X164290001Y-103830001D01*
X164290000Y-90829999D02*
X164289999Y-96580000D01*
X139015000Y-106629999D02*
G75*
G02X139015000Y-105830001I0J399999D01*
G01*
X164290000Y-98330000D02*
G75*
G02X165090000Y-98330000I400000J0D01*
G01*
X147290000Y-103830001D02*
G75*
G02X149289999Y-105830000I-1000000J-2999998D01*
G01*
X182889999Y-80529999D02*
X182890000Y-86030000D01*
X184889999Y-88030000D02*
X190614998Y-88029999D01*
X192415000Y-88829999D02*
G75*
G02X192415000Y-88030001I0J399999D01*
G01*
X190614998Y-88029999D02*
G75*
G02X190615000Y-88830001I1J-400001D01*
G01*
X199890000Y-73029998D02*
G75*
G02X197890001Y-71029999I1000000J2999998D01*
G01*
X184889999Y-71030001D02*
G75*
G02X182890000Y-73030000I-2999998J1000000D01*
G01*
X182890000Y-73030000D02*
X182889999Y-78780001D01*
X197890002Y-88030000D02*
G75*
G02X199890001Y-86030001I2999998J-1000000D01*
G01*
X192415000Y-88030001D02*
X197890001Y-88030000D01*
X184890000Y-71030001D02*
X197890001Y-71029999D01*
X199889999Y-78780000D02*
X199890001Y-86030001D01*
X199890000Y-73029999D02*
X199889999Y-78780000D01*
X182890000Y-86030001D02*
G75*
G02X184889999Y-88030000I-1000000J-2999998D01*
G01*
X165089999Y-80529999D02*
X165090000Y-86030000D01*
X167089999Y-88030000D02*
X172814998Y-88029999D01*
X174615000Y-88829999D02*
G75*
G02X174615000Y-88030001I0J399999D01*
G01*
X172814998Y-88029999D02*
G75*
G02X172815000Y-88830001I1J-400001D01*
G01*
X182090000Y-73029998D02*
G75*
G02X180090001Y-71029999I1000000J2999998D01*
G01*
X167089999Y-71030001D02*
G75*
G02X165090000Y-73030000I-2999998J1000000D01*
G01*
X165090000Y-73030000D02*
X165089999Y-78780001D01*
X180090002Y-88030000D02*
G75*
G02X182090001Y-86030001I2999998J-1000000D01*
G01*
X182890001Y-78780000D02*
G75*
G02X182089999Y-78780000I-400001J0D01*
G01*
X174615000Y-88030001D02*
X180090001Y-88030000D01*
X167090000Y-71030001D02*
X180090001Y-71029999D01*
X182090000Y-80530000D02*
X182090001Y-86030001D01*
X182090000Y-73029999D02*
X182089999Y-78780000D01*
X182090000Y-80530000D02*
G75*
G02X182890000Y-80530000I400000J0D01*
G01*
X165090000Y-86030001D02*
G75*
G02X167089999Y-88030000I-1000000J-2999998D01*
G01*
X129490000Y-73030000D02*
X129489999Y-78780001D01*
X129489999Y-80529999D02*
X129490000Y-86030000D01*
X147290000Y-73030000D02*
X147289999Y-78780001D01*
X149290000Y-71030001D02*
X162290001Y-71029999D01*
X164290000Y-80530000D02*
X164290001Y-86030001D01*
X164290000Y-73029999D02*
X164289999Y-78780000D01*
X162290002Y-88030000D02*
G75*
G02X164290001Y-86030001I2999998J-1000000D01*
G01*
X147290000Y-86030001D02*
G75*
G02X149289999Y-88030000I-1000000J-2999998D01*
G01*
X139015000Y-88829999D02*
G75*
G02X139015000Y-88030001I0J399999D01*
G01*
X156815000Y-88030001D02*
X162290001Y-88030000D01*
X164290000Y-80530000D02*
G75*
G02X165090000Y-80530000I400000J0D01*
G01*
X131490000Y-71030001D02*
X144490001Y-71029999D01*
X165090001Y-78780000D02*
G75*
G02X164289999Y-78780000I-400001J0D01*
G01*
X164290000Y-73029998D02*
G75*
G02X162290001Y-71029999I1000000J2999998D01*
G01*
X149289999Y-71030001D02*
G75*
G02X147290000Y-73030000I-2999998J1000000D01*
G01*
X149289999Y-88030000D02*
X155014998Y-88029999D01*
X156815000Y-88829999D02*
G75*
G02X156815000Y-88030001I0J399999D01*
G01*
X137214998Y-88029999D02*
G75*
G02X137215000Y-88830001I1J-400001D01*
G01*
X146490000Y-73029999D02*
X146489999Y-78780000D01*
X155014998Y-88029999D02*
G75*
G02X155015000Y-88830001I1J-400001D01*
G01*
X131489999Y-88030000D02*
X137214998Y-88029999D01*
X146490000Y-80530000D02*
X146490001Y-86030001D01*
X139015000Y-88030001D02*
X144490001Y-88030000D01*
X147290001Y-78780000D02*
G75*
G02X146489999Y-78780000I-400001J0D01*
G01*
X146490000Y-80530000D02*
G75*
G02X147290000Y-80530000I400000J0D01*
G01*
X146490000Y-73029998D02*
G75*
G02X144490001Y-71029999I1000000J2999998D01*
G01*
X144490002Y-88030000D02*
G75*
G02X146490001Y-86030001I2999998J-1000000D01*
G01*
X129490000Y-86030001D02*
G75*
G02X131489999Y-88030000I-1000000J-2999998D01*
G01*
X131489999Y-71030001D02*
G75*
G02X129490000Y-73030000I-2999998J1000000D01*
G01*
X147289999Y-80529999D02*
X147290000Y-86030000D01*
X111689999Y-80529999D02*
X111690000Y-86030000D01*
X111690000Y-73030000D02*
X111689999Y-78780001D01*
X121215000Y-88829999D02*
G75*
G02X121215000Y-88030001I0J399999D01*
G01*
X113690000Y-71030001D02*
X126690001Y-71029999D01*
X119414998Y-88029999D02*
G75*
G02X119415000Y-88830001I1J-400001D01*
G01*
X128690000Y-73029999D02*
X128689999Y-78780000D01*
X113689999Y-88030000D02*
X119414998Y-88029999D01*
X128690000Y-80530000D02*
X128690001Y-86030001D01*
X121215000Y-88030001D02*
X126690001Y-88030000D01*
X129490001Y-78780000D02*
G75*
G02X128689999Y-78780000I-400001J0D01*
G01*
X128690000Y-80530000D02*
G75*
G02X129490000Y-80530000I400000J0D01*
G01*
X128690000Y-73029998D02*
G75*
G02X126690001Y-71029999I1000000J2999998D01*
G01*
X126690002Y-88030000D02*
G75*
G02X128690001Y-86030001I2999998J-1000000D01*
G01*
X111690000Y-86030001D02*
G75*
G02X113689999Y-88030000I-1000000J-2999998D01*
G01*
X113689999Y-71030001D02*
G75*
G02X111690000Y-73030000I-2999998J1000000D01*
G01*
X95889999Y-71030001D02*
G75*
G02X93890000Y-73030000I-2999998J1000000D01*
G01*
X93890000Y-86030001D02*
G75*
G02X95889999Y-88030000I-1000000J-2999998D01*
G01*
X108890002Y-88030000D02*
G75*
G02X110890001Y-86030001I2999998J-1000000D01*
G01*
X110890000Y-73029998D02*
G75*
G02X108890001Y-71029999I1000000J2999998D01*
G01*
X110890000Y-80530000D02*
G75*
G02X111690000Y-80530000I400000J0D01*
G01*
X111690001Y-78780000D02*
G75*
G02X110889999Y-78780000I-400001J0D01*
G01*
X103415000Y-88030001D02*
X108890001Y-88030000D01*
X110890000Y-80530000D02*
X110890001Y-86030001D01*
X101614998Y-88029999D02*
G75*
G02X101615000Y-88830001I1J-400001D01*
G01*
X103415000Y-88829999D02*
G75*
G02X103415000Y-88030001I0J399999D01*
G01*
X95890000Y-71030001D02*
X108890001Y-71029999D01*
X95889999Y-88030000D02*
X101614998Y-88029999D01*
X93890000Y-73030000D02*
X93890000Y-86030000D01*
X110890000Y-73029999D02*
X110889999Y-78780000D01*
M02*
