M48
; DRILL file {KiCad (5.1.4)-1} date 11/01/2020 16:44:29
; FORMAT={-:-/ absolute / metric / decimal}
; #@! TF.CreationDate,2020-01-11T16:44:29+01:00
; #@! TF.GenerationSoftware,Kicad,Pcbnew,(5.1.4)-1
; #@! TF.FileFunction,NonPlated,1,2,NPTH
FMAT,2
METRIC
T1C2.000
T2C3.000
T3C4.000
%
G90
G05
T1
X115.535Y-115.255
X125.695Y-115.255
X97.335Y-132.955
X107.495Y-132.955
X151.135Y-79.655
X161.295Y-79.655
X186.735Y-115.255
X196.895Y-115.255
X115.535Y-133.055
X125.695Y-133.055
X168.935Y-97.455
X179.095Y-97.455
X168.935Y-79.655
X179.095Y-79.655
X168.935Y-133.055
X179.095Y-133.055
X97.335Y-168.555
X107.495Y-168.555
X186.735Y-97.455
X196.895Y-97.455
X186.735Y-79.655
X196.895Y-79.655
X151.135Y-97.455
X161.295Y-97.455
X97.335Y-115.155
X107.495Y-115.155
X132.935Y-132.955
X143.095Y-132.955
X132.935Y-97.355
X143.095Y-97.355
X186.735Y-133.055
X196.895Y-133.055
X168.935Y-115.255
X179.095Y-115.255
X97.335Y-150.755
X107.495Y-150.755
X132.935Y-79.555
X143.095Y-79.555
X115.535Y-97.455
X125.695Y-97.455
X168.935Y-150.855
X179.095Y-150.855
X186.735Y-168.655
X196.895Y-168.655
X97.335Y-79.555
X107.495Y-79.555
X115.535Y-168.655
X125.695Y-168.655
X151.135Y-150.855
X161.295Y-150.855
X115.535Y-79.655
X125.695Y-79.655
X132.935Y-150.755
X143.095Y-150.755
X151.135Y-115.255
X161.295Y-115.255
X168.935Y-168.655
X179.095Y-168.655
X115.535Y-150.855
X125.695Y-150.855
X186.735Y-150.855
X196.895Y-150.855
X132.935Y-168.555
X143.095Y-168.555
X97.335Y-97.355
X107.495Y-97.355
X151.135Y-133.055
X161.295Y-133.055
X151.135Y-168.655
X161.295Y-168.655
X132.935Y-115.155
X143.095Y-115.155
T2
X170.205Y-77.115
X176.555Y-74.575
X170.205Y-130.515
X176.555Y-127.975
X98.605Y-166.015
X104.955Y-163.475
X188.005Y-94.915
X194.355Y-92.375
X188.005Y-77.115
X194.355Y-74.575
X152.405Y-94.915
X158.755Y-92.375
X98.605Y-112.615
X104.955Y-110.075
X134.205Y-130.415
X140.555Y-127.875
X134.205Y-94.815
X140.555Y-92.275
X188.005Y-130.515
X194.355Y-127.975
X170.205Y-112.715
X176.555Y-110.175
X98.605Y-148.215
X104.955Y-145.675
X134.205Y-77.015
X140.555Y-74.475
X116.805Y-94.915
X123.155Y-92.375
X170.205Y-148.315
X176.555Y-145.775
X188.005Y-166.115
X194.355Y-163.575
X98.605Y-77.015
X104.955Y-74.475
X116.805Y-166.115
X123.155Y-163.575
X152.405Y-148.315
X158.755Y-145.775
X116.805Y-77.115
X123.155Y-74.575
X134.205Y-148.215
X140.555Y-145.675
X152.405Y-112.715
X158.755Y-110.175
X170.205Y-166.115
X176.555Y-163.575
X116.805Y-148.315
X123.155Y-145.775
X188.005Y-148.315
X194.355Y-145.775
X134.205Y-166.015
X140.555Y-163.475
X98.605Y-94.815
X104.955Y-92.275
X152.405Y-130.515
X158.755Y-127.975
X152.405Y-166.115
X158.755Y-163.575
X134.205Y-112.615
X140.555Y-110.075
X116.805Y-112.715
X123.155Y-110.175
X98.605Y-130.415
X104.955Y-127.875
X152.405Y-77.115
X158.755Y-74.575
X188.005Y-112.715
X194.355Y-110.175
X116.805Y-130.515
X123.155Y-127.975
X170.205Y-94.915
X176.555Y-92.375
T3
X138.015Y-168.555
X102.415Y-97.355
X156.215Y-133.055
X156.215Y-168.655
X138.015Y-115.155
X120.615Y-115.255
X102.415Y-132.955
X156.215Y-79.655
X191.815Y-115.255
X120.615Y-133.055
X174.015Y-97.455
X174.015Y-79.655
X174.015Y-133.055
X102.415Y-168.555
X191.815Y-97.455
X191.815Y-79.655
X156.215Y-97.455
X102.415Y-115.155
X138.015Y-132.955
X138.015Y-97.355
X191.815Y-133.055
X174.015Y-115.255
X102.415Y-150.755
X138.015Y-79.555
X120.615Y-97.455
X174.015Y-150.855
X191.815Y-168.655
X102.415Y-79.555
X120.615Y-168.655
X156.215Y-150.855
X120.615Y-79.655
X138.015Y-150.755
X156.215Y-115.255
X174.015Y-168.655
X120.615Y-150.855
X191.815Y-150.855
T0
M30
