M48
; DRILL file {KiCad (5.1.4)-1} date 11/01/2020 14:39:52
; FORMAT={-:-/ absolute / metric / decimal}
; #@! TF.CreationDate,2020-01-11T14:39:52+01:00
; #@! TF.GenerationSoftware,Kicad,Pcbnew,(5.1.4)-1
; #@! TF.FileFunction,Plated,1,2,PTH
FMAT,2
METRIC
T1C0.400
T2C0.800
%
G90
G05
T1
X113.49Y-29.83
X113.49Y-47.63
X113.49Y-65.43
X113.49Y-83.23
X113.49Y-101.03
X113.49Y-118.83
X113.89Y-44.83
X113.89Y-62.63
X113.89Y-80.43
X113.89Y-98.23
X113.89Y-116.03
X113.89Y-133.83
X116.14Y-42.53
X116.14Y-60.33
X116.14Y-78.13
X116.14Y-95.93
X116.14Y-113.73
X116.14Y-131.53
X131.29Y-29.83
X131.29Y-47.63
X131.29Y-65.43
X131.29Y-83.23
X131.29Y-101.03
X131.29Y-118.83
X131.69Y-44.83
X131.69Y-62.63
X131.69Y-80.43
X131.69Y-98.23
X131.69Y-116.03
X131.69Y-133.83
X133.94Y-42.53
X133.94Y-60.33
X133.94Y-78.13
X133.94Y-95.93
X133.94Y-113.73
X133.94Y-131.53
X149.09Y-29.83
X149.09Y-47.63
X149.09Y-65.43
X149.09Y-83.23
X149.09Y-101.03
X149.09Y-118.83
X149.49Y-44.83
X149.49Y-62.63
X149.49Y-80.43
X149.49Y-98.23
X149.49Y-116.03
X149.49Y-133.83
X151.74Y-42.53
X151.74Y-60.33
X151.74Y-78.13
X151.74Y-95.93
X151.74Y-113.73
X151.74Y-131.53
X166.89Y-29.83
X166.89Y-47.63
X166.89Y-65.43
X166.89Y-83.23
X166.89Y-101.03
X166.89Y-118.83
X167.29Y-44.83
X167.29Y-62.63
X167.29Y-80.43
X167.29Y-98.23
X167.29Y-116.03
X167.29Y-133.83
X169.54Y-42.53
X169.54Y-60.33
X169.54Y-78.13
X169.54Y-95.93
X169.54Y-113.73
X169.54Y-131.53
X184.69Y-29.83
X184.69Y-47.63
X184.69Y-65.43
X184.69Y-83.23
X184.69Y-101.03
X184.69Y-118.83
X185.09Y-44.83
X185.09Y-62.63
X185.09Y-80.43
X185.09Y-98.23
X185.09Y-116.03
X185.09Y-133.83
X187.34Y-42.53
X187.34Y-60.33
X187.34Y-78.13
X187.34Y-95.93
X187.34Y-113.73
X187.34Y-131.53
X202.49Y-29.83
X202.49Y-47.63
X202.49Y-65.43
X202.49Y-83.23
X202.49Y-101.03
X202.49Y-118.83
X202.89Y-44.83
X202.89Y-62.63
X202.89Y-80.43
X202.89Y-98.23
X202.89Y-116.03
X202.89Y-133.83
X205.14Y-42.53
X205.14Y-60.33
X205.14Y-78.13
X205.14Y-95.93
X205.14Y-113.73
X205.14Y-131.53
T2
X180.29Y-113.33
X138.89Y-65.43
X198.09Y-95.53
X182.39Y-83.23
X144.695Y-103.575
X156.69Y-65.43
X138.89Y-47.63
X183.79Y-76.73
X191.41Y-76.73
X111.19Y-133.83
X156.69Y-118.83
X210.09Y-101.03
X128.99Y-62.63
X198.095Y-85.775
X130.39Y-41.13
X138.01Y-41.13
X162.49Y-77.73
X130.39Y-76.73
X138.01Y-76.73
X141.89Y-95.33
X164.59Y-83.23
X182.39Y-80.43
X213.09Y-59.73
X128.99Y-133.83
X162.49Y-131.13
X112.59Y-58.93
X120.21Y-58.93
X180.29Y-77.73
X128.99Y-44.83
X111.19Y-98.23
X141.89Y-88.315
X164.59Y-62.63
X198.095Y-121.375
X124.09Y-130.93
X124.09Y-123.915
X198.095Y-103.575
X112.59Y-76.73
X120.21Y-76.73
X109.095Y-50.175
X141.89Y-41.93
X156.69Y-133.83
X165.99Y-58.93
X173.61Y-58.93
X198.09Y-131.13
X165.99Y-41.13
X173.61Y-41.13
X146.79Y-118.83
X174.49Y-118.83
X111.19Y-80.43
X121.09Y-62.63
X200.19Y-83.23
X180.295Y-103.575
X111.19Y-44.83
X210.09Y-47.63
X130.39Y-130.13
X138.01Y-130.13
X138.89Y-98.23
X195.29Y-34.915
X200.19Y-133.83
X180.295Y-67.975
X164.59Y-44.83
X213.09Y-52.715
X159.69Y-123.915
X182.39Y-116.03
X109.09Y-77.73
X144.695Y-32.375
X213.09Y-130.93
X183.79Y-41.13
X191.41Y-41.13
X146.79Y-29.83
X162.495Y-85.775
X177.49Y-77.53
X146.79Y-133.83
X130.39Y-58.93
X138.01Y-58.93
X162.49Y-59.93
X200.19Y-118.83
X201.59Y-94.53
X209.21Y-94.53
X109.095Y-121.375
X146.79Y-83.23
X198.095Y-32.375
X180.29Y-42.13
X138.89Y-44.83
X198.095Y-67.975
X183.79Y-58.93
X191.41Y-58.93
X159.69Y-106.115
X124.09Y-70.515
X177.49Y-59.73
X180.29Y-131.13
X210.09Y-98.23
X126.89Y-42.13
X138.89Y-116.03
X159.69Y-130.93
X126.895Y-50.175
X159.69Y-34.915
X192.29Y-116.03
X177.49Y-95.33
X159.69Y-113.13
X111.19Y-116.03
X164.59Y-118.83
X156.69Y-80.43
X146.79Y-62.63
X183.79Y-130.13
X191.41Y-130.13
X213.09Y-123.915
X195.29Y-88.315
X109.095Y-32.375
X195.29Y-59.73
X111.19Y-83.23
X128.99Y-47.63
X213.09Y-34.915
X210.09Y-80.43
X198.095Y-50.175
X124.09Y-106.115
X210.09Y-116.03
X146.79Y-65.43
X146.79Y-47.63
X213.09Y-95.33
X141.89Y-113.13
X159.69Y-77.53
X156.69Y-98.23
X210.09Y-29.83
X195.29Y-70.515
X174.49Y-44.83
X126.89Y-113.33
X141.89Y-123.915
X201.59Y-112.33
X209.21Y-112.33
X164.59Y-133.83
X124.09Y-52.715
X180.295Y-85.775
X165.99Y-76.73
X173.61Y-76.73
X195.29Y-77.53
X111.19Y-118.83
X146.79Y-116.03
X164.59Y-101.03
X195.29Y-113.13
X156.69Y-62.63
X192.29Y-83.23
X138.89Y-29.83
X164.59Y-29.83
X141.89Y-70.515
X148.19Y-58.93
X155.81Y-58.93
X201.59Y-130.13
X209.21Y-130.13
X192.29Y-65.43
X162.495Y-103.575
X144.695Y-85.775
X156.69Y-47.63
X200.19Y-116.03
X124.09Y-41.93
X164.59Y-80.43
X144.69Y-77.73
X124.09Y-77.53
X162.495Y-50.175
X213.09Y-70.515
X121.09Y-133.83
X121.09Y-101.03
X121.09Y-80.43
X213.09Y-106.115
X109.09Y-42.13
X210.09Y-62.63
X138.89Y-118.83
X126.89Y-77.73
X128.99Y-98.23
X192.29Y-80.43
X200.19Y-47.63
X128.99Y-118.83
X124.09Y-88.315
X111.19Y-47.63
X213.09Y-88.315
X195.29Y-106.115
X121.09Y-29.83
X198.09Y-59.93
X109.095Y-103.575
X146.79Y-98.23
X182.39Y-44.83
X192.29Y-118.83
X177.49Y-41.93
X177.49Y-52.715
X128.99Y-101.03
X121.09Y-116.03
X126.89Y-59.93
X111.19Y-62.63
X198.09Y-42.13
X192.29Y-29.83
X156.69Y-29.83
X165.99Y-94.53
X173.61Y-94.53
X162.495Y-67.975
X141.89Y-59.73
X164.59Y-116.03
X192.29Y-133.83
X182.39Y-65.43
X177.49Y-70.515
X156.69Y-116.03
X144.69Y-95.53
X121.09Y-47.63
X180.295Y-121.375
X165.99Y-130.13
X173.61Y-130.13
X112.59Y-41.13
X120.21Y-41.13
X180.29Y-59.93
X112.59Y-112.33
X120.21Y-112.33
X162.495Y-121.375
X126.895Y-67.975
X144.695Y-50.175
X174.49Y-101.03
X210.09Y-133.83
X164.59Y-65.43
X109.09Y-95.53
X159.69Y-41.93
X210.09Y-44.83
X213.09Y-77.53
X109.09Y-131.13
X111.19Y-101.03
X198.09Y-113.33
X146.79Y-80.43
X159.69Y-88.315
X195.29Y-41.93
X174.49Y-83.23
X124.09Y-34.915
X195.29Y-95.33
X126.895Y-103.575
X121.09Y-98.23
X148.19Y-94.53
X155.81Y-94.53
X201.59Y-41.13
X209.21Y-41.13
X146.79Y-44.83
X210.09Y-65.43
X162.495Y-32.375
X174.49Y-133.83
X138.89Y-80.43
X159.69Y-52.715
X200.19Y-80.43
X144.69Y-113.33
X159.69Y-70.515
X126.895Y-85.775
X200.19Y-44.83
X200.19Y-65.43
X182.39Y-98.23
X128.99Y-116.03
X144.695Y-121.375
X162.49Y-113.33
X141.89Y-52.715
X141.89Y-34.915
X174.49Y-65.43
X144.695Y-67.975
X156.69Y-83.23
X174.49Y-98.23
X198.09Y-77.73
X130.39Y-112.33
X138.01Y-112.33
X109.09Y-113.33
X183.79Y-112.33
X191.41Y-112.33
X144.69Y-59.93
X174.49Y-116.03
X121.09Y-44.83
X182.39Y-47.63
X174.49Y-47.63
X195.29Y-123.915
X201.59Y-58.93
X209.21Y-58.93
X177.49Y-106.115
X111.19Y-65.43
X124.09Y-59.73
X213.09Y-113.13
X182.39Y-62.63
X141.89Y-130.93
X121.09Y-83.23
X128.99Y-83.23
X182.39Y-29.83
X182.39Y-133.83
X201.59Y-76.73
X209.21Y-76.73
X146.79Y-101.03
X148.19Y-130.13
X155.81Y-130.13
X130.39Y-94.53
X138.01Y-94.53
X200.19Y-98.23
X177.49Y-113.13
X156.69Y-44.83
X112.59Y-94.53
X120.21Y-94.53
X126.89Y-95.53
X164.59Y-47.63
X177.49Y-123.915
X162.49Y-42.13
X180.29Y-95.53
X138.89Y-101.03
X156.69Y-101.03
X192.29Y-101.03
X138.89Y-83.23
X109.09Y-59.93
X180.295Y-32.375
X128.99Y-29.83
X200.19Y-62.63
X126.89Y-131.13
X128.99Y-65.43
X192.29Y-44.83
X192.29Y-47.63
X121.09Y-118.83
X126.895Y-121.375
X121.09Y-65.43
X148.19Y-41.13
X155.81Y-41.13
X200.19Y-29.83
X182.39Y-101.03
X126.895Y-32.375
X162.49Y-95.53
X144.69Y-131.13
X138.89Y-62.63
X195.29Y-130.93
X210.09Y-118.83
X192.29Y-98.23
X174.49Y-29.83
X148.19Y-112.33
X155.81Y-112.33
X124.09Y-95.33
X109.095Y-67.975
X165.99Y-112.33
X173.61Y-112.33
X164.59Y-98.23
X192.29Y-62.63
X124.09Y-113.13
X177.49Y-130.93
X128.99Y-80.43
X159.69Y-59.73
X174.49Y-62.63
X182.39Y-118.83
X177.49Y-88.315
X183.79Y-94.53
X191.41Y-94.53
X112.59Y-130.13
X120.21Y-130.13
X141.89Y-77.53
X159.69Y-95.33
X144.69Y-42.13
X111.19Y-29.83
X195.29Y-52.715
X109.095Y-85.775
X210.09Y-83.23
X174.49Y-80.43
X141.89Y-106.115
X148.19Y-76.73
X155.81Y-76.73
X213.09Y-41.93
X177.49Y-34.915
X180.295Y-50.175
X138.89Y-133.83
X200.19Y-101.03
T0
M30
