G04 #@! TF.GenerationSoftware,KiCad,Pcbnew,(5.1.4)-1*
G04 #@! TF.CreationDate,2020-01-11T14:36:43+01:00*
G04 #@! TF.ProjectId,plaque2,706c6171-7565-4322-9e6b-696361645f70,1*
G04 #@! TF.SameCoordinates,Original*
G04 #@! TF.FileFunction,Copper,L2,Bot*
G04 #@! TF.FilePolarity,Positive*
%FSLAX46Y46*%
G04 Gerber Fmt 4.6, Leading zero omitted, Abs format (unit mm)*
G04 Created by KiCad (PCBNEW (5.1.4)-1) date 2020-01-11 14:36:43*
%MOMM*%
%LPD*%
G04 APERTURE LIST*
%ADD10C,0.100000*%
%ADD11C,0.150000*%
%ADD12C,0.300000*%
%ADD13C,0.400000*%
%ADD14C,1.800000*%
%ADD15R,2.550000X2.500000*%
%ADD16R,1.600000X1.600000*%
%ADD17R,1.300000X0.950000*%
%ADD18C,0.800000*%
%ADD19C,0.800000*%
G04 APERTURE END LIST*
D10*
D11*
X177002200Y-166007200D02*
X177002200Y-198007200D01*
X285002200Y-198007200D01*
X285002200Y-166007200D01*
X177002200Y-166007200D01*
D10*
D11*
X10000000Y-10000000D02*
X10000000Y-200007200D01*
X287002200Y-200007200D01*
X287002200Y-10000000D01*
X10000000Y-10000000D01*
D10*
D11*
X12000000Y-12000000D02*
X12000000Y-198007200D01*
X285002200Y-198007200D01*
X285002200Y-12000000D01*
X12000000Y-12000000D01*
D10*
D11*
X60000000Y-12000000D02*
X60000000Y-10000000D01*
D10*
D11*
X110000000Y-12000000D02*
X110000000Y-10000000D01*
D10*
D11*
X160000000Y-12000000D02*
X160000000Y-10000000D01*
D10*
D11*
X210000000Y-12000000D02*
X210000000Y-10000000D01*
D10*
D11*
X260000000Y-12000000D02*
X260000000Y-10000000D01*
D10*
D11*
X36065476Y-11588095D02*
X35322619Y-11588095D01*
X35694047Y-11588095D02*
X35694047Y-10288095D01*
X35570238Y-10473809D01*
X35446428Y-10597619D01*
X35322619Y-10659523D01*
D10*
D11*
X85322619Y-10411904D02*
X85384523Y-10350000D01*
X85508333Y-10288095D01*
X85817857Y-10288095D01*
X85941666Y-10350000D01*
X86003571Y-10411904D01*
X86065476Y-10535714D01*
X86065476Y-10659523D01*
X86003571Y-10845238D01*
X85260714Y-11588095D01*
X86065476Y-11588095D01*
D10*
D11*
X135260714Y-10288095D02*
X136065476Y-10288095D01*
X135632142Y-10783333D01*
X135817857Y-10783333D01*
X135941666Y-10845238D01*
X136003571Y-10907142D01*
X136065476Y-11030952D01*
X136065476Y-11340476D01*
X136003571Y-11464285D01*
X135941666Y-11526190D01*
X135817857Y-11588095D01*
X135446428Y-11588095D01*
X135322619Y-11526190D01*
X135260714Y-11464285D01*
D10*
D11*
X185941666Y-10721428D02*
X185941666Y-11588095D01*
X185632142Y-10226190D02*
X185322619Y-11154761D01*
X186127380Y-11154761D01*
D10*
D11*
X236003571Y-10288095D02*
X235384523Y-10288095D01*
X235322619Y-10907142D01*
X235384523Y-10845238D01*
X235508333Y-10783333D01*
X235817857Y-10783333D01*
X235941666Y-10845238D01*
X236003571Y-10907142D01*
X236065476Y-11030952D01*
X236065476Y-11340476D01*
X236003571Y-11464285D01*
X235941666Y-11526190D01*
X235817857Y-11588095D01*
X235508333Y-11588095D01*
X235384523Y-11526190D01*
X235322619Y-11464285D01*
D10*
D11*
X285941666Y-10288095D02*
X285694047Y-10288095D01*
X285570238Y-10350000D01*
X285508333Y-10411904D01*
X285384523Y-10597619D01*
X285322619Y-10845238D01*
X285322619Y-11340476D01*
X285384523Y-11464285D01*
X285446428Y-11526190D01*
X285570238Y-11588095D01*
X285817857Y-11588095D01*
X285941666Y-11526190D01*
X286003571Y-11464285D01*
X286065476Y-11340476D01*
X286065476Y-11030952D01*
X286003571Y-10907142D01*
X285941666Y-10845238D01*
X285817857Y-10783333D01*
X285570238Y-10783333D01*
X285446428Y-10845238D01*
X285384523Y-10907142D01*
X285322619Y-11030952D01*
D10*
D11*
X60000000Y-198007200D02*
X60000000Y-200007200D01*
D10*
D11*
X110000000Y-198007200D02*
X110000000Y-200007200D01*
D10*
D11*
X160000000Y-198007200D02*
X160000000Y-200007200D01*
D10*
D11*
X210000000Y-198007200D02*
X210000000Y-200007200D01*
D10*
D11*
X260000000Y-198007200D02*
X260000000Y-200007200D01*
D10*
D11*
X36065476Y-199595295D02*
X35322619Y-199595295D01*
X35694047Y-199595295D02*
X35694047Y-198295295D01*
X35570238Y-198481009D01*
X35446428Y-198604819D01*
X35322619Y-198666723D01*
D10*
D11*
X85322619Y-198419104D02*
X85384523Y-198357200D01*
X85508333Y-198295295D01*
X85817857Y-198295295D01*
X85941666Y-198357200D01*
X86003571Y-198419104D01*
X86065476Y-198542914D01*
X86065476Y-198666723D01*
X86003571Y-198852438D01*
X85260714Y-199595295D01*
X86065476Y-199595295D01*
D10*
D11*
X135260714Y-198295295D02*
X136065476Y-198295295D01*
X135632142Y-198790533D01*
X135817857Y-198790533D01*
X135941666Y-198852438D01*
X136003571Y-198914342D01*
X136065476Y-199038152D01*
X136065476Y-199347676D01*
X136003571Y-199471485D01*
X135941666Y-199533390D01*
X135817857Y-199595295D01*
X135446428Y-199595295D01*
X135322619Y-199533390D01*
X135260714Y-199471485D01*
D10*
D11*
X185941666Y-198728628D02*
X185941666Y-199595295D01*
X185632142Y-198233390D02*
X185322619Y-199161961D01*
X186127380Y-199161961D01*
D10*
D11*
X236003571Y-198295295D02*
X235384523Y-198295295D01*
X235322619Y-198914342D01*
X235384523Y-198852438D01*
X235508333Y-198790533D01*
X235817857Y-198790533D01*
X235941666Y-198852438D01*
X236003571Y-198914342D01*
X236065476Y-199038152D01*
X236065476Y-199347676D01*
X236003571Y-199471485D01*
X235941666Y-199533390D01*
X235817857Y-199595295D01*
X235508333Y-199595295D01*
X235384523Y-199533390D01*
X235322619Y-199471485D01*
D10*
D11*
X285941666Y-198295295D02*
X285694047Y-198295295D01*
X285570238Y-198357200D01*
X285508333Y-198419104D01*
X285384523Y-198604819D01*
X285322619Y-198852438D01*
X285322619Y-199347676D01*
X285384523Y-199471485D01*
X285446428Y-199533390D01*
X285570238Y-199595295D01*
X285817857Y-199595295D01*
X285941666Y-199533390D01*
X286003571Y-199471485D01*
X286065476Y-199347676D01*
X286065476Y-199038152D01*
X286003571Y-198914342D01*
X285941666Y-198852438D01*
X285817857Y-198790533D01*
X285570238Y-198790533D01*
X285446428Y-198852438D01*
X285384523Y-198914342D01*
X285322619Y-199038152D01*
D10*
D11*
X10000000Y-60000000D02*
X12000000Y-60000000D01*
D10*
D11*
X10000000Y-110000000D02*
X12000000Y-110000000D01*
D10*
D11*
X10000000Y-160000000D02*
X12000000Y-160000000D01*
D10*
D11*
X10690476Y-35216666D02*
X11309523Y-35216666D01*
X10566666Y-35588095D02*
X11000000Y-34288095D01*
X11433333Y-35588095D01*
D10*
D11*
X11092857Y-84907142D02*
X11278571Y-84969047D01*
X11340476Y-85030952D01*
X11402380Y-85154761D01*
X11402380Y-85340476D01*
X11340476Y-85464285D01*
X11278571Y-85526190D01*
X11154761Y-85588095D01*
X10659523Y-85588095D01*
X10659523Y-84288095D01*
X11092857Y-84288095D01*
X11216666Y-84350000D01*
X11278571Y-84411904D01*
X11340476Y-84535714D01*
X11340476Y-84659523D01*
X11278571Y-84783333D01*
X11216666Y-84845238D01*
X11092857Y-84907142D01*
X10659523Y-84907142D01*
D10*
D11*
X11402380Y-135464285D02*
X11340476Y-135526190D01*
X11154761Y-135588095D01*
X11030952Y-135588095D01*
X10845238Y-135526190D01*
X10721428Y-135402380D01*
X10659523Y-135278571D01*
X10597619Y-135030952D01*
X10597619Y-134845238D01*
X10659523Y-134597619D01*
X10721428Y-134473809D01*
X10845238Y-134350000D01*
X11030952Y-134288095D01*
X11154761Y-134288095D01*
X11340476Y-134350000D01*
X11402380Y-134411904D01*
D10*
D11*
X10659523Y-185588095D02*
X10659523Y-184288095D01*
X10969047Y-184288095D01*
X11154761Y-184350000D01*
X11278571Y-184473809D01*
X11340476Y-184597619D01*
X11402380Y-184845238D01*
X11402380Y-185030952D01*
X11340476Y-185278571D01*
X11278571Y-185402380D01*
X11154761Y-185526190D01*
X10969047Y-185588095D01*
X10659523Y-185588095D01*
D10*
D11*
X287002200Y-60000000D02*
X285002200Y-60000000D01*
D10*
D11*
X287002200Y-110000000D02*
X285002200Y-110000000D01*
D10*
D11*
X287002200Y-160000000D02*
X285002200Y-160000000D01*
D10*
D11*
X285692676Y-35216666D02*
X286311723Y-35216666D01*
X285568866Y-35588095D02*
X286002200Y-34288095D01*
X286435533Y-35588095D01*
D10*
D11*
X286095057Y-84907142D02*
X286280771Y-84969047D01*
X286342676Y-85030952D01*
X286404580Y-85154761D01*
X286404580Y-85340476D01*
X286342676Y-85464285D01*
X286280771Y-85526190D01*
X286156961Y-85588095D01*
X285661723Y-85588095D01*
X285661723Y-84288095D01*
X286095057Y-84288095D01*
X286218866Y-84350000D01*
X286280771Y-84411904D01*
X286342676Y-84535714D01*
X286342676Y-84659523D01*
X286280771Y-84783333D01*
X286218866Y-84845238D01*
X286095057Y-84907142D01*
X285661723Y-84907142D01*
D10*
D11*
X286404580Y-135464285D02*
X286342676Y-135526190D01*
X286156961Y-135588095D01*
X286033152Y-135588095D01*
X285847438Y-135526190D01*
X285723628Y-135402380D01*
X285661723Y-135278571D01*
X285599819Y-135030952D01*
X285599819Y-134845238D01*
X285661723Y-134597619D01*
X285723628Y-134473809D01*
X285847438Y-134350000D01*
X286033152Y-134288095D01*
X286156961Y-134288095D01*
X286342676Y-134350000D01*
X286404580Y-134411904D01*
D10*
D11*
X285661723Y-185588095D02*
X285661723Y-184288095D01*
X285971247Y-184288095D01*
X286156961Y-184350000D01*
X286280771Y-184473809D01*
X286342676Y-184597619D01*
X286404580Y-184845238D01*
X286404580Y-185030952D01*
X286342676Y-185278571D01*
X286280771Y-185402380D01*
X286156961Y-185526190D01*
X285971247Y-185588095D01*
X285661723Y-185588095D01*
D10*
D11*
X200434342Y-193785771D02*
X200434342Y-192285771D01*
X200791485Y-192285771D01*
X201005771Y-192357200D01*
X201148628Y-192500057D01*
X201220057Y-192642914D01*
X201291485Y-192928628D01*
X201291485Y-193142914D01*
X201220057Y-193428628D01*
X201148628Y-193571485D01*
X201005771Y-193714342D01*
X200791485Y-193785771D01*
X200434342Y-193785771D01*
X202577200Y-193785771D02*
X202577200Y-193000057D01*
X202505771Y-192857200D01*
X202362914Y-192785771D01*
X202077200Y-192785771D01*
X201934342Y-192857200D01*
X202577200Y-193714342D02*
X202434342Y-193785771D01*
X202077200Y-193785771D01*
X201934342Y-193714342D01*
X201862914Y-193571485D01*
X201862914Y-193428628D01*
X201934342Y-193285771D01*
X202077200Y-193214342D01*
X202434342Y-193214342D01*
X202577200Y-193142914D01*
X203077200Y-192785771D02*
X203648628Y-192785771D01*
X203291485Y-192285771D02*
X203291485Y-193571485D01*
X203362914Y-193714342D01*
X203505771Y-193785771D01*
X203648628Y-193785771D01*
X204720057Y-193714342D02*
X204577200Y-193785771D01*
X204291485Y-193785771D01*
X204148628Y-193714342D01*
X204077200Y-193571485D01*
X204077200Y-193000057D01*
X204148628Y-192857200D01*
X204291485Y-192785771D01*
X204577200Y-192785771D01*
X204720057Y-192857200D01*
X204791485Y-193000057D01*
X204791485Y-193142914D01*
X204077200Y-193285771D01*
X205434342Y-193642914D02*
X205505771Y-193714342D01*
X205434342Y-193785771D01*
X205362914Y-193714342D01*
X205434342Y-193642914D01*
X205434342Y-193785771D01*
X205434342Y-192857200D02*
X205505771Y-192928628D01*
X205434342Y-193000057D01*
X205362914Y-192928628D01*
X205434342Y-192857200D01*
X205434342Y-193000057D01*
X207220057Y-192428628D02*
X207291485Y-192357200D01*
X207434342Y-192285771D01*
X207791485Y-192285771D01*
X207934342Y-192357200D01*
X208005771Y-192428628D01*
X208077200Y-192571485D01*
X208077200Y-192714342D01*
X208005771Y-192928628D01*
X207148628Y-193785771D01*
X208077200Y-193785771D01*
X209005771Y-192285771D02*
X209148628Y-192285771D01*
X209291485Y-192357200D01*
X209362914Y-192428628D01*
X209434342Y-192571485D01*
X209505771Y-192857200D01*
X209505771Y-193214342D01*
X209434342Y-193500057D01*
X209362914Y-193642914D01*
X209291485Y-193714342D01*
X209148628Y-193785771D01*
X209005771Y-193785771D01*
X208862914Y-193714342D01*
X208791485Y-193642914D01*
X208720057Y-193500057D01*
X208648628Y-193214342D01*
X208648628Y-192857200D01*
X208720057Y-192571485D01*
X208791485Y-192428628D01*
X208862914Y-192357200D01*
X209005771Y-192285771D01*
X210934342Y-193785771D02*
X210077200Y-193785771D01*
X210505771Y-193785771D02*
X210505771Y-192285771D01*
X210362914Y-192500057D01*
X210220057Y-192642914D01*
X210077200Y-192714342D01*
X211791485Y-192928628D02*
X211648628Y-192857200D01*
X211577200Y-192785771D01*
X211505771Y-192642914D01*
X211505771Y-192571485D01*
X211577200Y-192428628D01*
X211648628Y-192357200D01*
X211791485Y-192285771D01*
X212077200Y-192285771D01*
X212220057Y-192357200D01*
X212291485Y-192428628D01*
X212362914Y-192571485D01*
X212362914Y-192642914D01*
X212291485Y-192785771D01*
X212220057Y-192857200D01*
X212077200Y-192928628D01*
X211791485Y-192928628D01*
X211648628Y-193000057D01*
X211577200Y-193071485D01*
X211505771Y-193214342D01*
X211505771Y-193500057D01*
X211577200Y-193642914D01*
X211648628Y-193714342D01*
X211791485Y-193785771D01*
X212077200Y-193785771D01*
X212220057Y-193714342D01*
X212291485Y-193642914D01*
X212362914Y-193500057D01*
X212362914Y-193214342D01*
X212291485Y-193071485D01*
X212220057Y-193000057D01*
X212077200Y-192928628D01*
X213005771Y-193214342D02*
X214148628Y-193214342D01*
X215148628Y-192285771D02*
X215291485Y-192285771D01*
X215434342Y-192357200D01*
X215505771Y-192428628D01*
X215577200Y-192571485D01*
X215648628Y-192857200D01*
X215648628Y-193214342D01*
X215577200Y-193500057D01*
X215505771Y-193642914D01*
X215434342Y-193714342D01*
X215291485Y-193785771D01*
X215148628Y-193785771D01*
X215005771Y-193714342D01*
X214934342Y-193642914D01*
X214862914Y-193500057D01*
X214791485Y-193214342D01*
X214791485Y-192857200D01*
X214862914Y-192571485D01*
X214934342Y-192428628D01*
X215005771Y-192357200D01*
X215148628Y-192285771D01*
X216362914Y-193785771D02*
X216648628Y-193785771D01*
X216791485Y-193714342D01*
X216862914Y-193642914D01*
X217005771Y-193428628D01*
X217077200Y-193142914D01*
X217077200Y-192571485D01*
X217005771Y-192428628D01*
X216934342Y-192357200D01*
X216791485Y-192285771D01*
X216505771Y-192285771D01*
X216362914Y-192357200D01*
X216291485Y-192428628D01*
X216220057Y-192571485D01*
X216220057Y-192928628D01*
X216291485Y-193071485D01*
X216362914Y-193142914D01*
X216505771Y-193214342D01*
X216791485Y-193214342D01*
X216934342Y-193142914D01*
X217005771Y-193071485D01*
X217077200Y-192928628D01*
X217720057Y-193214342D02*
X218862914Y-193214342D01*
X220362914Y-193785771D02*
X219505771Y-193785771D01*
X219934342Y-193785771D02*
X219934342Y-192285771D01*
X219791485Y-192500057D01*
X219648628Y-192642914D01*
X219505771Y-192714342D01*
X221720057Y-192285771D02*
X221005771Y-192285771D01*
X220934342Y-193000057D01*
X221005771Y-192928628D01*
X221148628Y-192857200D01*
X221505771Y-192857200D01*
X221648628Y-192928628D01*
X221720057Y-193000057D01*
X221791485Y-193142914D01*
X221791485Y-193500057D01*
X221720057Y-193642914D01*
X221648628Y-193714342D01*
X221505771Y-193785771D01*
X221148628Y-193785771D01*
X221005771Y-193714342D01*
X220934342Y-193642914D01*
D10*
D11*
X177002200Y-194507200D02*
X285002200Y-194507200D01*
D10*
D11*
X178434342Y-196585771D02*
X178434342Y-195085771D01*
X179291485Y-196585771D02*
X178648628Y-195728628D01*
X179291485Y-195085771D02*
X178434342Y-195942914D01*
X179934342Y-196585771D02*
X179934342Y-195585771D01*
X179934342Y-195085771D02*
X179862914Y-195157200D01*
X179934342Y-195228628D01*
X180005771Y-195157200D01*
X179934342Y-195085771D01*
X179934342Y-195228628D01*
X181505771Y-196442914D02*
X181434342Y-196514342D01*
X181220057Y-196585771D01*
X181077200Y-196585771D01*
X180862914Y-196514342D01*
X180720057Y-196371485D01*
X180648628Y-196228628D01*
X180577200Y-195942914D01*
X180577200Y-195728628D01*
X180648628Y-195442914D01*
X180720057Y-195300057D01*
X180862914Y-195157200D01*
X181077200Y-195085771D01*
X181220057Y-195085771D01*
X181434342Y-195157200D01*
X181505771Y-195228628D01*
X182791485Y-196585771D02*
X182791485Y-195800057D01*
X182720057Y-195657200D01*
X182577200Y-195585771D01*
X182291485Y-195585771D01*
X182148628Y-195657200D01*
X182791485Y-196514342D02*
X182648628Y-196585771D01*
X182291485Y-196585771D01*
X182148628Y-196514342D01*
X182077200Y-196371485D01*
X182077200Y-196228628D01*
X182148628Y-196085771D01*
X182291485Y-196014342D01*
X182648628Y-196014342D01*
X182791485Y-195942914D01*
X184148628Y-196585771D02*
X184148628Y-195085771D01*
X184148628Y-196514342D02*
X184005771Y-196585771D01*
X183720057Y-196585771D01*
X183577200Y-196514342D01*
X183505771Y-196442914D01*
X183434342Y-196300057D01*
X183434342Y-195871485D01*
X183505771Y-195728628D01*
X183577200Y-195657200D01*
X183720057Y-195585771D01*
X184005771Y-195585771D01*
X184148628Y-195657200D01*
X186005771Y-195800057D02*
X186505771Y-195800057D01*
X186720057Y-196585771D02*
X186005771Y-196585771D01*
X186005771Y-195085771D01*
X186720057Y-195085771D01*
X187362914Y-196442914D02*
X187434342Y-196514342D01*
X187362914Y-196585771D01*
X187291485Y-196514342D01*
X187362914Y-196442914D01*
X187362914Y-196585771D01*
X188077200Y-196585771D02*
X188077200Y-195085771D01*
X188434342Y-195085771D01*
X188648628Y-195157200D01*
X188791485Y-195300057D01*
X188862914Y-195442914D01*
X188934342Y-195728628D01*
X188934342Y-195942914D01*
X188862914Y-196228628D01*
X188791485Y-196371485D01*
X188648628Y-196514342D01*
X188434342Y-196585771D01*
X188077200Y-196585771D01*
X189577200Y-196442914D02*
X189648628Y-196514342D01*
X189577200Y-196585771D01*
X189505771Y-196514342D01*
X189577200Y-196442914D01*
X189577200Y-196585771D01*
X190220057Y-196157200D02*
X190934342Y-196157200D01*
X190077200Y-196585771D02*
X190577200Y-195085771D01*
X191077200Y-196585771D01*
X191577200Y-196442914D02*
X191648628Y-196514342D01*
X191577200Y-196585771D01*
X191505771Y-196514342D01*
X191577200Y-196442914D01*
X191577200Y-196585771D01*
X194577200Y-195585771D02*
X194577200Y-197085771D01*
X194577200Y-195657200D02*
X194720057Y-195585771D01*
X195005771Y-195585771D01*
X195148628Y-195657200D01*
X195220057Y-195728628D01*
X195291485Y-195871485D01*
X195291485Y-196300057D01*
X195220057Y-196442914D01*
X195148628Y-196514342D01*
X195005771Y-196585771D01*
X194720057Y-196585771D01*
X194577200Y-196514342D01*
X196577200Y-196514342D02*
X196434342Y-196585771D01*
X196148628Y-196585771D01*
X196005771Y-196514342D01*
X195934342Y-196442914D01*
X195862914Y-196300057D01*
X195862914Y-195871485D01*
X195934342Y-195728628D01*
X196005771Y-195657200D01*
X196148628Y-195585771D01*
X196434342Y-195585771D01*
X196577200Y-195657200D01*
X197220057Y-196585771D02*
X197220057Y-195085771D01*
X197220057Y-195657200D02*
X197362914Y-195585771D01*
X197648628Y-195585771D01*
X197791485Y-195657200D01*
X197862914Y-195728628D01*
X197934342Y-195871485D01*
X197934342Y-196300057D01*
X197862914Y-196442914D01*
X197791485Y-196514342D01*
X197648628Y-196585771D01*
X197362914Y-196585771D01*
X197220057Y-196514342D01*
X198577200Y-195585771D02*
X198577200Y-196585771D01*
X198577200Y-195728628D02*
X198648628Y-195657200D01*
X198791485Y-195585771D01*
X199005771Y-195585771D01*
X199148628Y-195657200D01*
X199220057Y-195800057D01*
X199220057Y-196585771D01*
X200505771Y-196514342D02*
X200362914Y-196585771D01*
X200077200Y-196585771D01*
X199934342Y-196514342D01*
X199862914Y-196371485D01*
X199862914Y-195800057D01*
X199934342Y-195657200D01*
X200077200Y-195585771D01*
X200362914Y-195585771D01*
X200505771Y-195657200D01*
X200577200Y-195800057D01*
X200577200Y-195942914D01*
X199862914Y-196085771D01*
X201077200Y-195585771D02*
X201362914Y-196585771D01*
X201648628Y-195871485D01*
X201934342Y-196585771D01*
X202220057Y-195585771D01*
X204362914Y-197157200D02*
X204291485Y-197085771D01*
X204148628Y-196871485D01*
X204077200Y-196728628D01*
X204005771Y-196514342D01*
X203934342Y-196157200D01*
X203934342Y-195871485D01*
X204005771Y-195514342D01*
X204077200Y-195300057D01*
X204148628Y-195157200D01*
X204291485Y-194942914D01*
X204362914Y-194871485D01*
X205648628Y-195085771D02*
X204934342Y-195085771D01*
X204862914Y-195800057D01*
X204934342Y-195728628D01*
X205077200Y-195657200D01*
X205434342Y-195657200D01*
X205577200Y-195728628D01*
X205648628Y-195800057D01*
X205720057Y-195942914D01*
X205720057Y-196300057D01*
X205648628Y-196442914D01*
X205577200Y-196514342D01*
X205434342Y-196585771D01*
X205077200Y-196585771D01*
X204934342Y-196514342D01*
X204862914Y-196442914D01*
X206362914Y-196442914D02*
X206434342Y-196514342D01*
X206362914Y-196585771D01*
X206291485Y-196514342D01*
X206362914Y-196442914D01*
X206362914Y-196585771D01*
X207862914Y-196585771D02*
X207005771Y-196585771D01*
X207434342Y-196585771D02*
X207434342Y-195085771D01*
X207291485Y-195300057D01*
X207148628Y-195442914D01*
X207005771Y-195514342D01*
X208505771Y-196442914D02*
X208577200Y-196514342D01*
X208505771Y-196585771D01*
X208434342Y-196514342D01*
X208505771Y-196442914D01*
X208505771Y-196585771D01*
X209862914Y-195585771D02*
X209862914Y-196585771D01*
X209505771Y-195014342D02*
X209148628Y-196085771D01*
X210077200Y-196085771D01*
X210505771Y-197157200D02*
X210577200Y-197085771D01*
X210720057Y-196871485D01*
X210791485Y-196728628D01*
X210862914Y-196514342D01*
X210934342Y-196157200D01*
X210934342Y-195871485D01*
X210862914Y-195514342D01*
X210791485Y-195300057D01*
X210720057Y-195157200D01*
X210577200Y-194942914D01*
X210505771Y-194871485D01*
X211648628Y-196014342D02*
X212791485Y-196014342D01*
X214291485Y-196585771D02*
X213434342Y-196585771D01*
X213862914Y-196585771D02*
X213862914Y-195085771D01*
X213720057Y-195300057D01*
X213577200Y-195442914D01*
X213434342Y-195514342D01*
D10*
D11*
X177002200Y-191507200D02*
X285002200Y-191507200D01*
D10*
D12*
X264411485Y-193785771D02*
X263911485Y-193071485D01*
X263554342Y-193785771D02*
X263554342Y-192285771D01*
X264125771Y-192285771D01*
X264268628Y-192357200D01*
X264340057Y-192428628D01*
X264411485Y-192571485D01*
X264411485Y-192785771D01*
X264340057Y-192928628D01*
X264268628Y-193000057D01*
X264125771Y-193071485D01*
X263554342Y-193071485D01*
X265625771Y-193714342D02*
X265482914Y-193785771D01*
X265197200Y-193785771D01*
X265054342Y-193714342D01*
X264982914Y-193571485D01*
X264982914Y-193000057D01*
X265054342Y-192857200D01*
X265197200Y-192785771D01*
X265482914Y-192785771D01*
X265625771Y-192857200D01*
X265697200Y-193000057D01*
X265697200Y-193142914D01*
X264982914Y-193285771D01*
X266197200Y-192785771D02*
X266554342Y-193785771D01*
X266911485Y-192785771D01*
X267482914Y-193642914D02*
X267554342Y-193714342D01*
X267482914Y-193785771D01*
X267411485Y-193714342D01*
X267482914Y-193642914D01*
X267482914Y-193785771D01*
X267482914Y-192857200D02*
X267554342Y-192928628D01*
X267482914Y-193000057D01*
X267411485Y-192928628D01*
X267482914Y-192857200D01*
X267482914Y-193000057D01*
X270125771Y-193785771D02*
X269268628Y-193785771D01*
X269697200Y-193785771D02*
X269697200Y-192285771D01*
X269554342Y-192500057D01*
X269411485Y-192642914D01*
X269268628Y-192714342D01*
D10*
D11*
X178362914Y-193714342D02*
X178577200Y-193785771D01*
X178934342Y-193785771D01*
X179077200Y-193714342D01*
X179148628Y-193642914D01*
X179220057Y-193500057D01*
X179220057Y-193357200D01*
X179148628Y-193214342D01*
X179077200Y-193142914D01*
X178934342Y-193071485D01*
X178648628Y-193000057D01*
X178505771Y-192928628D01*
X178434342Y-192857200D01*
X178362914Y-192714342D01*
X178362914Y-192571485D01*
X178434342Y-192428628D01*
X178505771Y-192357200D01*
X178648628Y-192285771D01*
X179005771Y-192285771D01*
X179220057Y-192357200D01*
X179862914Y-193785771D02*
X179862914Y-192785771D01*
X179862914Y-192285771D02*
X179791485Y-192357200D01*
X179862914Y-192428628D01*
X179934342Y-192357200D01*
X179862914Y-192285771D01*
X179862914Y-192428628D01*
X180434342Y-192785771D02*
X181220057Y-192785771D01*
X180434342Y-193785771D01*
X181220057Y-193785771D01*
X182362914Y-193714342D02*
X182220057Y-193785771D01*
X181934342Y-193785771D01*
X181791485Y-193714342D01*
X181720057Y-193571485D01*
X181720057Y-193000057D01*
X181791485Y-192857200D01*
X181934342Y-192785771D01*
X182220057Y-192785771D01*
X182362914Y-192857200D01*
X182434342Y-193000057D01*
X182434342Y-193142914D01*
X181720057Y-193285771D01*
X183077200Y-193642914D02*
X183148628Y-193714342D01*
X183077200Y-193785771D01*
X183005771Y-193714342D01*
X183077200Y-193642914D01*
X183077200Y-193785771D01*
X183077200Y-192857200D02*
X183148628Y-192928628D01*
X183077200Y-193000057D01*
X183005771Y-192928628D01*
X183077200Y-192857200D01*
X183077200Y-193000057D01*
X184862914Y-193357200D02*
X185577200Y-193357200D01*
X184720057Y-193785771D02*
X185220057Y-192285771D01*
X185720057Y-193785771D01*
X186862914Y-192785771D02*
X186862914Y-193785771D01*
X186505771Y-192214342D02*
X186148628Y-193285771D01*
X187077200Y-193285771D01*
D10*
D11*
X263434342Y-196585771D02*
X263434342Y-195085771D01*
X264791485Y-196585771D02*
X264791485Y-195085771D01*
X264791485Y-196514342D02*
X264648628Y-196585771D01*
X264362914Y-196585771D01*
X264220057Y-196514342D01*
X264148628Y-196442914D01*
X264077200Y-196300057D01*
X264077200Y-195871485D01*
X264148628Y-195728628D01*
X264220057Y-195657200D01*
X264362914Y-195585771D01*
X264648628Y-195585771D01*
X264791485Y-195657200D01*
X265505771Y-196442914D02*
X265577200Y-196514342D01*
X265505771Y-196585771D01*
X265434342Y-196514342D01*
X265505771Y-196442914D01*
X265505771Y-196585771D01*
X265505771Y-195657200D02*
X265577200Y-195728628D01*
X265505771Y-195800057D01*
X265434342Y-195728628D01*
X265505771Y-195657200D01*
X265505771Y-195800057D01*
X268148628Y-196585771D02*
X267291485Y-196585771D01*
X267720057Y-196585771D02*
X267720057Y-195085771D01*
X267577200Y-195300057D01*
X267434342Y-195442914D01*
X267291485Y-195514342D01*
X269862914Y-195014342D02*
X268577200Y-196942914D01*
X271148628Y-196585771D02*
X270291485Y-196585771D01*
X270720057Y-196585771D02*
X270720057Y-195085771D01*
X270577200Y-195300057D01*
X270434342Y-195442914D01*
X270291485Y-195514342D01*
D10*
D11*
X177002200Y-187507200D02*
X285002200Y-187507200D01*
D10*
D13*
X178714580Y-188211961D02*
X179857438Y-188211961D01*
X179036009Y-190211961D02*
X179286009Y-188211961D01*
X180274104Y-190211961D02*
X180440771Y-188878628D01*
X180524104Y-188211961D02*
X180416961Y-188307200D01*
X180500295Y-188402438D01*
X180607438Y-188307200D01*
X180524104Y-188211961D01*
X180500295Y-188402438D01*
X181107438Y-188878628D02*
X181869342Y-188878628D01*
X181476485Y-188211961D02*
X181262200Y-189926247D01*
X181333628Y-190116723D01*
X181512200Y-190211961D01*
X181702676Y-190211961D01*
X182655057Y-190211961D02*
X182476485Y-190116723D01*
X182405057Y-189926247D01*
X182619342Y-188211961D01*
X184190771Y-190116723D02*
X183988390Y-190211961D01*
X183607438Y-190211961D01*
X183428866Y-190116723D01*
X183357438Y-189926247D01*
X183452676Y-189164342D01*
X183571723Y-188973866D01*
X183774104Y-188878628D01*
X184155057Y-188878628D01*
X184333628Y-188973866D01*
X184405057Y-189164342D01*
X184381247Y-189354819D01*
X183405057Y-189545295D01*
X185155057Y-190021485D02*
X185238390Y-190116723D01*
X185131247Y-190211961D01*
X185047914Y-190116723D01*
X185155057Y-190021485D01*
X185131247Y-190211961D01*
X185286009Y-188973866D02*
X185369342Y-189069104D01*
X185262200Y-189164342D01*
X185178866Y-189069104D01*
X185286009Y-188973866D01*
X185262200Y-189164342D01*
X188774104Y-190021485D02*
X188666961Y-190116723D01*
X188369342Y-190211961D01*
X188178866Y-190211961D01*
X187905057Y-190116723D01*
X187738390Y-189926247D01*
X187666961Y-189735771D01*
X187619342Y-189354819D01*
X187655057Y-189069104D01*
X187797914Y-188688152D01*
X187916961Y-188497676D01*
X188131247Y-188307200D01*
X188428866Y-188211961D01*
X188619342Y-188211961D01*
X188893152Y-188307200D01*
X188976485Y-188402438D01*
X189607438Y-190211961D02*
X189857438Y-188211961D01*
X190464580Y-190211961D02*
X190595533Y-189164342D01*
X190524104Y-188973866D01*
X190345533Y-188878628D01*
X190059819Y-188878628D01*
X189857438Y-188973866D01*
X189750295Y-189069104D01*
X192190771Y-190116723D02*
X191988390Y-190211961D01*
X191607438Y-190211961D01*
X191428866Y-190116723D01*
X191357438Y-189926247D01*
X191452676Y-189164342D01*
X191571723Y-188973866D01*
X191774104Y-188878628D01*
X192155057Y-188878628D01*
X192333628Y-188973866D01*
X192405057Y-189164342D01*
X192381247Y-189354819D01*
X191405057Y-189545295D01*
X193131247Y-190211961D02*
X193297914Y-188878628D01*
X193250295Y-189259580D02*
X193369342Y-189069104D01*
X193476485Y-188973866D01*
X193678866Y-188878628D01*
X193869342Y-188878628D01*
X194369342Y-190211961D02*
X194536009Y-188878628D01*
X194488390Y-189259580D02*
X194607438Y-189069104D01*
X194714580Y-188973866D01*
X194916961Y-188878628D01*
X195107438Y-188878628D01*
X195583628Y-188878628D02*
X195893152Y-190211961D01*
X196536009Y-188878628D02*
X195893152Y-190211961D01*
X195643152Y-190688152D01*
X195536009Y-190783390D01*
X195333628Y-190878628D01*
X197226485Y-189450057D02*
X198750295Y-189450057D01*
X199607438Y-190211961D02*
X199857438Y-188211961D01*
X200345533Y-189640533D01*
X201190771Y-188211961D01*
X200940771Y-190211961D01*
X201702676Y-190211961D02*
X202916961Y-188878628D01*
X201869342Y-188878628D02*
X202750295Y-190211961D01*
X203607438Y-189450057D02*
X205131247Y-189450057D01*
X206786009Y-189164342D02*
X207059819Y-189259580D01*
X207143152Y-189354819D01*
X207214580Y-189545295D01*
X207178866Y-189831009D01*
X207059819Y-190021485D01*
X206952676Y-190116723D01*
X206750295Y-190211961D01*
X205988390Y-190211961D01*
X206238390Y-188211961D01*
X206905057Y-188211961D01*
X207083628Y-188307200D01*
X207166961Y-188402438D01*
X207238390Y-188592914D01*
X207214580Y-188783390D01*
X207095533Y-188973866D01*
X206988390Y-189069104D01*
X206786009Y-189164342D01*
X206119342Y-189164342D01*
X207988390Y-190211961D02*
X208155057Y-188878628D01*
X208238390Y-188211961D02*
X208131247Y-188307200D01*
X208214580Y-188402438D01*
X208321723Y-188307200D01*
X208238390Y-188211961D01*
X208214580Y-188402438D01*
X208821723Y-188878628D02*
X209583628Y-188878628D01*
X209190771Y-188211961D02*
X208976485Y-189926247D01*
X209047914Y-190116723D01*
X209226485Y-190211961D01*
X209416961Y-190211961D01*
X210083628Y-190211961D02*
X210333628Y-188211961D01*
X210238390Y-188973866D02*
X210440771Y-188878628D01*
X210821723Y-188878628D01*
X211000295Y-188973866D01*
X211083628Y-189069104D01*
X211155057Y-189259580D01*
X211083628Y-189831009D01*
X210964580Y-190021485D01*
X210857438Y-190116723D01*
X210655057Y-190211961D01*
X210274104Y-190211961D01*
X210095533Y-190116723D01*
X212178866Y-190211961D02*
X212000295Y-190116723D01*
X211916961Y-190021485D01*
X211845533Y-189831009D01*
X211916961Y-189259580D01*
X212036009Y-189069104D01*
X212143152Y-188973866D01*
X212345533Y-188878628D01*
X212631247Y-188878628D01*
X212809819Y-188973866D01*
X212893152Y-189069104D01*
X212964580Y-189259580D01*
X212893152Y-189831009D01*
X212774104Y-190021485D01*
X212666961Y-190116723D01*
X212464580Y-190211961D01*
X212178866Y-190211961D01*
X214559819Y-190211961D02*
X214690771Y-189164342D01*
X214619342Y-188973866D01*
X214440771Y-188878628D01*
X214059819Y-188878628D01*
X213857438Y-188973866D01*
X214571723Y-190116723D02*
X214369342Y-190211961D01*
X213893152Y-190211961D01*
X213714580Y-190116723D01*
X213643152Y-189926247D01*
X213666961Y-189735771D01*
X213786009Y-189545295D01*
X213988390Y-189450057D01*
X214464580Y-189450057D01*
X214666961Y-189354819D01*
X215512200Y-190211961D02*
X215678866Y-188878628D01*
X215631247Y-189259580D02*
X215750295Y-189069104D01*
X215857438Y-188973866D01*
X216059819Y-188878628D01*
X216250295Y-188878628D01*
X217607438Y-190211961D02*
X217857438Y-188211961D01*
X217619342Y-190116723D02*
X217416961Y-190211961D01*
X217036009Y-190211961D01*
X216857438Y-190116723D01*
X216774104Y-190021485D01*
X216702676Y-189831009D01*
X216774104Y-189259580D01*
X216893152Y-189069104D01*
X217000295Y-188973866D01*
X217202676Y-188878628D01*
X217583628Y-188878628D01*
X217762200Y-188973866D01*
X218655057Y-189450057D02*
X220178866Y-189450057D01*
X222178866Y-190211961D02*
X221631247Y-189259580D01*
X221036009Y-190211961D02*
X221286009Y-188211961D01*
X222047914Y-188211961D01*
X222226485Y-188307200D01*
X222309819Y-188402438D01*
X222381247Y-188592914D01*
X222345533Y-188878628D01*
X222226485Y-189069104D01*
X222119342Y-189164342D01*
X221916961Y-189259580D01*
X221155057Y-189259580D01*
X223809819Y-190116723D02*
X223607438Y-190211961D01*
X223226485Y-190211961D01*
X223047914Y-190116723D01*
X222976485Y-189926247D01*
X223071723Y-189164342D01*
X223190771Y-188973866D01*
X223393152Y-188878628D01*
X223774104Y-188878628D01*
X223952676Y-188973866D01*
X224024104Y-189164342D01*
X224000295Y-189354819D01*
X223024104Y-189545295D01*
X224845533Y-189450057D02*
X226369342Y-189450057D01*
X228274104Y-190211961D02*
X227131247Y-190211961D01*
X227702676Y-190211961D02*
X227952676Y-188211961D01*
X227726485Y-188497676D01*
X227512200Y-188688152D01*
X227309819Y-188783390D01*
X229226485Y-190211961D02*
X229607438Y-190211961D01*
X229809819Y-190116723D01*
X229916961Y-190021485D01*
X230143152Y-189735771D01*
X230286009Y-189354819D01*
X230381247Y-188592914D01*
X230309819Y-188402438D01*
X230226485Y-188307200D01*
X230047914Y-188211961D01*
X229666961Y-188211961D01*
X229464580Y-188307200D01*
X229357438Y-188402438D01*
X229238390Y-188592914D01*
X229178866Y-189069104D01*
X229250295Y-189259580D01*
X229333628Y-189354819D01*
X229512200Y-189450057D01*
X229893152Y-189450057D01*
X230095533Y-189354819D01*
X230202676Y-189259580D01*
X230321723Y-189069104D01*
X231059819Y-190021485D02*
X231143152Y-190116723D01*
X231036009Y-190211961D01*
X230952676Y-190116723D01*
X231059819Y-190021485D01*
X231036009Y-190211961D01*
X232619342Y-188211961D02*
X232809819Y-188211961D01*
X232988390Y-188307200D01*
X233071723Y-188402438D01*
X233143152Y-188592914D01*
X233190771Y-188973866D01*
X233131247Y-189450057D01*
X232988390Y-189831009D01*
X232869342Y-190021485D01*
X232762200Y-190116723D01*
X232559819Y-190211961D01*
X232369342Y-190211961D01*
X232190771Y-190116723D01*
X232107438Y-190021485D01*
X232036009Y-189831009D01*
X231988390Y-189450057D01*
X232047914Y-188973866D01*
X232190771Y-188592914D01*
X232309819Y-188402438D01*
X232416961Y-188307200D01*
X232619342Y-188211961D01*
X235095533Y-188211961D02*
X234143152Y-188211961D01*
X233928866Y-189164342D01*
X234036009Y-189069104D01*
X234238390Y-188973866D01*
X234714580Y-188973866D01*
X234893152Y-189069104D01*
X234976485Y-189164342D01*
X235047914Y-189354819D01*
X234988390Y-189831009D01*
X234869342Y-190021485D01*
X234762200Y-190116723D01*
X234559819Y-190211961D01*
X234083628Y-190211961D01*
X233905057Y-190116723D01*
X233821723Y-190021485D01*
X235797914Y-190211961D02*
X235964580Y-188878628D01*
X235940771Y-189069104D02*
X236047914Y-188973866D01*
X236250295Y-188878628D01*
X236536009Y-188878628D01*
X236714580Y-188973866D01*
X236786009Y-189164342D01*
X236655057Y-190211961D01*
X236786009Y-189164342D02*
X236905057Y-188973866D01*
X237107438Y-188878628D01*
X237393152Y-188878628D01*
X237571723Y-188973866D01*
X237643152Y-189164342D01*
X237512200Y-190211961D01*
X238464580Y-190211961D02*
X238631247Y-188878628D01*
X238607438Y-189069104D02*
X238714580Y-188973866D01*
X238916961Y-188878628D01*
X239202676Y-188878628D01*
X239381247Y-188973866D01*
X239452676Y-189164342D01*
X239321723Y-190211961D01*
X239452676Y-189164342D02*
X239571723Y-188973866D01*
X239774104Y-188878628D01*
X240059819Y-188878628D01*
X240238390Y-188973866D01*
X240309819Y-189164342D01*
X240178866Y-190211961D01*
D10*
D11*
X178934342Y-185600057D02*
X178434342Y-185600057D01*
X178434342Y-186385771D02*
X178434342Y-184885771D01*
X179148628Y-184885771D01*
X179720057Y-186385771D02*
X179720057Y-185385771D01*
X179720057Y-184885771D02*
X179648628Y-184957200D01*
X179720057Y-185028628D01*
X179791485Y-184957200D01*
X179720057Y-184885771D01*
X179720057Y-185028628D01*
X180648628Y-186385771D02*
X180505771Y-186314342D01*
X180434342Y-186171485D01*
X180434342Y-184885771D01*
X181791485Y-186314342D02*
X181648628Y-186385771D01*
X181362914Y-186385771D01*
X181220057Y-186314342D01*
X181148628Y-186171485D01*
X181148628Y-185600057D01*
X181220057Y-185457200D01*
X181362914Y-185385771D01*
X181648628Y-185385771D01*
X181791485Y-185457200D01*
X181862914Y-185600057D01*
X181862914Y-185742914D01*
X181148628Y-185885771D01*
X182505771Y-186242914D02*
X182577200Y-186314342D01*
X182505771Y-186385771D01*
X182434342Y-186314342D01*
X182505771Y-186242914D01*
X182505771Y-186385771D01*
X182505771Y-185457200D02*
X182577200Y-185528628D01*
X182505771Y-185600057D01*
X182434342Y-185528628D01*
X182505771Y-185457200D01*
X182505771Y-185600057D01*
X184362914Y-185385771D02*
X184362914Y-186885771D01*
X184362914Y-185457200D02*
X184505771Y-185385771D01*
X184791485Y-185385771D01*
X184934342Y-185457200D01*
X185005771Y-185528628D01*
X185077200Y-185671485D01*
X185077200Y-186100057D01*
X185005771Y-186242914D01*
X184934342Y-186314342D01*
X184791485Y-186385771D01*
X184505771Y-186385771D01*
X184362914Y-186314342D01*
X185934342Y-186385771D02*
X185791485Y-186314342D01*
X185720057Y-186171485D01*
X185720057Y-184885771D01*
X187148628Y-186385771D02*
X187148628Y-185600057D01*
X187077200Y-185457200D01*
X186934342Y-185385771D01*
X186648628Y-185385771D01*
X186505771Y-185457200D01*
X187148628Y-186314342D02*
X187005771Y-186385771D01*
X186648628Y-186385771D01*
X186505771Y-186314342D01*
X186434342Y-186171485D01*
X186434342Y-186028628D01*
X186505771Y-185885771D01*
X186648628Y-185814342D01*
X187005771Y-185814342D01*
X187148628Y-185742914D01*
X188505771Y-185385771D02*
X188505771Y-186885771D01*
X188505771Y-186314342D02*
X188362914Y-186385771D01*
X188077200Y-186385771D01*
X187934342Y-186314342D01*
X187862914Y-186242914D01*
X187791485Y-186100057D01*
X187791485Y-185671485D01*
X187862914Y-185528628D01*
X187934342Y-185457200D01*
X188077200Y-185385771D01*
X188362914Y-185385771D01*
X188505771Y-185457200D01*
X189862914Y-185385771D02*
X189862914Y-186385771D01*
X189220057Y-185385771D02*
X189220057Y-186171485D01*
X189291485Y-186314342D01*
X189434342Y-186385771D01*
X189648628Y-186385771D01*
X189791485Y-186314342D01*
X189862914Y-186242914D01*
X191148628Y-186314342D02*
X191005771Y-186385771D01*
X190720057Y-186385771D01*
X190577200Y-186314342D01*
X190505771Y-186171485D01*
X190505771Y-185600057D01*
X190577200Y-185457200D01*
X190720057Y-185385771D01*
X191005771Y-185385771D01*
X191148628Y-185457200D01*
X191220057Y-185600057D01*
X191220057Y-185742914D01*
X190505771Y-185885771D01*
X191791485Y-185028628D02*
X191862914Y-184957200D01*
X192005771Y-184885771D01*
X192362914Y-184885771D01*
X192505771Y-184957200D01*
X192577200Y-185028628D01*
X192648628Y-185171485D01*
X192648628Y-185314342D01*
X192577200Y-185528628D01*
X191720057Y-186385771D01*
X192648628Y-186385771D01*
X193291485Y-186242914D02*
X193362914Y-186314342D01*
X193291485Y-186385771D01*
X193220057Y-186314342D01*
X193291485Y-186242914D01*
X193291485Y-186385771D01*
X194005771Y-186385771D02*
X194005771Y-184885771D01*
X194148628Y-185814342D02*
X194577200Y-186385771D01*
X194577200Y-185385771D02*
X194005771Y-185957200D01*
X195220057Y-186385771D02*
X195220057Y-185385771D01*
X195220057Y-184885771D02*
X195148628Y-184957200D01*
X195220057Y-185028628D01*
X195291485Y-184957200D01*
X195220057Y-184885771D01*
X195220057Y-185028628D01*
X196577200Y-186314342D02*
X196434342Y-186385771D01*
X196148628Y-186385771D01*
X196005771Y-186314342D01*
X195934342Y-186242914D01*
X195862914Y-186100057D01*
X195862914Y-185671485D01*
X195934342Y-185528628D01*
X196005771Y-185457200D01*
X196148628Y-185385771D01*
X196434342Y-185385771D01*
X196577200Y-185457200D01*
X197862914Y-186385771D02*
X197862914Y-185600057D01*
X197791485Y-185457200D01*
X197648628Y-185385771D01*
X197362914Y-185385771D01*
X197220057Y-185457200D01*
X197862914Y-186314342D02*
X197720057Y-186385771D01*
X197362914Y-186385771D01*
X197220057Y-186314342D01*
X197148628Y-186171485D01*
X197148628Y-186028628D01*
X197220057Y-185885771D01*
X197362914Y-185814342D01*
X197720057Y-185814342D01*
X197862914Y-185742914D01*
X199220057Y-186385771D02*
X199220057Y-184885771D01*
X199220057Y-186314342D02*
X199077200Y-186385771D01*
X198791485Y-186385771D01*
X198648628Y-186314342D01*
X198577200Y-186242914D01*
X198505771Y-186100057D01*
X198505771Y-185671485D01*
X198577200Y-185528628D01*
X198648628Y-185457200D01*
X198791485Y-185385771D01*
X199077200Y-185385771D01*
X199220057Y-185457200D01*
X199577200Y-186528628D02*
X200720057Y-186528628D01*
X201077200Y-185385771D02*
X201077200Y-186885771D01*
X201077200Y-185457200D02*
X201220057Y-185385771D01*
X201505771Y-185385771D01*
X201648628Y-185457200D01*
X201720057Y-185528628D01*
X201791485Y-185671485D01*
X201791485Y-186100057D01*
X201720057Y-186242914D01*
X201648628Y-186314342D01*
X201505771Y-186385771D01*
X201220057Y-186385771D01*
X201077200Y-186314342D01*
X203077200Y-186314342D02*
X202934342Y-186385771D01*
X202648628Y-186385771D01*
X202505771Y-186314342D01*
X202434342Y-186242914D01*
X202362914Y-186100057D01*
X202362914Y-185671485D01*
X202434342Y-185528628D01*
X202505771Y-185457200D01*
X202648628Y-185385771D01*
X202934342Y-185385771D01*
X203077200Y-185457200D01*
X203720057Y-186385771D02*
X203720057Y-184885771D01*
X203720057Y-185457200D02*
X203862914Y-185385771D01*
X204148628Y-185385771D01*
X204291485Y-185457200D01*
X204362914Y-185528628D01*
X204434342Y-185671485D01*
X204434342Y-186100057D01*
X204362914Y-186242914D01*
X204291485Y-186314342D01*
X204148628Y-186385771D01*
X203862914Y-186385771D01*
X203720057Y-186314342D01*
D10*
D11*
X177002200Y-181507200D02*
X285002200Y-181507200D01*
D10*
D11*
X178362914Y-183614342D02*
X178577200Y-183685771D01*
X178934342Y-183685771D01*
X179077200Y-183614342D01*
X179148628Y-183542914D01*
X179220057Y-183400057D01*
X179220057Y-183257200D01*
X179148628Y-183114342D01*
X179077200Y-183042914D01*
X178934342Y-182971485D01*
X178648628Y-182900057D01*
X178505771Y-182828628D01*
X178434342Y-182757200D01*
X178362914Y-182614342D01*
X178362914Y-182471485D01*
X178434342Y-182328628D01*
X178505771Y-182257200D01*
X178648628Y-182185771D01*
X179005771Y-182185771D01*
X179220057Y-182257200D01*
X179862914Y-183685771D02*
X179862914Y-182185771D01*
X180505771Y-183685771D02*
X180505771Y-182900057D01*
X180434342Y-182757200D01*
X180291485Y-182685771D01*
X180077200Y-182685771D01*
X179934342Y-182757200D01*
X179862914Y-182828628D01*
X181791485Y-183614342D02*
X181648628Y-183685771D01*
X181362914Y-183685771D01*
X181220057Y-183614342D01*
X181148628Y-183471485D01*
X181148628Y-182900057D01*
X181220057Y-182757200D01*
X181362914Y-182685771D01*
X181648628Y-182685771D01*
X181791485Y-182757200D01*
X181862914Y-182900057D01*
X181862914Y-183042914D01*
X181148628Y-183185771D01*
X183077200Y-183614342D02*
X182934342Y-183685771D01*
X182648628Y-183685771D01*
X182505771Y-183614342D01*
X182434342Y-183471485D01*
X182434342Y-182900057D01*
X182505771Y-182757200D01*
X182648628Y-182685771D01*
X182934342Y-182685771D01*
X183077200Y-182757200D01*
X183148628Y-182900057D01*
X183148628Y-183042914D01*
X182434342Y-183185771D01*
X183577200Y-182685771D02*
X184148628Y-182685771D01*
X183791485Y-182185771D02*
X183791485Y-183471485D01*
X183862914Y-183614342D01*
X184005771Y-183685771D01*
X184148628Y-183685771D01*
X184648628Y-183542914D02*
X184720057Y-183614342D01*
X184648628Y-183685771D01*
X184577200Y-183614342D01*
X184648628Y-183542914D01*
X184648628Y-183685771D01*
X184648628Y-182757200D02*
X184720057Y-182828628D01*
X184648628Y-182900057D01*
X184577200Y-182828628D01*
X184648628Y-182757200D01*
X184648628Y-182900057D01*
D10*
D11*
X197002200Y-191507200D02*
X197002200Y-194507200D01*
D10*
D11*
X261002200Y-191507200D02*
X261002200Y-198007200D01*
D14*
X192290000Y-101030000D03*
D15*
X180455000Y-106015000D03*
X193905000Y-103475000D03*
D16*
X183790000Y-112330000D03*
X191410000Y-112330000D03*
D14*
X180290000Y-113330000D03*
X195290000Y-113130000D03*
X182390000Y-116030000D03*
D15*
X198255000Y-106015000D03*
X211705000Y-103475000D03*
D14*
X174490000Y-118830000D03*
X164590000Y-133830000D03*
X162490000Y-131130000D03*
X177490000Y-130930000D03*
X164590000Y-101030000D03*
D17*
X207165000Y-112430000D03*
X203615000Y-112430000D03*
D15*
X176105000Y-103475000D03*
X162655000Y-106015000D03*
D17*
X168015000Y-112430000D03*
X171565000Y-112430000D03*
D14*
X210090000Y-116030000D03*
X162495000Y-103575000D03*
X162495000Y-121375000D03*
X174490000Y-133830000D03*
X164590000Y-118830000D03*
X198095000Y-103575000D03*
X198090000Y-113330000D03*
X177490000Y-106115000D03*
X200190000Y-101030000D03*
D16*
X201590000Y-112330000D03*
X209210000Y-112330000D03*
D14*
X162490000Y-113330000D03*
X210090000Y-101030000D03*
X213090000Y-106115000D03*
X200190000Y-116030000D03*
X213090000Y-113130000D03*
X174490000Y-116030000D03*
X177490000Y-113130000D03*
D17*
X189365000Y-112430000D03*
X185815000Y-112430000D03*
D16*
X165990000Y-130130000D03*
X173610000Y-130130000D03*
X173610000Y-112330000D03*
X165990000Y-112330000D03*
D14*
X180295000Y-103575000D03*
X182390000Y-101030000D03*
X195290000Y-106115000D03*
X192290000Y-116030000D03*
D17*
X185815000Y-41230000D03*
X189365000Y-41230000D03*
D14*
X192290000Y-29830000D03*
D15*
X193905000Y-32275000D03*
X180455000Y-34815000D03*
D16*
X191410000Y-41130000D03*
X183790000Y-41130000D03*
D14*
X180295000Y-32375000D03*
X180290000Y-42130000D03*
X195290000Y-41930000D03*
X182390000Y-29830000D03*
X195290000Y-34915000D03*
X182390000Y-44830000D03*
X192290000Y-44830000D03*
X174490000Y-47630000D03*
X164590000Y-62630000D03*
X162490000Y-59930000D03*
X162495000Y-50175000D03*
D16*
X173610000Y-58930000D03*
X165990000Y-58930000D03*
D14*
X177490000Y-59730000D03*
X174490000Y-62630000D03*
X164590000Y-47630000D03*
X174490000Y-101030000D03*
X164590000Y-116030000D03*
X195290000Y-130930000D03*
D16*
X191410000Y-130130000D03*
X183790000Y-130130000D03*
D15*
X211705000Y-121275000D03*
X198255000Y-123815000D03*
X193905000Y-121275000D03*
X180455000Y-123815000D03*
D14*
X210090000Y-133830000D03*
X180290000Y-131130000D03*
D17*
X185815000Y-130230000D03*
X189365000Y-130230000D03*
D14*
X182390000Y-133830000D03*
X192290000Y-133830000D03*
D15*
X162655000Y-123815000D03*
X176105000Y-121275000D03*
D14*
X182390000Y-118830000D03*
X210090000Y-118830000D03*
X198090000Y-131130000D03*
X177490000Y-123915000D03*
X200190000Y-133830000D03*
X192290000Y-118830000D03*
X195290000Y-123915000D03*
X198095000Y-121375000D03*
D16*
X209210000Y-130130000D03*
X201590000Y-130130000D03*
D14*
X200190000Y-118830000D03*
X213090000Y-123915000D03*
X180295000Y-121375000D03*
X213090000Y-130930000D03*
D17*
X171565000Y-130230000D03*
X168015000Y-130230000D03*
X203615000Y-130230000D03*
X207165000Y-130230000D03*
D14*
X198095000Y-32375000D03*
X198090000Y-42130000D03*
X200190000Y-29830000D03*
D17*
X203615000Y-41230000D03*
X207165000Y-41230000D03*
D15*
X211705000Y-32275000D03*
X198255000Y-34815000D03*
D16*
X209210000Y-41130000D03*
X201590000Y-41130000D03*
D14*
X213090000Y-41930000D03*
X210090000Y-44830000D03*
X200190000Y-44830000D03*
X213090000Y-34915000D03*
X210090000Y-29830000D03*
X200190000Y-98230000D03*
X200190000Y-83230000D03*
X213090000Y-88315000D03*
X192290000Y-98230000D03*
X210090000Y-98230000D03*
D15*
X162655000Y-88215000D03*
X176105000Y-85675000D03*
D14*
X198090000Y-95530000D03*
X180295000Y-85775000D03*
X213090000Y-95330000D03*
D17*
X171565000Y-94630000D03*
X168015000Y-94630000D03*
D14*
X210090000Y-83230000D03*
X177490000Y-88315000D03*
X198095000Y-85775000D03*
X192290000Y-83230000D03*
X195290000Y-88315000D03*
D16*
X209210000Y-94530000D03*
X201590000Y-94530000D03*
D17*
X203615000Y-94630000D03*
X207165000Y-94630000D03*
D14*
X180290000Y-77730000D03*
X182390000Y-65430000D03*
X174490000Y-83230000D03*
X200190000Y-80430000D03*
X195290000Y-70515000D03*
D15*
X198255000Y-70415000D03*
X211705000Y-67875000D03*
D14*
X164590000Y-98230000D03*
X177490000Y-95330000D03*
X210090000Y-80430000D03*
X210090000Y-65430000D03*
D16*
X165990000Y-94530000D03*
X173610000Y-94530000D03*
D14*
X200190000Y-65430000D03*
X213090000Y-77530000D03*
D16*
X183790000Y-76730000D03*
X191410000Y-76730000D03*
D14*
X195290000Y-77530000D03*
X162490000Y-95530000D03*
D17*
X168015000Y-76830000D03*
X171565000Y-76830000D03*
D14*
X162495000Y-85775000D03*
X174490000Y-98230000D03*
X164590000Y-83230000D03*
X198095000Y-67975000D03*
D17*
X207165000Y-76830000D03*
X203615000Y-76830000D03*
D14*
X198090000Y-77730000D03*
D16*
X201590000Y-76730000D03*
X209210000Y-76730000D03*
D14*
X192290000Y-80430000D03*
X213090000Y-70515000D03*
D17*
X189365000Y-76830000D03*
X185815000Y-76830000D03*
D14*
X192290000Y-65430000D03*
D15*
X180455000Y-70415000D03*
X193905000Y-67875000D03*
D14*
X180295000Y-67975000D03*
X182390000Y-80430000D03*
D17*
X171565000Y-41230000D03*
X168015000Y-41230000D03*
D15*
X162655000Y-34815000D03*
X176105000Y-32275000D03*
D14*
X177490000Y-34915000D03*
D16*
X165990000Y-41130000D03*
X173610000Y-41130000D03*
D14*
X162490000Y-42130000D03*
X177490000Y-41930000D03*
X162495000Y-32375000D03*
X174490000Y-44830000D03*
X182390000Y-98230000D03*
X162490000Y-77730000D03*
D15*
X176105000Y-67875000D03*
X162655000Y-70415000D03*
D14*
X177490000Y-70515000D03*
X174490000Y-80430000D03*
D17*
X185815000Y-94630000D03*
X189365000Y-94630000D03*
D15*
X211705000Y-85675000D03*
X198255000Y-88215000D03*
D14*
X182390000Y-83230000D03*
X180290000Y-95530000D03*
D16*
X173610000Y-76730000D03*
X165990000Y-76730000D03*
D14*
X164590000Y-80430000D03*
X162495000Y-67975000D03*
X177490000Y-77530000D03*
X164590000Y-65430000D03*
X174490000Y-65430000D03*
X195290000Y-95330000D03*
D15*
X193905000Y-85675000D03*
X180455000Y-88215000D03*
D16*
X191410000Y-94530000D03*
X183790000Y-94530000D03*
D14*
X164590000Y-29830000D03*
X174490000Y-29830000D03*
X164590000Y-44830000D03*
X195290000Y-59730000D03*
D15*
X198255000Y-52615000D03*
X211705000Y-50075000D03*
X180455000Y-52615000D03*
X193905000Y-50075000D03*
D17*
X189365000Y-59030000D03*
X185815000Y-59030000D03*
D16*
X183790000Y-58930000D03*
X191410000Y-58930000D03*
D14*
X182390000Y-47630000D03*
X180290000Y-59930000D03*
X182390000Y-62630000D03*
X192290000Y-62630000D03*
X210090000Y-62630000D03*
D15*
X176105000Y-50075000D03*
X162655000Y-52615000D03*
D14*
X210090000Y-47630000D03*
X198090000Y-59930000D03*
X177490000Y-52715000D03*
X200190000Y-62630000D03*
X192290000Y-47630000D03*
X195290000Y-52715000D03*
X198095000Y-50175000D03*
D16*
X201590000Y-58930000D03*
X209210000Y-58930000D03*
D14*
X200190000Y-47630000D03*
X213090000Y-52715000D03*
X180295000Y-50175000D03*
X213090000Y-59730000D03*
D17*
X168015000Y-59030000D03*
X171565000Y-59030000D03*
X207165000Y-59030000D03*
X203615000Y-59030000D03*
X132415000Y-112430000D03*
X135965000Y-112430000D03*
D14*
X138890000Y-101030000D03*
D15*
X140505000Y-103475000D03*
X127055000Y-106015000D03*
D16*
X138010000Y-112330000D03*
X130390000Y-112330000D03*
D14*
X126895000Y-103575000D03*
X126890000Y-113330000D03*
X141890000Y-113130000D03*
X128990000Y-101030000D03*
X141890000Y-106115000D03*
X128990000Y-116030000D03*
X138890000Y-116030000D03*
X121090000Y-118830000D03*
X111190000Y-133830000D03*
X109090000Y-131130000D03*
X109095000Y-121375000D03*
D16*
X120210000Y-130130000D03*
X112590000Y-130130000D03*
D14*
X124090000Y-130930000D03*
X121090000Y-133830000D03*
X111190000Y-118830000D03*
X144695000Y-103575000D03*
X144690000Y-113330000D03*
X146790000Y-101030000D03*
D17*
X150215000Y-112430000D03*
X153765000Y-112430000D03*
D15*
X158305000Y-103475000D03*
X144855000Y-106015000D03*
D16*
X155810000Y-112330000D03*
X148190000Y-112330000D03*
D14*
X159690000Y-113130000D03*
X156690000Y-116030000D03*
X146790000Y-116030000D03*
X159690000Y-106115000D03*
X156690000Y-101030000D03*
D17*
X118165000Y-112430000D03*
X114615000Y-112430000D03*
D15*
X109255000Y-106015000D03*
X122705000Y-103475000D03*
D14*
X124090000Y-106115000D03*
D16*
X112590000Y-112330000D03*
X120210000Y-112330000D03*
D14*
X109090000Y-113330000D03*
X124090000Y-113130000D03*
X109095000Y-103575000D03*
X121090000Y-116030000D03*
X111190000Y-101030000D03*
X121090000Y-101030000D03*
X111190000Y-116030000D03*
X141890000Y-130930000D03*
D15*
X144855000Y-123815000D03*
X158305000Y-121275000D03*
X127055000Y-123815000D03*
X140505000Y-121275000D03*
D17*
X135965000Y-130230000D03*
X132415000Y-130230000D03*
D16*
X130390000Y-130130000D03*
X138010000Y-130130000D03*
D14*
X128990000Y-118830000D03*
X126890000Y-131130000D03*
X128990000Y-133830000D03*
X138890000Y-133830000D03*
X156690000Y-133830000D03*
D15*
X122705000Y-121275000D03*
X109255000Y-123815000D03*
D14*
X156690000Y-118830000D03*
X144690000Y-131130000D03*
X124090000Y-123915000D03*
X146790000Y-133830000D03*
X138890000Y-118830000D03*
X141890000Y-123915000D03*
X144695000Y-121375000D03*
D16*
X148190000Y-130130000D03*
X155810000Y-130130000D03*
D14*
X146790000Y-118830000D03*
X159690000Y-123915000D03*
X126895000Y-121375000D03*
X159690000Y-130930000D03*
D17*
X114615000Y-130230000D03*
X118165000Y-130230000D03*
X153765000Y-130230000D03*
X150215000Y-130230000D03*
X132415000Y-76830000D03*
X135965000Y-76830000D03*
D14*
X138890000Y-65430000D03*
D15*
X140505000Y-67875000D03*
X127055000Y-70415000D03*
D16*
X138010000Y-76730000D03*
X130390000Y-76730000D03*
D14*
X126895000Y-67975000D03*
X126890000Y-77730000D03*
X141890000Y-77530000D03*
X128990000Y-65430000D03*
X141890000Y-70515000D03*
X128990000Y-80430000D03*
X138890000Y-80430000D03*
X121090000Y-83230000D03*
X111190000Y-98230000D03*
X109090000Y-95530000D03*
X109095000Y-85775000D03*
D16*
X120210000Y-94530000D03*
X112590000Y-94530000D03*
D14*
X124090000Y-95330000D03*
X121090000Y-98230000D03*
X111190000Y-83230000D03*
X144695000Y-67975000D03*
X144690000Y-77730000D03*
X146790000Y-65430000D03*
D17*
X150215000Y-76830000D03*
X153765000Y-76830000D03*
D15*
X158305000Y-67875000D03*
X144855000Y-70415000D03*
D16*
X155810000Y-76730000D03*
X148190000Y-76730000D03*
D14*
X159690000Y-77530000D03*
X156690000Y-80430000D03*
X146790000Y-80430000D03*
X159690000Y-70515000D03*
X156690000Y-65430000D03*
D17*
X118165000Y-76830000D03*
X114615000Y-76830000D03*
D15*
X109255000Y-70415000D03*
X122705000Y-67875000D03*
D14*
X124090000Y-70515000D03*
D16*
X112590000Y-76730000D03*
X120210000Y-76730000D03*
D14*
X109090000Y-77730000D03*
X124090000Y-77530000D03*
X109095000Y-67975000D03*
X121090000Y-80430000D03*
X111190000Y-65430000D03*
X121090000Y-65430000D03*
X111190000Y-80430000D03*
X141890000Y-95330000D03*
D15*
X144855000Y-88215000D03*
X158305000Y-85675000D03*
X127055000Y-88215000D03*
X140505000Y-85675000D03*
D17*
X135965000Y-94630000D03*
X132415000Y-94630000D03*
D16*
X130390000Y-94530000D03*
X138010000Y-94530000D03*
D14*
X128990000Y-83230000D03*
X126890000Y-95530000D03*
X128990000Y-98230000D03*
X138890000Y-98230000D03*
X156690000Y-98230000D03*
D15*
X122705000Y-85675000D03*
X109255000Y-88215000D03*
D14*
X156690000Y-83230000D03*
X144690000Y-95530000D03*
X124090000Y-88315000D03*
X146790000Y-98230000D03*
X138890000Y-83230000D03*
X141890000Y-88315000D03*
X144695000Y-85775000D03*
D16*
X148190000Y-94530000D03*
X155810000Y-94530000D03*
D14*
X146790000Y-83230000D03*
X159690000Y-88315000D03*
X126895000Y-85775000D03*
X159690000Y-95330000D03*
D17*
X114615000Y-94630000D03*
X118165000Y-94630000D03*
X153765000Y-94630000D03*
X150215000Y-94630000D03*
X132415000Y-59030000D03*
X135965000Y-59030000D03*
D14*
X138890000Y-47630000D03*
D15*
X140505000Y-50075000D03*
X127055000Y-52615000D03*
D16*
X138010000Y-58930000D03*
X130390000Y-58930000D03*
D14*
X126895000Y-50175000D03*
X126890000Y-59930000D03*
X141890000Y-59730000D03*
X128990000Y-47630000D03*
X141890000Y-52715000D03*
X128990000Y-62630000D03*
X138890000Y-62630000D03*
X144695000Y-50175000D03*
X144690000Y-59930000D03*
X146790000Y-47630000D03*
D17*
X150215000Y-59030000D03*
X153765000Y-59030000D03*
D15*
X158305000Y-50075000D03*
X144855000Y-52615000D03*
D16*
X155810000Y-58930000D03*
X148190000Y-58930000D03*
D14*
X159690000Y-59730000D03*
X156690000Y-62630000D03*
X146790000Y-62630000D03*
X159690000Y-52715000D03*
X156690000Y-47630000D03*
D17*
X118165000Y-59030000D03*
X114615000Y-59030000D03*
D15*
X109255000Y-52615000D03*
X122705000Y-50075000D03*
D14*
X124090000Y-52715000D03*
D16*
X112590000Y-58930000D03*
X120210000Y-58930000D03*
D14*
X109090000Y-59930000D03*
X124090000Y-59730000D03*
X109095000Y-50175000D03*
X121090000Y-62630000D03*
X111190000Y-47630000D03*
X121090000Y-47630000D03*
X111190000Y-62630000D03*
D17*
X153765000Y-41230000D03*
X150215000Y-41230000D03*
D15*
X144855000Y-34815000D03*
X158305000Y-32275000D03*
D14*
X159690000Y-34915000D03*
D16*
X148190000Y-41130000D03*
X155810000Y-41130000D03*
D14*
X144690000Y-42130000D03*
X159690000Y-41930000D03*
X144695000Y-32375000D03*
X156690000Y-44830000D03*
X146790000Y-29830000D03*
X156690000Y-29830000D03*
X146790000Y-44830000D03*
D17*
X135965000Y-41230000D03*
X132415000Y-41230000D03*
D15*
X127055000Y-34815000D03*
X140505000Y-32275000D03*
D14*
X141890000Y-34915000D03*
D16*
X130390000Y-41130000D03*
X138010000Y-41130000D03*
D14*
X126890000Y-42130000D03*
X141890000Y-41930000D03*
X126895000Y-32375000D03*
X138890000Y-44830000D03*
X128990000Y-29830000D03*
X138890000Y-29830000D03*
X128990000Y-44830000D03*
D16*
X120210000Y-41130000D03*
X112590000Y-41130000D03*
D14*
X121090000Y-44830000D03*
X124090000Y-41930000D03*
D17*
X114615000Y-41230000D03*
X118165000Y-41230000D03*
D14*
X124090000Y-34915000D03*
D15*
X122705000Y-32275000D03*
X109255000Y-34815000D03*
D14*
X109090000Y-42130000D03*
X109095000Y-32375000D03*
X111190000Y-44830000D03*
X111190000Y-29830000D03*
X121090000Y-29830000D03*
D18*
X113890000Y-44830000D03*
X116140000Y-42530000D03*
X113490000Y-29830000D03*
X131690000Y-44830000D03*
X133940000Y-42530000D03*
X131290000Y-29830000D03*
X149490000Y-44830000D03*
X151740000Y-42530000D03*
X149090000Y-29830000D03*
X149490000Y-62630000D03*
X131690000Y-62630000D03*
X133940000Y-60330000D03*
X131290000Y-47630000D03*
X149090000Y-47630000D03*
X151740000Y-60330000D03*
X113890000Y-62630000D03*
X116140000Y-60330000D03*
X113490000Y-47630000D03*
X131690000Y-98230000D03*
X149490000Y-80430000D03*
X131690000Y-80430000D03*
X133940000Y-78130000D03*
X149490000Y-98230000D03*
X113890000Y-98230000D03*
X151740000Y-95930000D03*
X149090000Y-83230000D03*
X133940000Y-95930000D03*
X131290000Y-65430000D03*
X149090000Y-65430000D03*
X131290000Y-83230000D03*
X116140000Y-95930000D03*
X113490000Y-83230000D03*
X151740000Y-78130000D03*
X113890000Y-80430000D03*
X116140000Y-78130000D03*
X113490000Y-65430000D03*
X131690000Y-133830000D03*
X149490000Y-116030000D03*
X131690000Y-116030000D03*
X133940000Y-113730000D03*
X149490000Y-133830000D03*
X113890000Y-133830000D03*
X151740000Y-131530000D03*
X149090000Y-118830000D03*
X133940000Y-131530000D03*
X131290000Y-101030000D03*
X149090000Y-101030000D03*
X131290000Y-118830000D03*
X116140000Y-131530000D03*
X113490000Y-118830000D03*
X151740000Y-113730000D03*
X113890000Y-116030000D03*
X116140000Y-113730000D03*
X113490000Y-101030000D03*
X185090000Y-62630000D03*
X187340000Y-78130000D03*
X167290000Y-98230000D03*
X205140000Y-95930000D03*
X202890000Y-44830000D03*
X187340000Y-95930000D03*
X202490000Y-65430000D03*
X166890000Y-83230000D03*
X185090000Y-44830000D03*
X187340000Y-42530000D03*
X205140000Y-78130000D03*
X202890000Y-62630000D03*
X167290000Y-62630000D03*
X202890000Y-98230000D03*
X202490000Y-83230000D03*
X184690000Y-83230000D03*
X184690000Y-65430000D03*
X169540000Y-95930000D03*
X205140000Y-60330000D03*
X202490000Y-47630000D03*
X185090000Y-98230000D03*
X187340000Y-60330000D03*
X184690000Y-29830000D03*
X202490000Y-29830000D03*
X184690000Y-47630000D03*
X169540000Y-60330000D03*
X166890000Y-47630000D03*
X205140000Y-42530000D03*
X202890000Y-80430000D03*
X185090000Y-80430000D03*
X169540000Y-78130000D03*
X185090000Y-133830000D03*
X202890000Y-116030000D03*
X187340000Y-113730000D03*
X202890000Y-133830000D03*
X167290000Y-80430000D03*
X185090000Y-116030000D03*
X167290000Y-133830000D03*
X166890000Y-65430000D03*
X167290000Y-44830000D03*
X169540000Y-42530000D03*
X187340000Y-131530000D03*
X166890000Y-101030000D03*
X205140000Y-131530000D03*
X184690000Y-101030000D03*
X202490000Y-118830000D03*
X167290000Y-116030000D03*
X166890000Y-29830000D03*
X184690000Y-118830000D03*
X169540000Y-113730000D03*
X202490000Y-101030000D03*
X205140000Y-113730000D03*
X166890000Y-118830000D03*
X169540000Y-131530000D03*
D19*
X122705000Y-32275000D02*
X122680000Y-32275000D01*
X119994999Y-39314999D02*
X120210000Y-39530000D01*
X119994999Y-34960001D02*
X119994999Y-39314999D01*
X122680000Y-32275000D02*
X119994999Y-34960001D01*
D12*
X122780000Y-32375000D02*
X122805000Y-32375000D01*
D19*
X120210000Y-39530000D02*
X120210000Y-41130000D01*
X120210000Y-41130000D02*
X118265000Y-41130000D01*
X118265000Y-41130000D02*
X118165000Y-41230000D01*
X113890000Y-44830000D02*
X121290000Y-44830000D01*
X112690000Y-41230000D02*
X112590000Y-41130000D01*
X113490000Y-29830000D02*
X118390000Y-29830000D01*
X114615000Y-41230000D02*
X114840000Y-41230000D01*
X114840000Y-41230000D02*
X116140000Y-42530000D01*
X111190000Y-29830000D02*
X112462792Y-29830000D01*
X112462792Y-44830000D02*
X113890000Y-44830000D01*
X118390000Y-29830000D02*
X118090000Y-29830000D01*
X111190000Y-44830000D02*
X112462792Y-44830000D01*
X118390000Y-29830000D02*
X121290000Y-29830000D01*
X112462792Y-29830000D02*
X113490000Y-29830000D01*
X114615000Y-41230000D02*
X114790000Y-41230000D01*
X114615000Y-41230000D02*
X112690000Y-41230000D01*
X109095000Y-32375000D02*
X109095000Y-34655000D01*
X109255000Y-34815000D02*
X109255000Y-42270000D01*
D12*
X109095000Y-34655000D02*
X109355000Y-34915000D01*
D19*
X109889999Y-43029999D02*
X111789979Y-43029999D01*
X111789979Y-43029999D02*
X112389980Y-43630000D01*
X119690000Y-43630000D02*
X120390000Y-42930000D01*
X124090000Y-34915000D02*
X124090000Y-42430000D01*
D12*
X109095000Y-35175000D02*
X109355000Y-34915000D01*
D19*
X109255000Y-42270000D02*
X109095000Y-42430000D01*
X109095000Y-34655000D02*
X109255000Y-34815000D01*
X108990000Y-42130000D02*
X109889999Y-43029999D01*
X112389980Y-43630000D02*
X119690000Y-43630000D01*
X120390000Y-42930000D02*
X123090000Y-42930000D01*
X123090000Y-42930000D02*
X124090000Y-41930000D01*
X130189980Y-43630000D02*
X137490000Y-43630000D01*
X136190000Y-29830000D02*
X135890000Y-29830000D01*
X132640000Y-41230000D02*
X133940000Y-42530000D01*
X138010000Y-39530000D02*
X138010000Y-41130000D01*
D12*
X140580000Y-32375000D02*
X140605000Y-32375000D01*
D19*
X130262792Y-44830000D02*
X131690000Y-44830000D01*
X126895000Y-34655000D02*
X127055000Y-34815000D01*
X132415000Y-41230000D02*
X132590000Y-41230000D01*
X127689999Y-43029999D02*
X129589979Y-43029999D01*
X140480000Y-32275000D02*
X137794999Y-34960001D01*
X127055000Y-42270000D02*
X126895000Y-42430000D01*
X136065000Y-41130000D02*
X135965000Y-41230000D01*
X138190000Y-42930000D02*
X140890000Y-42930000D01*
X136190000Y-29830000D02*
X139090000Y-29830000D01*
D12*
X126895000Y-35175000D02*
X127155000Y-34915000D01*
D19*
X128990000Y-29830000D02*
X130262792Y-29830000D01*
X128990000Y-44830000D02*
X130262792Y-44830000D01*
X141890000Y-34915000D02*
X141890000Y-42430000D01*
D12*
X126895000Y-34655000D02*
X127155000Y-34915000D01*
D19*
X132415000Y-41230000D02*
X132640000Y-41230000D01*
X129589979Y-43029999D02*
X130189980Y-43630000D01*
X126790000Y-42130000D02*
X127689999Y-43029999D01*
X138010000Y-41130000D02*
X136065000Y-41130000D01*
X140890000Y-42930000D02*
X141890000Y-41930000D01*
X132415000Y-41230000D02*
X130490000Y-41230000D01*
X130262792Y-29830000D02*
X131290000Y-29830000D01*
X127055000Y-34815000D02*
X127055000Y-42270000D01*
X137490000Y-43630000D02*
X138190000Y-42930000D01*
X131290000Y-29830000D02*
X136190000Y-29830000D01*
X137794999Y-34960001D02*
X137794999Y-39314999D01*
X140505000Y-32275000D02*
X140480000Y-32275000D01*
X126895000Y-32375000D02*
X126895000Y-34655000D01*
X131690000Y-44830000D02*
X139090000Y-44830000D01*
X137794999Y-39314999D02*
X138010000Y-39530000D01*
X130490000Y-41230000D02*
X130390000Y-41130000D01*
X147989980Y-43630000D02*
X155290000Y-43630000D01*
X153990000Y-29830000D02*
X153690000Y-29830000D01*
X150440000Y-41230000D02*
X151740000Y-42530000D01*
X155810000Y-39530000D02*
X155810000Y-41130000D01*
D12*
X158380000Y-32375000D02*
X158405000Y-32375000D01*
D19*
X148062792Y-44830000D02*
X149490000Y-44830000D01*
X144695000Y-34655000D02*
X144855000Y-34815000D01*
X150215000Y-41230000D02*
X150390000Y-41230000D01*
X145489999Y-43029999D02*
X147389979Y-43029999D01*
X158280000Y-32275000D02*
X155594999Y-34960001D01*
X144855000Y-42270000D02*
X144695000Y-42430000D01*
X153865000Y-41130000D02*
X153765000Y-41230000D01*
X155990000Y-42930000D02*
X158690000Y-42930000D01*
X153990000Y-29830000D02*
X156890000Y-29830000D01*
D12*
X144695000Y-35175000D02*
X144955000Y-34915000D01*
D19*
X146790000Y-29830000D02*
X148062792Y-29830000D01*
X146790000Y-44830000D02*
X148062792Y-44830000D01*
X159690000Y-34915000D02*
X159690000Y-42430000D01*
D12*
X144695000Y-34655000D02*
X144955000Y-34915000D01*
D19*
X150215000Y-41230000D02*
X150440000Y-41230000D01*
X147389979Y-43029999D02*
X147989980Y-43630000D01*
X144590000Y-42130000D02*
X145489999Y-43029999D01*
X155810000Y-41130000D02*
X153865000Y-41130000D01*
X158690000Y-42930000D02*
X159690000Y-41930000D01*
X150215000Y-41230000D02*
X148290000Y-41230000D01*
X148062792Y-29830000D02*
X149090000Y-29830000D01*
X144855000Y-34815000D02*
X144855000Y-42270000D01*
X155290000Y-43630000D02*
X155990000Y-42930000D01*
X149090000Y-29830000D02*
X153990000Y-29830000D01*
X155594999Y-34960001D02*
X155594999Y-39314999D01*
X158305000Y-32275000D02*
X158280000Y-32275000D01*
X144695000Y-32375000D02*
X144695000Y-34655000D01*
X149490000Y-44830000D02*
X156890000Y-44830000D01*
X155594999Y-39314999D02*
X155810000Y-39530000D01*
X148290000Y-41230000D02*
X148190000Y-41130000D01*
X153865000Y-58930000D02*
X153765000Y-59030000D01*
X155990000Y-60730000D02*
X158690000Y-60730000D01*
X155810000Y-57330000D02*
X155810000Y-58930000D01*
X144695000Y-52455000D02*
X144855000Y-52615000D01*
X147989980Y-61430000D02*
X155290000Y-61430000D01*
D12*
X158380000Y-50175000D02*
X158405000Y-50175000D01*
D19*
X148062792Y-62630000D02*
X149490000Y-62630000D01*
X150215000Y-59030000D02*
X150390000Y-59030000D01*
X153990000Y-47630000D02*
X153690000Y-47630000D01*
X150440000Y-59030000D02*
X151740000Y-60330000D01*
X145489999Y-60829999D02*
X147389979Y-60829999D01*
X158280000Y-50075000D02*
X155594999Y-52760001D01*
X144855000Y-60070000D02*
X144695000Y-60230000D01*
X112389980Y-61430000D02*
X119690000Y-61430000D01*
X118390000Y-47630000D02*
X118090000Y-47630000D01*
X114840000Y-59030000D02*
X116140000Y-60330000D01*
X120210000Y-57330000D02*
X120210000Y-58930000D01*
D12*
X122780000Y-50175000D02*
X122805000Y-50175000D01*
D19*
X112462792Y-62630000D02*
X113890000Y-62630000D01*
X109095000Y-52455000D02*
X109255000Y-52615000D01*
X114615000Y-59030000D02*
X114790000Y-59030000D01*
X109889999Y-60829999D02*
X111789979Y-60829999D01*
X122680000Y-50075000D02*
X119994999Y-52760001D01*
X109255000Y-60070000D02*
X109095000Y-60230000D01*
X118265000Y-58930000D02*
X118165000Y-59030000D01*
X120390000Y-60730000D02*
X123090000Y-60730000D01*
X118390000Y-47630000D02*
X121290000Y-47630000D01*
D12*
X109095000Y-52975000D02*
X109355000Y-52715000D01*
D19*
X111190000Y-47630000D02*
X112462792Y-47630000D01*
X111190000Y-62630000D02*
X112462792Y-62630000D01*
X124090000Y-52715000D02*
X124090000Y-60230000D01*
D12*
X109095000Y-52455000D02*
X109355000Y-52715000D01*
D19*
X114615000Y-59030000D02*
X114840000Y-59030000D01*
X111789979Y-60829999D02*
X112389980Y-61430000D01*
X108990000Y-59930000D02*
X109889999Y-60829999D01*
X120210000Y-58930000D02*
X118265000Y-58930000D01*
X123090000Y-60730000D02*
X124090000Y-59730000D01*
X114615000Y-59030000D02*
X112690000Y-59030000D01*
X112462792Y-47630000D02*
X113490000Y-47630000D01*
X109255000Y-52615000D02*
X109255000Y-60070000D01*
X119690000Y-61430000D02*
X120390000Y-60730000D01*
X113490000Y-47630000D02*
X118390000Y-47630000D01*
X119994999Y-52760001D02*
X119994999Y-57114999D01*
X122705000Y-50075000D02*
X122680000Y-50075000D01*
X109095000Y-50175000D02*
X109095000Y-52455000D01*
X113890000Y-62630000D02*
X121290000Y-62630000D01*
X119994999Y-57114999D02*
X120210000Y-57330000D01*
X112690000Y-59030000D02*
X112590000Y-58930000D01*
X138010000Y-57330000D02*
X138010000Y-58930000D01*
D12*
X140580000Y-50175000D02*
X140605000Y-50175000D01*
D19*
X130189980Y-61430000D02*
X137490000Y-61430000D01*
X127689999Y-60829999D02*
X129589979Y-60829999D01*
X127055000Y-60070000D02*
X126895000Y-60230000D01*
D12*
X126895000Y-52975000D02*
X127155000Y-52715000D01*
D19*
X128990000Y-47630000D02*
X130262792Y-47630000D01*
X132415000Y-59030000D02*
X132640000Y-59030000D01*
X141890000Y-52715000D02*
X141890000Y-60230000D01*
X126790000Y-59930000D02*
X127689999Y-60829999D01*
X136190000Y-47630000D02*
X135890000Y-47630000D01*
X138190000Y-60730000D02*
X140890000Y-60730000D01*
X140890000Y-60730000D02*
X141890000Y-59730000D01*
X138010000Y-58930000D02*
X136065000Y-58930000D01*
X127055000Y-52615000D02*
X127055000Y-60070000D01*
X131290000Y-47630000D02*
X136190000Y-47630000D01*
X126895000Y-50175000D02*
X126895000Y-52455000D01*
D12*
X126895000Y-52455000D02*
X127155000Y-52715000D01*
D19*
X137794999Y-57114999D02*
X138010000Y-57330000D01*
X130262792Y-62630000D02*
X131690000Y-62630000D01*
X132640000Y-59030000D02*
X133940000Y-60330000D01*
X129589979Y-60829999D02*
X130189980Y-61430000D01*
X130490000Y-59030000D02*
X130390000Y-58930000D01*
X126895000Y-52455000D02*
X127055000Y-52615000D01*
X132415000Y-59030000D02*
X132590000Y-59030000D01*
X136190000Y-47630000D02*
X139090000Y-47630000D01*
X132415000Y-59030000D02*
X130490000Y-59030000D01*
X140480000Y-50075000D02*
X137794999Y-52760001D01*
X140505000Y-50075000D02*
X140480000Y-50075000D01*
X137794999Y-52760001D02*
X137794999Y-57114999D01*
X130262792Y-47630000D02*
X131290000Y-47630000D01*
X137490000Y-61430000D02*
X138190000Y-60730000D01*
X131690000Y-62630000D02*
X139090000Y-62630000D01*
X128990000Y-62630000D02*
X130262792Y-62630000D01*
X136065000Y-58930000D02*
X135965000Y-59030000D01*
X158305000Y-50075000D02*
X158280000Y-50075000D01*
X148062792Y-47630000D02*
X149090000Y-47630000D01*
X155810000Y-58930000D02*
X153865000Y-58930000D01*
X144695000Y-50175000D02*
X144695000Y-52455000D01*
X149490000Y-62630000D02*
X156890000Y-62630000D01*
X159690000Y-52715000D02*
X159690000Y-60230000D01*
X155594999Y-57114999D02*
X155810000Y-57330000D01*
X148290000Y-59030000D02*
X148190000Y-58930000D01*
X158690000Y-60730000D02*
X159690000Y-59730000D01*
D12*
X144695000Y-52975000D02*
X144955000Y-52715000D01*
X144695000Y-52455000D02*
X144955000Y-52715000D01*
D19*
X147389979Y-60829999D02*
X147989980Y-61430000D01*
X150215000Y-59030000D02*
X150440000Y-59030000D01*
X155290000Y-61430000D02*
X155990000Y-60730000D01*
X144855000Y-52615000D02*
X144855000Y-60070000D01*
X150215000Y-59030000D02*
X148290000Y-59030000D01*
X146790000Y-62630000D02*
X148062792Y-62630000D01*
X149090000Y-47630000D02*
X153990000Y-47630000D01*
X144590000Y-59930000D02*
X145489999Y-60829999D01*
X155594999Y-52760001D02*
X155594999Y-57114999D01*
X153990000Y-47630000D02*
X156890000Y-47630000D01*
X146790000Y-47630000D02*
X148062792Y-47630000D01*
X140505000Y-85675000D02*
X140480000Y-85675000D01*
X155290000Y-97030000D02*
X155990000Y-96330000D01*
X150215000Y-94630000D02*
X148290000Y-94630000D01*
X126895000Y-88055000D02*
X127055000Y-88215000D01*
X144855000Y-88215000D02*
X144855000Y-95670000D01*
X146790000Y-98230000D02*
X148062792Y-98230000D01*
X155594999Y-88360001D02*
X155594999Y-92714999D01*
X131690000Y-98230000D02*
X139090000Y-98230000D01*
X159690000Y-88315000D02*
X159690000Y-95830000D01*
X155810000Y-94530000D02*
X153865000Y-94530000D01*
X128990000Y-98230000D02*
X130262792Y-98230000D01*
X158305000Y-85675000D02*
X158280000Y-85675000D01*
X158690000Y-96330000D02*
X159690000Y-95330000D01*
X150215000Y-94630000D02*
X150440000Y-94630000D01*
X130490000Y-94630000D02*
X130390000Y-94530000D01*
X132415000Y-94630000D02*
X130490000Y-94630000D01*
X140480000Y-85675000D02*
X137794999Y-88360001D01*
X149490000Y-98230000D02*
X156890000Y-98230000D01*
X132415000Y-94630000D02*
X132590000Y-94630000D01*
X137794999Y-88360001D02*
X137794999Y-92714999D01*
X136065000Y-94530000D02*
X135965000Y-94630000D01*
X144695000Y-85775000D02*
X144695000Y-88055000D01*
D12*
X144695000Y-88575000D02*
X144955000Y-88315000D01*
D19*
X136190000Y-83230000D02*
X139090000Y-83230000D01*
X137490000Y-97030000D02*
X138190000Y-96330000D01*
X148062792Y-83230000D02*
X149090000Y-83230000D01*
X155594999Y-92714999D02*
X155810000Y-92930000D01*
D12*
X144695000Y-88055000D02*
X144955000Y-88315000D01*
D19*
X130262792Y-83230000D02*
X131290000Y-83230000D01*
X147389979Y-96429999D02*
X147989980Y-97030000D01*
X149090000Y-83230000D02*
X153990000Y-83230000D01*
X144590000Y-95530000D02*
X145489999Y-96429999D01*
X153990000Y-83230000D02*
X156890000Y-83230000D01*
X146790000Y-83230000D02*
X148062792Y-83230000D01*
X148290000Y-94630000D02*
X148190000Y-94530000D01*
X153865000Y-76730000D02*
X153765000Y-76830000D01*
X155990000Y-78530000D02*
X158690000Y-78530000D01*
X155810000Y-75130000D02*
X155810000Y-76730000D01*
X144695000Y-70255000D02*
X144855000Y-70415000D01*
X147989980Y-79230000D02*
X155290000Y-79230000D01*
D12*
X158380000Y-67975000D02*
X158405000Y-67975000D01*
D19*
X148062792Y-80430000D02*
X149490000Y-80430000D01*
X150215000Y-76830000D02*
X150390000Y-76830000D01*
X153990000Y-65430000D02*
X153690000Y-65430000D01*
X150440000Y-76830000D02*
X151740000Y-78130000D01*
X145489999Y-78629999D02*
X147389979Y-78629999D01*
X158280000Y-67875000D02*
X155594999Y-70560001D01*
X144855000Y-77870000D02*
X144695000Y-78030000D01*
X112389980Y-79230000D02*
X119690000Y-79230000D01*
X118390000Y-65430000D02*
X118090000Y-65430000D01*
X114840000Y-76830000D02*
X116140000Y-78130000D01*
X120210000Y-75130000D02*
X120210000Y-76730000D01*
D12*
X122780000Y-67975000D02*
X122805000Y-67975000D01*
D19*
X112462792Y-80430000D02*
X113890000Y-80430000D01*
X109095000Y-70255000D02*
X109255000Y-70415000D01*
X114615000Y-76830000D02*
X114790000Y-76830000D01*
X109889999Y-78629999D02*
X111789979Y-78629999D01*
X122680000Y-67875000D02*
X119994999Y-70560001D01*
X109255000Y-77870000D02*
X109095000Y-78030000D01*
X118265000Y-76730000D02*
X118165000Y-76830000D01*
X120390000Y-78530000D02*
X123090000Y-78530000D01*
X118390000Y-65430000D02*
X121290000Y-65430000D01*
D12*
X109095000Y-70775000D02*
X109355000Y-70515000D01*
D19*
X111190000Y-65430000D02*
X112462792Y-65430000D01*
X111190000Y-80430000D02*
X112462792Y-80430000D01*
X124090000Y-70515000D02*
X124090000Y-78030000D01*
D12*
X109095000Y-70255000D02*
X109355000Y-70515000D01*
D19*
X114615000Y-76830000D02*
X114840000Y-76830000D01*
X111789979Y-78629999D02*
X112389980Y-79230000D01*
X108990000Y-77730000D02*
X109889999Y-78629999D01*
X120210000Y-76730000D02*
X118265000Y-76730000D01*
X123090000Y-78530000D02*
X124090000Y-77530000D01*
X114615000Y-76830000D02*
X112690000Y-76830000D01*
X112462792Y-65430000D02*
X113490000Y-65430000D01*
X109255000Y-70415000D02*
X109255000Y-77870000D01*
X119690000Y-79230000D02*
X120390000Y-78530000D01*
X113490000Y-65430000D02*
X118390000Y-65430000D01*
X119994999Y-70560001D02*
X119994999Y-74914999D01*
X122705000Y-67875000D02*
X122680000Y-67875000D01*
X109095000Y-67975000D02*
X109095000Y-70255000D01*
X113890000Y-80430000D02*
X121290000Y-80430000D01*
X119994999Y-74914999D02*
X120210000Y-75130000D01*
X112690000Y-76830000D02*
X112590000Y-76730000D01*
X153990000Y-83230000D02*
X153690000Y-83230000D01*
X145489999Y-96429999D02*
X147389979Y-96429999D01*
X112389980Y-97030000D02*
X119690000Y-97030000D01*
X118390000Y-83230000D02*
X118090000Y-83230000D01*
X158280000Y-85675000D02*
X155594999Y-88360001D01*
X114840000Y-94630000D02*
X116140000Y-95930000D01*
X112462792Y-98230000D02*
X113890000Y-98230000D01*
X120210000Y-92930000D02*
X120210000Y-94530000D01*
D12*
X122780000Y-85775000D02*
X122805000Y-85775000D01*
D19*
X153865000Y-94530000D02*
X153765000Y-94630000D01*
X155810000Y-92930000D02*
X155810000Y-94530000D01*
X144695000Y-88055000D02*
X144855000Y-88215000D01*
X150440000Y-94630000D02*
X151740000Y-95930000D01*
X144855000Y-95670000D02*
X144695000Y-95830000D01*
X155990000Y-96330000D02*
X158690000Y-96330000D01*
X147989980Y-97030000D02*
X155290000Y-97030000D01*
D12*
X158380000Y-85775000D02*
X158405000Y-85775000D01*
D19*
X148062792Y-98230000D02*
X149490000Y-98230000D01*
X150215000Y-94630000D02*
X150390000Y-94630000D01*
X138010000Y-75130000D02*
X138010000Y-76730000D01*
D12*
X140580000Y-67975000D02*
X140605000Y-67975000D01*
D19*
X130189980Y-79230000D02*
X137490000Y-79230000D01*
X127689999Y-78629999D02*
X129589979Y-78629999D01*
X127055000Y-77870000D02*
X126895000Y-78030000D01*
D12*
X126895000Y-70775000D02*
X127155000Y-70515000D01*
D19*
X128990000Y-65430000D02*
X130262792Y-65430000D01*
X132415000Y-76830000D02*
X132640000Y-76830000D01*
X141890000Y-70515000D02*
X141890000Y-78030000D01*
X126790000Y-77730000D02*
X127689999Y-78629999D01*
X136190000Y-65430000D02*
X135890000Y-65430000D01*
X138190000Y-78530000D02*
X140890000Y-78530000D01*
X140890000Y-78530000D02*
X141890000Y-77530000D01*
X138010000Y-76730000D02*
X136065000Y-76730000D01*
X127055000Y-70415000D02*
X127055000Y-77870000D01*
X131290000Y-65430000D02*
X136190000Y-65430000D01*
X126895000Y-67975000D02*
X126895000Y-70255000D01*
D12*
X126895000Y-70255000D02*
X127155000Y-70515000D01*
D19*
X137794999Y-74914999D02*
X138010000Y-75130000D01*
X130262792Y-80430000D02*
X131690000Y-80430000D01*
X132640000Y-76830000D02*
X133940000Y-78130000D01*
X129589979Y-78629999D02*
X130189980Y-79230000D01*
X130490000Y-76830000D02*
X130390000Y-76730000D01*
X126895000Y-70255000D02*
X127055000Y-70415000D01*
X132415000Y-76830000D02*
X132590000Y-76830000D01*
X136190000Y-65430000D02*
X139090000Y-65430000D01*
X132415000Y-76830000D02*
X130490000Y-76830000D01*
X140480000Y-67875000D02*
X137794999Y-70560001D01*
X140505000Y-67875000D02*
X140480000Y-67875000D01*
X137794999Y-70560001D02*
X137794999Y-74914999D01*
X130262792Y-65430000D02*
X131290000Y-65430000D01*
X137490000Y-79230000D02*
X138190000Y-78530000D01*
X131690000Y-80430000D02*
X139090000Y-80430000D01*
X128990000Y-80430000D02*
X130262792Y-80430000D01*
X136065000Y-76730000D02*
X135965000Y-76830000D01*
X158305000Y-67875000D02*
X158280000Y-67875000D01*
X148062792Y-65430000D02*
X149090000Y-65430000D01*
X155810000Y-76730000D02*
X153865000Y-76730000D01*
X144695000Y-67975000D02*
X144695000Y-70255000D01*
X149490000Y-80430000D02*
X156890000Y-80430000D01*
X159690000Y-70515000D02*
X159690000Y-78030000D01*
X155594999Y-74914999D02*
X155810000Y-75130000D01*
X148290000Y-76830000D02*
X148190000Y-76730000D01*
X158690000Y-78530000D02*
X159690000Y-77530000D01*
D12*
X144695000Y-70775000D02*
X144955000Y-70515000D01*
X144695000Y-70255000D02*
X144955000Y-70515000D01*
D19*
X147389979Y-78629999D02*
X147989980Y-79230000D01*
X150215000Y-76830000D02*
X150440000Y-76830000D01*
X155290000Y-79230000D02*
X155990000Y-78530000D01*
X144855000Y-70415000D02*
X144855000Y-77870000D01*
X150215000Y-76830000D02*
X148290000Y-76830000D01*
X146790000Y-80430000D02*
X148062792Y-80430000D01*
X149090000Y-65430000D02*
X153990000Y-65430000D01*
X144590000Y-77730000D02*
X145489999Y-78629999D01*
X155594999Y-70560001D02*
X155594999Y-74914999D01*
X153990000Y-65430000D02*
X156890000Y-65430000D01*
X146790000Y-65430000D02*
X148062792Y-65430000D01*
X124090000Y-88315000D02*
X124090000Y-95830000D01*
D12*
X126895000Y-88575000D02*
X127155000Y-88315000D01*
D19*
X126790000Y-95530000D02*
X127689999Y-96429999D01*
X109095000Y-88055000D02*
X109255000Y-88215000D01*
D12*
X109095000Y-88575000D02*
X109355000Y-88315000D01*
D19*
X122680000Y-85675000D02*
X119994999Y-88360001D01*
X112462792Y-83230000D02*
X113490000Y-83230000D01*
X122705000Y-85675000D02*
X122680000Y-85675000D01*
X113490000Y-83230000D02*
X118390000Y-83230000D01*
X109255000Y-95670000D02*
X109095000Y-95830000D01*
X109889999Y-96429999D02*
X111789979Y-96429999D01*
X108990000Y-95530000D02*
X109889999Y-96429999D01*
X119690000Y-97030000D02*
X120390000Y-96330000D01*
X109095000Y-85775000D02*
X109095000Y-88055000D01*
X118390000Y-83230000D02*
X121290000Y-83230000D01*
X111190000Y-98230000D02*
X112462792Y-98230000D01*
X114615000Y-94630000D02*
X114840000Y-94630000D01*
X120390000Y-96330000D02*
X123090000Y-96330000D01*
X119994999Y-88360001D02*
X119994999Y-92714999D01*
X109255000Y-88215000D02*
X109255000Y-95670000D01*
X112690000Y-94630000D02*
X112590000Y-94530000D01*
X138010000Y-92930000D02*
X138010000Y-94530000D01*
X127055000Y-95670000D02*
X126895000Y-95830000D01*
X141890000Y-88315000D02*
X141890000Y-95830000D01*
X136190000Y-83230000D02*
X135890000Y-83230000D01*
X127055000Y-88215000D02*
X127055000Y-95670000D01*
X114615000Y-94630000D02*
X112690000Y-94630000D01*
X114615000Y-94630000D02*
X114790000Y-94630000D01*
X140890000Y-96330000D02*
X141890000Y-95330000D01*
X126895000Y-85775000D02*
X126895000Y-88055000D01*
X118265000Y-94530000D02*
X118165000Y-94630000D01*
X123090000Y-96330000D02*
X124090000Y-95330000D01*
D12*
X140580000Y-85775000D02*
X140605000Y-85775000D01*
D19*
X128990000Y-83230000D02*
X130262792Y-83230000D01*
D12*
X109095000Y-88055000D02*
X109355000Y-88315000D01*
D19*
X137794999Y-92714999D02*
X138010000Y-92930000D01*
X130262792Y-98230000D02*
X131690000Y-98230000D01*
X120210000Y-94530000D02*
X118265000Y-94530000D01*
X119994999Y-92714999D02*
X120210000Y-92930000D01*
X130189980Y-97030000D02*
X137490000Y-97030000D01*
X111789979Y-96429999D02*
X112389980Y-97030000D01*
X111190000Y-83230000D02*
X112462792Y-83230000D01*
X113890000Y-98230000D02*
X121290000Y-98230000D01*
X127689999Y-96429999D02*
X129589979Y-96429999D01*
X132415000Y-94630000D02*
X132640000Y-94630000D01*
X138190000Y-96330000D02*
X140890000Y-96330000D01*
X138010000Y-94530000D02*
X136065000Y-94530000D01*
X131290000Y-83230000D02*
X136190000Y-83230000D01*
D12*
X126895000Y-88055000D02*
X127155000Y-88315000D01*
D19*
X132640000Y-94630000D02*
X133940000Y-95930000D01*
X129589979Y-96429999D02*
X130189980Y-97030000D01*
X140505000Y-121275000D02*
X140480000Y-121275000D01*
X155290000Y-132630000D02*
X155990000Y-131930000D01*
X150215000Y-130230000D02*
X148290000Y-130230000D01*
X126895000Y-123655000D02*
X127055000Y-123815000D01*
X144855000Y-123815000D02*
X144855000Y-131270000D01*
X146790000Y-133830000D02*
X148062792Y-133830000D01*
X155594999Y-123960001D02*
X155594999Y-128314999D01*
X131690000Y-133830000D02*
X139090000Y-133830000D01*
X159690000Y-123915000D02*
X159690000Y-131430000D01*
X155810000Y-130130000D02*
X153865000Y-130130000D01*
X128990000Y-133830000D02*
X130262792Y-133830000D01*
X158305000Y-121275000D02*
X158280000Y-121275000D01*
X158690000Y-131930000D02*
X159690000Y-130930000D01*
X150215000Y-130230000D02*
X150440000Y-130230000D01*
X130490000Y-130230000D02*
X130390000Y-130130000D01*
X132415000Y-130230000D02*
X130490000Y-130230000D01*
X140480000Y-121275000D02*
X137794999Y-123960001D01*
X149490000Y-133830000D02*
X156890000Y-133830000D01*
X132415000Y-130230000D02*
X132590000Y-130230000D01*
X137794999Y-123960001D02*
X137794999Y-128314999D01*
X136065000Y-130130000D02*
X135965000Y-130230000D01*
X144695000Y-121375000D02*
X144695000Y-123655000D01*
D12*
X144695000Y-124175000D02*
X144955000Y-123915000D01*
D19*
X136190000Y-118830000D02*
X139090000Y-118830000D01*
X137490000Y-132630000D02*
X138190000Y-131930000D01*
X148062792Y-118830000D02*
X149090000Y-118830000D01*
X155594999Y-128314999D02*
X155810000Y-128530000D01*
D12*
X144695000Y-123655000D02*
X144955000Y-123915000D01*
D19*
X130262792Y-118830000D02*
X131290000Y-118830000D01*
X147389979Y-132029999D02*
X147989980Y-132630000D01*
X149090000Y-118830000D02*
X153990000Y-118830000D01*
X144590000Y-131130000D02*
X145489999Y-132029999D01*
X153990000Y-118830000D02*
X156890000Y-118830000D01*
X146790000Y-118830000D02*
X148062792Y-118830000D01*
X148290000Y-130230000D02*
X148190000Y-130130000D01*
X153865000Y-112330000D02*
X153765000Y-112430000D01*
X155990000Y-114130000D02*
X158690000Y-114130000D01*
X155810000Y-110730000D02*
X155810000Y-112330000D01*
X144695000Y-105855000D02*
X144855000Y-106015000D01*
X147989980Y-114830000D02*
X155290000Y-114830000D01*
D12*
X158380000Y-103575000D02*
X158405000Y-103575000D01*
D19*
X148062792Y-116030000D02*
X149490000Y-116030000D01*
X150215000Y-112430000D02*
X150390000Y-112430000D01*
X153990000Y-101030000D02*
X153690000Y-101030000D01*
X150440000Y-112430000D02*
X151740000Y-113730000D01*
X145489999Y-114229999D02*
X147389979Y-114229999D01*
X158280000Y-103475000D02*
X155594999Y-106160001D01*
X144855000Y-113470000D02*
X144695000Y-113630000D01*
X112389980Y-114830000D02*
X119690000Y-114830000D01*
X118390000Y-101030000D02*
X118090000Y-101030000D01*
X114840000Y-112430000D02*
X116140000Y-113730000D01*
X120210000Y-110730000D02*
X120210000Y-112330000D01*
D12*
X122780000Y-103575000D02*
X122805000Y-103575000D01*
D19*
X112462792Y-116030000D02*
X113890000Y-116030000D01*
X109095000Y-105855000D02*
X109255000Y-106015000D01*
X114615000Y-112430000D02*
X114790000Y-112430000D01*
X109889999Y-114229999D02*
X111789979Y-114229999D01*
X122680000Y-103475000D02*
X119994999Y-106160001D01*
X109255000Y-113470000D02*
X109095000Y-113630000D01*
X118265000Y-112330000D02*
X118165000Y-112430000D01*
X120390000Y-114130000D02*
X123090000Y-114130000D01*
X118390000Y-101030000D02*
X121290000Y-101030000D01*
D12*
X109095000Y-106375000D02*
X109355000Y-106115000D01*
D19*
X111190000Y-101030000D02*
X112462792Y-101030000D01*
X111190000Y-116030000D02*
X112462792Y-116030000D01*
X124090000Y-106115000D02*
X124090000Y-113630000D01*
D12*
X109095000Y-105855000D02*
X109355000Y-106115000D01*
D19*
X114615000Y-112430000D02*
X114840000Y-112430000D01*
X111789979Y-114229999D02*
X112389980Y-114830000D01*
X108990000Y-113330000D02*
X109889999Y-114229999D01*
X120210000Y-112330000D02*
X118265000Y-112330000D01*
X123090000Y-114130000D02*
X124090000Y-113130000D01*
X114615000Y-112430000D02*
X112690000Y-112430000D01*
X112462792Y-101030000D02*
X113490000Y-101030000D01*
X109255000Y-106015000D02*
X109255000Y-113470000D01*
X119690000Y-114830000D02*
X120390000Y-114130000D01*
X113490000Y-101030000D02*
X118390000Y-101030000D01*
X119994999Y-106160001D02*
X119994999Y-110514999D01*
X122705000Y-103475000D02*
X122680000Y-103475000D01*
X109095000Y-103575000D02*
X109095000Y-105855000D01*
X113890000Y-116030000D02*
X121290000Y-116030000D01*
X119994999Y-110514999D02*
X120210000Y-110730000D01*
X112690000Y-112430000D02*
X112590000Y-112330000D01*
X153990000Y-118830000D02*
X153690000Y-118830000D01*
X145489999Y-132029999D02*
X147389979Y-132029999D01*
X112389980Y-132630000D02*
X119690000Y-132630000D01*
X118390000Y-118830000D02*
X118090000Y-118830000D01*
X158280000Y-121275000D02*
X155594999Y-123960001D01*
X114840000Y-130230000D02*
X116140000Y-131530000D01*
X112462792Y-133830000D02*
X113890000Y-133830000D01*
X120210000Y-128530000D02*
X120210000Y-130130000D01*
D12*
X122780000Y-121375000D02*
X122805000Y-121375000D01*
D19*
X153865000Y-130130000D02*
X153765000Y-130230000D01*
X155810000Y-128530000D02*
X155810000Y-130130000D01*
X144695000Y-123655000D02*
X144855000Y-123815000D01*
X150440000Y-130230000D02*
X151740000Y-131530000D01*
X144855000Y-131270000D02*
X144695000Y-131430000D01*
X155990000Y-131930000D02*
X158690000Y-131930000D01*
X147989980Y-132630000D02*
X155290000Y-132630000D01*
D12*
X158380000Y-121375000D02*
X158405000Y-121375000D01*
D19*
X148062792Y-133830000D02*
X149490000Y-133830000D01*
X150215000Y-130230000D02*
X150390000Y-130230000D01*
X138010000Y-110730000D02*
X138010000Y-112330000D01*
D12*
X140580000Y-103575000D02*
X140605000Y-103575000D01*
D19*
X130189980Y-114830000D02*
X137490000Y-114830000D01*
X127689999Y-114229999D02*
X129589979Y-114229999D01*
X127055000Y-113470000D02*
X126895000Y-113630000D01*
D12*
X126895000Y-106375000D02*
X127155000Y-106115000D01*
D19*
X128990000Y-101030000D02*
X130262792Y-101030000D01*
X132415000Y-112430000D02*
X132640000Y-112430000D01*
X141890000Y-106115000D02*
X141890000Y-113630000D01*
X126790000Y-113330000D02*
X127689999Y-114229999D01*
X136190000Y-101030000D02*
X135890000Y-101030000D01*
X138190000Y-114130000D02*
X140890000Y-114130000D01*
X140890000Y-114130000D02*
X141890000Y-113130000D01*
X138010000Y-112330000D02*
X136065000Y-112330000D01*
X127055000Y-106015000D02*
X127055000Y-113470000D01*
X131290000Y-101030000D02*
X136190000Y-101030000D01*
X126895000Y-103575000D02*
X126895000Y-105855000D01*
D12*
X126895000Y-105855000D02*
X127155000Y-106115000D01*
D19*
X137794999Y-110514999D02*
X138010000Y-110730000D01*
X130262792Y-116030000D02*
X131690000Y-116030000D01*
X132640000Y-112430000D02*
X133940000Y-113730000D01*
X129589979Y-114229999D02*
X130189980Y-114830000D01*
X130490000Y-112430000D02*
X130390000Y-112330000D01*
X126895000Y-105855000D02*
X127055000Y-106015000D01*
X132415000Y-112430000D02*
X132590000Y-112430000D01*
X136190000Y-101030000D02*
X139090000Y-101030000D01*
X132415000Y-112430000D02*
X130490000Y-112430000D01*
X140480000Y-103475000D02*
X137794999Y-106160001D01*
X140505000Y-103475000D02*
X140480000Y-103475000D01*
X137794999Y-106160001D02*
X137794999Y-110514999D01*
X130262792Y-101030000D02*
X131290000Y-101030000D01*
X137490000Y-114830000D02*
X138190000Y-114130000D01*
X131690000Y-116030000D02*
X139090000Y-116030000D01*
X128990000Y-116030000D02*
X130262792Y-116030000D01*
X136065000Y-112330000D02*
X135965000Y-112430000D01*
X158305000Y-103475000D02*
X158280000Y-103475000D01*
X148062792Y-101030000D02*
X149090000Y-101030000D01*
X155810000Y-112330000D02*
X153865000Y-112330000D01*
X144695000Y-103575000D02*
X144695000Y-105855000D01*
X149490000Y-116030000D02*
X156890000Y-116030000D01*
X159690000Y-106115000D02*
X159690000Y-113630000D01*
X155594999Y-110514999D02*
X155810000Y-110730000D01*
X148290000Y-112430000D02*
X148190000Y-112330000D01*
X158690000Y-114130000D02*
X159690000Y-113130000D01*
D12*
X144695000Y-106375000D02*
X144955000Y-106115000D01*
X144695000Y-105855000D02*
X144955000Y-106115000D01*
D19*
X147389979Y-114229999D02*
X147989980Y-114830000D01*
X150215000Y-112430000D02*
X150440000Y-112430000D01*
X155290000Y-114830000D02*
X155990000Y-114130000D01*
X144855000Y-106015000D02*
X144855000Y-113470000D01*
X150215000Y-112430000D02*
X148290000Y-112430000D01*
X146790000Y-116030000D02*
X148062792Y-116030000D01*
X149090000Y-101030000D02*
X153990000Y-101030000D01*
X144590000Y-113330000D02*
X145489999Y-114229999D01*
X155594999Y-106160001D02*
X155594999Y-110514999D01*
X153990000Y-101030000D02*
X156890000Y-101030000D01*
X146790000Y-101030000D02*
X148062792Y-101030000D01*
X124090000Y-123915000D02*
X124090000Y-131430000D01*
D12*
X126895000Y-124175000D02*
X127155000Y-123915000D01*
D19*
X126790000Y-131130000D02*
X127689999Y-132029999D01*
X109095000Y-123655000D02*
X109255000Y-123815000D01*
D12*
X109095000Y-124175000D02*
X109355000Y-123915000D01*
D19*
X122680000Y-121275000D02*
X119994999Y-123960001D01*
X112462792Y-118830000D02*
X113490000Y-118830000D01*
X122705000Y-121275000D02*
X122680000Y-121275000D01*
X113490000Y-118830000D02*
X118390000Y-118830000D01*
X109255000Y-131270000D02*
X109095000Y-131430000D01*
X109889999Y-132029999D02*
X111789979Y-132029999D01*
X108990000Y-131130000D02*
X109889999Y-132029999D01*
X119690000Y-132630000D02*
X120390000Y-131930000D01*
X109095000Y-121375000D02*
X109095000Y-123655000D01*
X118390000Y-118830000D02*
X121290000Y-118830000D01*
X111190000Y-133830000D02*
X112462792Y-133830000D01*
X114615000Y-130230000D02*
X114840000Y-130230000D01*
X120390000Y-131930000D02*
X123090000Y-131930000D01*
X119994999Y-123960001D02*
X119994999Y-128314999D01*
X109255000Y-123815000D02*
X109255000Y-131270000D01*
X112690000Y-130230000D02*
X112590000Y-130130000D01*
X138010000Y-128530000D02*
X138010000Y-130130000D01*
X127055000Y-131270000D02*
X126895000Y-131430000D01*
X141890000Y-123915000D02*
X141890000Y-131430000D01*
X136190000Y-118830000D02*
X135890000Y-118830000D01*
X127055000Y-123815000D02*
X127055000Y-131270000D01*
X114615000Y-130230000D02*
X112690000Y-130230000D01*
X114615000Y-130230000D02*
X114790000Y-130230000D01*
X140890000Y-131930000D02*
X141890000Y-130930000D01*
X126895000Y-121375000D02*
X126895000Y-123655000D01*
X118265000Y-130130000D02*
X118165000Y-130230000D01*
X123090000Y-131930000D02*
X124090000Y-130930000D01*
D12*
X140580000Y-121375000D02*
X140605000Y-121375000D01*
D19*
X128990000Y-118830000D02*
X130262792Y-118830000D01*
D12*
X109095000Y-123655000D02*
X109355000Y-123915000D01*
D19*
X137794999Y-128314999D02*
X138010000Y-128530000D01*
X130262792Y-133830000D02*
X131690000Y-133830000D01*
X120210000Y-130130000D02*
X118265000Y-130130000D01*
X119994999Y-128314999D02*
X120210000Y-128530000D01*
X130189980Y-132630000D02*
X137490000Y-132630000D01*
X111789979Y-132029999D02*
X112389980Y-132630000D01*
X111190000Y-118830000D02*
X112462792Y-118830000D01*
X113890000Y-133830000D02*
X121290000Y-133830000D01*
X127689999Y-132029999D02*
X129589979Y-132029999D01*
X132415000Y-130230000D02*
X132640000Y-130230000D01*
X138190000Y-131930000D02*
X140890000Y-131930000D01*
X138010000Y-130130000D02*
X136065000Y-130130000D01*
X131290000Y-118830000D02*
X136190000Y-118830000D01*
D12*
X126895000Y-123655000D02*
X127155000Y-123915000D01*
D19*
X132640000Y-130230000D02*
X133940000Y-131530000D01*
X129589979Y-132029999D02*
X130189980Y-132630000D01*
X208690000Y-132630000D02*
X209390000Y-131930000D01*
X198255000Y-123815000D02*
X198255000Y-131270000D01*
X200190000Y-133830000D02*
X201462792Y-133830000D01*
X193905000Y-121275000D02*
X193880000Y-121275000D01*
X180295000Y-123655000D02*
X180455000Y-123815000D01*
X203615000Y-130230000D02*
X201690000Y-130230000D01*
X176105000Y-103475000D02*
X176080000Y-103475000D01*
X163289999Y-114229999D02*
X165189979Y-114229999D01*
X168015000Y-112430000D02*
X168240000Y-112430000D01*
X176490000Y-114130000D02*
X177490000Y-113130000D01*
D12*
X162495000Y-105855000D02*
X162755000Y-106115000D01*
D19*
X162390000Y-113330000D02*
X163289999Y-114229999D01*
X165862792Y-101030000D02*
X166890000Y-101030000D01*
X168015000Y-112430000D02*
X166090000Y-112430000D01*
X162655000Y-106015000D02*
X162655000Y-113470000D01*
X173090000Y-114830000D02*
X173790000Y-114130000D01*
X173610000Y-112330000D02*
X171665000Y-112330000D01*
D12*
X162495000Y-106375000D02*
X162755000Y-106115000D01*
D19*
X171790000Y-101030000D02*
X174690000Y-101030000D01*
X164590000Y-116030000D02*
X165862792Y-116030000D01*
X173790000Y-114130000D02*
X176490000Y-114130000D01*
X173394999Y-106160001D02*
X173394999Y-110514999D01*
X162495000Y-103575000D02*
X162495000Y-105855000D01*
X164590000Y-101030000D02*
X165862792Y-101030000D01*
X176080000Y-103475000D02*
X173394999Y-106160001D01*
X171665000Y-112330000D02*
X171565000Y-112430000D01*
X177490000Y-106115000D02*
X177490000Y-113630000D01*
X167290000Y-116030000D02*
X174690000Y-116030000D01*
X162655000Y-113470000D02*
X162495000Y-113630000D01*
X166890000Y-101030000D02*
X171790000Y-101030000D01*
X165189979Y-114229999D02*
X165789980Y-114830000D01*
X193905000Y-50075000D02*
X193880000Y-50075000D01*
X208690000Y-61430000D02*
X209390000Y-60730000D01*
X203615000Y-59030000D02*
X201690000Y-59030000D01*
X180295000Y-52455000D02*
X180455000Y-52615000D01*
X198255000Y-52615000D02*
X198255000Y-60070000D01*
X200190000Y-62630000D02*
X201462792Y-62630000D01*
X208994999Y-52760001D02*
X208994999Y-57114999D01*
X185090000Y-62630000D02*
X192490000Y-62630000D01*
X213090000Y-52715000D02*
X213090000Y-60230000D01*
X209210000Y-58930000D02*
X207265000Y-58930000D01*
X182390000Y-62630000D02*
X183662792Y-62630000D01*
X211705000Y-50075000D02*
X211680000Y-50075000D01*
X212090000Y-60730000D02*
X213090000Y-59730000D01*
X203615000Y-59030000D02*
X203840000Y-59030000D01*
X183890000Y-59030000D02*
X183790000Y-58930000D01*
X185815000Y-59030000D02*
X183890000Y-59030000D01*
X193880000Y-50075000D02*
X191194999Y-52760001D01*
X202890000Y-62630000D02*
X210290000Y-62630000D01*
X185815000Y-59030000D02*
X185990000Y-59030000D01*
X191194999Y-52760001D02*
X191194999Y-57114999D01*
X189465000Y-58930000D02*
X189365000Y-59030000D01*
X198095000Y-50175000D02*
X198095000Y-52455000D01*
D12*
X198095000Y-52975000D02*
X198355000Y-52715000D01*
D19*
X189590000Y-47630000D02*
X192490000Y-47630000D01*
X190890000Y-61430000D02*
X191590000Y-60730000D01*
X201462792Y-47630000D02*
X202490000Y-47630000D01*
X208994999Y-57114999D02*
X209210000Y-57330000D01*
D12*
X198095000Y-52455000D02*
X198355000Y-52715000D01*
D19*
X183662792Y-47630000D02*
X184690000Y-47630000D01*
X200789979Y-60829999D02*
X201389980Y-61430000D01*
X202490000Y-47630000D02*
X207390000Y-47630000D01*
X197990000Y-59930000D02*
X198889999Y-60829999D01*
X207390000Y-47630000D02*
X210290000Y-47630000D01*
X200190000Y-47630000D02*
X201462792Y-47630000D01*
X201690000Y-59030000D02*
X201590000Y-58930000D01*
X193905000Y-85675000D02*
X193880000Y-85675000D01*
X208690000Y-97030000D02*
X209390000Y-96330000D01*
X203615000Y-94630000D02*
X201690000Y-94630000D01*
X208994999Y-88360001D02*
X208994999Y-92714999D01*
X185090000Y-98230000D02*
X192490000Y-98230000D01*
X213090000Y-88315000D02*
X213090000Y-95830000D01*
X198255000Y-88215000D02*
X198255000Y-95670000D01*
X209210000Y-94530000D02*
X207265000Y-94530000D01*
X200190000Y-98230000D02*
X201462792Y-98230000D01*
X182390000Y-98230000D02*
X183662792Y-98230000D01*
X211705000Y-85675000D02*
X211680000Y-85675000D01*
X180295000Y-88055000D02*
X180455000Y-88215000D01*
X191194999Y-110514999D02*
X191410000Y-110730000D01*
X185815000Y-112430000D02*
X183890000Y-112430000D01*
X180295000Y-103575000D02*
X180295000Y-105855000D01*
X184690000Y-101030000D02*
X189590000Y-101030000D01*
D12*
X180295000Y-105855000D02*
X180555000Y-106115000D01*
D19*
X180455000Y-106015000D02*
X180455000Y-113470000D01*
X186040000Y-112430000D02*
X187340000Y-113730000D01*
X182390000Y-101030000D02*
X183662792Y-101030000D01*
X180190000Y-113330000D02*
X181089999Y-114229999D01*
X182989979Y-114229999D02*
X183589980Y-114830000D01*
X189590000Y-101030000D02*
X189290000Y-101030000D01*
X185815000Y-112430000D02*
X185990000Y-112430000D01*
X180295000Y-105855000D02*
X180455000Y-106015000D01*
X189590000Y-101030000D02*
X192490000Y-101030000D01*
X193880000Y-103475000D02*
X191194999Y-106160001D01*
X185815000Y-112430000D02*
X186040000Y-112430000D01*
X193905000Y-103475000D02*
X193880000Y-103475000D01*
X195290000Y-106115000D02*
X195290000Y-113630000D01*
X191194999Y-106160001D02*
X191194999Y-110514999D01*
X194290000Y-114130000D02*
X195290000Y-113130000D01*
X191590000Y-114130000D02*
X194290000Y-114130000D01*
X191410000Y-112330000D02*
X189465000Y-112330000D01*
D12*
X180295000Y-106375000D02*
X180555000Y-106115000D01*
D19*
X183662792Y-116030000D02*
X185090000Y-116030000D01*
X183890000Y-112430000D02*
X183790000Y-112330000D01*
X207265000Y-41130000D02*
X207165000Y-41230000D01*
X209390000Y-42930000D02*
X212090000Y-42930000D01*
X209210000Y-39530000D02*
X209210000Y-41130000D01*
X198095000Y-34655000D02*
X198255000Y-34815000D01*
X201389980Y-43630000D02*
X208690000Y-43630000D01*
D12*
X211780000Y-32375000D02*
X211805000Y-32375000D01*
D19*
X201462792Y-44830000D02*
X202890000Y-44830000D01*
X203615000Y-41230000D02*
X203790000Y-41230000D01*
X207390000Y-29830000D02*
X207090000Y-29830000D01*
X203840000Y-41230000D02*
X205140000Y-42530000D01*
X198889999Y-43029999D02*
X200789979Y-43029999D01*
X211680000Y-32275000D02*
X208994999Y-34960001D01*
X198255000Y-42270000D02*
X198095000Y-42430000D01*
D12*
X180295000Y-123655000D02*
X180555000Y-123915000D01*
D19*
X182989979Y-132029999D02*
X183589980Y-132630000D01*
X191410000Y-130130000D02*
X189465000Y-130130000D01*
X186040000Y-130230000D02*
X187340000Y-131530000D01*
X184690000Y-118830000D02*
X189590000Y-118830000D01*
X185090000Y-133830000D02*
X192490000Y-133830000D01*
X208994999Y-123960001D02*
X208994999Y-128314999D01*
X185815000Y-130230000D02*
X183890000Y-130230000D01*
X189590000Y-118830000D02*
X192490000Y-118830000D01*
X212090000Y-131930000D02*
X213090000Y-130930000D01*
X193880000Y-121275000D02*
X191194999Y-123960001D01*
X190890000Y-132630000D02*
X191590000Y-131930000D01*
X203615000Y-130230000D02*
X203840000Y-130230000D01*
X200789979Y-132029999D02*
X201389980Y-132630000D01*
X189465000Y-130130000D02*
X189365000Y-130230000D01*
X198095000Y-121375000D02*
X198095000Y-123655000D01*
X213090000Y-123915000D02*
X213090000Y-131430000D01*
X202890000Y-133830000D02*
X210290000Y-133830000D01*
D12*
X198095000Y-124175000D02*
X198355000Y-123915000D01*
D19*
X201462792Y-118830000D02*
X202490000Y-118830000D01*
X208994999Y-128314999D02*
X209210000Y-128530000D01*
X183662792Y-118830000D02*
X184690000Y-118830000D01*
X209210000Y-130130000D02*
X207265000Y-130130000D01*
X185815000Y-130230000D02*
X185990000Y-130230000D01*
X191194999Y-123960001D02*
X191194999Y-128314999D01*
X182390000Y-133830000D02*
X183662792Y-133830000D01*
X211705000Y-121275000D02*
X211680000Y-121275000D01*
D12*
X198095000Y-123655000D02*
X198355000Y-123915000D01*
D19*
X183890000Y-130230000D02*
X183790000Y-130130000D01*
X165789980Y-43630000D02*
X173090000Y-43630000D01*
X171790000Y-29830000D02*
X171490000Y-29830000D01*
X168240000Y-41230000D02*
X169540000Y-42530000D01*
X173610000Y-39530000D02*
X173610000Y-41130000D01*
D12*
X176180000Y-32375000D02*
X176205000Y-32375000D01*
D19*
X165862792Y-44830000D02*
X167290000Y-44830000D01*
X162495000Y-34655000D02*
X162655000Y-34815000D01*
X168015000Y-41230000D02*
X168190000Y-41230000D01*
X163289999Y-43029999D02*
X165189979Y-43029999D01*
X176080000Y-32275000D02*
X173394999Y-34960001D01*
X162655000Y-42270000D02*
X162495000Y-42430000D01*
X171665000Y-41130000D02*
X171565000Y-41230000D01*
X173790000Y-42930000D02*
X176490000Y-42930000D01*
X171790000Y-29830000D02*
X174690000Y-29830000D01*
D12*
X162495000Y-35175000D02*
X162755000Y-34915000D01*
D19*
X164590000Y-29830000D02*
X165862792Y-29830000D01*
X164590000Y-44830000D02*
X165862792Y-44830000D01*
X177490000Y-34915000D02*
X177490000Y-42430000D01*
D12*
X162495000Y-34655000D02*
X162755000Y-34915000D01*
D19*
X168015000Y-41230000D02*
X168240000Y-41230000D01*
X165189979Y-43029999D02*
X165789980Y-43630000D01*
X162390000Y-42130000D02*
X163289999Y-43029999D01*
X173610000Y-41130000D02*
X171665000Y-41130000D01*
X176490000Y-42930000D02*
X177490000Y-41930000D01*
X168015000Y-41230000D02*
X166090000Y-41230000D01*
X165862792Y-29830000D02*
X166890000Y-29830000D01*
X162655000Y-34815000D02*
X162655000Y-42270000D01*
X173090000Y-43630000D02*
X173790000Y-42930000D01*
X166890000Y-29830000D02*
X171790000Y-29830000D01*
X173394999Y-34960001D02*
X173394999Y-39314999D01*
X176105000Y-32275000D02*
X176080000Y-32275000D01*
X162495000Y-32375000D02*
X162495000Y-34655000D01*
X167290000Y-44830000D02*
X174690000Y-44830000D01*
X173394999Y-39314999D02*
X173610000Y-39530000D01*
X166090000Y-41230000D02*
X165990000Y-41130000D01*
X168015000Y-130230000D02*
X168190000Y-130230000D01*
X191590000Y-131930000D02*
X194290000Y-131930000D01*
X189590000Y-118830000D02*
X189290000Y-118830000D01*
X180455000Y-123815000D02*
X180455000Y-131270000D01*
X194290000Y-131930000D02*
X195290000Y-130930000D01*
X168015000Y-130230000D02*
X166090000Y-130230000D01*
X183662792Y-133830000D02*
X185090000Y-133830000D01*
X176490000Y-131930000D02*
X177490000Y-130930000D01*
X181089999Y-132029999D02*
X182989979Y-132029999D01*
X171665000Y-130130000D02*
X171565000Y-130230000D01*
X180455000Y-131270000D02*
X180295000Y-131430000D01*
X191194999Y-128314999D02*
X191410000Y-128530000D01*
X182390000Y-118830000D02*
X183662792Y-118830000D01*
X195290000Y-123915000D02*
X195290000Y-131430000D01*
X191410000Y-128530000D02*
X191410000Y-130130000D01*
X180295000Y-121375000D02*
X180295000Y-123655000D01*
X173394999Y-128314999D02*
X173610000Y-128530000D01*
X173610000Y-130130000D02*
X171665000Y-130130000D01*
X183589980Y-132630000D02*
X190890000Y-132630000D01*
X166090000Y-130230000D02*
X165990000Y-130130000D01*
D12*
X162495000Y-123655000D02*
X162755000Y-123915000D01*
D19*
X165189979Y-132029999D02*
X165789980Y-132630000D01*
D12*
X193980000Y-121375000D02*
X194005000Y-121375000D01*
D19*
X164590000Y-118830000D02*
X165862792Y-118830000D01*
X167290000Y-133830000D02*
X174690000Y-133830000D01*
X185815000Y-130230000D02*
X186040000Y-130230000D01*
X183662792Y-101030000D02*
X184690000Y-101030000D01*
X209210000Y-112330000D02*
X207265000Y-112330000D01*
X182390000Y-116030000D02*
X183662792Y-116030000D01*
X200789979Y-114229999D02*
X201389980Y-114830000D01*
X189465000Y-112330000D02*
X189365000Y-112430000D01*
X211705000Y-103475000D02*
X211680000Y-103475000D01*
D12*
X198095000Y-106375000D02*
X198355000Y-106115000D01*
D19*
X201462792Y-101030000D02*
X202490000Y-101030000D01*
X208994999Y-110514999D02*
X209210000Y-110730000D01*
X203615000Y-112430000D02*
X203840000Y-112430000D01*
X202890000Y-116030000D02*
X210290000Y-116030000D01*
X185090000Y-116030000D02*
X192490000Y-116030000D01*
D12*
X198095000Y-105855000D02*
X198355000Y-106115000D01*
D19*
X203615000Y-112430000D02*
X201690000Y-112430000D01*
X190890000Y-114830000D02*
X191590000Y-114130000D01*
X201690000Y-112430000D02*
X201590000Y-112330000D01*
X198255000Y-106015000D02*
X198255000Y-113470000D01*
X200190000Y-116030000D02*
X201462792Y-116030000D01*
X213090000Y-106115000D02*
X213090000Y-113630000D01*
X208690000Y-114830000D02*
X209390000Y-114130000D01*
X212090000Y-114130000D02*
X213090000Y-113130000D01*
X198095000Y-103575000D02*
X198095000Y-105855000D01*
X202490000Y-101030000D02*
X207390000Y-101030000D01*
X198095000Y-123655000D02*
X198255000Y-123815000D01*
X165862792Y-133830000D02*
X167290000Y-133830000D01*
D12*
X193980000Y-103575000D02*
X194005000Y-103575000D01*
D19*
X201389980Y-132630000D02*
X208690000Y-132630000D01*
X171790000Y-118830000D02*
X171490000Y-118830000D01*
X209390000Y-131930000D02*
X212090000Y-131930000D01*
X180455000Y-113470000D02*
X180295000Y-113630000D01*
X203615000Y-130230000D02*
X203790000Y-130230000D01*
X207265000Y-130130000D02*
X207165000Y-130230000D01*
X201462792Y-133830000D02*
X202890000Y-133830000D01*
X207390000Y-118830000D02*
X207090000Y-118830000D01*
X166090000Y-112430000D02*
X165990000Y-112330000D01*
X173610000Y-128530000D02*
X173610000Y-130130000D01*
X209210000Y-128530000D02*
X209210000Y-130130000D01*
X198255000Y-131270000D02*
X198095000Y-131430000D01*
D12*
X211780000Y-121375000D02*
X211805000Y-121375000D01*
D19*
X173394999Y-110514999D02*
X173610000Y-110730000D01*
X198889999Y-132029999D02*
X200789979Y-132029999D01*
X203840000Y-130230000D02*
X205140000Y-131530000D01*
D12*
X176180000Y-121375000D02*
X176205000Y-121375000D01*
D19*
X191410000Y-110730000D02*
X191410000Y-112330000D01*
X183589980Y-114830000D02*
X190890000Y-114830000D01*
X165789980Y-132630000D02*
X173090000Y-132630000D01*
X211680000Y-121275000D02*
X208994999Y-123960001D01*
X181089999Y-114229999D02*
X182989979Y-114229999D01*
X168240000Y-130230000D02*
X169540000Y-131530000D01*
X165189979Y-96429999D02*
X165789980Y-97030000D01*
X173090000Y-97030000D02*
X173790000Y-96330000D01*
X167290000Y-98230000D02*
X174690000Y-98230000D01*
X184690000Y-83230000D02*
X189590000Y-83230000D01*
X191590000Y-96330000D02*
X194290000Y-96330000D01*
X182989979Y-96429999D02*
X183589980Y-97030000D01*
X173610000Y-94530000D02*
X171665000Y-94530000D01*
X194290000Y-96330000D02*
X195290000Y-95330000D01*
X189590000Y-83230000D02*
X189290000Y-83230000D01*
X168015000Y-94630000D02*
X166090000Y-94630000D01*
X186040000Y-94630000D02*
X187340000Y-95930000D01*
X182390000Y-83230000D02*
X183662792Y-83230000D01*
X191410000Y-94530000D02*
X189465000Y-94530000D01*
X195290000Y-88315000D02*
X195290000Y-95830000D01*
X173394999Y-88360001D02*
X173394999Y-92714999D01*
X171665000Y-94530000D02*
X171565000Y-94630000D01*
X163289999Y-96429999D02*
X165189979Y-96429999D01*
X168015000Y-94630000D02*
X168240000Y-94630000D01*
X173790000Y-96330000D02*
X176490000Y-96330000D01*
X185815000Y-94630000D02*
X186040000Y-94630000D01*
X171790000Y-83230000D02*
X174690000Y-83230000D01*
X166090000Y-94630000D02*
X165990000Y-94530000D01*
X180455000Y-95670000D02*
X180295000Y-95830000D01*
D12*
X193980000Y-85775000D02*
X194005000Y-85775000D01*
X180295000Y-88055000D02*
X180555000Y-88315000D01*
D19*
X168015000Y-94630000D02*
X168190000Y-94630000D01*
X183662792Y-98230000D02*
X185090000Y-98230000D01*
X181089999Y-96429999D02*
X182989979Y-96429999D01*
X164590000Y-98230000D02*
X165862792Y-98230000D01*
X191410000Y-92930000D02*
X191410000Y-94530000D01*
X162495000Y-85775000D02*
X162495000Y-88055000D01*
X180455000Y-88215000D02*
X180455000Y-95670000D01*
X176490000Y-96330000D02*
X177490000Y-95330000D01*
X180295000Y-85775000D02*
X180295000Y-88055000D01*
X183589980Y-97030000D02*
X190890000Y-97030000D01*
X162390000Y-95530000D02*
X163289999Y-96429999D01*
X162655000Y-88215000D02*
X162655000Y-95670000D01*
D12*
X162495000Y-88055000D02*
X162755000Y-88315000D01*
D19*
X164590000Y-83230000D02*
X165862792Y-83230000D01*
X173394999Y-92714999D02*
X173610000Y-92930000D01*
X191194999Y-92714999D02*
X191410000Y-92930000D01*
X207390000Y-47630000D02*
X207090000Y-47630000D01*
X198889999Y-60829999D02*
X200789979Y-60829999D01*
X165789980Y-61430000D02*
X173090000Y-61430000D01*
X171790000Y-47630000D02*
X171490000Y-47630000D01*
X211680000Y-50075000D02*
X208994999Y-52760001D01*
X168240000Y-59030000D02*
X169540000Y-60330000D01*
X165862792Y-62630000D02*
X167290000Y-62630000D01*
X173610000Y-57330000D02*
X173610000Y-58930000D01*
D12*
X176180000Y-50175000D02*
X176205000Y-50175000D01*
D19*
X207265000Y-58930000D02*
X207165000Y-59030000D01*
X209210000Y-57330000D02*
X209210000Y-58930000D01*
X198095000Y-52455000D02*
X198255000Y-52615000D01*
X203840000Y-59030000D02*
X205140000Y-60330000D01*
X198255000Y-60070000D02*
X198095000Y-60230000D01*
X209390000Y-60730000D02*
X212090000Y-60730000D01*
X201389980Y-61430000D02*
X208690000Y-61430000D01*
D12*
X211780000Y-50175000D02*
X211805000Y-50175000D01*
D19*
X201462792Y-62630000D02*
X202890000Y-62630000D01*
X203615000Y-59030000D02*
X203790000Y-59030000D01*
X212090000Y-96330000D02*
X213090000Y-95330000D01*
D12*
X162495000Y-70775000D02*
X162755000Y-70515000D01*
D19*
X190890000Y-97030000D02*
X191590000Y-96330000D01*
X203840000Y-76830000D02*
X205140000Y-78130000D01*
X164590000Y-80430000D02*
X165862792Y-80430000D01*
D12*
X176180000Y-67975000D02*
X176205000Y-67975000D01*
D19*
X171790000Y-65430000D02*
X174690000Y-65430000D01*
X177490000Y-70515000D02*
X177490000Y-78030000D01*
X201389980Y-79230000D02*
X208690000Y-79230000D01*
X171790000Y-65430000D02*
X171490000Y-65430000D01*
X164590000Y-65430000D02*
X165862792Y-65430000D01*
X200789979Y-96429999D02*
X201389980Y-97030000D01*
X185815000Y-94630000D02*
X183890000Y-94630000D01*
X207265000Y-76730000D02*
X207165000Y-76830000D01*
X165789980Y-79230000D02*
X173090000Y-79230000D01*
X193880000Y-85675000D02*
X191194999Y-88360001D01*
X165862792Y-80430000D02*
X167290000Y-80430000D01*
X183662792Y-83230000D02*
X184690000Y-83230000D01*
X198095000Y-70255000D02*
X198255000Y-70415000D01*
D12*
X211780000Y-67975000D02*
X211805000Y-67975000D01*
D19*
X207390000Y-65430000D02*
X207090000Y-65430000D01*
X173610000Y-75130000D02*
X173610000Y-76730000D01*
D12*
X198095000Y-88055000D02*
X198355000Y-88315000D01*
D19*
X189590000Y-83230000D02*
X192490000Y-83230000D01*
X200190000Y-83230000D02*
X201462792Y-83230000D01*
X209390000Y-78530000D02*
X212090000Y-78530000D01*
X197990000Y-95530000D02*
X198889999Y-96429999D01*
X211680000Y-67875000D02*
X208994999Y-70560001D01*
X168240000Y-76830000D02*
X169540000Y-78130000D01*
X207390000Y-83230000D02*
X210290000Y-83230000D01*
X201690000Y-94630000D02*
X201590000Y-94530000D01*
X209210000Y-75130000D02*
X209210000Y-76730000D01*
X198095000Y-85775000D02*
X198095000Y-88055000D01*
X201462792Y-80430000D02*
X202890000Y-80430000D01*
X162495000Y-70255000D02*
X162655000Y-70415000D01*
X168015000Y-76830000D02*
X168190000Y-76830000D01*
X176080000Y-67875000D02*
X173394999Y-70560001D01*
X162655000Y-77870000D02*
X162495000Y-78030000D01*
X163289999Y-78629999D02*
X165189979Y-78629999D01*
X171665000Y-76730000D02*
X171565000Y-76830000D01*
X202890000Y-98230000D02*
X210290000Y-98230000D01*
X191194999Y-88360001D02*
X191194999Y-92714999D01*
X173790000Y-78530000D02*
X176490000Y-78530000D01*
X183890000Y-94630000D02*
X183790000Y-94530000D01*
X185815000Y-94630000D02*
X185990000Y-94630000D01*
X203615000Y-94630000D02*
X203840000Y-94630000D01*
D12*
X198095000Y-88575000D02*
X198355000Y-88315000D01*
D19*
X201462792Y-83230000D02*
X202490000Y-83230000D01*
X208994999Y-92714999D02*
X209210000Y-92930000D01*
X202490000Y-83230000D02*
X207390000Y-83230000D01*
X203615000Y-76830000D02*
X203790000Y-76830000D01*
X198889999Y-78629999D02*
X200789979Y-78629999D01*
X198255000Y-77870000D02*
X198095000Y-78030000D01*
X189465000Y-94530000D02*
X189365000Y-94630000D01*
X209210000Y-110730000D02*
X209210000Y-112330000D01*
D12*
X211780000Y-103575000D02*
X211805000Y-103575000D01*
D19*
X203840000Y-112430000D02*
X205140000Y-113730000D01*
X171790000Y-101030000D02*
X171490000Y-101030000D01*
X198889999Y-114229999D02*
X200789979Y-114229999D01*
X173610000Y-110730000D02*
X173610000Y-112330000D01*
X198255000Y-113470000D02*
X198095000Y-113630000D01*
X162495000Y-105855000D02*
X162655000Y-106015000D01*
X207390000Y-101030000D02*
X207090000Y-101030000D01*
X165862792Y-116030000D02*
X167290000Y-116030000D01*
D12*
X176180000Y-103575000D02*
X176205000Y-103575000D01*
D19*
X201690000Y-130230000D02*
X201590000Y-130130000D01*
X209390000Y-114130000D02*
X212090000Y-114130000D01*
X168015000Y-112430000D02*
X168190000Y-112430000D01*
X197990000Y-131130000D02*
X198889999Y-132029999D01*
X198095000Y-105855000D02*
X198255000Y-106015000D01*
X202490000Y-118830000D02*
X207390000Y-118830000D01*
X211680000Y-103475000D02*
X208994999Y-106160001D01*
X203615000Y-112430000D02*
X203790000Y-112430000D01*
X165789980Y-114830000D02*
X173090000Y-114830000D01*
X168240000Y-112430000D02*
X169540000Y-113730000D01*
X207390000Y-118830000D02*
X210290000Y-118830000D01*
X200190000Y-118830000D02*
X201462792Y-118830000D01*
X207265000Y-112330000D02*
X207165000Y-112430000D01*
X201389980Y-114830000D02*
X208690000Y-114830000D01*
X201462792Y-116030000D02*
X202890000Y-116030000D01*
X191410000Y-39530000D02*
X191410000Y-41130000D01*
D12*
X193980000Y-32375000D02*
X194005000Y-32375000D01*
D19*
X183589980Y-43630000D02*
X190890000Y-43630000D01*
X181089999Y-43029999D02*
X182989979Y-43029999D01*
X180455000Y-42270000D02*
X180295000Y-42430000D01*
D12*
X180295000Y-35175000D02*
X180555000Y-34915000D01*
D19*
X182390000Y-29830000D02*
X183662792Y-29830000D01*
X185815000Y-41230000D02*
X186040000Y-41230000D01*
X195290000Y-34915000D02*
X195290000Y-42430000D01*
X180190000Y-42130000D02*
X181089999Y-43029999D01*
X189590000Y-29830000D02*
X189290000Y-29830000D01*
X191590000Y-42930000D02*
X194290000Y-42930000D01*
X194290000Y-42930000D02*
X195290000Y-41930000D01*
X191410000Y-41130000D02*
X189465000Y-41130000D01*
X180455000Y-34815000D02*
X180455000Y-42270000D01*
X184690000Y-29830000D02*
X189590000Y-29830000D01*
X180295000Y-32375000D02*
X180295000Y-34655000D01*
D12*
X180295000Y-34655000D02*
X180555000Y-34915000D01*
D19*
X191194999Y-39314999D02*
X191410000Y-39530000D01*
X183662792Y-44830000D02*
X185090000Y-44830000D01*
X186040000Y-41230000D02*
X187340000Y-42530000D01*
X182989979Y-43029999D02*
X183589980Y-43630000D01*
X183890000Y-41230000D02*
X183790000Y-41130000D01*
X180295000Y-34655000D02*
X180455000Y-34815000D01*
X185815000Y-41230000D02*
X185990000Y-41230000D01*
X189590000Y-29830000D02*
X192490000Y-29830000D01*
X185815000Y-41230000D02*
X183890000Y-41230000D01*
X193880000Y-32275000D02*
X191194999Y-34960001D01*
X193905000Y-32275000D02*
X193880000Y-32275000D01*
X191194999Y-34960001D02*
X191194999Y-39314999D01*
X183662792Y-29830000D02*
X184690000Y-29830000D01*
X190890000Y-43630000D02*
X191590000Y-42930000D01*
X185090000Y-44830000D02*
X192490000Y-44830000D01*
X182390000Y-44830000D02*
X183662792Y-44830000D01*
X189465000Y-41130000D02*
X189365000Y-41230000D01*
X162495000Y-67975000D02*
X162495000Y-70255000D01*
X201462792Y-98230000D02*
X202890000Y-98230000D01*
X181089999Y-78629999D02*
X182989979Y-78629999D01*
X209210000Y-92930000D02*
X209210000Y-94530000D01*
D12*
X176180000Y-85775000D02*
X176205000Y-85775000D01*
D19*
X195290000Y-70515000D02*
X195290000Y-78030000D01*
X180455000Y-70415000D02*
X180455000Y-77870000D01*
X176490000Y-78530000D02*
X177490000Y-77530000D01*
X162655000Y-70415000D02*
X162655000Y-77870000D01*
X184690000Y-65430000D02*
X189590000Y-65430000D01*
X173610000Y-92930000D02*
X173610000Y-94530000D01*
X180295000Y-67975000D02*
X180295000Y-70255000D01*
X165189979Y-78629999D02*
X165789980Y-79230000D01*
D12*
X193980000Y-67975000D02*
X194005000Y-67975000D01*
D19*
X168015000Y-76830000D02*
X166090000Y-76830000D01*
X182390000Y-65430000D02*
X183662792Y-65430000D01*
X168015000Y-76830000D02*
X168240000Y-76830000D01*
X173610000Y-76730000D02*
X171665000Y-76730000D01*
X191590000Y-78530000D02*
X194290000Y-78530000D01*
X183662792Y-80430000D02*
X185090000Y-80430000D01*
X182989979Y-78629999D02*
X183589980Y-79230000D01*
X165862792Y-98230000D02*
X167290000Y-98230000D01*
X183890000Y-76830000D02*
X183790000Y-76730000D01*
D12*
X162495000Y-70255000D02*
X162755000Y-70515000D01*
D19*
X176105000Y-67875000D02*
X176080000Y-67875000D01*
X162390000Y-77730000D02*
X163289999Y-78629999D01*
X166090000Y-76830000D02*
X165990000Y-76730000D01*
X207390000Y-83230000D02*
X207090000Y-83230000D01*
X171790000Y-83230000D02*
X171490000Y-83230000D01*
X198255000Y-95670000D02*
X198095000Y-95830000D01*
X198095000Y-88055000D02*
X198255000Y-88215000D01*
X209390000Y-96330000D02*
X212090000Y-96330000D01*
X201389980Y-97030000D02*
X208690000Y-97030000D01*
X168240000Y-94630000D02*
X169540000Y-95930000D01*
X211680000Y-85675000D02*
X208994999Y-88360001D01*
X203840000Y-94630000D02*
X205140000Y-95930000D01*
X165862792Y-65430000D02*
X166890000Y-65430000D01*
D12*
X211780000Y-85775000D02*
X211805000Y-85775000D01*
D19*
X203615000Y-94630000D02*
X203790000Y-94630000D01*
X183589980Y-79230000D02*
X190890000Y-79230000D01*
X180455000Y-77870000D02*
X180295000Y-78030000D01*
D12*
X180295000Y-70775000D02*
X180555000Y-70515000D01*
D19*
X207265000Y-94530000D02*
X207165000Y-94630000D01*
X180190000Y-77730000D02*
X181089999Y-78629999D01*
X189590000Y-65430000D02*
X189290000Y-65430000D01*
D12*
X180295000Y-70255000D02*
X180555000Y-70515000D01*
D19*
X191194999Y-74914999D02*
X191410000Y-75130000D01*
X186040000Y-76830000D02*
X187340000Y-78130000D01*
X166890000Y-65430000D02*
X171790000Y-65430000D01*
X167290000Y-80430000D02*
X174690000Y-80430000D01*
X173394999Y-74914999D02*
X173610000Y-75130000D01*
X198889999Y-96429999D02*
X200789979Y-96429999D01*
X165789980Y-97030000D02*
X173090000Y-97030000D01*
X191410000Y-75130000D02*
X191410000Y-76730000D01*
X194290000Y-78530000D02*
X195290000Y-77530000D01*
X191410000Y-76730000D02*
X189465000Y-76730000D01*
X173090000Y-79230000D02*
X173790000Y-78530000D01*
X173394999Y-70560001D02*
X173394999Y-74914999D01*
X185815000Y-76830000D02*
X186040000Y-76830000D01*
X203615000Y-76830000D02*
X203840000Y-76830000D01*
X185815000Y-76830000D02*
X183890000Y-76830000D01*
X208994999Y-74914999D02*
X209210000Y-75130000D01*
X201462792Y-65430000D02*
X202490000Y-65430000D01*
X185815000Y-76830000D02*
X185990000Y-76830000D01*
X185090000Y-80430000D02*
X192490000Y-80430000D01*
X182390000Y-80430000D02*
X183662792Y-80430000D01*
X212090000Y-78530000D02*
X213090000Y-77530000D01*
X203615000Y-76830000D02*
X201690000Y-76830000D01*
X200190000Y-80430000D02*
X201462792Y-80430000D01*
X197990000Y-77730000D02*
X198889999Y-78629999D01*
X208690000Y-79230000D02*
X209390000Y-78530000D01*
X177490000Y-88315000D02*
X177490000Y-95830000D01*
D12*
X180295000Y-88575000D02*
X180555000Y-88315000D01*
D19*
X180190000Y-95530000D02*
X181089999Y-96429999D01*
X162495000Y-88055000D02*
X162655000Y-88215000D01*
X191194999Y-70560001D02*
X191194999Y-74914999D01*
X198255000Y-70415000D02*
X198255000Y-77870000D01*
X208994999Y-70560001D02*
X208994999Y-74914999D01*
X190890000Y-79230000D02*
X191590000Y-78530000D01*
X202890000Y-80430000D02*
X210290000Y-80430000D01*
X198095000Y-67975000D02*
X198095000Y-70255000D01*
X200789979Y-78629999D02*
X201389980Y-79230000D01*
D12*
X198095000Y-70775000D02*
X198355000Y-70515000D01*
D19*
X202490000Y-65430000D02*
X207390000Y-65430000D01*
X213090000Y-70515000D02*
X213090000Y-78030000D01*
X193905000Y-67875000D02*
X193880000Y-67875000D01*
X207390000Y-65430000D02*
X210290000Y-65430000D01*
X201690000Y-76830000D02*
X201590000Y-76730000D01*
D12*
X162495000Y-88575000D02*
X162755000Y-88315000D01*
D19*
X176080000Y-85675000D02*
X173394999Y-88360001D01*
X165862792Y-83230000D02*
X166890000Y-83230000D01*
X176105000Y-85675000D02*
X176080000Y-85675000D01*
X189590000Y-65430000D02*
X192490000Y-65430000D01*
X200190000Y-65430000D02*
X201462792Y-65430000D01*
X166890000Y-83230000D02*
X171790000Y-83230000D01*
X162655000Y-95670000D02*
X162495000Y-95830000D01*
X193880000Y-67875000D02*
X191194999Y-70560001D01*
X189465000Y-76730000D02*
X189365000Y-76830000D01*
X209210000Y-76730000D02*
X207265000Y-76730000D01*
X180295000Y-70255000D02*
X180455000Y-70415000D01*
D12*
X198095000Y-70255000D02*
X198355000Y-70515000D01*
D19*
X211705000Y-67875000D02*
X211680000Y-67875000D01*
X183662792Y-65430000D02*
X184690000Y-65430000D01*
X211705000Y-32275000D02*
X211680000Y-32275000D01*
X201462792Y-29830000D02*
X202490000Y-29830000D01*
X209210000Y-41130000D02*
X207265000Y-41130000D01*
X198095000Y-32375000D02*
X198095000Y-34655000D01*
X202890000Y-44830000D02*
X210290000Y-44830000D01*
X213090000Y-34915000D02*
X213090000Y-42430000D01*
X208994999Y-39314999D02*
X209210000Y-39530000D01*
X201690000Y-41230000D02*
X201590000Y-41130000D01*
X212090000Y-42930000D02*
X213090000Y-41930000D01*
D12*
X198095000Y-35175000D02*
X198355000Y-34915000D01*
X198095000Y-34655000D02*
X198355000Y-34915000D01*
D19*
X200789979Y-43029999D02*
X201389980Y-43630000D01*
X203615000Y-41230000D02*
X203840000Y-41230000D01*
X208690000Y-43630000D02*
X209390000Y-42930000D01*
X198255000Y-34815000D02*
X198255000Y-42270000D01*
X203615000Y-41230000D02*
X201690000Y-41230000D01*
X200190000Y-44830000D02*
X201462792Y-44830000D01*
X202490000Y-29830000D02*
X207390000Y-29830000D01*
X197990000Y-42130000D02*
X198889999Y-43029999D01*
X208994999Y-34960001D02*
X208994999Y-39314999D01*
X207390000Y-29830000D02*
X210290000Y-29830000D01*
X200190000Y-29830000D02*
X201462792Y-29830000D01*
X177490000Y-52715000D02*
X177490000Y-60230000D01*
D12*
X180295000Y-52975000D02*
X180555000Y-52715000D01*
D19*
X180190000Y-59930000D02*
X181089999Y-60829999D01*
X162495000Y-52455000D02*
X162655000Y-52615000D01*
D12*
X162495000Y-52975000D02*
X162755000Y-52715000D01*
D19*
X176080000Y-50075000D02*
X173394999Y-52760001D01*
X165862792Y-47630000D02*
X166890000Y-47630000D01*
X176105000Y-50075000D02*
X176080000Y-50075000D01*
X166890000Y-47630000D02*
X171790000Y-47630000D01*
X162655000Y-60070000D02*
X162495000Y-60230000D01*
X163289999Y-60829999D02*
X165189979Y-60829999D01*
X162390000Y-59930000D02*
X163289999Y-60829999D01*
X173090000Y-61430000D02*
X173790000Y-60730000D01*
X162495000Y-50175000D02*
X162495000Y-52455000D01*
X171790000Y-47630000D02*
X174690000Y-47630000D01*
X164590000Y-62630000D02*
X165862792Y-62630000D01*
X168015000Y-59030000D02*
X168240000Y-59030000D01*
X173790000Y-60730000D02*
X176490000Y-60730000D01*
X173394999Y-52760001D02*
X173394999Y-57114999D01*
X162655000Y-52615000D02*
X162655000Y-60070000D01*
X166090000Y-59030000D02*
X165990000Y-58930000D01*
X191410000Y-57330000D02*
X191410000Y-58930000D01*
X180455000Y-60070000D02*
X180295000Y-60230000D01*
X195290000Y-52715000D02*
X195290000Y-60230000D01*
X189590000Y-47630000D02*
X189290000Y-47630000D01*
X180455000Y-52615000D02*
X180455000Y-60070000D01*
X168015000Y-59030000D02*
X166090000Y-59030000D01*
X168015000Y-59030000D02*
X168190000Y-59030000D01*
X194290000Y-60730000D02*
X195290000Y-59730000D01*
X180295000Y-50175000D02*
X180295000Y-52455000D01*
X171665000Y-58930000D02*
X171565000Y-59030000D01*
X176490000Y-60730000D02*
X177490000Y-59730000D01*
D12*
X193980000Y-50175000D02*
X194005000Y-50175000D01*
D19*
X182390000Y-47630000D02*
X183662792Y-47630000D01*
D12*
X162495000Y-52455000D02*
X162755000Y-52715000D01*
D19*
X191194999Y-57114999D02*
X191410000Y-57330000D01*
X183662792Y-62630000D02*
X185090000Y-62630000D01*
X173610000Y-58930000D02*
X171665000Y-58930000D01*
X173394999Y-57114999D02*
X173610000Y-57330000D01*
X183589980Y-61430000D02*
X190890000Y-61430000D01*
X165189979Y-60829999D02*
X165789980Y-61430000D01*
X164590000Y-47630000D02*
X165862792Y-47630000D01*
X167290000Y-62630000D02*
X174690000Y-62630000D01*
X181089999Y-60829999D02*
X182989979Y-60829999D01*
X185815000Y-59030000D02*
X186040000Y-59030000D01*
X191590000Y-60730000D02*
X194290000Y-60730000D01*
X191410000Y-58930000D02*
X189465000Y-58930000D01*
X184690000Y-47630000D02*
X189590000Y-47630000D01*
D12*
X180295000Y-52455000D02*
X180555000Y-52715000D01*
D19*
X186040000Y-59030000D02*
X187340000Y-60330000D01*
X182989979Y-60829999D02*
X183589980Y-61430000D01*
X162390000Y-131130000D02*
X163289999Y-132029999D01*
X207390000Y-101030000D02*
X210290000Y-101030000D01*
X162495000Y-123655000D02*
X162655000Y-123815000D01*
X173090000Y-132630000D02*
X173790000Y-131930000D01*
X171790000Y-118830000D02*
X174690000Y-118830000D01*
X164590000Y-133830000D02*
X165862792Y-133830000D01*
X168015000Y-130230000D02*
X168240000Y-130230000D01*
X176080000Y-121275000D02*
X173394999Y-123960001D01*
X173790000Y-131930000D02*
X176490000Y-131930000D01*
X173394999Y-123960001D02*
X173394999Y-128314999D01*
X197990000Y-113330000D02*
X198889999Y-114229999D01*
X162655000Y-131270000D02*
X162495000Y-131430000D01*
X165862792Y-118830000D02*
X166890000Y-118830000D01*
X162655000Y-123815000D02*
X162655000Y-131270000D01*
D12*
X180295000Y-124175000D02*
X180555000Y-123915000D01*
D19*
X176105000Y-121275000D02*
X176080000Y-121275000D01*
X166890000Y-118830000D02*
X171790000Y-118830000D01*
X180190000Y-131130000D02*
X181089999Y-132029999D01*
X177490000Y-123915000D02*
X177490000Y-131430000D01*
X163289999Y-132029999D02*
X165189979Y-132029999D01*
X200190000Y-101030000D02*
X201462792Y-101030000D01*
X208994999Y-106160001D02*
X208994999Y-110514999D01*
D12*
X162495000Y-124175000D02*
X162755000Y-123915000D01*
D19*
X162495000Y-121375000D02*
X162495000Y-123655000D01*
M02*
