G04 #@! TF.GenerationSoftware,KiCad,Pcbnew,(5.1.4)-1*
G04 #@! TF.CreationDate,2020-01-11T14:22:52+01:00*
G04 #@! TF.ProjectId,plaque2,706c6171-7565-4322-9e6b-696361645f70,1*
G04 #@! TF.SameCoordinates,Original*
G04 #@! TF.FileFunction,Paste,Bot*
G04 #@! TF.FilePolarity,Positive*
%FSLAX46Y46*%
G04 Gerber Fmt 4.6, Leading zero omitted, Abs format (unit mm)*
G04 Created by KiCad (PCBNEW (5.1.4)-1) date 2020-01-11 14:22:52*
%MOMM*%
%LPD*%
G04 APERTURE LIST*
%ADD10R,2.550000X2.500000*%
%ADD11R,1.300000X0.950000*%
G04 APERTURE END LIST*
D10*
X180455000Y-106015000D03*
X193905000Y-103475000D03*
X198255000Y-106015000D03*
X211705000Y-103475000D03*
D11*
X207165000Y-112430000D03*
X203615000Y-112430000D03*
D10*
X176105000Y-103475000D03*
X162655000Y-106015000D03*
D11*
X168015000Y-112430000D03*
X171565000Y-112430000D03*
X189365000Y-112430000D03*
X185815000Y-112430000D03*
X185815000Y-41230000D03*
X189365000Y-41230000D03*
D10*
X193905000Y-32275000D03*
X180455000Y-34815000D03*
X211705000Y-121275000D03*
X198255000Y-123815000D03*
X193905000Y-121275000D03*
X180455000Y-123815000D03*
D11*
X185815000Y-130230000D03*
X189365000Y-130230000D03*
D10*
X162655000Y-123815000D03*
X176105000Y-121275000D03*
D11*
X171565000Y-130230000D03*
X168015000Y-130230000D03*
X203615000Y-130230000D03*
X207165000Y-130230000D03*
X203615000Y-41230000D03*
X207165000Y-41230000D03*
D10*
X211705000Y-32275000D03*
X198255000Y-34815000D03*
X162655000Y-88215000D03*
X176105000Y-85675000D03*
D11*
X171565000Y-94630000D03*
X168015000Y-94630000D03*
X203615000Y-94630000D03*
X207165000Y-94630000D03*
D10*
X198255000Y-70415000D03*
X211705000Y-67875000D03*
D11*
X168015000Y-76830000D03*
X171565000Y-76830000D03*
X207165000Y-76830000D03*
X203615000Y-76830000D03*
X189365000Y-76830000D03*
X185815000Y-76830000D03*
D10*
X180455000Y-70415000D03*
X193905000Y-67875000D03*
D11*
X171565000Y-41230000D03*
X168015000Y-41230000D03*
D10*
X162655000Y-34815000D03*
X176105000Y-32275000D03*
X176105000Y-67875000D03*
X162655000Y-70415000D03*
D11*
X185815000Y-94630000D03*
X189365000Y-94630000D03*
D10*
X211705000Y-85675000D03*
X198255000Y-88215000D03*
X193905000Y-85675000D03*
X180455000Y-88215000D03*
X198255000Y-52615000D03*
X211705000Y-50075000D03*
X180455000Y-52615000D03*
X193905000Y-50075000D03*
D11*
X189365000Y-59030000D03*
X185815000Y-59030000D03*
D10*
X176105000Y-50075000D03*
X162655000Y-52615000D03*
D11*
X168015000Y-59030000D03*
X171565000Y-59030000D03*
X207165000Y-59030000D03*
X203615000Y-59030000D03*
X132415000Y-112430000D03*
X135965000Y-112430000D03*
D10*
X140505000Y-103475000D03*
X127055000Y-106015000D03*
D11*
X150215000Y-112430000D03*
X153765000Y-112430000D03*
D10*
X158305000Y-103475000D03*
X144855000Y-106015000D03*
D11*
X118165000Y-112430000D03*
X114615000Y-112430000D03*
D10*
X109255000Y-106015000D03*
X122705000Y-103475000D03*
X144855000Y-123815000D03*
X158305000Y-121275000D03*
X127055000Y-123815000D03*
X140505000Y-121275000D03*
D11*
X135965000Y-130230000D03*
X132415000Y-130230000D03*
D10*
X122705000Y-121275000D03*
X109255000Y-123815000D03*
D11*
X114615000Y-130230000D03*
X118165000Y-130230000D03*
X153765000Y-130230000D03*
X150215000Y-130230000D03*
X132415000Y-76830000D03*
X135965000Y-76830000D03*
D10*
X140505000Y-67875000D03*
X127055000Y-70415000D03*
D11*
X150215000Y-76830000D03*
X153765000Y-76830000D03*
D10*
X158305000Y-67875000D03*
X144855000Y-70415000D03*
D11*
X118165000Y-76830000D03*
X114615000Y-76830000D03*
D10*
X109255000Y-70415000D03*
X122705000Y-67875000D03*
X144855000Y-88215000D03*
X158305000Y-85675000D03*
X127055000Y-88215000D03*
X140505000Y-85675000D03*
D11*
X135965000Y-94630000D03*
X132415000Y-94630000D03*
D10*
X122705000Y-85675000D03*
X109255000Y-88215000D03*
D11*
X114615000Y-94630000D03*
X118165000Y-94630000D03*
X153765000Y-94630000D03*
X150215000Y-94630000D03*
X132415000Y-59030000D03*
X135965000Y-59030000D03*
D10*
X140505000Y-50075000D03*
X127055000Y-52615000D03*
D11*
X150215000Y-59030000D03*
X153765000Y-59030000D03*
D10*
X158305000Y-50075000D03*
X144855000Y-52615000D03*
D11*
X118165000Y-59030000D03*
X114615000Y-59030000D03*
D10*
X109255000Y-52615000D03*
X122705000Y-50075000D03*
D11*
X153765000Y-41230000D03*
X150215000Y-41230000D03*
D10*
X144855000Y-34815000D03*
X158305000Y-32275000D03*
D11*
X135965000Y-41230000D03*
X132415000Y-41230000D03*
D10*
X127055000Y-34815000D03*
X140505000Y-32275000D03*
D11*
X114615000Y-41230000D03*
X118165000Y-41230000D03*
D10*
X122705000Y-32275000D03*
X109255000Y-34815000D03*
M02*
