G04 #@! TF.GenerationSoftware,KiCad,Pcbnew,(5.1.4)-1*
G04 #@! TF.CreationDate,2020-01-11T14:22:51+01:00*
G04 #@! TF.ProjectId,plaque2,706c6171-7565-4322-9e6b-696361645f70,1*
G04 #@! TF.SameCoordinates,Original*
G04 #@! TF.FileFunction,Copper,L1,Top*
G04 #@! TF.FilePolarity,Positive*
%FSLAX46Y46*%
G04 Gerber Fmt 4.6, Leading zero omitted, Abs format (unit mm)*
G04 Created by KiCad (PCBNEW (5.1.4)-1) date 2020-01-11 14:22:51*
%MOMM*%
%LPD*%
G04 APERTURE LIST*
%ADD10C,1.800000*%
%ADD11R,1.600000X1.600000*%
%ADD12C,0.800000*%
%ADD13C,0.800000*%
G04 APERTURE END LIST*
D10*
X192290000Y-101030000D03*
D11*
X183790000Y-112330000D03*
X191410000Y-112330000D03*
D10*
X180290000Y-113330000D03*
X195290000Y-113130000D03*
X182390000Y-116030000D03*
X174490000Y-118830000D03*
X164590000Y-133830000D03*
X162490000Y-131130000D03*
X177490000Y-130930000D03*
X164590000Y-101030000D03*
X210090000Y-116030000D03*
X162495000Y-103575000D03*
X162495000Y-121375000D03*
X174490000Y-133830000D03*
X164590000Y-118830000D03*
X198095000Y-103575000D03*
X198090000Y-113330000D03*
X177490000Y-106115000D03*
X200190000Y-101030000D03*
D11*
X201590000Y-112330000D03*
X209210000Y-112330000D03*
D10*
X162490000Y-113330000D03*
X210090000Y-101030000D03*
X213090000Y-106115000D03*
X200190000Y-116030000D03*
X213090000Y-113130000D03*
X174490000Y-116030000D03*
X177490000Y-113130000D03*
D11*
X165990000Y-130130000D03*
X173610000Y-130130000D03*
X173610000Y-112330000D03*
X165990000Y-112330000D03*
D10*
X180295000Y-103575000D03*
X182390000Y-101030000D03*
X195290000Y-106115000D03*
X192290000Y-116030000D03*
X192290000Y-29830000D03*
D11*
X191410000Y-41130000D03*
X183790000Y-41130000D03*
D10*
X180295000Y-32375000D03*
X180290000Y-42130000D03*
X195290000Y-41930000D03*
X182390000Y-29830000D03*
X195290000Y-34915000D03*
X182390000Y-44830000D03*
X192290000Y-44830000D03*
X174490000Y-47630000D03*
X164590000Y-62630000D03*
X162490000Y-59930000D03*
X162495000Y-50175000D03*
D11*
X173610000Y-58930000D03*
X165990000Y-58930000D03*
D10*
X177490000Y-59730000D03*
X174490000Y-62630000D03*
X164590000Y-47630000D03*
X174490000Y-101030000D03*
X164590000Y-116030000D03*
X195290000Y-130930000D03*
D11*
X191410000Y-130130000D03*
X183790000Y-130130000D03*
D10*
X210090000Y-133830000D03*
X180290000Y-131130000D03*
X182390000Y-133830000D03*
X192290000Y-133830000D03*
X182390000Y-118830000D03*
X210090000Y-118830000D03*
X198090000Y-131130000D03*
X177490000Y-123915000D03*
X200190000Y-133830000D03*
X192290000Y-118830000D03*
X195290000Y-123915000D03*
X198095000Y-121375000D03*
D11*
X209210000Y-130130000D03*
X201590000Y-130130000D03*
D10*
X200190000Y-118830000D03*
X213090000Y-123915000D03*
X180295000Y-121375000D03*
X213090000Y-130930000D03*
X198095000Y-32375000D03*
X198090000Y-42130000D03*
X200190000Y-29830000D03*
D11*
X209210000Y-41130000D03*
X201590000Y-41130000D03*
D10*
X213090000Y-41930000D03*
X210090000Y-44830000D03*
X200190000Y-44830000D03*
X213090000Y-34915000D03*
X210090000Y-29830000D03*
X200190000Y-98230000D03*
X200190000Y-83230000D03*
X213090000Y-88315000D03*
X192290000Y-98230000D03*
X210090000Y-98230000D03*
X198090000Y-95530000D03*
X180295000Y-85775000D03*
X213090000Y-95330000D03*
X210090000Y-83230000D03*
X177490000Y-88315000D03*
X198095000Y-85775000D03*
X192290000Y-83230000D03*
X195290000Y-88315000D03*
D11*
X209210000Y-94530000D03*
X201590000Y-94530000D03*
D10*
X180290000Y-77730000D03*
X182390000Y-65430000D03*
X174490000Y-83230000D03*
X200190000Y-80430000D03*
X195290000Y-70515000D03*
X164590000Y-98230000D03*
X177490000Y-95330000D03*
X210090000Y-80430000D03*
X210090000Y-65430000D03*
D11*
X165990000Y-94530000D03*
X173610000Y-94530000D03*
D10*
X200190000Y-65430000D03*
X213090000Y-77530000D03*
D11*
X183790000Y-76730000D03*
X191410000Y-76730000D03*
D10*
X195290000Y-77530000D03*
X162490000Y-95530000D03*
X162495000Y-85775000D03*
X174490000Y-98230000D03*
X164590000Y-83230000D03*
X198095000Y-67975000D03*
X198090000Y-77730000D03*
D11*
X201590000Y-76730000D03*
X209210000Y-76730000D03*
D10*
X192290000Y-80430000D03*
X213090000Y-70515000D03*
X192290000Y-65430000D03*
X180295000Y-67975000D03*
X182390000Y-80430000D03*
X177490000Y-34915000D03*
D11*
X165990000Y-41130000D03*
X173610000Y-41130000D03*
D10*
X162490000Y-42130000D03*
X177490000Y-41930000D03*
X162495000Y-32375000D03*
X174490000Y-44830000D03*
X182390000Y-98230000D03*
X162490000Y-77730000D03*
X177490000Y-70515000D03*
X174490000Y-80430000D03*
X182390000Y-83230000D03*
X180290000Y-95530000D03*
D11*
X173610000Y-76730000D03*
X165990000Y-76730000D03*
D10*
X164590000Y-80430000D03*
X162495000Y-67975000D03*
X177490000Y-77530000D03*
X164590000Y-65430000D03*
X174490000Y-65430000D03*
X195290000Y-95330000D03*
D11*
X191410000Y-94530000D03*
X183790000Y-94530000D03*
D10*
X164590000Y-29830000D03*
X174490000Y-29830000D03*
X164590000Y-44830000D03*
X195290000Y-59730000D03*
D11*
X183790000Y-58930000D03*
X191410000Y-58930000D03*
D10*
X182390000Y-47630000D03*
X180290000Y-59930000D03*
X182390000Y-62630000D03*
X192290000Y-62630000D03*
X210090000Y-62630000D03*
X210090000Y-47630000D03*
X198090000Y-59930000D03*
X177490000Y-52715000D03*
X200190000Y-62630000D03*
X192290000Y-47630000D03*
X195290000Y-52715000D03*
X198095000Y-50175000D03*
D11*
X201590000Y-58930000D03*
X209210000Y-58930000D03*
D10*
X200190000Y-47630000D03*
X213090000Y-52715000D03*
X180295000Y-50175000D03*
X213090000Y-59730000D03*
X138890000Y-101030000D03*
D11*
X138010000Y-112330000D03*
X130390000Y-112330000D03*
D10*
X126895000Y-103575000D03*
X126890000Y-113330000D03*
X141890000Y-113130000D03*
X128990000Y-101030000D03*
X141890000Y-106115000D03*
X128990000Y-116030000D03*
X138890000Y-116030000D03*
X121090000Y-118830000D03*
X111190000Y-133830000D03*
X109090000Y-131130000D03*
X109095000Y-121375000D03*
D11*
X120210000Y-130130000D03*
X112590000Y-130130000D03*
D10*
X124090000Y-130930000D03*
X121090000Y-133830000D03*
X111190000Y-118830000D03*
X144695000Y-103575000D03*
X144690000Y-113330000D03*
X146790000Y-101030000D03*
D11*
X155810000Y-112330000D03*
X148190000Y-112330000D03*
D10*
X159690000Y-113130000D03*
X156690000Y-116030000D03*
X146790000Y-116030000D03*
X159690000Y-106115000D03*
X156690000Y-101030000D03*
X124090000Y-106115000D03*
D11*
X112590000Y-112330000D03*
X120210000Y-112330000D03*
D10*
X109090000Y-113330000D03*
X124090000Y-113130000D03*
X109095000Y-103575000D03*
X121090000Y-116030000D03*
X111190000Y-101030000D03*
X121090000Y-101030000D03*
X111190000Y-116030000D03*
X141890000Y-130930000D03*
D11*
X130390000Y-130130000D03*
X138010000Y-130130000D03*
D10*
X128990000Y-118830000D03*
X126890000Y-131130000D03*
X128990000Y-133830000D03*
X138890000Y-133830000D03*
X156690000Y-133830000D03*
X156690000Y-118830000D03*
X144690000Y-131130000D03*
X124090000Y-123915000D03*
X146790000Y-133830000D03*
X138890000Y-118830000D03*
X141890000Y-123915000D03*
X144695000Y-121375000D03*
D11*
X148190000Y-130130000D03*
X155810000Y-130130000D03*
D10*
X146790000Y-118830000D03*
X159690000Y-123915000D03*
X126895000Y-121375000D03*
X159690000Y-130930000D03*
X138890000Y-65430000D03*
D11*
X138010000Y-76730000D03*
X130390000Y-76730000D03*
D10*
X126895000Y-67975000D03*
X126890000Y-77730000D03*
X141890000Y-77530000D03*
X128990000Y-65430000D03*
X141890000Y-70515000D03*
X128990000Y-80430000D03*
X138890000Y-80430000D03*
X121090000Y-83230000D03*
X111190000Y-98230000D03*
X109090000Y-95530000D03*
X109095000Y-85775000D03*
D11*
X120210000Y-94530000D03*
X112590000Y-94530000D03*
D10*
X124090000Y-95330000D03*
X121090000Y-98230000D03*
X111190000Y-83230000D03*
X144695000Y-67975000D03*
X144690000Y-77730000D03*
X146790000Y-65430000D03*
D11*
X155810000Y-76730000D03*
X148190000Y-76730000D03*
D10*
X159690000Y-77530000D03*
X156690000Y-80430000D03*
X146790000Y-80430000D03*
X159690000Y-70515000D03*
X156690000Y-65430000D03*
X124090000Y-70515000D03*
D11*
X112590000Y-76730000D03*
X120210000Y-76730000D03*
D10*
X109090000Y-77730000D03*
X124090000Y-77530000D03*
X109095000Y-67975000D03*
X121090000Y-80430000D03*
X111190000Y-65430000D03*
X121090000Y-65430000D03*
X111190000Y-80430000D03*
X141890000Y-95330000D03*
D11*
X130390000Y-94530000D03*
X138010000Y-94530000D03*
D10*
X128990000Y-83230000D03*
X126890000Y-95530000D03*
X128990000Y-98230000D03*
X138890000Y-98230000D03*
X156690000Y-98230000D03*
X156690000Y-83230000D03*
X144690000Y-95530000D03*
X124090000Y-88315000D03*
X146790000Y-98230000D03*
X138890000Y-83230000D03*
X141890000Y-88315000D03*
X144695000Y-85775000D03*
D11*
X148190000Y-94530000D03*
X155810000Y-94530000D03*
D10*
X146790000Y-83230000D03*
X159690000Y-88315000D03*
X126895000Y-85775000D03*
X159690000Y-95330000D03*
X138890000Y-47630000D03*
D11*
X138010000Y-58930000D03*
X130390000Y-58930000D03*
D10*
X126895000Y-50175000D03*
X126890000Y-59930000D03*
X141890000Y-59730000D03*
X128990000Y-47630000D03*
X141890000Y-52715000D03*
X128990000Y-62630000D03*
X138890000Y-62630000D03*
X144695000Y-50175000D03*
X144690000Y-59930000D03*
X146790000Y-47630000D03*
D11*
X155810000Y-58930000D03*
X148190000Y-58930000D03*
D10*
X159690000Y-59730000D03*
X156690000Y-62630000D03*
X146790000Y-62630000D03*
X159690000Y-52715000D03*
X156690000Y-47630000D03*
X124090000Y-52715000D03*
D11*
X112590000Y-58930000D03*
X120210000Y-58930000D03*
D10*
X109090000Y-59930000D03*
X124090000Y-59730000D03*
X109095000Y-50175000D03*
X121090000Y-62630000D03*
X111190000Y-47630000D03*
X121090000Y-47630000D03*
X111190000Y-62630000D03*
X159690000Y-34915000D03*
D11*
X148190000Y-41130000D03*
X155810000Y-41130000D03*
D10*
X144690000Y-42130000D03*
X159690000Y-41930000D03*
X144695000Y-32375000D03*
X156690000Y-44830000D03*
X146790000Y-29830000D03*
X156690000Y-29830000D03*
X146790000Y-44830000D03*
X141890000Y-34915000D03*
D11*
X130390000Y-41130000D03*
X138010000Y-41130000D03*
D10*
X126890000Y-42130000D03*
X141890000Y-41930000D03*
X126895000Y-32375000D03*
X138890000Y-44830000D03*
X128990000Y-29830000D03*
X138890000Y-29830000D03*
X128990000Y-44830000D03*
D11*
X120210000Y-41130000D03*
X112590000Y-41130000D03*
D10*
X121090000Y-44830000D03*
X124090000Y-41930000D03*
X124090000Y-34915000D03*
X109090000Y-42130000D03*
X109095000Y-32375000D03*
X111190000Y-44830000D03*
X111190000Y-29830000D03*
X121090000Y-29830000D03*
D12*
X113890000Y-44830000D03*
X116140000Y-42530000D03*
X113490000Y-29830000D03*
X131690000Y-44830000D03*
X133940000Y-42530000D03*
X131290000Y-29830000D03*
X149490000Y-44830000D03*
X151740000Y-42530000D03*
X149090000Y-29830000D03*
X149490000Y-62630000D03*
X131690000Y-62630000D03*
X133940000Y-60330000D03*
X131290000Y-47630000D03*
X149090000Y-47630000D03*
X151740000Y-60330000D03*
X113890000Y-62630000D03*
X116140000Y-60330000D03*
X113490000Y-47630000D03*
X131690000Y-98230000D03*
X149490000Y-80430000D03*
X131690000Y-80430000D03*
X133940000Y-78130000D03*
X149490000Y-98230000D03*
X113890000Y-98230000D03*
X151740000Y-95930000D03*
X149090000Y-83230000D03*
X133940000Y-95930000D03*
X131290000Y-65430000D03*
X149090000Y-65430000D03*
X131290000Y-83230000D03*
X116140000Y-95930000D03*
X113490000Y-83230000D03*
X151740000Y-78130000D03*
X113890000Y-80430000D03*
X116140000Y-78130000D03*
X113490000Y-65430000D03*
X131690000Y-133830000D03*
X149490000Y-116030000D03*
X131690000Y-116030000D03*
X133940000Y-113730000D03*
X149490000Y-133830000D03*
X113890000Y-133830000D03*
X151740000Y-131530000D03*
X149090000Y-118830000D03*
X133940000Y-131530000D03*
X131290000Y-101030000D03*
X149090000Y-101030000D03*
X131290000Y-118830000D03*
X116140000Y-131530000D03*
X113490000Y-118830000D03*
X151740000Y-113730000D03*
X113890000Y-116030000D03*
X116140000Y-113730000D03*
X113490000Y-101030000D03*
X185090000Y-62630000D03*
X187340000Y-78130000D03*
X167290000Y-98230000D03*
X205140000Y-95930000D03*
X202890000Y-44830000D03*
X187340000Y-95930000D03*
X202490000Y-65430000D03*
X166890000Y-83230000D03*
X185090000Y-44830000D03*
X187340000Y-42530000D03*
X205140000Y-78130000D03*
X202890000Y-62630000D03*
X167290000Y-62630000D03*
X202890000Y-98230000D03*
X202490000Y-83230000D03*
X184690000Y-83230000D03*
X184690000Y-65430000D03*
X169540000Y-95930000D03*
X205140000Y-60330000D03*
X202490000Y-47630000D03*
X185090000Y-98230000D03*
X187340000Y-60330000D03*
X184690000Y-29830000D03*
X202490000Y-29830000D03*
X184690000Y-47630000D03*
X169540000Y-60330000D03*
X166890000Y-47630000D03*
X205140000Y-42530000D03*
X202890000Y-80430000D03*
X185090000Y-80430000D03*
X169540000Y-78130000D03*
X185090000Y-133830000D03*
X202890000Y-116030000D03*
X187340000Y-113730000D03*
X202890000Y-133830000D03*
X167290000Y-80430000D03*
X185090000Y-116030000D03*
X167290000Y-133830000D03*
X166890000Y-65430000D03*
X167290000Y-44830000D03*
X169540000Y-42530000D03*
X187340000Y-131530000D03*
X166890000Y-101030000D03*
X205140000Y-131530000D03*
X184690000Y-101030000D03*
X202490000Y-118830000D03*
X167290000Y-116030000D03*
X166890000Y-29830000D03*
X184690000Y-118830000D03*
X169540000Y-113730000D03*
X202490000Y-101030000D03*
X205140000Y-113730000D03*
X166890000Y-118830000D03*
X169540000Y-131530000D03*
D13*
X113890000Y-44830000D02*
X119315001Y-39404999D01*
X119315001Y-35655001D02*
X113490000Y-29830000D01*
X119315001Y-39404999D02*
X119315001Y-35655001D01*
X137115001Y-39404999D02*
X137115001Y-35655001D01*
X131690000Y-44830000D02*
X137115001Y-39404999D01*
X137115001Y-35655001D02*
X131290000Y-29830000D01*
X154915001Y-39404999D02*
X154915001Y-35655001D01*
X149490000Y-44830000D02*
X154915001Y-39404999D01*
X154915001Y-35655001D02*
X149090000Y-29830000D01*
X119315001Y-57204999D02*
X119315001Y-53455001D01*
X113890000Y-62630000D02*
X119315001Y-57204999D01*
X119315001Y-53455001D02*
X113490000Y-47630000D01*
X137115001Y-57204999D02*
X137115001Y-53455001D01*
X131690000Y-62630000D02*
X137115001Y-57204999D01*
X137115001Y-53455001D02*
X131290000Y-47630000D01*
X149490000Y-62630000D02*
X154915001Y-57204999D01*
X154915001Y-53455001D02*
X149090000Y-47630000D01*
X154915001Y-57204999D02*
X154915001Y-53455001D01*
X137115001Y-89055001D02*
X131290000Y-83230000D01*
X149490000Y-98230000D02*
X154915001Y-92804999D01*
X154915001Y-92804999D02*
X154915001Y-89055001D01*
X154915001Y-89055001D02*
X149090000Y-83230000D01*
X119315001Y-75004999D02*
X119315001Y-71255001D01*
X113890000Y-80430000D02*
X119315001Y-75004999D01*
X119315001Y-71255001D02*
X113490000Y-65430000D01*
X137115001Y-75004999D02*
X137115001Y-71255001D01*
X131690000Y-80430000D02*
X137115001Y-75004999D01*
X137115001Y-71255001D02*
X131290000Y-65430000D01*
X149490000Y-80430000D02*
X154915001Y-75004999D01*
X154915001Y-71255001D02*
X149090000Y-65430000D01*
X154915001Y-75004999D02*
X154915001Y-71255001D01*
X119315001Y-92804999D02*
X119315001Y-89055001D01*
X113890000Y-98230000D02*
X119315001Y-92804999D01*
X119315001Y-89055001D02*
X113490000Y-83230000D01*
X137115001Y-92804999D02*
X137115001Y-89055001D01*
X131690000Y-98230000D02*
X137115001Y-92804999D01*
X137115001Y-124655001D02*
X131290000Y-118830000D01*
X149490000Y-133830000D02*
X154915001Y-128404999D01*
X154915001Y-128404999D02*
X154915001Y-124655001D01*
X154915001Y-124655001D02*
X149090000Y-118830000D01*
X119315001Y-110604999D02*
X119315001Y-106855001D01*
X113890000Y-116030000D02*
X119315001Y-110604999D01*
X119315001Y-106855001D02*
X113490000Y-101030000D01*
X137115001Y-110604999D02*
X137115001Y-106855001D01*
X131690000Y-116030000D02*
X137115001Y-110604999D01*
X137115001Y-106855001D02*
X131290000Y-101030000D01*
X149490000Y-116030000D02*
X154915001Y-110604999D01*
X154915001Y-106855001D02*
X149090000Y-101030000D01*
X154915001Y-110604999D02*
X154915001Y-106855001D01*
X119315001Y-128404999D02*
X119315001Y-124655001D01*
X113890000Y-133830000D02*
X119315001Y-128404999D01*
X119315001Y-124655001D02*
X113490000Y-118830000D01*
X137115001Y-128404999D02*
X137115001Y-124655001D01*
X131690000Y-133830000D02*
X137115001Y-128404999D01*
X167290000Y-116030000D02*
X172715001Y-110604999D01*
X172715001Y-110604999D02*
X172715001Y-106855001D01*
X190515001Y-53455001D02*
X184690000Y-47630000D01*
X202890000Y-62630000D02*
X208315001Y-57204999D01*
X208315001Y-57204999D02*
X208315001Y-53455001D01*
X208315001Y-53455001D02*
X202490000Y-47630000D01*
X190515001Y-89055001D02*
X184690000Y-83230000D01*
X185090000Y-116030000D02*
X190515001Y-110604999D01*
X190515001Y-110604999D02*
X190515001Y-106855001D01*
X185090000Y-133830000D02*
X190515001Y-128404999D01*
X190515001Y-124655001D02*
X184690000Y-118830000D01*
X208315001Y-128404999D02*
X208315001Y-124655001D01*
X202890000Y-133830000D02*
X208315001Y-128404999D01*
X172715001Y-39404999D02*
X172715001Y-35655001D01*
X167290000Y-44830000D02*
X172715001Y-39404999D01*
X172715001Y-35655001D02*
X166890000Y-29830000D01*
X190515001Y-128404999D02*
X190515001Y-124655001D01*
X202890000Y-116030000D02*
X208315001Y-110604999D01*
X190515001Y-106855001D02*
X184690000Y-101030000D01*
X208315001Y-106855001D02*
X202490000Y-101030000D01*
X208315001Y-110604999D02*
X208315001Y-106855001D01*
X172715001Y-106855001D02*
X166890000Y-101030000D01*
X190515001Y-92804999D02*
X190515001Y-89055001D01*
X167290000Y-98230000D02*
X172715001Y-92804999D01*
X185090000Y-98230000D02*
X190515001Y-92804999D01*
X172715001Y-89055001D02*
X166890000Y-83230000D01*
X208315001Y-92804999D02*
X208315001Y-89055001D01*
X208315001Y-89055001D02*
X202490000Y-83230000D01*
X202890000Y-98230000D02*
X208315001Y-92804999D01*
X208315001Y-124655001D02*
X202490000Y-118830000D01*
X190515001Y-39404999D02*
X190515001Y-35655001D01*
X185090000Y-44830000D02*
X190515001Y-39404999D01*
X190515001Y-35655001D02*
X184690000Y-29830000D01*
X190515001Y-75004999D02*
X190515001Y-71255001D01*
X185090000Y-80430000D02*
X190515001Y-75004999D01*
X172715001Y-71255001D02*
X166890000Y-65430000D01*
X167290000Y-80430000D02*
X172715001Y-75004999D01*
X172715001Y-75004999D02*
X172715001Y-71255001D01*
X208315001Y-71255001D02*
X202490000Y-65430000D01*
X208315001Y-75004999D02*
X208315001Y-71255001D01*
X190515001Y-71255001D02*
X184690000Y-65430000D01*
X202890000Y-80430000D02*
X208315001Y-75004999D01*
X172715001Y-92804999D02*
X172715001Y-89055001D01*
X202890000Y-44830000D02*
X208315001Y-39404999D01*
X208315001Y-35655001D02*
X202490000Y-29830000D01*
X208315001Y-39404999D02*
X208315001Y-35655001D01*
X172715001Y-57204999D02*
X172715001Y-53455001D01*
X167290000Y-62630000D02*
X172715001Y-57204999D01*
X172715001Y-53455001D02*
X166890000Y-47630000D01*
X190515001Y-57204999D02*
X190515001Y-53455001D01*
X185090000Y-62630000D02*
X190515001Y-57204999D01*
X172715001Y-124655001D02*
X166890000Y-118830000D01*
X172715001Y-128404999D02*
X172715001Y-124655001D01*
X167290000Y-133830000D02*
X172715001Y-128404999D01*
M02*
