G04 #@! TF.GenerationSoftware,KiCad,Pcbnew,(5.1.4)-1*
G04 #@! TF.CreationDate,2020-01-11T14:22:51+01:00*
G04 #@! TF.ProjectId,plaque2,706c6171-7565-4322-9e6b-696361645f70,1*
G04 #@! TF.SameCoordinates,Original*
G04 #@! TF.FileFunction,Copper,L2,Bot*
G04 #@! TF.FilePolarity,Positive*
%FSLAX46Y46*%
G04 Gerber Fmt 4.6, Leading zero omitted, Abs format (unit mm)*
G04 Created by KiCad (PCBNEW (5.1.4)-1) date 2020-01-11 14:22:52*
%MOMM*%
%LPD*%
G04 APERTURE LIST*
%ADD10C,1.800000*%
%ADD11R,2.550000X2.500000*%
%ADD12R,1.600000X1.600000*%
%ADD13R,1.300000X0.950000*%
%ADD14C,0.800000*%
%ADD15C,0.800000*%
%ADD16C,0.300000*%
G04 APERTURE END LIST*
D10*
X192290000Y-101030000D03*
D11*
X180455000Y-106015000D03*
X193905000Y-103475000D03*
D12*
X183790000Y-112330000D03*
X191410000Y-112330000D03*
D10*
X180290000Y-113330000D03*
X195290000Y-113130000D03*
X182390000Y-116030000D03*
D11*
X198255000Y-106015000D03*
X211705000Y-103475000D03*
D10*
X174490000Y-118830000D03*
X164590000Y-133830000D03*
X162490000Y-131130000D03*
X177490000Y-130930000D03*
X164590000Y-101030000D03*
D13*
X207165000Y-112430000D03*
X203615000Y-112430000D03*
D11*
X176105000Y-103475000D03*
X162655000Y-106015000D03*
D13*
X168015000Y-112430000D03*
X171565000Y-112430000D03*
D10*
X210090000Y-116030000D03*
X162495000Y-103575000D03*
X162495000Y-121375000D03*
X174490000Y-133830000D03*
X164590000Y-118830000D03*
X198095000Y-103575000D03*
X198090000Y-113330000D03*
X177490000Y-106115000D03*
X200190000Y-101030000D03*
D12*
X201590000Y-112330000D03*
X209210000Y-112330000D03*
D10*
X162490000Y-113330000D03*
X210090000Y-101030000D03*
X213090000Y-106115000D03*
X200190000Y-116030000D03*
X213090000Y-113130000D03*
X174490000Y-116030000D03*
X177490000Y-113130000D03*
D13*
X189365000Y-112430000D03*
X185815000Y-112430000D03*
D12*
X165990000Y-130130000D03*
X173610000Y-130130000D03*
X173610000Y-112330000D03*
X165990000Y-112330000D03*
D10*
X180295000Y-103575000D03*
X182390000Y-101030000D03*
X195290000Y-106115000D03*
X192290000Y-116030000D03*
D13*
X185815000Y-41230000D03*
X189365000Y-41230000D03*
D10*
X192290000Y-29830000D03*
D11*
X193905000Y-32275000D03*
X180455000Y-34815000D03*
D12*
X191410000Y-41130000D03*
X183790000Y-41130000D03*
D10*
X180295000Y-32375000D03*
X180290000Y-42130000D03*
X195290000Y-41930000D03*
X182390000Y-29830000D03*
X195290000Y-34915000D03*
X182390000Y-44830000D03*
X192290000Y-44830000D03*
X174490000Y-47630000D03*
X164590000Y-62630000D03*
X162490000Y-59930000D03*
X162495000Y-50175000D03*
D12*
X173610000Y-58930000D03*
X165990000Y-58930000D03*
D10*
X177490000Y-59730000D03*
X174490000Y-62630000D03*
X164590000Y-47630000D03*
X174490000Y-101030000D03*
X164590000Y-116030000D03*
X195290000Y-130930000D03*
D12*
X191410000Y-130130000D03*
X183790000Y-130130000D03*
D11*
X211705000Y-121275000D03*
X198255000Y-123815000D03*
X193905000Y-121275000D03*
X180455000Y-123815000D03*
D10*
X210090000Y-133830000D03*
X180290000Y-131130000D03*
D13*
X185815000Y-130230000D03*
X189365000Y-130230000D03*
D10*
X182390000Y-133830000D03*
X192290000Y-133830000D03*
D11*
X162655000Y-123815000D03*
X176105000Y-121275000D03*
D10*
X182390000Y-118830000D03*
X210090000Y-118830000D03*
X198090000Y-131130000D03*
X177490000Y-123915000D03*
X200190000Y-133830000D03*
X192290000Y-118830000D03*
X195290000Y-123915000D03*
X198095000Y-121375000D03*
D12*
X209210000Y-130130000D03*
X201590000Y-130130000D03*
D10*
X200190000Y-118830000D03*
X213090000Y-123915000D03*
X180295000Y-121375000D03*
X213090000Y-130930000D03*
D13*
X171565000Y-130230000D03*
X168015000Y-130230000D03*
X203615000Y-130230000D03*
X207165000Y-130230000D03*
D10*
X198095000Y-32375000D03*
X198090000Y-42130000D03*
X200190000Y-29830000D03*
D13*
X203615000Y-41230000D03*
X207165000Y-41230000D03*
D11*
X211705000Y-32275000D03*
X198255000Y-34815000D03*
D12*
X209210000Y-41130000D03*
X201590000Y-41130000D03*
D10*
X213090000Y-41930000D03*
X210090000Y-44830000D03*
X200190000Y-44830000D03*
X213090000Y-34915000D03*
X210090000Y-29830000D03*
X200190000Y-98230000D03*
X200190000Y-83230000D03*
X213090000Y-88315000D03*
X192290000Y-98230000D03*
X210090000Y-98230000D03*
D11*
X162655000Y-88215000D03*
X176105000Y-85675000D03*
D10*
X198090000Y-95530000D03*
X180295000Y-85775000D03*
X213090000Y-95330000D03*
D13*
X171565000Y-94630000D03*
X168015000Y-94630000D03*
D10*
X210090000Y-83230000D03*
X177490000Y-88315000D03*
X198095000Y-85775000D03*
X192290000Y-83230000D03*
X195290000Y-88315000D03*
D12*
X209210000Y-94530000D03*
X201590000Y-94530000D03*
D13*
X203615000Y-94630000D03*
X207165000Y-94630000D03*
D10*
X180290000Y-77730000D03*
X182390000Y-65430000D03*
X174490000Y-83230000D03*
X200190000Y-80430000D03*
X195290000Y-70515000D03*
D11*
X198255000Y-70415000D03*
X211705000Y-67875000D03*
D10*
X164590000Y-98230000D03*
X177490000Y-95330000D03*
X210090000Y-80430000D03*
X210090000Y-65430000D03*
D12*
X165990000Y-94530000D03*
X173610000Y-94530000D03*
D10*
X200190000Y-65430000D03*
X213090000Y-77530000D03*
D12*
X183790000Y-76730000D03*
X191410000Y-76730000D03*
D10*
X195290000Y-77530000D03*
X162490000Y-95530000D03*
D13*
X168015000Y-76830000D03*
X171565000Y-76830000D03*
D10*
X162495000Y-85775000D03*
X174490000Y-98230000D03*
X164590000Y-83230000D03*
X198095000Y-67975000D03*
D13*
X207165000Y-76830000D03*
X203615000Y-76830000D03*
D10*
X198090000Y-77730000D03*
D12*
X201590000Y-76730000D03*
X209210000Y-76730000D03*
D10*
X192290000Y-80430000D03*
X213090000Y-70515000D03*
D13*
X189365000Y-76830000D03*
X185815000Y-76830000D03*
D10*
X192290000Y-65430000D03*
D11*
X180455000Y-70415000D03*
X193905000Y-67875000D03*
D10*
X180295000Y-67975000D03*
X182390000Y-80430000D03*
D13*
X171565000Y-41230000D03*
X168015000Y-41230000D03*
D11*
X162655000Y-34815000D03*
X176105000Y-32275000D03*
D10*
X177490000Y-34915000D03*
D12*
X165990000Y-41130000D03*
X173610000Y-41130000D03*
D10*
X162490000Y-42130000D03*
X177490000Y-41930000D03*
X162495000Y-32375000D03*
X174490000Y-44830000D03*
X182390000Y-98230000D03*
X162490000Y-77730000D03*
D11*
X176105000Y-67875000D03*
X162655000Y-70415000D03*
D10*
X177490000Y-70515000D03*
X174490000Y-80430000D03*
D13*
X185815000Y-94630000D03*
X189365000Y-94630000D03*
D11*
X211705000Y-85675000D03*
X198255000Y-88215000D03*
D10*
X182390000Y-83230000D03*
X180290000Y-95530000D03*
D12*
X173610000Y-76730000D03*
X165990000Y-76730000D03*
D10*
X164590000Y-80430000D03*
X162495000Y-67975000D03*
X177490000Y-77530000D03*
X164590000Y-65430000D03*
X174490000Y-65430000D03*
X195290000Y-95330000D03*
D11*
X193905000Y-85675000D03*
X180455000Y-88215000D03*
D12*
X191410000Y-94530000D03*
X183790000Y-94530000D03*
D10*
X164590000Y-29830000D03*
X174490000Y-29830000D03*
X164590000Y-44830000D03*
X195290000Y-59730000D03*
D11*
X198255000Y-52615000D03*
X211705000Y-50075000D03*
X180455000Y-52615000D03*
X193905000Y-50075000D03*
D13*
X189365000Y-59030000D03*
X185815000Y-59030000D03*
D12*
X183790000Y-58930000D03*
X191410000Y-58930000D03*
D10*
X182390000Y-47630000D03*
X180290000Y-59930000D03*
X182390000Y-62630000D03*
X192290000Y-62630000D03*
X210090000Y-62630000D03*
D11*
X176105000Y-50075000D03*
X162655000Y-52615000D03*
D10*
X210090000Y-47630000D03*
X198090000Y-59930000D03*
X177490000Y-52715000D03*
X200190000Y-62630000D03*
X192290000Y-47630000D03*
X195290000Y-52715000D03*
X198095000Y-50175000D03*
D12*
X201590000Y-58930000D03*
X209210000Y-58930000D03*
D10*
X200190000Y-47630000D03*
X213090000Y-52715000D03*
X180295000Y-50175000D03*
X213090000Y-59730000D03*
D13*
X168015000Y-59030000D03*
X171565000Y-59030000D03*
X207165000Y-59030000D03*
X203615000Y-59030000D03*
X132415000Y-112430000D03*
X135965000Y-112430000D03*
D10*
X138890000Y-101030000D03*
D11*
X140505000Y-103475000D03*
X127055000Y-106015000D03*
D12*
X138010000Y-112330000D03*
X130390000Y-112330000D03*
D10*
X126895000Y-103575000D03*
X126890000Y-113330000D03*
X141890000Y-113130000D03*
X128990000Y-101030000D03*
X141890000Y-106115000D03*
X128990000Y-116030000D03*
X138890000Y-116030000D03*
X121090000Y-118830000D03*
X111190000Y-133830000D03*
X109090000Y-131130000D03*
X109095000Y-121375000D03*
D12*
X120210000Y-130130000D03*
X112590000Y-130130000D03*
D10*
X124090000Y-130930000D03*
X121090000Y-133830000D03*
X111190000Y-118830000D03*
X144695000Y-103575000D03*
X144690000Y-113330000D03*
X146790000Y-101030000D03*
D13*
X150215000Y-112430000D03*
X153765000Y-112430000D03*
D11*
X158305000Y-103475000D03*
X144855000Y-106015000D03*
D12*
X155810000Y-112330000D03*
X148190000Y-112330000D03*
D10*
X159690000Y-113130000D03*
X156690000Y-116030000D03*
X146790000Y-116030000D03*
X159690000Y-106115000D03*
X156690000Y-101030000D03*
D13*
X118165000Y-112430000D03*
X114615000Y-112430000D03*
D11*
X109255000Y-106015000D03*
X122705000Y-103475000D03*
D10*
X124090000Y-106115000D03*
D12*
X112590000Y-112330000D03*
X120210000Y-112330000D03*
D10*
X109090000Y-113330000D03*
X124090000Y-113130000D03*
X109095000Y-103575000D03*
X121090000Y-116030000D03*
X111190000Y-101030000D03*
X121090000Y-101030000D03*
X111190000Y-116030000D03*
X141890000Y-130930000D03*
D11*
X144855000Y-123815000D03*
X158305000Y-121275000D03*
X127055000Y-123815000D03*
X140505000Y-121275000D03*
D13*
X135965000Y-130230000D03*
X132415000Y-130230000D03*
D12*
X130390000Y-130130000D03*
X138010000Y-130130000D03*
D10*
X128990000Y-118830000D03*
X126890000Y-131130000D03*
X128990000Y-133830000D03*
X138890000Y-133830000D03*
X156690000Y-133830000D03*
D11*
X122705000Y-121275000D03*
X109255000Y-123815000D03*
D10*
X156690000Y-118830000D03*
X144690000Y-131130000D03*
X124090000Y-123915000D03*
X146790000Y-133830000D03*
X138890000Y-118830000D03*
X141890000Y-123915000D03*
X144695000Y-121375000D03*
D12*
X148190000Y-130130000D03*
X155810000Y-130130000D03*
D10*
X146790000Y-118830000D03*
X159690000Y-123915000D03*
X126895000Y-121375000D03*
X159690000Y-130930000D03*
D13*
X114615000Y-130230000D03*
X118165000Y-130230000D03*
X153765000Y-130230000D03*
X150215000Y-130230000D03*
X132415000Y-76830000D03*
X135965000Y-76830000D03*
D10*
X138890000Y-65430000D03*
D11*
X140505000Y-67875000D03*
X127055000Y-70415000D03*
D12*
X138010000Y-76730000D03*
X130390000Y-76730000D03*
D10*
X126895000Y-67975000D03*
X126890000Y-77730000D03*
X141890000Y-77530000D03*
X128990000Y-65430000D03*
X141890000Y-70515000D03*
X128990000Y-80430000D03*
X138890000Y-80430000D03*
X121090000Y-83230000D03*
X111190000Y-98230000D03*
X109090000Y-95530000D03*
X109095000Y-85775000D03*
D12*
X120210000Y-94530000D03*
X112590000Y-94530000D03*
D10*
X124090000Y-95330000D03*
X121090000Y-98230000D03*
X111190000Y-83230000D03*
X144695000Y-67975000D03*
X144690000Y-77730000D03*
X146790000Y-65430000D03*
D13*
X150215000Y-76830000D03*
X153765000Y-76830000D03*
D11*
X158305000Y-67875000D03*
X144855000Y-70415000D03*
D12*
X155810000Y-76730000D03*
X148190000Y-76730000D03*
D10*
X159690000Y-77530000D03*
X156690000Y-80430000D03*
X146790000Y-80430000D03*
X159690000Y-70515000D03*
X156690000Y-65430000D03*
D13*
X118165000Y-76830000D03*
X114615000Y-76830000D03*
D11*
X109255000Y-70415000D03*
X122705000Y-67875000D03*
D10*
X124090000Y-70515000D03*
D12*
X112590000Y-76730000D03*
X120210000Y-76730000D03*
D10*
X109090000Y-77730000D03*
X124090000Y-77530000D03*
X109095000Y-67975000D03*
X121090000Y-80430000D03*
X111190000Y-65430000D03*
X121090000Y-65430000D03*
X111190000Y-80430000D03*
X141890000Y-95330000D03*
D11*
X144855000Y-88215000D03*
X158305000Y-85675000D03*
X127055000Y-88215000D03*
X140505000Y-85675000D03*
D13*
X135965000Y-94630000D03*
X132415000Y-94630000D03*
D12*
X130390000Y-94530000D03*
X138010000Y-94530000D03*
D10*
X128990000Y-83230000D03*
X126890000Y-95530000D03*
X128990000Y-98230000D03*
X138890000Y-98230000D03*
X156690000Y-98230000D03*
D11*
X122705000Y-85675000D03*
X109255000Y-88215000D03*
D10*
X156690000Y-83230000D03*
X144690000Y-95530000D03*
X124090000Y-88315000D03*
X146790000Y-98230000D03*
X138890000Y-83230000D03*
X141890000Y-88315000D03*
X144695000Y-85775000D03*
D12*
X148190000Y-94530000D03*
X155810000Y-94530000D03*
D10*
X146790000Y-83230000D03*
X159690000Y-88315000D03*
X126895000Y-85775000D03*
X159690000Y-95330000D03*
D13*
X114615000Y-94630000D03*
X118165000Y-94630000D03*
X153765000Y-94630000D03*
X150215000Y-94630000D03*
X132415000Y-59030000D03*
X135965000Y-59030000D03*
D10*
X138890000Y-47630000D03*
D11*
X140505000Y-50075000D03*
X127055000Y-52615000D03*
D12*
X138010000Y-58930000D03*
X130390000Y-58930000D03*
D10*
X126895000Y-50175000D03*
X126890000Y-59930000D03*
X141890000Y-59730000D03*
X128990000Y-47630000D03*
X141890000Y-52715000D03*
X128990000Y-62630000D03*
X138890000Y-62630000D03*
X144695000Y-50175000D03*
X144690000Y-59930000D03*
X146790000Y-47630000D03*
D13*
X150215000Y-59030000D03*
X153765000Y-59030000D03*
D11*
X158305000Y-50075000D03*
X144855000Y-52615000D03*
D12*
X155810000Y-58930000D03*
X148190000Y-58930000D03*
D10*
X159690000Y-59730000D03*
X156690000Y-62630000D03*
X146790000Y-62630000D03*
X159690000Y-52715000D03*
X156690000Y-47630000D03*
D13*
X118165000Y-59030000D03*
X114615000Y-59030000D03*
D11*
X109255000Y-52615000D03*
X122705000Y-50075000D03*
D10*
X124090000Y-52715000D03*
D12*
X112590000Y-58930000D03*
X120210000Y-58930000D03*
D10*
X109090000Y-59930000D03*
X124090000Y-59730000D03*
X109095000Y-50175000D03*
X121090000Y-62630000D03*
X111190000Y-47630000D03*
X121090000Y-47630000D03*
X111190000Y-62630000D03*
D13*
X153765000Y-41230000D03*
X150215000Y-41230000D03*
D11*
X144855000Y-34815000D03*
X158305000Y-32275000D03*
D10*
X159690000Y-34915000D03*
D12*
X148190000Y-41130000D03*
X155810000Y-41130000D03*
D10*
X144690000Y-42130000D03*
X159690000Y-41930000D03*
X144695000Y-32375000D03*
X156690000Y-44830000D03*
X146790000Y-29830000D03*
X156690000Y-29830000D03*
X146790000Y-44830000D03*
D13*
X135965000Y-41230000D03*
X132415000Y-41230000D03*
D11*
X127055000Y-34815000D03*
X140505000Y-32275000D03*
D10*
X141890000Y-34915000D03*
D12*
X130390000Y-41130000D03*
X138010000Y-41130000D03*
D10*
X126890000Y-42130000D03*
X141890000Y-41930000D03*
X126895000Y-32375000D03*
X138890000Y-44830000D03*
X128990000Y-29830000D03*
X138890000Y-29830000D03*
X128990000Y-44830000D03*
D12*
X120210000Y-41130000D03*
X112590000Y-41130000D03*
D10*
X121090000Y-44830000D03*
X124090000Y-41930000D03*
D13*
X114615000Y-41230000D03*
X118165000Y-41230000D03*
D10*
X124090000Y-34915000D03*
D11*
X122705000Y-32275000D03*
X109255000Y-34815000D03*
D10*
X109090000Y-42130000D03*
X109095000Y-32375000D03*
X111190000Y-44830000D03*
X111190000Y-29830000D03*
X121090000Y-29830000D03*
D14*
X113890000Y-44830000D03*
X116140000Y-42530000D03*
X113490000Y-29830000D03*
X131690000Y-44830000D03*
X133940000Y-42530000D03*
X131290000Y-29830000D03*
X149490000Y-44830000D03*
X151740000Y-42530000D03*
X149090000Y-29830000D03*
X149490000Y-62630000D03*
X131690000Y-62630000D03*
X133940000Y-60330000D03*
X131290000Y-47630000D03*
X149090000Y-47630000D03*
X151740000Y-60330000D03*
X113890000Y-62630000D03*
X116140000Y-60330000D03*
X113490000Y-47630000D03*
X131690000Y-98230000D03*
X149490000Y-80430000D03*
X131690000Y-80430000D03*
X133940000Y-78130000D03*
X149490000Y-98230000D03*
X113890000Y-98230000D03*
X151740000Y-95930000D03*
X149090000Y-83230000D03*
X133940000Y-95930000D03*
X131290000Y-65430000D03*
X149090000Y-65430000D03*
X131290000Y-83230000D03*
X116140000Y-95930000D03*
X113490000Y-83230000D03*
X151740000Y-78130000D03*
X113890000Y-80430000D03*
X116140000Y-78130000D03*
X113490000Y-65430000D03*
X131690000Y-133830000D03*
X149490000Y-116030000D03*
X131690000Y-116030000D03*
X133940000Y-113730000D03*
X149490000Y-133830000D03*
X113890000Y-133830000D03*
X151740000Y-131530000D03*
X149090000Y-118830000D03*
X133940000Y-131530000D03*
X131290000Y-101030000D03*
X149090000Y-101030000D03*
X131290000Y-118830000D03*
X116140000Y-131530000D03*
X113490000Y-118830000D03*
X151740000Y-113730000D03*
X113890000Y-116030000D03*
X116140000Y-113730000D03*
X113490000Y-101030000D03*
X185090000Y-62630000D03*
X187340000Y-78130000D03*
X167290000Y-98230000D03*
X205140000Y-95930000D03*
X202890000Y-44830000D03*
X187340000Y-95930000D03*
X202490000Y-65430000D03*
X166890000Y-83230000D03*
X185090000Y-44830000D03*
X187340000Y-42530000D03*
X205140000Y-78130000D03*
X202890000Y-62630000D03*
X167290000Y-62630000D03*
X202890000Y-98230000D03*
X202490000Y-83230000D03*
X184690000Y-83230000D03*
X184690000Y-65430000D03*
X169540000Y-95930000D03*
X205140000Y-60330000D03*
X202490000Y-47630000D03*
X185090000Y-98230000D03*
X187340000Y-60330000D03*
X184690000Y-29830000D03*
X202490000Y-29830000D03*
X184690000Y-47630000D03*
X169540000Y-60330000D03*
X166890000Y-47630000D03*
X205140000Y-42530000D03*
X202890000Y-80430000D03*
X185090000Y-80430000D03*
X169540000Y-78130000D03*
X185090000Y-133830000D03*
X202890000Y-116030000D03*
X187340000Y-113730000D03*
X202890000Y-133830000D03*
X167290000Y-80430000D03*
X185090000Y-116030000D03*
X167290000Y-133830000D03*
X166890000Y-65430000D03*
X167290000Y-44830000D03*
X169540000Y-42530000D03*
X187340000Y-131530000D03*
X166890000Y-101030000D03*
X205140000Y-131530000D03*
X184690000Y-101030000D03*
X202490000Y-118830000D03*
X167290000Y-116030000D03*
X166890000Y-29830000D03*
X184690000Y-118830000D03*
X169540000Y-113730000D03*
X202490000Y-101030000D03*
X205140000Y-113730000D03*
X166890000Y-118830000D03*
X169540000Y-131530000D03*
D15*
X122705000Y-32275000D02*
X122680000Y-32275000D01*
X119994999Y-39314999D02*
X120210000Y-39530000D01*
X119994999Y-34960001D02*
X119994999Y-39314999D01*
X122680000Y-32275000D02*
X119994999Y-34960001D01*
D16*
X122780000Y-32375000D02*
X122805000Y-32375000D01*
D15*
X120210000Y-39530000D02*
X120210000Y-41130000D01*
X120210000Y-41130000D02*
X118265000Y-41130000D01*
X118265000Y-41130000D02*
X118165000Y-41230000D01*
X113890000Y-44830000D02*
X121290000Y-44830000D01*
X112690000Y-41230000D02*
X112590000Y-41130000D01*
X113490000Y-29830000D02*
X118390000Y-29830000D01*
X114615000Y-41230000D02*
X114840000Y-41230000D01*
X114840000Y-41230000D02*
X116140000Y-42530000D01*
X111190000Y-29830000D02*
X112462792Y-29830000D01*
X112462792Y-44830000D02*
X113890000Y-44830000D01*
X118390000Y-29830000D02*
X118090000Y-29830000D01*
X111190000Y-44830000D02*
X112462792Y-44830000D01*
X118390000Y-29830000D02*
X121290000Y-29830000D01*
X112462792Y-29830000D02*
X113490000Y-29830000D01*
X114615000Y-41230000D02*
X114790000Y-41230000D01*
X114615000Y-41230000D02*
X112690000Y-41230000D01*
X109095000Y-32375000D02*
X109095000Y-34655000D01*
X109255000Y-34815000D02*
X109255000Y-42270000D01*
D16*
X109095000Y-34655000D02*
X109355000Y-34915000D01*
D15*
X109889999Y-43029999D02*
X111789979Y-43029999D01*
X111789979Y-43029999D02*
X112389980Y-43630000D01*
X119690000Y-43630000D02*
X120390000Y-42930000D01*
X124090000Y-34915000D02*
X124090000Y-42430000D01*
D16*
X109095000Y-35175000D02*
X109355000Y-34915000D01*
D15*
X109255000Y-42270000D02*
X109095000Y-42430000D01*
X109095000Y-34655000D02*
X109255000Y-34815000D01*
X108990000Y-42130000D02*
X109889999Y-43029999D01*
X112389980Y-43630000D02*
X119690000Y-43630000D01*
X120390000Y-42930000D02*
X123090000Y-42930000D01*
X123090000Y-42930000D02*
X124090000Y-41930000D01*
X130189980Y-43630000D02*
X137490000Y-43630000D01*
X136190000Y-29830000D02*
X135890000Y-29830000D01*
X132640000Y-41230000D02*
X133940000Y-42530000D01*
X138010000Y-39530000D02*
X138010000Y-41130000D01*
D16*
X140580000Y-32375000D02*
X140605000Y-32375000D01*
D15*
X130262792Y-44830000D02*
X131690000Y-44830000D01*
X126895000Y-34655000D02*
X127055000Y-34815000D01*
X132415000Y-41230000D02*
X132590000Y-41230000D01*
X127689999Y-43029999D02*
X129589979Y-43029999D01*
X140480000Y-32275000D02*
X137794999Y-34960001D01*
X127055000Y-42270000D02*
X126895000Y-42430000D01*
X136065000Y-41130000D02*
X135965000Y-41230000D01*
X138190000Y-42930000D02*
X140890000Y-42930000D01*
X136190000Y-29830000D02*
X139090000Y-29830000D01*
D16*
X126895000Y-35175000D02*
X127155000Y-34915000D01*
D15*
X128990000Y-29830000D02*
X130262792Y-29830000D01*
X128990000Y-44830000D02*
X130262792Y-44830000D01*
X141890000Y-34915000D02*
X141890000Y-42430000D01*
D16*
X126895000Y-34655000D02*
X127155000Y-34915000D01*
D15*
X132415000Y-41230000D02*
X132640000Y-41230000D01*
X129589979Y-43029999D02*
X130189980Y-43630000D01*
X126790000Y-42130000D02*
X127689999Y-43029999D01*
X138010000Y-41130000D02*
X136065000Y-41130000D01*
X140890000Y-42930000D02*
X141890000Y-41930000D01*
X132415000Y-41230000D02*
X130490000Y-41230000D01*
X130262792Y-29830000D02*
X131290000Y-29830000D01*
X127055000Y-34815000D02*
X127055000Y-42270000D01*
X137490000Y-43630000D02*
X138190000Y-42930000D01*
X131290000Y-29830000D02*
X136190000Y-29830000D01*
X137794999Y-34960001D02*
X137794999Y-39314999D01*
X140505000Y-32275000D02*
X140480000Y-32275000D01*
X126895000Y-32375000D02*
X126895000Y-34655000D01*
X131690000Y-44830000D02*
X139090000Y-44830000D01*
X137794999Y-39314999D02*
X138010000Y-39530000D01*
X130490000Y-41230000D02*
X130390000Y-41130000D01*
X147989980Y-43630000D02*
X155290000Y-43630000D01*
X153990000Y-29830000D02*
X153690000Y-29830000D01*
X150440000Y-41230000D02*
X151740000Y-42530000D01*
X155810000Y-39530000D02*
X155810000Y-41130000D01*
D16*
X158380000Y-32375000D02*
X158405000Y-32375000D01*
D15*
X148062792Y-44830000D02*
X149490000Y-44830000D01*
X144695000Y-34655000D02*
X144855000Y-34815000D01*
X150215000Y-41230000D02*
X150390000Y-41230000D01*
X145489999Y-43029999D02*
X147389979Y-43029999D01*
X158280000Y-32275000D02*
X155594999Y-34960001D01*
X144855000Y-42270000D02*
X144695000Y-42430000D01*
X153865000Y-41130000D02*
X153765000Y-41230000D01*
X155990000Y-42930000D02*
X158690000Y-42930000D01*
X153990000Y-29830000D02*
X156890000Y-29830000D01*
D16*
X144695000Y-35175000D02*
X144955000Y-34915000D01*
D15*
X146790000Y-29830000D02*
X148062792Y-29830000D01*
X146790000Y-44830000D02*
X148062792Y-44830000D01*
X159690000Y-34915000D02*
X159690000Y-42430000D01*
D16*
X144695000Y-34655000D02*
X144955000Y-34915000D01*
D15*
X150215000Y-41230000D02*
X150440000Y-41230000D01*
X147389979Y-43029999D02*
X147989980Y-43630000D01*
X144590000Y-42130000D02*
X145489999Y-43029999D01*
X155810000Y-41130000D02*
X153865000Y-41130000D01*
X158690000Y-42930000D02*
X159690000Y-41930000D01*
X150215000Y-41230000D02*
X148290000Y-41230000D01*
X148062792Y-29830000D02*
X149090000Y-29830000D01*
X144855000Y-34815000D02*
X144855000Y-42270000D01*
X155290000Y-43630000D02*
X155990000Y-42930000D01*
X149090000Y-29830000D02*
X153990000Y-29830000D01*
X155594999Y-34960001D02*
X155594999Y-39314999D01*
X158305000Y-32275000D02*
X158280000Y-32275000D01*
X144695000Y-32375000D02*
X144695000Y-34655000D01*
X149490000Y-44830000D02*
X156890000Y-44830000D01*
X155594999Y-39314999D02*
X155810000Y-39530000D01*
X148290000Y-41230000D02*
X148190000Y-41130000D01*
X153865000Y-58930000D02*
X153765000Y-59030000D01*
X155990000Y-60730000D02*
X158690000Y-60730000D01*
X155810000Y-57330000D02*
X155810000Y-58930000D01*
X144695000Y-52455000D02*
X144855000Y-52615000D01*
X147989980Y-61430000D02*
X155290000Y-61430000D01*
D16*
X158380000Y-50175000D02*
X158405000Y-50175000D01*
D15*
X148062792Y-62630000D02*
X149490000Y-62630000D01*
X150215000Y-59030000D02*
X150390000Y-59030000D01*
X153990000Y-47630000D02*
X153690000Y-47630000D01*
X150440000Y-59030000D02*
X151740000Y-60330000D01*
X145489999Y-60829999D02*
X147389979Y-60829999D01*
X158280000Y-50075000D02*
X155594999Y-52760001D01*
X144855000Y-60070000D02*
X144695000Y-60230000D01*
X112389980Y-61430000D02*
X119690000Y-61430000D01*
X118390000Y-47630000D02*
X118090000Y-47630000D01*
X114840000Y-59030000D02*
X116140000Y-60330000D01*
X120210000Y-57330000D02*
X120210000Y-58930000D01*
D16*
X122780000Y-50175000D02*
X122805000Y-50175000D01*
D15*
X112462792Y-62630000D02*
X113890000Y-62630000D01*
X109095000Y-52455000D02*
X109255000Y-52615000D01*
X114615000Y-59030000D02*
X114790000Y-59030000D01*
X109889999Y-60829999D02*
X111789979Y-60829999D01*
X122680000Y-50075000D02*
X119994999Y-52760001D01*
X109255000Y-60070000D02*
X109095000Y-60230000D01*
X118265000Y-58930000D02*
X118165000Y-59030000D01*
X120390000Y-60730000D02*
X123090000Y-60730000D01*
X118390000Y-47630000D02*
X121290000Y-47630000D01*
D16*
X109095000Y-52975000D02*
X109355000Y-52715000D01*
D15*
X111190000Y-47630000D02*
X112462792Y-47630000D01*
X111190000Y-62630000D02*
X112462792Y-62630000D01*
X124090000Y-52715000D02*
X124090000Y-60230000D01*
D16*
X109095000Y-52455000D02*
X109355000Y-52715000D01*
D15*
X114615000Y-59030000D02*
X114840000Y-59030000D01*
X111789979Y-60829999D02*
X112389980Y-61430000D01*
X108990000Y-59930000D02*
X109889999Y-60829999D01*
X120210000Y-58930000D02*
X118265000Y-58930000D01*
X123090000Y-60730000D02*
X124090000Y-59730000D01*
X114615000Y-59030000D02*
X112690000Y-59030000D01*
X112462792Y-47630000D02*
X113490000Y-47630000D01*
X109255000Y-52615000D02*
X109255000Y-60070000D01*
X119690000Y-61430000D02*
X120390000Y-60730000D01*
X113490000Y-47630000D02*
X118390000Y-47630000D01*
X119994999Y-52760001D02*
X119994999Y-57114999D01*
X122705000Y-50075000D02*
X122680000Y-50075000D01*
X109095000Y-50175000D02*
X109095000Y-52455000D01*
X113890000Y-62630000D02*
X121290000Y-62630000D01*
X119994999Y-57114999D02*
X120210000Y-57330000D01*
X112690000Y-59030000D02*
X112590000Y-58930000D01*
X138010000Y-57330000D02*
X138010000Y-58930000D01*
D16*
X140580000Y-50175000D02*
X140605000Y-50175000D01*
D15*
X130189980Y-61430000D02*
X137490000Y-61430000D01*
X127689999Y-60829999D02*
X129589979Y-60829999D01*
X127055000Y-60070000D02*
X126895000Y-60230000D01*
D16*
X126895000Y-52975000D02*
X127155000Y-52715000D01*
D15*
X128990000Y-47630000D02*
X130262792Y-47630000D01*
X132415000Y-59030000D02*
X132640000Y-59030000D01*
X141890000Y-52715000D02*
X141890000Y-60230000D01*
X126790000Y-59930000D02*
X127689999Y-60829999D01*
X136190000Y-47630000D02*
X135890000Y-47630000D01*
X138190000Y-60730000D02*
X140890000Y-60730000D01*
X140890000Y-60730000D02*
X141890000Y-59730000D01*
X138010000Y-58930000D02*
X136065000Y-58930000D01*
X127055000Y-52615000D02*
X127055000Y-60070000D01*
X131290000Y-47630000D02*
X136190000Y-47630000D01*
X126895000Y-50175000D02*
X126895000Y-52455000D01*
D16*
X126895000Y-52455000D02*
X127155000Y-52715000D01*
D15*
X137794999Y-57114999D02*
X138010000Y-57330000D01*
X130262792Y-62630000D02*
X131690000Y-62630000D01*
X132640000Y-59030000D02*
X133940000Y-60330000D01*
X129589979Y-60829999D02*
X130189980Y-61430000D01*
X130490000Y-59030000D02*
X130390000Y-58930000D01*
X126895000Y-52455000D02*
X127055000Y-52615000D01*
X132415000Y-59030000D02*
X132590000Y-59030000D01*
X136190000Y-47630000D02*
X139090000Y-47630000D01*
X132415000Y-59030000D02*
X130490000Y-59030000D01*
X140480000Y-50075000D02*
X137794999Y-52760001D01*
X140505000Y-50075000D02*
X140480000Y-50075000D01*
X137794999Y-52760001D02*
X137794999Y-57114999D01*
X130262792Y-47630000D02*
X131290000Y-47630000D01*
X137490000Y-61430000D02*
X138190000Y-60730000D01*
X131690000Y-62630000D02*
X139090000Y-62630000D01*
X128990000Y-62630000D02*
X130262792Y-62630000D01*
X136065000Y-58930000D02*
X135965000Y-59030000D01*
X158305000Y-50075000D02*
X158280000Y-50075000D01*
X148062792Y-47630000D02*
X149090000Y-47630000D01*
X155810000Y-58930000D02*
X153865000Y-58930000D01*
X144695000Y-50175000D02*
X144695000Y-52455000D01*
X149490000Y-62630000D02*
X156890000Y-62630000D01*
X159690000Y-52715000D02*
X159690000Y-60230000D01*
X155594999Y-57114999D02*
X155810000Y-57330000D01*
X148290000Y-59030000D02*
X148190000Y-58930000D01*
X158690000Y-60730000D02*
X159690000Y-59730000D01*
D16*
X144695000Y-52975000D02*
X144955000Y-52715000D01*
X144695000Y-52455000D02*
X144955000Y-52715000D01*
D15*
X147389979Y-60829999D02*
X147989980Y-61430000D01*
X150215000Y-59030000D02*
X150440000Y-59030000D01*
X155290000Y-61430000D02*
X155990000Y-60730000D01*
X144855000Y-52615000D02*
X144855000Y-60070000D01*
X150215000Y-59030000D02*
X148290000Y-59030000D01*
X146790000Y-62630000D02*
X148062792Y-62630000D01*
X149090000Y-47630000D02*
X153990000Y-47630000D01*
X144590000Y-59930000D02*
X145489999Y-60829999D01*
X155594999Y-52760001D02*
X155594999Y-57114999D01*
X153990000Y-47630000D02*
X156890000Y-47630000D01*
X146790000Y-47630000D02*
X148062792Y-47630000D01*
X140505000Y-85675000D02*
X140480000Y-85675000D01*
X155290000Y-97030000D02*
X155990000Y-96330000D01*
X150215000Y-94630000D02*
X148290000Y-94630000D01*
X126895000Y-88055000D02*
X127055000Y-88215000D01*
X144855000Y-88215000D02*
X144855000Y-95670000D01*
X146790000Y-98230000D02*
X148062792Y-98230000D01*
X155594999Y-88360001D02*
X155594999Y-92714999D01*
X131690000Y-98230000D02*
X139090000Y-98230000D01*
X159690000Y-88315000D02*
X159690000Y-95830000D01*
X155810000Y-94530000D02*
X153865000Y-94530000D01*
X128990000Y-98230000D02*
X130262792Y-98230000D01*
X158305000Y-85675000D02*
X158280000Y-85675000D01*
X158690000Y-96330000D02*
X159690000Y-95330000D01*
X150215000Y-94630000D02*
X150440000Y-94630000D01*
X130490000Y-94630000D02*
X130390000Y-94530000D01*
X132415000Y-94630000D02*
X130490000Y-94630000D01*
X140480000Y-85675000D02*
X137794999Y-88360001D01*
X149490000Y-98230000D02*
X156890000Y-98230000D01*
X132415000Y-94630000D02*
X132590000Y-94630000D01*
X137794999Y-88360001D02*
X137794999Y-92714999D01*
X136065000Y-94530000D02*
X135965000Y-94630000D01*
X144695000Y-85775000D02*
X144695000Y-88055000D01*
D16*
X144695000Y-88575000D02*
X144955000Y-88315000D01*
D15*
X136190000Y-83230000D02*
X139090000Y-83230000D01*
X137490000Y-97030000D02*
X138190000Y-96330000D01*
X148062792Y-83230000D02*
X149090000Y-83230000D01*
X155594999Y-92714999D02*
X155810000Y-92930000D01*
D16*
X144695000Y-88055000D02*
X144955000Y-88315000D01*
D15*
X130262792Y-83230000D02*
X131290000Y-83230000D01*
X147389979Y-96429999D02*
X147989980Y-97030000D01*
X149090000Y-83230000D02*
X153990000Y-83230000D01*
X144590000Y-95530000D02*
X145489999Y-96429999D01*
X153990000Y-83230000D02*
X156890000Y-83230000D01*
X146790000Y-83230000D02*
X148062792Y-83230000D01*
X148290000Y-94630000D02*
X148190000Y-94530000D01*
X153865000Y-76730000D02*
X153765000Y-76830000D01*
X155990000Y-78530000D02*
X158690000Y-78530000D01*
X155810000Y-75130000D02*
X155810000Y-76730000D01*
X144695000Y-70255000D02*
X144855000Y-70415000D01*
X147989980Y-79230000D02*
X155290000Y-79230000D01*
D16*
X158380000Y-67975000D02*
X158405000Y-67975000D01*
D15*
X148062792Y-80430000D02*
X149490000Y-80430000D01*
X150215000Y-76830000D02*
X150390000Y-76830000D01*
X153990000Y-65430000D02*
X153690000Y-65430000D01*
X150440000Y-76830000D02*
X151740000Y-78130000D01*
X145489999Y-78629999D02*
X147389979Y-78629999D01*
X158280000Y-67875000D02*
X155594999Y-70560001D01*
X144855000Y-77870000D02*
X144695000Y-78030000D01*
X112389980Y-79230000D02*
X119690000Y-79230000D01*
X118390000Y-65430000D02*
X118090000Y-65430000D01*
X114840000Y-76830000D02*
X116140000Y-78130000D01*
X120210000Y-75130000D02*
X120210000Y-76730000D01*
D16*
X122780000Y-67975000D02*
X122805000Y-67975000D01*
D15*
X112462792Y-80430000D02*
X113890000Y-80430000D01*
X109095000Y-70255000D02*
X109255000Y-70415000D01*
X114615000Y-76830000D02*
X114790000Y-76830000D01*
X109889999Y-78629999D02*
X111789979Y-78629999D01*
X122680000Y-67875000D02*
X119994999Y-70560001D01*
X109255000Y-77870000D02*
X109095000Y-78030000D01*
X118265000Y-76730000D02*
X118165000Y-76830000D01*
X120390000Y-78530000D02*
X123090000Y-78530000D01*
X118390000Y-65430000D02*
X121290000Y-65430000D01*
D16*
X109095000Y-70775000D02*
X109355000Y-70515000D01*
D15*
X111190000Y-65430000D02*
X112462792Y-65430000D01*
X111190000Y-80430000D02*
X112462792Y-80430000D01*
X124090000Y-70515000D02*
X124090000Y-78030000D01*
D16*
X109095000Y-70255000D02*
X109355000Y-70515000D01*
D15*
X114615000Y-76830000D02*
X114840000Y-76830000D01*
X111789979Y-78629999D02*
X112389980Y-79230000D01*
X108990000Y-77730000D02*
X109889999Y-78629999D01*
X120210000Y-76730000D02*
X118265000Y-76730000D01*
X123090000Y-78530000D02*
X124090000Y-77530000D01*
X114615000Y-76830000D02*
X112690000Y-76830000D01*
X112462792Y-65430000D02*
X113490000Y-65430000D01*
X109255000Y-70415000D02*
X109255000Y-77870000D01*
X119690000Y-79230000D02*
X120390000Y-78530000D01*
X113490000Y-65430000D02*
X118390000Y-65430000D01*
X119994999Y-70560001D02*
X119994999Y-74914999D01*
X122705000Y-67875000D02*
X122680000Y-67875000D01*
X109095000Y-67975000D02*
X109095000Y-70255000D01*
X113890000Y-80430000D02*
X121290000Y-80430000D01*
X119994999Y-74914999D02*
X120210000Y-75130000D01*
X112690000Y-76830000D02*
X112590000Y-76730000D01*
X153990000Y-83230000D02*
X153690000Y-83230000D01*
X145489999Y-96429999D02*
X147389979Y-96429999D01*
X112389980Y-97030000D02*
X119690000Y-97030000D01*
X118390000Y-83230000D02*
X118090000Y-83230000D01*
X158280000Y-85675000D02*
X155594999Y-88360001D01*
X114840000Y-94630000D02*
X116140000Y-95930000D01*
X112462792Y-98230000D02*
X113890000Y-98230000D01*
X120210000Y-92930000D02*
X120210000Y-94530000D01*
D16*
X122780000Y-85775000D02*
X122805000Y-85775000D01*
D15*
X153865000Y-94530000D02*
X153765000Y-94630000D01*
X155810000Y-92930000D02*
X155810000Y-94530000D01*
X144695000Y-88055000D02*
X144855000Y-88215000D01*
X150440000Y-94630000D02*
X151740000Y-95930000D01*
X144855000Y-95670000D02*
X144695000Y-95830000D01*
X155990000Y-96330000D02*
X158690000Y-96330000D01*
X147989980Y-97030000D02*
X155290000Y-97030000D01*
D16*
X158380000Y-85775000D02*
X158405000Y-85775000D01*
D15*
X148062792Y-98230000D02*
X149490000Y-98230000D01*
X150215000Y-94630000D02*
X150390000Y-94630000D01*
X138010000Y-75130000D02*
X138010000Y-76730000D01*
D16*
X140580000Y-67975000D02*
X140605000Y-67975000D01*
D15*
X130189980Y-79230000D02*
X137490000Y-79230000D01*
X127689999Y-78629999D02*
X129589979Y-78629999D01*
X127055000Y-77870000D02*
X126895000Y-78030000D01*
D16*
X126895000Y-70775000D02*
X127155000Y-70515000D01*
D15*
X128990000Y-65430000D02*
X130262792Y-65430000D01*
X132415000Y-76830000D02*
X132640000Y-76830000D01*
X141890000Y-70515000D02*
X141890000Y-78030000D01*
X126790000Y-77730000D02*
X127689999Y-78629999D01*
X136190000Y-65430000D02*
X135890000Y-65430000D01*
X138190000Y-78530000D02*
X140890000Y-78530000D01*
X140890000Y-78530000D02*
X141890000Y-77530000D01*
X138010000Y-76730000D02*
X136065000Y-76730000D01*
X127055000Y-70415000D02*
X127055000Y-77870000D01*
X131290000Y-65430000D02*
X136190000Y-65430000D01*
X126895000Y-67975000D02*
X126895000Y-70255000D01*
D16*
X126895000Y-70255000D02*
X127155000Y-70515000D01*
D15*
X137794999Y-74914999D02*
X138010000Y-75130000D01*
X130262792Y-80430000D02*
X131690000Y-80430000D01*
X132640000Y-76830000D02*
X133940000Y-78130000D01*
X129589979Y-78629999D02*
X130189980Y-79230000D01*
X130490000Y-76830000D02*
X130390000Y-76730000D01*
X126895000Y-70255000D02*
X127055000Y-70415000D01*
X132415000Y-76830000D02*
X132590000Y-76830000D01*
X136190000Y-65430000D02*
X139090000Y-65430000D01*
X132415000Y-76830000D02*
X130490000Y-76830000D01*
X140480000Y-67875000D02*
X137794999Y-70560001D01*
X140505000Y-67875000D02*
X140480000Y-67875000D01*
X137794999Y-70560001D02*
X137794999Y-74914999D01*
X130262792Y-65430000D02*
X131290000Y-65430000D01*
X137490000Y-79230000D02*
X138190000Y-78530000D01*
X131690000Y-80430000D02*
X139090000Y-80430000D01*
X128990000Y-80430000D02*
X130262792Y-80430000D01*
X136065000Y-76730000D02*
X135965000Y-76830000D01*
X158305000Y-67875000D02*
X158280000Y-67875000D01*
X148062792Y-65430000D02*
X149090000Y-65430000D01*
X155810000Y-76730000D02*
X153865000Y-76730000D01*
X144695000Y-67975000D02*
X144695000Y-70255000D01*
X149490000Y-80430000D02*
X156890000Y-80430000D01*
X159690000Y-70515000D02*
X159690000Y-78030000D01*
X155594999Y-74914999D02*
X155810000Y-75130000D01*
X148290000Y-76830000D02*
X148190000Y-76730000D01*
X158690000Y-78530000D02*
X159690000Y-77530000D01*
D16*
X144695000Y-70775000D02*
X144955000Y-70515000D01*
X144695000Y-70255000D02*
X144955000Y-70515000D01*
D15*
X147389979Y-78629999D02*
X147989980Y-79230000D01*
X150215000Y-76830000D02*
X150440000Y-76830000D01*
X155290000Y-79230000D02*
X155990000Y-78530000D01*
X144855000Y-70415000D02*
X144855000Y-77870000D01*
X150215000Y-76830000D02*
X148290000Y-76830000D01*
X146790000Y-80430000D02*
X148062792Y-80430000D01*
X149090000Y-65430000D02*
X153990000Y-65430000D01*
X144590000Y-77730000D02*
X145489999Y-78629999D01*
X155594999Y-70560001D02*
X155594999Y-74914999D01*
X153990000Y-65430000D02*
X156890000Y-65430000D01*
X146790000Y-65430000D02*
X148062792Y-65430000D01*
X124090000Y-88315000D02*
X124090000Y-95830000D01*
D16*
X126895000Y-88575000D02*
X127155000Y-88315000D01*
D15*
X126790000Y-95530000D02*
X127689999Y-96429999D01*
X109095000Y-88055000D02*
X109255000Y-88215000D01*
D16*
X109095000Y-88575000D02*
X109355000Y-88315000D01*
D15*
X122680000Y-85675000D02*
X119994999Y-88360001D01*
X112462792Y-83230000D02*
X113490000Y-83230000D01*
X122705000Y-85675000D02*
X122680000Y-85675000D01*
X113490000Y-83230000D02*
X118390000Y-83230000D01*
X109255000Y-95670000D02*
X109095000Y-95830000D01*
X109889999Y-96429999D02*
X111789979Y-96429999D01*
X108990000Y-95530000D02*
X109889999Y-96429999D01*
X119690000Y-97030000D02*
X120390000Y-96330000D01*
X109095000Y-85775000D02*
X109095000Y-88055000D01*
X118390000Y-83230000D02*
X121290000Y-83230000D01*
X111190000Y-98230000D02*
X112462792Y-98230000D01*
X114615000Y-94630000D02*
X114840000Y-94630000D01*
X120390000Y-96330000D02*
X123090000Y-96330000D01*
X119994999Y-88360001D02*
X119994999Y-92714999D01*
X109255000Y-88215000D02*
X109255000Y-95670000D01*
X112690000Y-94630000D02*
X112590000Y-94530000D01*
X138010000Y-92930000D02*
X138010000Y-94530000D01*
X127055000Y-95670000D02*
X126895000Y-95830000D01*
X141890000Y-88315000D02*
X141890000Y-95830000D01*
X136190000Y-83230000D02*
X135890000Y-83230000D01*
X127055000Y-88215000D02*
X127055000Y-95670000D01*
X114615000Y-94630000D02*
X112690000Y-94630000D01*
X114615000Y-94630000D02*
X114790000Y-94630000D01*
X140890000Y-96330000D02*
X141890000Y-95330000D01*
X126895000Y-85775000D02*
X126895000Y-88055000D01*
X118265000Y-94530000D02*
X118165000Y-94630000D01*
X123090000Y-96330000D02*
X124090000Y-95330000D01*
D16*
X140580000Y-85775000D02*
X140605000Y-85775000D01*
D15*
X128990000Y-83230000D02*
X130262792Y-83230000D01*
D16*
X109095000Y-88055000D02*
X109355000Y-88315000D01*
D15*
X137794999Y-92714999D02*
X138010000Y-92930000D01*
X130262792Y-98230000D02*
X131690000Y-98230000D01*
X120210000Y-94530000D02*
X118265000Y-94530000D01*
X119994999Y-92714999D02*
X120210000Y-92930000D01*
X130189980Y-97030000D02*
X137490000Y-97030000D01*
X111789979Y-96429999D02*
X112389980Y-97030000D01*
X111190000Y-83230000D02*
X112462792Y-83230000D01*
X113890000Y-98230000D02*
X121290000Y-98230000D01*
X127689999Y-96429999D02*
X129589979Y-96429999D01*
X132415000Y-94630000D02*
X132640000Y-94630000D01*
X138190000Y-96330000D02*
X140890000Y-96330000D01*
X138010000Y-94530000D02*
X136065000Y-94530000D01*
X131290000Y-83230000D02*
X136190000Y-83230000D01*
D16*
X126895000Y-88055000D02*
X127155000Y-88315000D01*
D15*
X132640000Y-94630000D02*
X133940000Y-95930000D01*
X129589979Y-96429999D02*
X130189980Y-97030000D01*
X140505000Y-121275000D02*
X140480000Y-121275000D01*
X155290000Y-132630000D02*
X155990000Y-131930000D01*
X150215000Y-130230000D02*
X148290000Y-130230000D01*
X126895000Y-123655000D02*
X127055000Y-123815000D01*
X144855000Y-123815000D02*
X144855000Y-131270000D01*
X146790000Y-133830000D02*
X148062792Y-133830000D01*
X155594999Y-123960001D02*
X155594999Y-128314999D01*
X131690000Y-133830000D02*
X139090000Y-133830000D01*
X159690000Y-123915000D02*
X159690000Y-131430000D01*
X155810000Y-130130000D02*
X153865000Y-130130000D01*
X128990000Y-133830000D02*
X130262792Y-133830000D01*
X158305000Y-121275000D02*
X158280000Y-121275000D01*
X158690000Y-131930000D02*
X159690000Y-130930000D01*
X150215000Y-130230000D02*
X150440000Y-130230000D01*
X130490000Y-130230000D02*
X130390000Y-130130000D01*
X132415000Y-130230000D02*
X130490000Y-130230000D01*
X140480000Y-121275000D02*
X137794999Y-123960001D01*
X149490000Y-133830000D02*
X156890000Y-133830000D01*
X132415000Y-130230000D02*
X132590000Y-130230000D01*
X137794999Y-123960001D02*
X137794999Y-128314999D01*
X136065000Y-130130000D02*
X135965000Y-130230000D01*
X144695000Y-121375000D02*
X144695000Y-123655000D01*
D16*
X144695000Y-124175000D02*
X144955000Y-123915000D01*
D15*
X136190000Y-118830000D02*
X139090000Y-118830000D01*
X137490000Y-132630000D02*
X138190000Y-131930000D01*
X148062792Y-118830000D02*
X149090000Y-118830000D01*
X155594999Y-128314999D02*
X155810000Y-128530000D01*
D16*
X144695000Y-123655000D02*
X144955000Y-123915000D01*
D15*
X130262792Y-118830000D02*
X131290000Y-118830000D01*
X147389979Y-132029999D02*
X147989980Y-132630000D01*
X149090000Y-118830000D02*
X153990000Y-118830000D01*
X144590000Y-131130000D02*
X145489999Y-132029999D01*
X153990000Y-118830000D02*
X156890000Y-118830000D01*
X146790000Y-118830000D02*
X148062792Y-118830000D01*
X148290000Y-130230000D02*
X148190000Y-130130000D01*
X153865000Y-112330000D02*
X153765000Y-112430000D01*
X155990000Y-114130000D02*
X158690000Y-114130000D01*
X155810000Y-110730000D02*
X155810000Y-112330000D01*
X144695000Y-105855000D02*
X144855000Y-106015000D01*
X147989980Y-114830000D02*
X155290000Y-114830000D01*
D16*
X158380000Y-103575000D02*
X158405000Y-103575000D01*
D15*
X148062792Y-116030000D02*
X149490000Y-116030000D01*
X150215000Y-112430000D02*
X150390000Y-112430000D01*
X153990000Y-101030000D02*
X153690000Y-101030000D01*
X150440000Y-112430000D02*
X151740000Y-113730000D01*
X145489999Y-114229999D02*
X147389979Y-114229999D01*
X158280000Y-103475000D02*
X155594999Y-106160001D01*
X144855000Y-113470000D02*
X144695000Y-113630000D01*
X112389980Y-114830000D02*
X119690000Y-114830000D01*
X118390000Y-101030000D02*
X118090000Y-101030000D01*
X114840000Y-112430000D02*
X116140000Y-113730000D01*
X120210000Y-110730000D02*
X120210000Y-112330000D01*
D16*
X122780000Y-103575000D02*
X122805000Y-103575000D01*
D15*
X112462792Y-116030000D02*
X113890000Y-116030000D01*
X109095000Y-105855000D02*
X109255000Y-106015000D01*
X114615000Y-112430000D02*
X114790000Y-112430000D01*
X109889999Y-114229999D02*
X111789979Y-114229999D01*
X122680000Y-103475000D02*
X119994999Y-106160001D01*
X109255000Y-113470000D02*
X109095000Y-113630000D01*
X118265000Y-112330000D02*
X118165000Y-112430000D01*
X120390000Y-114130000D02*
X123090000Y-114130000D01*
X118390000Y-101030000D02*
X121290000Y-101030000D01*
D16*
X109095000Y-106375000D02*
X109355000Y-106115000D01*
D15*
X111190000Y-101030000D02*
X112462792Y-101030000D01*
X111190000Y-116030000D02*
X112462792Y-116030000D01*
X124090000Y-106115000D02*
X124090000Y-113630000D01*
D16*
X109095000Y-105855000D02*
X109355000Y-106115000D01*
D15*
X114615000Y-112430000D02*
X114840000Y-112430000D01*
X111789979Y-114229999D02*
X112389980Y-114830000D01*
X108990000Y-113330000D02*
X109889999Y-114229999D01*
X120210000Y-112330000D02*
X118265000Y-112330000D01*
X123090000Y-114130000D02*
X124090000Y-113130000D01*
X114615000Y-112430000D02*
X112690000Y-112430000D01*
X112462792Y-101030000D02*
X113490000Y-101030000D01*
X109255000Y-106015000D02*
X109255000Y-113470000D01*
X119690000Y-114830000D02*
X120390000Y-114130000D01*
X113490000Y-101030000D02*
X118390000Y-101030000D01*
X119994999Y-106160001D02*
X119994999Y-110514999D01*
X122705000Y-103475000D02*
X122680000Y-103475000D01*
X109095000Y-103575000D02*
X109095000Y-105855000D01*
X113890000Y-116030000D02*
X121290000Y-116030000D01*
X119994999Y-110514999D02*
X120210000Y-110730000D01*
X112690000Y-112430000D02*
X112590000Y-112330000D01*
X153990000Y-118830000D02*
X153690000Y-118830000D01*
X145489999Y-132029999D02*
X147389979Y-132029999D01*
X112389980Y-132630000D02*
X119690000Y-132630000D01*
X118390000Y-118830000D02*
X118090000Y-118830000D01*
X158280000Y-121275000D02*
X155594999Y-123960001D01*
X114840000Y-130230000D02*
X116140000Y-131530000D01*
X112462792Y-133830000D02*
X113890000Y-133830000D01*
X120210000Y-128530000D02*
X120210000Y-130130000D01*
D16*
X122780000Y-121375000D02*
X122805000Y-121375000D01*
D15*
X153865000Y-130130000D02*
X153765000Y-130230000D01*
X155810000Y-128530000D02*
X155810000Y-130130000D01*
X144695000Y-123655000D02*
X144855000Y-123815000D01*
X150440000Y-130230000D02*
X151740000Y-131530000D01*
X144855000Y-131270000D02*
X144695000Y-131430000D01*
X155990000Y-131930000D02*
X158690000Y-131930000D01*
X147989980Y-132630000D02*
X155290000Y-132630000D01*
D16*
X158380000Y-121375000D02*
X158405000Y-121375000D01*
D15*
X148062792Y-133830000D02*
X149490000Y-133830000D01*
X150215000Y-130230000D02*
X150390000Y-130230000D01*
X138010000Y-110730000D02*
X138010000Y-112330000D01*
D16*
X140580000Y-103575000D02*
X140605000Y-103575000D01*
D15*
X130189980Y-114830000D02*
X137490000Y-114830000D01*
X127689999Y-114229999D02*
X129589979Y-114229999D01*
X127055000Y-113470000D02*
X126895000Y-113630000D01*
D16*
X126895000Y-106375000D02*
X127155000Y-106115000D01*
D15*
X128990000Y-101030000D02*
X130262792Y-101030000D01*
X132415000Y-112430000D02*
X132640000Y-112430000D01*
X141890000Y-106115000D02*
X141890000Y-113630000D01*
X126790000Y-113330000D02*
X127689999Y-114229999D01*
X136190000Y-101030000D02*
X135890000Y-101030000D01*
X138190000Y-114130000D02*
X140890000Y-114130000D01*
X140890000Y-114130000D02*
X141890000Y-113130000D01*
X138010000Y-112330000D02*
X136065000Y-112330000D01*
X127055000Y-106015000D02*
X127055000Y-113470000D01*
X131290000Y-101030000D02*
X136190000Y-101030000D01*
X126895000Y-103575000D02*
X126895000Y-105855000D01*
D16*
X126895000Y-105855000D02*
X127155000Y-106115000D01*
D15*
X137794999Y-110514999D02*
X138010000Y-110730000D01*
X130262792Y-116030000D02*
X131690000Y-116030000D01*
X132640000Y-112430000D02*
X133940000Y-113730000D01*
X129589979Y-114229999D02*
X130189980Y-114830000D01*
X130490000Y-112430000D02*
X130390000Y-112330000D01*
X126895000Y-105855000D02*
X127055000Y-106015000D01*
X132415000Y-112430000D02*
X132590000Y-112430000D01*
X136190000Y-101030000D02*
X139090000Y-101030000D01*
X132415000Y-112430000D02*
X130490000Y-112430000D01*
X140480000Y-103475000D02*
X137794999Y-106160001D01*
X140505000Y-103475000D02*
X140480000Y-103475000D01*
X137794999Y-106160001D02*
X137794999Y-110514999D01*
X130262792Y-101030000D02*
X131290000Y-101030000D01*
X137490000Y-114830000D02*
X138190000Y-114130000D01*
X131690000Y-116030000D02*
X139090000Y-116030000D01*
X128990000Y-116030000D02*
X130262792Y-116030000D01*
X136065000Y-112330000D02*
X135965000Y-112430000D01*
X158305000Y-103475000D02*
X158280000Y-103475000D01*
X148062792Y-101030000D02*
X149090000Y-101030000D01*
X155810000Y-112330000D02*
X153865000Y-112330000D01*
X144695000Y-103575000D02*
X144695000Y-105855000D01*
X149490000Y-116030000D02*
X156890000Y-116030000D01*
X159690000Y-106115000D02*
X159690000Y-113630000D01*
X155594999Y-110514999D02*
X155810000Y-110730000D01*
X148290000Y-112430000D02*
X148190000Y-112330000D01*
X158690000Y-114130000D02*
X159690000Y-113130000D01*
D16*
X144695000Y-106375000D02*
X144955000Y-106115000D01*
X144695000Y-105855000D02*
X144955000Y-106115000D01*
D15*
X147389979Y-114229999D02*
X147989980Y-114830000D01*
X150215000Y-112430000D02*
X150440000Y-112430000D01*
X155290000Y-114830000D02*
X155990000Y-114130000D01*
X144855000Y-106015000D02*
X144855000Y-113470000D01*
X150215000Y-112430000D02*
X148290000Y-112430000D01*
X146790000Y-116030000D02*
X148062792Y-116030000D01*
X149090000Y-101030000D02*
X153990000Y-101030000D01*
X144590000Y-113330000D02*
X145489999Y-114229999D01*
X155594999Y-106160001D02*
X155594999Y-110514999D01*
X153990000Y-101030000D02*
X156890000Y-101030000D01*
X146790000Y-101030000D02*
X148062792Y-101030000D01*
X124090000Y-123915000D02*
X124090000Y-131430000D01*
D16*
X126895000Y-124175000D02*
X127155000Y-123915000D01*
D15*
X126790000Y-131130000D02*
X127689999Y-132029999D01*
X109095000Y-123655000D02*
X109255000Y-123815000D01*
D16*
X109095000Y-124175000D02*
X109355000Y-123915000D01*
D15*
X122680000Y-121275000D02*
X119994999Y-123960001D01*
X112462792Y-118830000D02*
X113490000Y-118830000D01*
X122705000Y-121275000D02*
X122680000Y-121275000D01*
X113490000Y-118830000D02*
X118390000Y-118830000D01*
X109255000Y-131270000D02*
X109095000Y-131430000D01*
X109889999Y-132029999D02*
X111789979Y-132029999D01*
X108990000Y-131130000D02*
X109889999Y-132029999D01*
X119690000Y-132630000D02*
X120390000Y-131930000D01*
X109095000Y-121375000D02*
X109095000Y-123655000D01*
X118390000Y-118830000D02*
X121290000Y-118830000D01*
X111190000Y-133830000D02*
X112462792Y-133830000D01*
X114615000Y-130230000D02*
X114840000Y-130230000D01*
X120390000Y-131930000D02*
X123090000Y-131930000D01*
X119994999Y-123960001D02*
X119994999Y-128314999D01*
X109255000Y-123815000D02*
X109255000Y-131270000D01*
X112690000Y-130230000D02*
X112590000Y-130130000D01*
X138010000Y-128530000D02*
X138010000Y-130130000D01*
X127055000Y-131270000D02*
X126895000Y-131430000D01*
X141890000Y-123915000D02*
X141890000Y-131430000D01*
X136190000Y-118830000D02*
X135890000Y-118830000D01*
X127055000Y-123815000D02*
X127055000Y-131270000D01*
X114615000Y-130230000D02*
X112690000Y-130230000D01*
X114615000Y-130230000D02*
X114790000Y-130230000D01*
X140890000Y-131930000D02*
X141890000Y-130930000D01*
X126895000Y-121375000D02*
X126895000Y-123655000D01*
X118265000Y-130130000D02*
X118165000Y-130230000D01*
X123090000Y-131930000D02*
X124090000Y-130930000D01*
D16*
X140580000Y-121375000D02*
X140605000Y-121375000D01*
D15*
X128990000Y-118830000D02*
X130262792Y-118830000D01*
D16*
X109095000Y-123655000D02*
X109355000Y-123915000D01*
D15*
X137794999Y-128314999D02*
X138010000Y-128530000D01*
X130262792Y-133830000D02*
X131690000Y-133830000D01*
X120210000Y-130130000D02*
X118265000Y-130130000D01*
X119994999Y-128314999D02*
X120210000Y-128530000D01*
X130189980Y-132630000D02*
X137490000Y-132630000D01*
X111789979Y-132029999D02*
X112389980Y-132630000D01*
X111190000Y-118830000D02*
X112462792Y-118830000D01*
X113890000Y-133830000D02*
X121290000Y-133830000D01*
X127689999Y-132029999D02*
X129589979Y-132029999D01*
X132415000Y-130230000D02*
X132640000Y-130230000D01*
X138190000Y-131930000D02*
X140890000Y-131930000D01*
X138010000Y-130130000D02*
X136065000Y-130130000D01*
X131290000Y-118830000D02*
X136190000Y-118830000D01*
D16*
X126895000Y-123655000D02*
X127155000Y-123915000D01*
D15*
X132640000Y-130230000D02*
X133940000Y-131530000D01*
X129589979Y-132029999D02*
X130189980Y-132630000D01*
X208690000Y-132630000D02*
X209390000Y-131930000D01*
X198255000Y-123815000D02*
X198255000Y-131270000D01*
X200190000Y-133830000D02*
X201462792Y-133830000D01*
X193905000Y-121275000D02*
X193880000Y-121275000D01*
X180295000Y-123655000D02*
X180455000Y-123815000D01*
X203615000Y-130230000D02*
X201690000Y-130230000D01*
X176105000Y-103475000D02*
X176080000Y-103475000D01*
X163289999Y-114229999D02*
X165189979Y-114229999D01*
X168015000Y-112430000D02*
X168240000Y-112430000D01*
X176490000Y-114130000D02*
X177490000Y-113130000D01*
D16*
X162495000Y-105855000D02*
X162755000Y-106115000D01*
D15*
X162390000Y-113330000D02*
X163289999Y-114229999D01*
X165862792Y-101030000D02*
X166890000Y-101030000D01*
X168015000Y-112430000D02*
X166090000Y-112430000D01*
X162655000Y-106015000D02*
X162655000Y-113470000D01*
X173090000Y-114830000D02*
X173790000Y-114130000D01*
X173610000Y-112330000D02*
X171665000Y-112330000D01*
D16*
X162495000Y-106375000D02*
X162755000Y-106115000D01*
D15*
X171790000Y-101030000D02*
X174690000Y-101030000D01*
X164590000Y-116030000D02*
X165862792Y-116030000D01*
X173790000Y-114130000D02*
X176490000Y-114130000D01*
X173394999Y-106160001D02*
X173394999Y-110514999D01*
X162495000Y-103575000D02*
X162495000Y-105855000D01*
X164590000Y-101030000D02*
X165862792Y-101030000D01*
X176080000Y-103475000D02*
X173394999Y-106160001D01*
X171665000Y-112330000D02*
X171565000Y-112430000D01*
X177490000Y-106115000D02*
X177490000Y-113630000D01*
X167290000Y-116030000D02*
X174690000Y-116030000D01*
X162655000Y-113470000D02*
X162495000Y-113630000D01*
X166890000Y-101030000D02*
X171790000Y-101030000D01*
X165189979Y-114229999D02*
X165789980Y-114830000D01*
X193905000Y-50075000D02*
X193880000Y-50075000D01*
X208690000Y-61430000D02*
X209390000Y-60730000D01*
X203615000Y-59030000D02*
X201690000Y-59030000D01*
X180295000Y-52455000D02*
X180455000Y-52615000D01*
X198255000Y-52615000D02*
X198255000Y-60070000D01*
X200190000Y-62630000D02*
X201462792Y-62630000D01*
X208994999Y-52760001D02*
X208994999Y-57114999D01*
X185090000Y-62630000D02*
X192490000Y-62630000D01*
X213090000Y-52715000D02*
X213090000Y-60230000D01*
X209210000Y-58930000D02*
X207265000Y-58930000D01*
X182390000Y-62630000D02*
X183662792Y-62630000D01*
X211705000Y-50075000D02*
X211680000Y-50075000D01*
X212090000Y-60730000D02*
X213090000Y-59730000D01*
X203615000Y-59030000D02*
X203840000Y-59030000D01*
X183890000Y-59030000D02*
X183790000Y-58930000D01*
X185815000Y-59030000D02*
X183890000Y-59030000D01*
X193880000Y-50075000D02*
X191194999Y-52760001D01*
X202890000Y-62630000D02*
X210290000Y-62630000D01*
X185815000Y-59030000D02*
X185990000Y-59030000D01*
X191194999Y-52760001D02*
X191194999Y-57114999D01*
X189465000Y-58930000D02*
X189365000Y-59030000D01*
X198095000Y-50175000D02*
X198095000Y-52455000D01*
D16*
X198095000Y-52975000D02*
X198355000Y-52715000D01*
D15*
X189590000Y-47630000D02*
X192490000Y-47630000D01*
X190890000Y-61430000D02*
X191590000Y-60730000D01*
X201462792Y-47630000D02*
X202490000Y-47630000D01*
X208994999Y-57114999D02*
X209210000Y-57330000D01*
D16*
X198095000Y-52455000D02*
X198355000Y-52715000D01*
D15*
X183662792Y-47630000D02*
X184690000Y-47630000D01*
X200789979Y-60829999D02*
X201389980Y-61430000D01*
X202490000Y-47630000D02*
X207390000Y-47630000D01*
X197990000Y-59930000D02*
X198889999Y-60829999D01*
X207390000Y-47630000D02*
X210290000Y-47630000D01*
X200190000Y-47630000D02*
X201462792Y-47630000D01*
X201690000Y-59030000D02*
X201590000Y-58930000D01*
X193905000Y-85675000D02*
X193880000Y-85675000D01*
X208690000Y-97030000D02*
X209390000Y-96330000D01*
X203615000Y-94630000D02*
X201690000Y-94630000D01*
X208994999Y-88360001D02*
X208994999Y-92714999D01*
X185090000Y-98230000D02*
X192490000Y-98230000D01*
X213090000Y-88315000D02*
X213090000Y-95830000D01*
X198255000Y-88215000D02*
X198255000Y-95670000D01*
X209210000Y-94530000D02*
X207265000Y-94530000D01*
X200190000Y-98230000D02*
X201462792Y-98230000D01*
X182390000Y-98230000D02*
X183662792Y-98230000D01*
X211705000Y-85675000D02*
X211680000Y-85675000D01*
X180295000Y-88055000D02*
X180455000Y-88215000D01*
X191194999Y-110514999D02*
X191410000Y-110730000D01*
X185815000Y-112430000D02*
X183890000Y-112430000D01*
X180295000Y-103575000D02*
X180295000Y-105855000D01*
X184690000Y-101030000D02*
X189590000Y-101030000D01*
D16*
X180295000Y-105855000D02*
X180555000Y-106115000D01*
D15*
X180455000Y-106015000D02*
X180455000Y-113470000D01*
X186040000Y-112430000D02*
X187340000Y-113730000D01*
X182390000Y-101030000D02*
X183662792Y-101030000D01*
X180190000Y-113330000D02*
X181089999Y-114229999D01*
X182989979Y-114229999D02*
X183589980Y-114830000D01*
X189590000Y-101030000D02*
X189290000Y-101030000D01*
X185815000Y-112430000D02*
X185990000Y-112430000D01*
X180295000Y-105855000D02*
X180455000Y-106015000D01*
X189590000Y-101030000D02*
X192490000Y-101030000D01*
X193880000Y-103475000D02*
X191194999Y-106160001D01*
X185815000Y-112430000D02*
X186040000Y-112430000D01*
X193905000Y-103475000D02*
X193880000Y-103475000D01*
X195290000Y-106115000D02*
X195290000Y-113630000D01*
X191194999Y-106160001D02*
X191194999Y-110514999D01*
X194290000Y-114130000D02*
X195290000Y-113130000D01*
X191590000Y-114130000D02*
X194290000Y-114130000D01*
X191410000Y-112330000D02*
X189465000Y-112330000D01*
D16*
X180295000Y-106375000D02*
X180555000Y-106115000D01*
D15*
X183662792Y-116030000D02*
X185090000Y-116030000D01*
X183890000Y-112430000D02*
X183790000Y-112330000D01*
X207265000Y-41130000D02*
X207165000Y-41230000D01*
X209390000Y-42930000D02*
X212090000Y-42930000D01*
X209210000Y-39530000D02*
X209210000Y-41130000D01*
X198095000Y-34655000D02*
X198255000Y-34815000D01*
X201389980Y-43630000D02*
X208690000Y-43630000D01*
D16*
X211780000Y-32375000D02*
X211805000Y-32375000D01*
D15*
X201462792Y-44830000D02*
X202890000Y-44830000D01*
X203615000Y-41230000D02*
X203790000Y-41230000D01*
X207390000Y-29830000D02*
X207090000Y-29830000D01*
X203840000Y-41230000D02*
X205140000Y-42530000D01*
X198889999Y-43029999D02*
X200789979Y-43029999D01*
X211680000Y-32275000D02*
X208994999Y-34960001D01*
X198255000Y-42270000D02*
X198095000Y-42430000D01*
D16*
X180295000Y-123655000D02*
X180555000Y-123915000D01*
D15*
X182989979Y-132029999D02*
X183589980Y-132630000D01*
X191410000Y-130130000D02*
X189465000Y-130130000D01*
X186040000Y-130230000D02*
X187340000Y-131530000D01*
X184690000Y-118830000D02*
X189590000Y-118830000D01*
X185090000Y-133830000D02*
X192490000Y-133830000D01*
X208994999Y-123960001D02*
X208994999Y-128314999D01*
X185815000Y-130230000D02*
X183890000Y-130230000D01*
X189590000Y-118830000D02*
X192490000Y-118830000D01*
X212090000Y-131930000D02*
X213090000Y-130930000D01*
X193880000Y-121275000D02*
X191194999Y-123960001D01*
X190890000Y-132630000D02*
X191590000Y-131930000D01*
X203615000Y-130230000D02*
X203840000Y-130230000D01*
X200789979Y-132029999D02*
X201389980Y-132630000D01*
X189465000Y-130130000D02*
X189365000Y-130230000D01*
X198095000Y-121375000D02*
X198095000Y-123655000D01*
X213090000Y-123915000D02*
X213090000Y-131430000D01*
X202890000Y-133830000D02*
X210290000Y-133830000D01*
D16*
X198095000Y-124175000D02*
X198355000Y-123915000D01*
D15*
X201462792Y-118830000D02*
X202490000Y-118830000D01*
X208994999Y-128314999D02*
X209210000Y-128530000D01*
X183662792Y-118830000D02*
X184690000Y-118830000D01*
X209210000Y-130130000D02*
X207265000Y-130130000D01*
X185815000Y-130230000D02*
X185990000Y-130230000D01*
X191194999Y-123960001D02*
X191194999Y-128314999D01*
X182390000Y-133830000D02*
X183662792Y-133830000D01*
X211705000Y-121275000D02*
X211680000Y-121275000D01*
D16*
X198095000Y-123655000D02*
X198355000Y-123915000D01*
D15*
X183890000Y-130230000D02*
X183790000Y-130130000D01*
X165789980Y-43630000D02*
X173090000Y-43630000D01*
X171790000Y-29830000D02*
X171490000Y-29830000D01*
X168240000Y-41230000D02*
X169540000Y-42530000D01*
X173610000Y-39530000D02*
X173610000Y-41130000D01*
D16*
X176180000Y-32375000D02*
X176205000Y-32375000D01*
D15*
X165862792Y-44830000D02*
X167290000Y-44830000D01*
X162495000Y-34655000D02*
X162655000Y-34815000D01*
X168015000Y-41230000D02*
X168190000Y-41230000D01*
X163289999Y-43029999D02*
X165189979Y-43029999D01*
X176080000Y-32275000D02*
X173394999Y-34960001D01*
X162655000Y-42270000D02*
X162495000Y-42430000D01*
X171665000Y-41130000D02*
X171565000Y-41230000D01*
X173790000Y-42930000D02*
X176490000Y-42930000D01*
X171790000Y-29830000D02*
X174690000Y-29830000D01*
D16*
X162495000Y-35175000D02*
X162755000Y-34915000D01*
D15*
X164590000Y-29830000D02*
X165862792Y-29830000D01*
X164590000Y-44830000D02*
X165862792Y-44830000D01*
X177490000Y-34915000D02*
X177490000Y-42430000D01*
D16*
X162495000Y-34655000D02*
X162755000Y-34915000D01*
D15*
X168015000Y-41230000D02*
X168240000Y-41230000D01*
X165189979Y-43029999D02*
X165789980Y-43630000D01*
X162390000Y-42130000D02*
X163289999Y-43029999D01*
X173610000Y-41130000D02*
X171665000Y-41130000D01*
X176490000Y-42930000D02*
X177490000Y-41930000D01*
X168015000Y-41230000D02*
X166090000Y-41230000D01*
X165862792Y-29830000D02*
X166890000Y-29830000D01*
X162655000Y-34815000D02*
X162655000Y-42270000D01*
X173090000Y-43630000D02*
X173790000Y-42930000D01*
X166890000Y-29830000D02*
X171790000Y-29830000D01*
X173394999Y-34960001D02*
X173394999Y-39314999D01*
X176105000Y-32275000D02*
X176080000Y-32275000D01*
X162495000Y-32375000D02*
X162495000Y-34655000D01*
X167290000Y-44830000D02*
X174690000Y-44830000D01*
X173394999Y-39314999D02*
X173610000Y-39530000D01*
X166090000Y-41230000D02*
X165990000Y-41130000D01*
X168015000Y-130230000D02*
X168190000Y-130230000D01*
X191590000Y-131930000D02*
X194290000Y-131930000D01*
X189590000Y-118830000D02*
X189290000Y-118830000D01*
X180455000Y-123815000D02*
X180455000Y-131270000D01*
X194290000Y-131930000D02*
X195290000Y-130930000D01*
X168015000Y-130230000D02*
X166090000Y-130230000D01*
X183662792Y-133830000D02*
X185090000Y-133830000D01*
X176490000Y-131930000D02*
X177490000Y-130930000D01*
X181089999Y-132029999D02*
X182989979Y-132029999D01*
X171665000Y-130130000D02*
X171565000Y-130230000D01*
X180455000Y-131270000D02*
X180295000Y-131430000D01*
X191194999Y-128314999D02*
X191410000Y-128530000D01*
X182390000Y-118830000D02*
X183662792Y-118830000D01*
X195290000Y-123915000D02*
X195290000Y-131430000D01*
X191410000Y-128530000D02*
X191410000Y-130130000D01*
X180295000Y-121375000D02*
X180295000Y-123655000D01*
X173394999Y-128314999D02*
X173610000Y-128530000D01*
X173610000Y-130130000D02*
X171665000Y-130130000D01*
X183589980Y-132630000D02*
X190890000Y-132630000D01*
X166090000Y-130230000D02*
X165990000Y-130130000D01*
D16*
X162495000Y-123655000D02*
X162755000Y-123915000D01*
D15*
X165189979Y-132029999D02*
X165789980Y-132630000D01*
D16*
X193980000Y-121375000D02*
X194005000Y-121375000D01*
D15*
X164590000Y-118830000D02*
X165862792Y-118830000D01*
X167290000Y-133830000D02*
X174690000Y-133830000D01*
X185815000Y-130230000D02*
X186040000Y-130230000D01*
X183662792Y-101030000D02*
X184690000Y-101030000D01*
X209210000Y-112330000D02*
X207265000Y-112330000D01*
X182390000Y-116030000D02*
X183662792Y-116030000D01*
X200789979Y-114229999D02*
X201389980Y-114830000D01*
X189465000Y-112330000D02*
X189365000Y-112430000D01*
X211705000Y-103475000D02*
X211680000Y-103475000D01*
D16*
X198095000Y-106375000D02*
X198355000Y-106115000D01*
D15*
X201462792Y-101030000D02*
X202490000Y-101030000D01*
X208994999Y-110514999D02*
X209210000Y-110730000D01*
X203615000Y-112430000D02*
X203840000Y-112430000D01*
X202890000Y-116030000D02*
X210290000Y-116030000D01*
X185090000Y-116030000D02*
X192490000Y-116030000D01*
D16*
X198095000Y-105855000D02*
X198355000Y-106115000D01*
D15*
X203615000Y-112430000D02*
X201690000Y-112430000D01*
X190890000Y-114830000D02*
X191590000Y-114130000D01*
X201690000Y-112430000D02*
X201590000Y-112330000D01*
X198255000Y-106015000D02*
X198255000Y-113470000D01*
X200190000Y-116030000D02*
X201462792Y-116030000D01*
X213090000Y-106115000D02*
X213090000Y-113630000D01*
X208690000Y-114830000D02*
X209390000Y-114130000D01*
X212090000Y-114130000D02*
X213090000Y-113130000D01*
X198095000Y-103575000D02*
X198095000Y-105855000D01*
X202490000Y-101030000D02*
X207390000Y-101030000D01*
X198095000Y-123655000D02*
X198255000Y-123815000D01*
X165862792Y-133830000D02*
X167290000Y-133830000D01*
D16*
X193980000Y-103575000D02*
X194005000Y-103575000D01*
D15*
X201389980Y-132630000D02*
X208690000Y-132630000D01*
X171790000Y-118830000D02*
X171490000Y-118830000D01*
X209390000Y-131930000D02*
X212090000Y-131930000D01*
X180455000Y-113470000D02*
X180295000Y-113630000D01*
X203615000Y-130230000D02*
X203790000Y-130230000D01*
X207265000Y-130130000D02*
X207165000Y-130230000D01*
X201462792Y-133830000D02*
X202890000Y-133830000D01*
X207390000Y-118830000D02*
X207090000Y-118830000D01*
X166090000Y-112430000D02*
X165990000Y-112330000D01*
X173610000Y-128530000D02*
X173610000Y-130130000D01*
X209210000Y-128530000D02*
X209210000Y-130130000D01*
X198255000Y-131270000D02*
X198095000Y-131430000D01*
D16*
X211780000Y-121375000D02*
X211805000Y-121375000D01*
D15*
X173394999Y-110514999D02*
X173610000Y-110730000D01*
X198889999Y-132029999D02*
X200789979Y-132029999D01*
X203840000Y-130230000D02*
X205140000Y-131530000D01*
D16*
X176180000Y-121375000D02*
X176205000Y-121375000D01*
D15*
X191410000Y-110730000D02*
X191410000Y-112330000D01*
X183589980Y-114830000D02*
X190890000Y-114830000D01*
X165789980Y-132630000D02*
X173090000Y-132630000D01*
X211680000Y-121275000D02*
X208994999Y-123960001D01*
X181089999Y-114229999D02*
X182989979Y-114229999D01*
X168240000Y-130230000D02*
X169540000Y-131530000D01*
X165189979Y-96429999D02*
X165789980Y-97030000D01*
X173090000Y-97030000D02*
X173790000Y-96330000D01*
X167290000Y-98230000D02*
X174690000Y-98230000D01*
X184690000Y-83230000D02*
X189590000Y-83230000D01*
X191590000Y-96330000D02*
X194290000Y-96330000D01*
X182989979Y-96429999D02*
X183589980Y-97030000D01*
X173610000Y-94530000D02*
X171665000Y-94530000D01*
X194290000Y-96330000D02*
X195290000Y-95330000D01*
X189590000Y-83230000D02*
X189290000Y-83230000D01*
X168015000Y-94630000D02*
X166090000Y-94630000D01*
X186040000Y-94630000D02*
X187340000Y-95930000D01*
X182390000Y-83230000D02*
X183662792Y-83230000D01*
X191410000Y-94530000D02*
X189465000Y-94530000D01*
X195290000Y-88315000D02*
X195290000Y-95830000D01*
X173394999Y-88360001D02*
X173394999Y-92714999D01*
X171665000Y-94530000D02*
X171565000Y-94630000D01*
X163289999Y-96429999D02*
X165189979Y-96429999D01*
X168015000Y-94630000D02*
X168240000Y-94630000D01*
X173790000Y-96330000D02*
X176490000Y-96330000D01*
X185815000Y-94630000D02*
X186040000Y-94630000D01*
X171790000Y-83230000D02*
X174690000Y-83230000D01*
X166090000Y-94630000D02*
X165990000Y-94530000D01*
X180455000Y-95670000D02*
X180295000Y-95830000D01*
D16*
X193980000Y-85775000D02*
X194005000Y-85775000D01*
X180295000Y-88055000D02*
X180555000Y-88315000D01*
D15*
X168015000Y-94630000D02*
X168190000Y-94630000D01*
X183662792Y-98230000D02*
X185090000Y-98230000D01*
X181089999Y-96429999D02*
X182989979Y-96429999D01*
X164590000Y-98230000D02*
X165862792Y-98230000D01*
X191410000Y-92930000D02*
X191410000Y-94530000D01*
X162495000Y-85775000D02*
X162495000Y-88055000D01*
X180455000Y-88215000D02*
X180455000Y-95670000D01*
X176490000Y-96330000D02*
X177490000Y-95330000D01*
X180295000Y-85775000D02*
X180295000Y-88055000D01*
X183589980Y-97030000D02*
X190890000Y-97030000D01*
X162390000Y-95530000D02*
X163289999Y-96429999D01*
X162655000Y-88215000D02*
X162655000Y-95670000D01*
D16*
X162495000Y-88055000D02*
X162755000Y-88315000D01*
D15*
X164590000Y-83230000D02*
X165862792Y-83230000D01*
X173394999Y-92714999D02*
X173610000Y-92930000D01*
X191194999Y-92714999D02*
X191410000Y-92930000D01*
X207390000Y-47630000D02*
X207090000Y-47630000D01*
X198889999Y-60829999D02*
X200789979Y-60829999D01*
X165789980Y-61430000D02*
X173090000Y-61430000D01*
X171790000Y-47630000D02*
X171490000Y-47630000D01*
X211680000Y-50075000D02*
X208994999Y-52760001D01*
X168240000Y-59030000D02*
X169540000Y-60330000D01*
X165862792Y-62630000D02*
X167290000Y-62630000D01*
X173610000Y-57330000D02*
X173610000Y-58930000D01*
D16*
X176180000Y-50175000D02*
X176205000Y-50175000D01*
D15*
X207265000Y-58930000D02*
X207165000Y-59030000D01*
X209210000Y-57330000D02*
X209210000Y-58930000D01*
X198095000Y-52455000D02*
X198255000Y-52615000D01*
X203840000Y-59030000D02*
X205140000Y-60330000D01*
X198255000Y-60070000D02*
X198095000Y-60230000D01*
X209390000Y-60730000D02*
X212090000Y-60730000D01*
X201389980Y-61430000D02*
X208690000Y-61430000D01*
D16*
X211780000Y-50175000D02*
X211805000Y-50175000D01*
D15*
X201462792Y-62630000D02*
X202890000Y-62630000D01*
X203615000Y-59030000D02*
X203790000Y-59030000D01*
X212090000Y-96330000D02*
X213090000Y-95330000D01*
D16*
X162495000Y-70775000D02*
X162755000Y-70515000D01*
D15*
X190890000Y-97030000D02*
X191590000Y-96330000D01*
X203840000Y-76830000D02*
X205140000Y-78130000D01*
X164590000Y-80430000D02*
X165862792Y-80430000D01*
D16*
X176180000Y-67975000D02*
X176205000Y-67975000D01*
D15*
X171790000Y-65430000D02*
X174690000Y-65430000D01*
X177490000Y-70515000D02*
X177490000Y-78030000D01*
X201389980Y-79230000D02*
X208690000Y-79230000D01*
X171790000Y-65430000D02*
X171490000Y-65430000D01*
X164590000Y-65430000D02*
X165862792Y-65430000D01*
X200789979Y-96429999D02*
X201389980Y-97030000D01*
X185815000Y-94630000D02*
X183890000Y-94630000D01*
X207265000Y-76730000D02*
X207165000Y-76830000D01*
X165789980Y-79230000D02*
X173090000Y-79230000D01*
X193880000Y-85675000D02*
X191194999Y-88360001D01*
X165862792Y-80430000D02*
X167290000Y-80430000D01*
X183662792Y-83230000D02*
X184690000Y-83230000D01*
X198095000Y-70255000D02*
X198255000Y-70415000D01*
D16*
X211780000Y-67975000D02*
X211805000Y-67975000D01*
D15*
X207390000Y-65430000D02*
X207090000Y-65430000D01*
X173610000Y-75130000D02*
X173610000Y-76730000D01*
D16*
X198095000Y-88055000D02*
X198355000Y-88315000D01*
D15*
X189590000Y-83230000D02*
X192490000Y-83230000D01*
X200190000Y-83230000D02*
X201462792Y-83230000D01*
X209390000Y-78530000D02*
X212090000Y-78530000D01*
X197990000Y-95530000D02*
X198889999Y-96429999D01*
X211680000Y-67875000D02*
X208994999Y-70560001D01*
X168240000Y-76830000D02*
X169540000Y-78130000D01*
X207390000Y-83230000D02*
X210290000Y-83230000D01*
X201690000Y-94630000D02*
X201590000Y-94530000D01*
X209210000Y-75130000D02*
X209210000Y-76730000D01*
X198095000Y-85775000D02*
X198095000Y-88055000D01*
X201462792Y-80430000D02*
X202890000Y-80430000D01*
X162495000Y-70255000D02*
X162655000Y-70415000D01*
X168015000Y-76830000D02*
X168190000Y-76830000D01*
X176080000Y-67875000D02*
X173394999Y-70560001D01*
X162655000Y-77870000D02*
X162495000Y-78030000D01*
X163289999Y-78629999D02*
X165189979Y-78629999D01*
X171665000Y-76730000D02*
X171565000Y-76830000D01*
X202890000Y-98230000D02*
X210290000Y-98230000D01*
X191194999Y-88360001D02*
X191194999Y-92714999D01*
X173790000Y-78530000D02*
X176490000Y-78530000D01*
X183890000Y-94630000D02*
X183790000Y-94530000D01*
X185815000Y-94630000D02*
X185990000Y-94630000D01*
X203615000Y-94630000D02*
X203840000Y-94630000D01*
D16*
X198095000Y-88575000D02*
X198355000Y-88315000D01*
D15*
X201462792Y-83230000D02*
X202490000Y-83230000D01*
X208994999Y-92714999D02*
X209210000Y-92930000D01*
X202490000Y-83230000D02*
X207390000Y-83230000D01*
X203615000Y-76830000D02*
X203790000Y-76830000D01*
X198889999Y-78629999D02*
X200789979Y-78629999D01*
X198255000Y-77870000D02*
X198095000Y-78030000D01*
X189465000Y-94530000D02*
X189365000Y-94630000D01*
X209210000Y-110730000D02*
X209210000Y-112330000D01*
D16*
X211780000Y-103575000D02*
X211805000Y-103575000D01*
D15*
X203840000Y-112430000D02*
X205140000Y-113730000D01*
X171790000Y-101030000D02*
X171490000Y-101030000D01*
X198889999Y-114229999D02*
X200789979Y-114229999D01*
X173610000Y-110730000D02*
X173610000Y-112330000D01*
X198255000Y-113470000D02*
X198095000Y-113630000D01*
X162495000Y-105855000D02*
X162655000Y-106015000D01*
X207390000Y-101030000D02*
X207090000Y-101030000D01*
X165862792Y-116030000D02*
X167290000Y-116030000D01*
D16*
X176180000Y-103575000D02*
X176205000Y-103575000D01*
D15*
X201690000Y-130230000D02*
X201590000Y-130130000D01*
X209390000Y-114130000D02*
X212090000Y-114130000D01*
X168015000Y-112430000D02*
X168190000Y-112430000D01*
X197990000Y-131130000D02*
X198889999Y-132029999D01*
X198095000Y-105855000D02*
X198255000Y-106015000D01*
X202490000Y-118830000D02*
X207390000Y-118830000D01*
X211680000Y-103475000D02*
X208994999Y-106160001D01*
X203615000Y-112430000D02*
X203790000Y-112430000D01*
X165789980Y-114830000D02*
X173090000Y-114830000D01*
X168240000Y-112430000D02*
X169540000Y-113730000D01*
X207390000Y-118830000D02*
X210290000Y-118830000D01*
X200190000Y-118830000D02*
X201462792Y-118830000D01*
X207265000Y-112330000D02*
X207165000Y-112430000D01*
X201389980Y-114830000D02*
X208690000Y-114830000D01*
X201462792Y-116030000D02*
X202890000Y-116030000D01*
X191410000Y-39530000D02*
X191410000Y-41130000D01*
D16*
X193980000Y-32375000D02*
X194005000Y-32375000D01*
D15*
X183589980Y-43630000D02*
X190890000Y-43630000D01*
X181089999Y-43029999D02*
X182989979Y-43029999D01*
X180455000Y-42270000D02*
X180295000Y-42430000D01*
D16*
X180295000Y-35175000D02*
X180555000Y-34915000D01*
D15*
X182390000Y-29830000D02*
X183662792Y-29830000D01*
X185815000Y-41230000D02*
X186040000Y-41230000D01*
X195290000Y-34915000D02*
X195290000Y-42430000D01*
X180190000Y-42130000D02*
X181089999Y-43029999D01*
X189590000Y-29830000D02*
X189290000Y-29830000D01*
X191590000Y-42930000D02*
X194290000Y-42930000D01*
X194290000Y-42930000D02*
X195290000Y-41930000D01*
X191410000Y-41130000D02*
X189465000Y-41130000D01*
X180455000Y-34815000D02*
X180455000Y-42270000D01*
X184690000Y-29830000D02*
X189590000Y-29830000D01*
X180295000Y-32375000D02*
X180295000Y-34655000D01*
D16*
X180295000Y-34655000D02*
X180555000Y-34915000D01*
D15*
X191194999Y-39314999D02*
X191410000Y-39530000D01*
X183662792Y-44830000D02*
X185090000Y-44830000D01*
X186040000Y-41230000D02*
X187340000Y-42530000D01*
X182989979Y-43029999D02*
X183589980Y-43630000D01*
X183890000Y-41230000D02*
X183790000Y-41130000D01*
X180295000Y-34655000D02*
X180455000Y-34815000D01*
X185815000Y-41230000D02*
X185990000Y-41230000D01*
X189590000Y-29830000D02*
X192490000Y-29830000D01*
X185815000Y-41230000D02*
X183890000Y-41230000D01*
X193880000Y-32275000D02*
X191194999Y-34960001D01*
X193905000Y-32275000D02*
X193880000Y-32275000D01*
X191194999Y-34960001D02*
X191194999Y-39314999D01*
X183662792Y-29830000D02*
X184690000Y-29830000D01*
X190890000Y-43630000D02*
X191590000Y-42930000D01*
X185090000Y-44830000D02*
X192490000Y-44830000D01*
X182390000Y-44830000D02*
X183662792Y-44830000D01*
X189465000Y-41130000D02*
X189365000Y-41230000D01*
X162495000Y-67975000D02*
X162495000Y-70255000D01*
X201462792Y-98230000D02*
X202890000Y-98230000D01*
X181089999Y-78629999D02*
X182989979Y-78629999D01*
X209210000Y-92930000D02*
X209210000Y-94530000D01*
D16*
X176180000Y-85775000D02*
X176205000Y-85775000D01*
D15*
X195290000Y-70515000D02*
X195290000Y-78030000D01*
X180455000Y-70415000D02*
X180455000Y-77870000D01*
X176490000Y-78530000D02*
X177490000Y-77530000D01*
X162655000Y-70415000D02*
X162655000Y-77870000D01*
X184690000Y-65430000D02*
X189590000Y-65430000D01*
X173610000Y-92930000D02*
X173610000Y-94530000D01*
X180295000Y-67975000D02*
X180295000Y-70255000D01*
X165189979Y-78629999D02*
X165789980Y-79230000D01*
D16*
X193980000Y-67975000D02*
X194005000Y-67975000D01*
D15*
X168015000Y-76830000D02*
X166090000Y-76830000D01*
X182390000Y-65430000D02*
X183662792Y-65430000D01*
X168015000Y-76830000D02*
X168240000Y-76830000D01*
X173610000Y-76730000D02*
X171665000Y-76730000D01*
X191590000Y-78530000D02*
X194290000Y-78530000D01*
X183662792Y-80430000D02*
X185090000Y-80430000D01*
X182989979Y-78629999D02*
X183589980Y-79230000D01*
X165862792Y-98230000D02*
X167290000Y-98230000D01*
X183890000Y-76830000D02*
X183790000Y-76730000D01*
D16*
X162495000Y-70255000D02*
X162755000Y-70515000D01*
D15*
X176105000Y-67875000D02*
X176080000Y-67875000D01*
X162390000Y-77730000D02*
X163289999Y-78629999D01*
X166090000Y-76830000D02*
X165990000Y-76730000D01*
X207390000Y-83230000D02*
X207090000Y-83230000D01*
X171790000Y-83230000D02*
X171490000Y-83230000D01*
X198255000Y-95670000D02*
X198095000Y-95830000D01*
X198095000Y-88055000D02*
X198255000Y-88215000D01*
X209390000Y-96330000D02*
X212090000Y-96330000D01*
X201389980Y-97030000D02*
X208690000Y-97030000D01*
X168240000Y-94630000D02*
X169540000Y-95930000D01*
X211680000Y-85675000D02*
X208994999Y-88360001D01*
X203840000Y-94630000D02*
X205140000Y-95930000D01*
X165862792Y-65430000D02*
X166890000Y-65430000D01*
D16*
X211780000Y-85775000D02*
X211805000Y-85775000D01*
D15*
X203615000Y-94630000D02*
X203790000Y-94630000D01*
X183589980Y-79230000D02*
X190890000Y-79230000D01*
X180455000Y-77870000D02*
X180295000Y-78030000D01*
D16*
X180295000Y-70775000D02*
X180555000Y-70515000D01*
D15*
X207265000Y-94530000D02*
X207165000Y-94630000D01*
X180190000Y-77730000D02*
X181089999Y-78629999D01*
X189590000Y-65430000D02*
X189290000Y-65430000D01*
D16*
X180295000Y-70255000D02*
X180555000Y-70515000D01*
D15*
X191194999Y-74914999D02*
X191410000Y-75130000D01*
X186040000Y-76830000D02*
X187340000Y-78130000D01*
X166890000Y-65430000D02*
X171790000Y-65430000D01*
X167290000Y-80430000D02*
X174690000Y-80430000D01*
X173394999Y-74914999D02*
X173610000Y-75130000D01*
X198889999Y-96429999D02*
X200789979Y-96429999D01*
X165789980Y-97030000D02*
X173090000Y-97030000D01*
X191410000Y-75130000D02*
X191410000Y-76730000D01*
X194290000Y-78530000D02*
X195290000Y-77530000D01*
X191410000Y-76730000D02*
X189465000Y-76730000D01*
X173090000Y-79230000D02*
X173790000Y-78530000D01*
X173394999Y-70560001D02*
X173394999Y-74914999D01*
X185815000Y-76830000D02*
X186040000Y-76830000D01*
X203615000Y-76830000D02*
X203840000Y-76830000D01*
X185815000Y-76830000D02*
X183890000Y-76830000D01*
X208994999Y-74914999D02*
X209210000Y-75130000D01*
X201462792Y-65430000D02*
X202490000Y-65430000D01*
X185815000Y-76830000D02*
X185990000Y-76830000D01*
X185090000Y-80430000D02*
X192490000Y-80430000D01*
X182390000Y-80430000D02*
X183662792Y-80430000D01*
X212090000Y-78530000D02*
X213090000Y-77530000D01*
X203615000Y-76830000D02*
X201690000Y-76830000D01*
X200190000Y-80430000D02*
X201462792Y-80430000D01*
X197990000Y-77730000D02*
X198889999Y-78629999D01*
X208690000Y-79230000D02*
X209390000Y-78530000D01*
X177490000Y-88315000D02*
X177490000Y-95830000D01*
D16*
X180295000Y-88575000D02*
X180555000Y-88315000D01*
D15*
X180190000Y-95530000D02*
X181089999Y-96429999D01*
X162495000Y-88055000D02*
X162655000Y-88215000D01*
X191194999Y-70560001D02*
X191194999Y-74914999D01*
X198255000Y-70415000D02*
X198255000Y-77870000D01*
X208994999Y-70560001D02*
X208994999Y-74914999D01*
X190890000Y-79230000D02*
X191590000Y-78530000D01*
X202890000Y-80430000D02*
X210290000Y-80430000D01*
X198095000Y-67975000D02*
X198095000Y-70255000D01*
X200789979Y-78629999D02*
X201389980Y-79230000D01*
D16*
X198095000Y-70775000D02*
X198355000Y-70515000D01*
D15*
X202490000Y-65430000D02*
X207390000Y-65430000D01*
X213090000Y-70515000D02*
X213090000Y-78030000D01*
X193905000Y-67875000D02*
X193880000Y-67875000D01*
X207390000Y-65430000D02*
X210290000Y-65430000D01*
X201690000Y-76830000D02*
X201590000Y-76730000D01*
D16*
X162495000Y-88575000D02*
X162755000Y-88315000D01*
D15*
X176080000Y-85675000D02*
X173394999Y-88360001D01*
X165862792Y-83230000D02*
X166890000Y-83230000D01*
X176105000Y-85675000D02*
X176080000Y-85675000D01*
X189590000Y-65430000D02*
X192490000Y-65430000D01*
X200190000Y-65430000D02*
X201462792Y-65430000D01*
X166890000Y-83230000D02*
X171790000Y-83230000D01*
X162655000Y-95670000D02*
X162495000Y-95830000D01*
X193880000Y-67875000D02*
X191194999Y-70560001D01*
X189465000Y-76730000D02*
X189365000Y-76830000D01*
X209210000Y-76730000D02*
X207265000Y-76730000D01*
X180295000Y-70255000D02*
X180455000Y-70415000D01*
D16*
X198095000Y-70255000D02*
X198355000Y-70515000D01*
D15*
X211705000Y-67875000D02*
X211680000Y-67875000D01*
X183662792Y-65430000D02*
X184690000Y-65430000D01*
X211705000Y-32275000D02*
X211680000Y-32275000D01*
X201462792Y-29830000D02*
X202490000Y-29830000D01*
X209210000Y-41130000D02*
X207265000Y-41130000D01*
X198095000Y-32375000D02*
X198095000Y-34655000D01*
X202890000Y-44830000D02*
X210290000Y-44830000D01*
X213090000Y-34915000D02*
X213090000Y-42430000D01*
X208994999Y-39314999D02*
X209210000Y-39530000D01*
X201690000Y-41230000D02*
X201590000Y-41130000D01*
X212090000Y-42930000D02*
X213090000Y-41930000D01*
D16*
X198095000Y-35175000D02*
X198355000Y-34915000D01*
X198095000Y-34655000D02*
X198355000Y-34915000D01*
D15*
X200789979Y-43029999D02*
X201389980Y-43630000D01*
X203615000Y-41230000D02*
X203840000Y-41230000D01*
X208690000Y-43630000D02*
X209390000Y-42930000D01*
X198255000Y-34815000D02*
X198255000Y-42270000D01*
X203615000Y-41230000D02*
X201690000Y-41230000D01*
X200190000Y-44830000D02*
X201462792Y-44830000D01*
X202490000Y-29830000D02*
X207390000Y-29830000D01*
X197990000Y-42130000D02*
X198889999Y-43029999D01*
X208994999Y-34960001D02*
X208994999Y-39314999D01*
X207390000Y-29830000D02*
X210290000Y-29830000D01*
X200190000Y-29830000D02*
X201462792Y-29830000D01*
X177490000Y-52715000D02*
X177490000Y-60230000D01*
D16*
X180295000Y-52975000D02*
X180555000Y-52715000D01*
D15*
X180190000Y-59930000D02*
X181089999Y-60829999D01*
X162495000Y-52455000D02*
X162655000Y-52615000D01*
D16*
X162495000Y-52975000D02*
X162755000Y-52715000D01*
D15*
X176080000Y-50075000D02*
X173394999Y-52760001D01*
X165862792Y-47630000D02*
X166890000Y-47630000D01*
X176105000Y-50075000D02*
X176080000Y-50075000D01*
X166890000Y-47630000D02*
X171790000Y-47630000D01*
X162655000Y-60070000D02*
X162495000Y-60230000D01*
X163289999Y-60829999D02*
X165189979Y-60829999D01*
X162390000Y-59930000D02*
X163289999Y-60829999D01*
X173090000Y-61430000D02*
X173790000Y-60730000D01*
X162495000Y-50175000D02*
X162495000Y-52455000D01*
X171790000Y-47630000D02*
X174690000Y-47630000D01*
X164590000Y-62630000D02*
X165862792Y-62630000D01*
X168015000Y-59030000D02*
X168240000Y-59030000D01*
X173790000Y-60730000D02*
X176490000Y-60730000D01*
X173394999Y-52760001D02*
X173394999Y-57114999D01*
X162655000Y-52615000D02*
X162655000Y-60070000D01*
X166090000Y-59030000D02*
X165990000Y-58930000D01*
X191410000Y-57330000D02*
X191410000Y-58930000D01*
X180455000Y-60070000D02*
X180295000Y-60230000D01*
X195290000Y-52715000D02*
X195290000Y-60230000D01*
X189590000Y-47630000D02*
X189290000Y-47630000D01*
X180455000Y-52615000D02*
X180455000Y-60070000D01*
X168015000Y-59030000D02*
X166090000Y-59030000D01*
X168015000Y-59030000D02*
X168190000Y-59030000D01*
X194290000Y-60730000D02*
X195290000Y-59730000D01*
X180295000Y-50175000D02*
X180295000Y-52455000D01*
X171665000Y-58930000D02*
X171565000Y-59030000D01*
X176490000Y-60730000D02*
X177490000Y-59730000D01*
D16*
X193980000Y-50175000D02*
X194005000Y-50175000D01*
D15*
X182390000Y-47630000D02*
X183662792Y-47630000D01*
D16*
X162495000Y-52455000D02*
X162755000Y-52715000D01*
D15*
X191194999Y-57114999D02*
X191410000Y-57330000D01*
X183662792Y-62630000D02*
X185090000Y-62630000D01*
X173610000Y-58930000D02*
X171665000Y-58930000D01*
X173394999Y-57114999D02*
X173610000Y-57330000D01*
X183589980Y-61430000D02*
X190890000Y-61430000D01*
X165189979Y-60829999D02*
X165789980Y-61430000D01*
X164590000Y-47630000D02*
X165862792Y-47630000D01*
X167290000Y-62630000D02*
X174690000Y-62630000D01*
X181089999Y-60829999D02*
X182989979Y-60829999D01*
X185815000Y-59030000D02*
X186040000Y-59030000D01*
X191590000Y-60730000D02*
X194290000Y-60730000D01*
X191410000Y-58930000D02*
X189465000Y-58930000D01*
X184690000Y-47630000D02*
X189590000Y-47630000D01*
D16*
X180295000Y-52455000D02*
X180555000Y-52715000D01*
D15*
X186040000Y-59030000D02*
X187340000Y-60330000D01*
X182989979Y-60829999D02*
X183589980Y-61430000D01*
X162390000Y-131130000D02*
X163289999Y-132029999D01*
X207390000Y-101030000D02*
X210290000Y-101030000D01*
X162495000Y-123655000D02*
X162655000Y-123815000D01*
X173090000Y-132630000D02*
X173790000Y-131930000D01*
X171790000Y-118830000D02*
X174690000Y-118830000D01*
X164590000Y-133830000D02*
X165862792Y-133830000D01*
X168015000Y-130230000D02*
X168240000Y-130230000D01*
X176080000Y-121275000D02*
X173394999Y-123960001D01*
X173790000Y-131930000D02*
X176490000Y-131930000D01*
X173394999Y-123960001D02*
X173394999Y-128314999D01*
X197990000Y-113330000D02*
X198889999Y-114229999D01*
X162655000Y-131270000D02*
X162495000Y-131430000D01*
X165862792Y-118830000D02*
X166890000Y-118830000D01*
X162655000Y-123815000D02*
X162655000Y-131270000D01*
D16*
X180295000Y-124175000D02*
X180555000Y-123915000D01*
D15*
X176105000Y-121275000D02*
X176080000Y-121275000D01*
X166890000Y-118830000D02*
X171790000Y-118830000D01*
X180190000Y-131130000D02*
X181089999Y-132029999D01*
X177490000Y-123915000D02*
X177490000Y-131430000D01*
X163289999Y-132029999D02*
X165189979Y-132029999D01*
X200190000Y-101030000D02*
X201462792Y-101030000D01*
X208994999Y-106160001D02*
X208994999Y-110514999D01*
D16*
X162495000Y-124175000D02*
X162755000Y-123915000D01*
D15*
X162495000Y-121375000D02*
X162495000Y-123655000D01*
M02*
