G04 #@! TF.GenerationSoftware,KiCad,Pcbnew,(5.1.4)-1*
G04 #@! TF.CreationDate,2020-01-11T14:22:52+01:00*
G04 #@! TF.ProjectId,plaque2,706c6171-7565-4322-9e6b-696361645f70,1*
G04 #@! TF.SameCoordinates,Original*
G04 #@! TF.FileFunction,Soldermask,Bot*
G04 #@! TF.FilePolarity,Negative*
%FSLAX46Y46*%
G04 Gerber Fmt 4.6, Leading zero omitted, Abs format (unit mm)*
G04 Created by KiCad (PCBNEW (5.1.4)-1) date 2020-01-11 14:22:52*
%MOMM*%
%LPD*%
G04 APERTURE LIST*
%ADD10C,1.800000*%
%ADD11R,2.550000X2.500000*%
%ADD12C,2.000000*%
%ADD13C,3.000000*%
%ADD14C,4.000000*%
%ADD15R,1.600000X1.600000*%
%ADD16R,1.300000X0.950000*%
G04 APERTURE END LIST*
D10*
X192290000Y-101030000D03*
D11*
X180455000Y-106015000D03*
X193905000Y-103475000D03*
D12*
X182735000Y-108555000D03*
D13*
X184005000Y-106015000D03*
D14*
X187815000Y-108555000D03*
D13*
X190355000Y-103475000D03*
D12*
X192895000Y-108555000D03*
D15*
X183790000Y-112330000D03*
X191410000Y-112330000D03*
D10*
X180290000Y-113330000D03*
X195290000Y-113130000D03*
X182390000Y-116030000D03*
D11*
X198255000Y-106015000D03*
X211705000Y-103475000D03*
D12*
X200535000Y-108555000D03*
D13*
X201805000Y-106015000D03*
D14*
X205615000Y-108555000D03*
D13*
X208155000Y-103475000D03*
D12*
X210695000Y-108555000D03*
D10*
X174490000Y-118830000D03*
X164590000Y-133830000D03*
X162490000Y-131130000D03*
X177490000Y-130930000D03*
X164590000Y-101030000D03*
D16*
X207165000Y-112430000D03*
X203615000Y-112430000D03*
D12*
X175095000Y-108555000D03*
D13*
X172555000Y-103475000D03*
D14*
X170015000Y-108555000D03*
D13*
X166205000Y-106015000D03*
D12*
X164935000Y-108555000D03*
D11*
X176105000Y-103475000D03*
X162655000Y-106015000D03*
D16*
X168015000Y-112430000D03*
X171565000Y-112430000D03*
D10*
X210090000Y-116030000D03*
X162495000Y-103575000D03*
X162495000Y-121375000D03*
X174490000Y-133830000D03*
X164590000Y-118830000D03*
X198095000Y-103575000D03*
X198090000Y-113330000D03*
X177490000Y-106115000D03*
X200190000Y-101030000D03*
D15*
X201590000Y-112330000D03*
X209210000Y-112330000D03*
D10*
X162490000Y-113330000D03*
X210090000Y-101030000D03*
X213090000Y-106115000D03*
X200190000Y-116030000D03*
X213090000Y-113130000D03*
X174490000Y-116030000D03*
X177490000Y-113130000D03*
D16*
X189365000Y-112430000D03*
X185815000Y-112430000D03*
D15*
X165990000Y-130130000D03*
X173610000Y-130130000D03*
X173610000Y-112330000D03*
X165990000Y-112330000D03*
D10*
X180295000Y-103575000D03*
X182390000Y-101030000D03*
X195290000Y-106115000D03*
X192290000Y-116030000D03*
D16*
X185815000Y-41230000D03*
X189365000Y-41230000D03*
D10*
X192290000Y-29830000D03*
D12*
X192895000Y-37355000D03*
D13*
X190355000Y-32275000D03*
D14*
X187815000Y-37355000D03*
D13*
X184005000Y-34815000D03*
D12*
X182735000Y-37355000D03*
D11*
X193905000Y-32275000D03*
X180455000Y-34815000D03*
D15*
X191410000Y-41130000D03*
X183790000Y-41130000D03*
D10*
X180295000Y-32375000D03*
X180290000Y-42130000D03*
X195290000Y-41930000D03*
X182390000Y-29830000D03*
X195290000Y-34915000D03*
X182390000Y-44830000D03*
X192290000Y-44830000D03*
X174490000Y-47630000D03*
X164590000Y-62630000D03*
X162490000Y-59930000D03*
X162495000Y-50175000D03*
D15*
X173610000Y-58930000D03*
X165990000Y-58930000D03*
D10*
X177490000Y-59730000D03*
X174490000Y-62630000D03*
X164590000Y-47630000D03*
X174490000Y-101030000D03*
X164590000Y-116030000D03*
X195290000Y-130930000D03*
D15*
X191410000Y-130130000D03*
X183790000Y-130130000D03*
D12*
X210695000Y-126355000D03*
D13*
X208155000Y-121275000D03*
D14*
X205615000Y-126355000D03*
D13*
X201805000Y-123815000D03*
D12*
X200535000Y-126355000D03*
D11*
X211705000Y-121275000D03*
X198255000Y-123815000D03*
D12*
X192895000Y-126355000D03*
D13*
X190355000Y-121275000D03*
D14*
X187815000Y-126355000D03*
D13*
X184005000Y-123815000D03*
D12*
X182735000Y-126355000D03*
D11*
X193905000Y-121275000D03*
X180455000Y-123815000D03*
D10*
X210090000Y-133830000D03*
X180290000Y-131130000D03*
D16*
X185815000Y-130230000D03*
X189365000Y-130230000D03*
D10*
X182390000Y-133830000D03*
X192290000Y-133830000D03*
D11*
X162655000Y-123815000D03*
X176105000Y-121275000D03*
D12*
X164935000Y-126355000D03*
D13*
X166205000Y-123815000D03*
D14*
X170015000Y-126355000D03*
D13*
X172555000Y-121275000D03*
D12*
X175095000Y-126355000D03*
D10*
X182390000Y-118830000D03*
X210090000Y-118830000D03*
X198090000Y-131130000D03*
X177490000Y-123915000D03*
X200190000Y-133830000D03*
X192290000Y-118830000D03*
X195290000Y-123915000D03*
X198095000Y-121375000D03*
D15*
X209210000Y-130130000D03*
X201590000Y-130130000D03*
D10*
X200190000Y-118830000D03*
X213090000Y-123915000D03*
X180295000Y-121375000D03*
X213090000Y-130930000D03*
D16*
X171565000Y-130230000D03*
X168015000Y-130230000D03*
X203615000Y-130230000D03*
X207165000Y-130230000D03*
D10*
X198095000Y-32375000D03*
X198090000Y-42130000D03*
X200190000Y-29830000D03*
D16*
X203615000Y-41230000D03*
X207165000Y-41230000D03*
D12*
X210695000Y-37355000D03*
D13*
X208155000Y-32275000D03*
D14*
X205615000Y-37355000D03*
D13*
X201805000Y-34815000D03*
D12*
X200535000Y-37355000D03*
D11*
X211705000Y-32275000D03*
X198255000Y-34815000D03*
D15*
X209210000Y-41130000D03*
X201590000Y-41130000D03*
D10*
X213090000Y-41930000D03*
X210090000Y-44830000D03*
X200190000Y-44830000D03*
X213090000Y-34915000D03*
X210090000Y-29830000D03*
X200190000Y-98230000D03*
X200190000Y-83230000D03*
X213090000Y-88315000D03*
X192290000Y-98230000D03*
X210090000Y-98230000D03*
D11*
X162655000Y-88215000D03*
X176105000Y-85675000D03*
D12*
X164935000Y-90755000D03*
D13*
X166205000Y-88215000D03*
D14*
X170015000Y-90755000D03*
D13*
X172555000Y-85675000D03*
D12*
X175095000Y-90755000D03*
D10*
X198090000Y-95530000D03*
X180295000Y-85775000D03*
X213090000Y-95330000D03*
D16*
X171565000Y-94630000D03*
X168015000Y-94630000D03*
D10*
X210090000Y-83230000D03*
X177490000Y-88315000D03*
X198095000Y-85775000D03*
X192290000Y-83230000D03*
X195290000Y-88315000D03*
D15*
X209210000Y-94530000D03*
X201590000Y-94530000D03*
D16*
X203615000Y-94630000D03*
X207165000Y-94630000D03*
D10*
X180290000Y-77730000D03*
X182390000Y-65430000D03*
X174490000Y-83230000D03*
X200190000Y-80430000D03*
X195290000Y-70515000D03*
D11*
X198255000Y-70415000D03*
X211705000Y-67875000D03*
D12*
X200535000Y-72955000D03*
D13*
X201805000Y-70415000D03*
D14*
X205615000Y-72955000D03*
D13*
X208155000Y-67875000D03*
D12*
X210695000Y-72955000D03*
D10*
X164590000Y-98230000D03*
X177490000Y-95330000D03*
X210090000Y-80430000D03*
X210090000Y-65430000D03*
D15*
X165990000Y-94530000D03*
X173610000Y-94530000D03*
D10*
X200190000Y-65430000D03*
X213090000Y-77530000D03*
D15*
X183790000Y-76730000D03*
X191410000Y-76730000D03*
D10*
X195290000Y-77530000D03*
X162490000Y-95530000D03*
D16*
X168015000Y-76830000D03*
X171565000Y-76830000D03*
D10*
X162495000Y-85775000D03*
X174490000Y-98230000D03*
X164590000Y-83230000D03*
X198095000Y-67975000D03*
D16*
X207165000Y-76830000D03*
X203615000Y-76830000D03*
D10*
X198090000Y-77730000D03*
D15*
X201590000Y-76730000D03*
X209210000Y-76730000D03*
D10*
X192290000Y-80430000D03*
X213090000Y-70515000D03*
D16*
X189365000Y-76830000D03*
X185815000Y-76830000D03*
D10*
X192290000Y-65430000D03*
D11*
X180455000Y-70415000D03*
X193905000Y-67875000D03*
D12*
X182735000Y-72955000D03*
D13*
X184005000Y-70415000D03*
D14*
X187815000Y-72955000D03*
D13*
X190355000Y-67875000D03*
D12*
X192895000Y-72955000D03*
D10*
X180295000Y-67975000D03*
X182390000Y-80430000D03*
D16*
X171565000Y-41230000D03*
X168015000Y-41230000D03*
D11*
X162655000Y-34815000D03*
X176105000Y-32275000D03*
D12*
X164935000Y-37355000D03*
D13*
X166205000Y-34815000D03*
D14*
X170015000Y-37355000D03*
D13*
X172555000Y-32275000D03*
D12*
X175095000Y-37355000D03*
D10*
X177490000Y-34915000D03*
D15*
X165990000Y-41130000D03*
X173610000Y-41130000D03*
D10*
X162490000Y-42130000D03*
X177490000Y-41930000D03*
X162495000Y-32375000D03*
X174490000Y-44830000D03*
X182390000Y-98230000D03*
X162490000Y-77730000D03*
D12*
X175095000Y-72955000D03*
D13*
X172555000Y-67875000D03*
D14*
X170015000Y-72955000D03*
D13*
X166205000Y-70415000D03*
D12*
X164935000Y-72955000D03*
D11*
X176105000Y-67875000D03*
X162655000Y-70415000D03*
D10*
X177490000Y-70515000D03*
X174490000Y-80430000D03*
D16*
X185815000Y-94630000D03*
X189365000Y-94630000D03*
D12*
X210695000Y-90755000D03*
D13*
X208155000Y-85675000D03*
D14*
X205615000Y-90755000D03*
D13*
X201805000Y-88215000D03*
D12*
X200535000Y-90755000D03*
D11*
X211705000Y-85675000D03*
X198255000Y-88215000D03*
D10*
X182390000Y-83230000D03*
X180290000Y-95530000D03*
D15*
X173610000Y-76730000D03*
X165990000Y-76730000D03*
D10*
X164590000Y-80430000D03*
X162495000Y-67975000D03*
X177490000Y-77530000D03*
X164590000Y-65430000D03*
X174490000Y-65430000D03*
X195290000Y-95330000D03*
D12*
X192895000Y-90755000D03*
D13*
X190355000Y-85675000D03*
D14*
X187815000Y-90755000D03*
D13*
X184005000Y-88215000D03*
D12*
X182735000Y-90755000D03*
D11*
X193905000Y-85675000D03*
X180455000Y-88215000D03*
D15*
X191410000Y-94530000D03*
X183790000Y-94530000D03*
D10*
X164590000Y-29830000D03*
X174490000Y-29830000D03*
X164590000Y-44830000D03*
X195290000Y-59730000D03*
D11*
X198255000Y-52615000D03*
X211705000Y-50075000D03*
D12*
X200535000Y-55155000D03*
D13*
X201805000Y-52615000D03*
D14*
X205615000Y-55155000D03*
D13*
X208155000Y-50075000D03*
D12*
X210695000Y-55155000D03*
D11*
X180455000Y-52615000D03*
X193905000Y-50075000D03*
D12*
X182735000Y-55155000D03*
D13*
X184005000Y-52615000D03*
D14*
X187815000Y-55155000D03*
D13*
X190355000Y-50075000D03*
D12*
X192895000Y-55155000D03*
D16*
X189365000Y-59030000D03*
X185815000Y-59030000D03*
D15*
X183790000Y-58930000D03*
X191410000Y-58930000D03*
D10*
X182390000Y-47630000D03*
X180290000Y-59930000D03*
X182390000Y-62630000D03*
X192290000Y-62630000D03*
X210090000Y-62630000D03*
D12*
X175095000Y-55155000D03*
D13*
X172555000Y-50075000D03*
D14*
X170015000Y-55155000D03*
D13*
X166205000Y-52615000D03*
D12*
X164935000Y-55155000D03*
D11*
X176105000Y-50075000D03*
X162655000Y-52615000D03*
D10*
X210090000Y-47630000D03*
X198090000Y-59930000D03*
X177490000Y-52715000D03*
X200190000Y-62630000D03*
X192290000Y-47630000D03*
X195290000Y-52715000D03*
X198095000Y-50175000D03*
D15*
X201590000Y-58930000D03*
X209210000Y-58930000D03*
D10*
X200190000Y-47630000D03*
X213090000Y-52715000D03*
X180295000Y-50175000D03*
X213090000Y-59730000D03*
D16*
X168015000Y-59030000D03*
X171565000Y-59030000D03*
X207165000Y-59030000D03*
X203615000Y-59030000D03*
X132415000Y-112430000D03*
X135965000Y-112430000D03*
D10*
X138890000Y-101030000D03*
D12*
X139495000Y-108555000D03*
D13*
X136955000Y-103475000D03*
D14*
X134415000Y-108555000D03*
D13*
X130605000Y-106015000D03*
D12*
X129335000Y-108555000D03*
D11*
X140505000Y-103475000D03*
X127055000Y-106015000D03*
D15*
X138010000Y-112330000D03*
X130390000Y-112330000D03*
D10*
X126895000Y-103575000D03*
X126890000Y-113330000D03*
X141890000Y-113130000D03*
X128990000Y-101030000D03*
X141890000Y-106115000D03*
X128990000Y-116030000D03*
X138890000Y-116030000D03*
X121090000Y-118830000D03*
X111190000Y-133830000D03*
X109090000Y-131130000D03*
X109095000Y-121375000D03*
D15*
X120210000Y-130130000D03*
X112590000Y-130130000D03*
D10*
X124090000Y-130930000D03*
X121090000Y-133830000D03*
X111190000Y-118830000D03*
X144695000Y-103575000D03*
X144690000Y-113330000D03*
X146790000Y-101030000D03*
D16*
X150215000Y-112430000D03*
X153765000Y-112430000D03*
D12*
X157295000Y-108555000D03*
D13*
X154755000Y-103475000D03*
D14*
X152215000Y-108555000D03*
D13*
X148405000Y-106015000D03*
D12*
X147135000Y-108555000D03*
D11*
X158305000Y-103475000D03*
X144855000Y-106015000D03*
D15*
X155810000Y-112330000D03*
X148190000Y-112330000D03*
D10*
X159690000Y-113130000D03*
X156690000Y-116030000D03*
X146790000Y-116030000D03*
X159690000Y-106115000D03*
X156690000Y-101030000D03*
D16*
X118165000Y-112430000D03*
X114615000Y-112430000D03*
D11*
X109255000Y-106015000D03*
X122705000Y-103475000D03*
D12*
X111535000Y-108555000D03*
D13*
X112805000Y-106015000D03*
D14*
X116615000Y-108555000D03*
D13*
X119155000Y-103475000D03*
D12*
X121695000Y-108555000D03*
D10*
X124090000Y-106115000D03*
D15*
X112590000Y-112330000D03*
X120210000Y-112330000D03*
D10*
X109090000Y-113330000D03*
X124090000Y-113130000D03*
X109095000Y-103575000D03*
X121090000Y-116030000D03*
X111190000Y-101030000D03*
X121090000Y-101030000D03*
X111190000Y-116030000D03*
X141890000Y-130930000D03*
D11*
X144855000Y-123815000D03*
X158305000Y-121275000D03*
D12*
X147135000Y-126355000D03*
D13*
X148405000Y-123815000D03*
D14*
X152215000Y-126355000D03*
D13*
X154755000Y-121275000D03*
D12*
X157295000Y-126355000D03*
D11*
X127055000Y-123815000D03*
X140505000Y-121275000D03*
D12*
X129335000Y-126355000D03*
D13*
X130605000Y-123815000D03*
D14*
X134415000Y-126355000D03*
D13*
X136955000Y-121275000D03*
D12*
X139495000Y-126355000D03*
D16*
X135965000Y-130230000D03*
X132415000Y-130230000D03*
D15*
X130390000Y-130130000D03*
X138010000Y-130130000D03*
D10*
X128990000Y-118830000D03*
X126890000Y-131130000D03*
X128990000Y-133830000D03*
X138890000Y-133830000D03*
X156690000Y-133830000D03*
D12*
X121695000Y-126355000D03*
D13*
X119155000Y-121275000D03*
D14*
X116615000Y-126355000D03*
D13*
X112805000Y-123815000D03*
D12*
X111535000Y-126355000D03*
D11*
X122705000Y-121275000D03*
X109255000Y-123815000D03*
D10*
X156690000Y-118830000D03*
X144690000Y-131130000D03*
X124090000Y-123915000D03*
X146790000Y-133830000D03*
X138890000Y-118830000D03*
X141890000Y-123915000D03*
X144695000Y-121375000D03*
D15*
X148190000Y-130130000D03*
X155810000Y-130130000D03*
D10*
X146790000Y-118830000D03*
X159690000Y-123915000D03*
X126895000Y-121375000D03*
X159690000Y-130930000D03*
D16*
X114615000Y-130230000D03*
X118165000Y-130230000D03*
X153765000Y-130230000D03*
X150215000Y-130230000D03*
X132415000Y-76830000D03*
X135965000Y-76830000D03*
D10*
X138890000Y-65430000D03*
D12*
X139495000Y-72955000D03*
D13*
X136955000Y-67875000D03*
D14*
X134415000Y-72955000D03*
D13*
X130605000Y-70415000D03*
D12*
X129335000Y-72955000D03*
D11*
X140505000Y-67875000D03*
X127055000Y-70415000D03*
D15*
X138010000Y-76730000D03*
X130390000Y-76730000D03*
D10*
X126895000Y-67975000D03*
X126890000Y-77730000D03*
X141890000Y-77530000D03*
X128990000Y-65430000D03*
X141890000Y-70515000D03*
X128990000Y-80430000D03*
X138890000Y-80430000D03*
X121090000Y-83230000D03*
X111190000Y-98230000D03*
X109090000Y-95530000D03*
X109095000Y-85775000D03*
D15*
X120210000Y-94530000D03*
X112590000Y-94530000D03*
D10*
X124090000Y-95330000D03*
X121090000Y-98230000D03*
X111190000Y-83230000D03*
X144695000Y-67975000D03*
X144690000Y-77730000D03*
X146790000Y-65430000D03*
D16*
X150215000Y-76830000D03*
X153765000Y-76830000D03*
D12*
X157295000Y-72955000D03*
D13*
X154755000Y-67875000D03*
D14*
X152215000Y-72955000D03*
D13*
X148405000Y-70415000D03*
D12*
X147135000Y-72955000D03*
D11*
X158305000Y-67875000D03*
X144855000Y-70415000D03*
D15*
X155810000Y-76730000D03*
X148190000Y-76730000D03*
D10*
X159690000Y-77530000D03*
X156690000Y-80430000D03*
X146790000Y-80430000D03*
X159690000Y-70515000D03*
X156690000Y-65430000D03*
D16*
X118165000Y-76830000D03*
X114615000Y-76830000D03*
D11*
X109255000Y-70415000D03*
X122705000Y-67875000D03*
D12*
X111535000Y-72955000D03*
D13*
X112805000Y-70415000D03*
D14*
X116615000Y-72955000D03*
D13*
X119155000Y-67875000D03*
D12*
X121695000Y-72955000D03*
D10*
X124090000Y-70515000D03*
D15*
X112590000Y-76730000D03*
X120210000Y-76730000D03*
D10*
X109090000Y-77730000D03*
X124090000Y-77530000D03*
X109095000Y-67975000D03*
X121090000Y-80430000D03*
X111190000Y-65430000D03*
X121090000Y-65430000D03*
X111190000Y-80430000D03*
X141890000Y-95330000D03*
D11*
X144855000Y-88215000D03*
X158305000Y-85675000D03*
D12*
X147135000Y-90755000D03*
D13*
X148405000Y-88215000D03*
D14*
X152215000Y-90755000D03*
D13*
X154755000Y-85675000D03*
D12*
X157295000Y-90755000D03*
D11*
X127055000Y-88215000D03*
X140505000Y-85675000D03*
D12*
X129335000Y-90755000D03*
D13*
X130605000Y-88215000D03*
D14*
X134415000Y-90755000D03*
D13*
X136955000Y-85675000D03*
D12*
X139495000Y-90755000D03*
D16*
X135965000Y-94630000D03*
X132415000Y-94630000D03*
D15*
X130390000Y-94530000D03*
X138010000Y-94530000D03*
D10*
X128990000Y-83230000D03*
X126890000Y-95530000D03*
X128990000Y-98230000D03*
X138890000Y-98230000D03*
X156690000Y-98230000D03*
D12*
X121695000Y-90755000D03*
D13*
X119155000Y-85675000D03*
D14*
X116615000Y-90755000D03*
D13*
X112805000Y-88215000D03*
D12*
X111535000Y-90755000D03*
D11*
X122705000Y-85675000D03*
X109255000Y-88215000D03*
D10*
X156690000Y-83230000D03*
X144690000Y-95530000D03*
X124090000Y-88315000D03*
X146790000Y-98230000D03*
X138890000Y-83230000D03*
X141890000Y-88315000D03*
X144695000Y-85775000D03*
D15*
X148190000Y-94530000D03*
X155810000Y-94530000D03*
D10*
X146790000Y-83230000D03*
X159690000Y-88315000D03*
X126895000Y-85775000D03*
X159690000Y-95330000D03*
D16*
X114615000Y-94630000D03*
X118165000Y-94630000D03*
X153765000Y-94630000D03*
X150215000Y-94630000D03*
X132415000Y-59030000D03*
X135965000Y-59030000D03*
D10*
X138890000Y-47630000D03*
D12*
X139495000Y-55155000D03*
D13*
X136955000Y-50075000D03*
D14*
X134415000Y-55155000D03*
D13*
X130605000Y-52615000D03*
D12*
X129335000Y-55155000D03*
D11*
X140505000Y-50075000D03*
X127055000Y-52615000D03*
D15*
X138010000Y-58930000D03*
X130390000Y-58930000D03*
D10*
X126895000Y-50175000D03*
X126890000Y-59930000D03*
X141890000Y-59730000D03*
X128990000Y-47630000D03*
X141890000Y-52715000D03*
X128990000Y-62630000D03*
X138890000Y-62630000D03*
X144695000Y-50175000D03*
X144690000Y-59930000D03*
X146790000Y-47630000D03*
D16*
X150215000Y-59030000D03*
X153765000Y-59030000D03*
D12*
X157295000Y-55155000D03*
D13*
X154755000Y-50075000D03*
D14*
X152215000Y-55155000D03*
D13*
X148405000Y-52615000D03*
D12*
X147135000Y-55155000D03*
D11*
X158305000Y-50075000D03*
X144855000Y-52615000D03*
D15*
X155810000Y-58930000D03*
X148190000Y-58930000D03*
D10*
X159690000Y-59730000D03*
X156690000Y-62630000D03*
X146790000Y-62630000D03*
X159690000Y-52715000D03*
X156690000Y-47630000D03*
D16*
X118165000Y-59030000D03*
X114615000Y-59030000D03*
D11*
X109255000Y-52615000D03*
X122705000Y-50075000D03*
D12*
X111535000Y-55155000D03*
D13*
X112805000Y-52615000D03*
D14*
X116615000Y-55155000D03*
D13*
X119155000Y-50075000D03*
D12*
X121695000Y-55155000D03*
D10*
X124090000Y-52715000D03*
D15*
X112590000Y-58930000D03*
X120210000Y-58930000D03*
D10*
X109090000Y-59930000D03*
X124090000Y-59730000D03*
X109095000Y-50175000D03*
X121090000Y-62630000D03*
X111190000Y-47630000D03*
X121090000Y-47630000D03*
X111190000Y-62630000D03*
D16*
X153765000Y-41230000D03*
X150215000Y-41230000D03*
D11*
X144855000Y-34815000D03*
X158305000Y-32275000D03*
D12*
X147135000Y-37355000D03*
D13*
X148405000Y-34815000D03*
D14*
X152215000Y-37355000D03*
D13*
X154755000Y-32275000D03*
D12*
X157295000Y-37355000D03*
D10*
X159690000Y-34915000D03*
D15*
X148190000Y-41130000D03*
X155810000Y-41130000D03*
D10*
X144690000Y-42130000D03*
X159690000Y-41930000D03*
X144695000Y-32375000D03*
X156690000Y-44830000D03*
X146790000Y-29830000D03*
X156690000Y-29830000D03*
X146790000Y-44830000D03*
D16*
X135965000Y-41230000D03*
X132415000Y-41230000D03*
D11*
X127055000Y-34815000D03*
X140505000Y-32275000D03*
D12*
X129335000Y-37355000D03*
D13*
X130605000Y-34815000D03*
D14*
X134415000Y-37355000D03*
D13*
X136955000Y-32275000D03*
D12*
X139495000Y-37355000D03*
D10*
X141890000Y-34915000D03*
D15*
X130390000Y-41130000D03*
X138010000Y-41130000D03*
D10*
X126890000Y-42130000D03*
X141890000Y-41930000D03*
X126895000Y-32375000D03*
X138890000Y-44830000D03*
X128990000Y-29830000D03*
X138890000Y-29830000D03*
X128990000Y-44830000D03*
D15*
X120210000Y-41130000D03*
X112590000Y-41130000D03*
D10*
X121090000Y-44830000D03*
X124090000Y-41930000D03*
D16*
X114615000Y-41230000D03*
X118165000Y-41230000D03*
D10*
X124090000Y-34915000D03*
D12*
X121695000Y-37355000D03*
D13*
X119155000Y-32275000D03*
D14*
X116615000Y-37355000D03*
D13*
X112805000Y-34815000D03*
D12*
X111535000Y-37355000D03*
D11*
X122705000Y-32275000D03*
X109255000Y-34815000D03*
D10*
X109090000Y-42130000D03*
X109095000Y-32375000D03*
X111190000Y-44830000D03*
X111190000Y-29830000D03*
X121090000Y-29830000D03*
M02*
