M48
; DRILL file {KiCad (5.1.4)-1} date 11/01/2020 14:39:52
; FORMAT={-:-/ absolute / metric / decimal}
; #@! TF.CreationDate,2020-01-11T14:39:52+01:00
; #@! TF.GenerationSoftware,Kicad,Pcbnew,(5.1.4)-1
; #@! TF.FileFunction,NonPlated,1,2,NPTH
FMAT,2
METRIC
T1C2.000
T2C3.000
T3C4.000
%
G90
G05
T1
X182.735Y-126.355
X192.895Y-126.355
X147.135Y-55.155
X157.295Y-55.155
X200.535Y-126.355
X210.695Y-126.355
X182.735Y-108.555
X192.895Y-108.555
X147.135Y-72.955
X157.295Y-72.955
X129.335Y-37.355
X139.495Y-37.355
X164.935Y-90.755
X175.095Y-90.755
X147.135Y-90.755
X157.295Y-90.755
X129.335Y-108.555
X139.495Y-108.555
X111.535Y-108.555
X121.695Y-108.555
X200.535Y-90.755
X210.695Y-90.755
X164.935Y-108.555
X175.095Y-108.555
X182.735Y-72.955
X192.895Y-72.955
X111.535Y-126.355
X121.695Y-126.355
X200.535Y-108.555
X210.695Y-108.555
X164.935Y-55.155
X175.095Y-55.155
X164.935Y-126.355
X175.095Y-126.355
X111.535Y-72.955
X121.695Y-72.955
X111.535Y-37.355
X121.695Y-37.355
X200.535Y-37.355
X210.695Y-37.355
X129.335Y-126.355
X139.495Y-126.355
X200.535Y-72.955
X210.695Y-72.955
X111.535Y-55.155
X121.695Y-55.155
X164.935Y-72.955
X175.095Y-72.955
X164.935Y-37.355
X175.095Y-37.355
X182.735Y-37.355
X192.895Y-37.355
X200.535Y-55.155
X210.695Y-55.155
X129.335Y-90.755
X139.495Y-90.755
X147.135Y-108.555
X157.295Y-108.555
X182.735Y-90.755
X192.895Y-90.755
X147.135Y-37.355
X157.295Y-37.355
X129.335Y-55.155
X139.495Y-55.155
X182.735Y-55.155
X192.895Y-55.155
X129.335Y-72.955
X139.495Y-72.955
X111.535Y-90.755
X121.695Y-90.755
X147.135Y-126.355
X157.295Y-126.355
T2
X112.805Y-34.815
X119.155Y-32.275
X201.805Y-34.815
X208.155Y-32.275
X130.605Y-123.815
X136.955Y-121.275
X201.805Y-70.415
X208.155Y-67.875
X112.805Y-52.615
X119.155Y-50.075
X166.205Y-70.415
X172.555Y-67.875
X166.205Y-34.815
X172.555Y-32.275
X184.005Y-34.815
X190.355Y-32.275
X201.805Y-52.615
X208.155Y-50.075
X130.605Y-88.215
X136.955Y-85.675
X148.405Y-106.015
X154.755Y-103.475
X184.005Y-88.215
X190.355Y-85.675
X148.405Y-34.815
X154.755Y-32.275
X130.605Y-52.615
X136.955Y-50.075
X184.005Y-52.615
X190.355Y-50.075
X130.605Y-70.415
X136.955Y-67.875
X112.805Y-88.215
X119.155Y-85.675
X148.405Y-123.815
X154.755Y-121.275
X184.005Y-123.815
X190.355Y-121.275
X148.405Y-52.615
X154.755Y-50.075
X201.805Y-123.815
X208.155Y-121.275
X184.005Y-106.015
X190.355Y-103.475
X148.405Y-70.415
X154.755Y-67.875
X130.605Y-34.815
X136.955Y-32.275
X166.205Y-88.215
X172.555Y-85.675
X148.405Y-88.215
X154.755Y-85.675
X130.605Y-106.015
X136.955Y-103.475
X112.805Y-106.015
X119.155Y-103.475
X201.805Y-88.215
X208.155Y-85.675
X166.205Y-106.015
X172.555Y-103.475
X184.005Y-70.415
X190.355Y-67.875
X112.805Y-123.815
X119.155Y-121.275
X201.805Y-106.015
X208.155Y-103.475
X166.205Y-52.615
X172.555Y-50.075
X166.205Y-123.815
X172.555Y-121.275
X112.805Y-70.415
X119.155Y-67.875
T3
X116.615Y-37.355
X205.615Y-37.355
X134.415Y-126.355
X205.615Y-72.955
X116.615Y-55.155
X170.015Y-72.955
X170.015Y-37.355
X187.815Y-37.355
X205.615Y-55.155
X134.415Y-90.755
X152.215Y-108.555
X187.815Y-90.755
X152.215Y-37.355
X134.415Y-55.155
X187.815Y-55.155
X134.415Y-72.955
X116.615Y-90.755
X152.215Y-126.355
X187.815Y-126.355
X152.215Y-55.155
X205.615Y-126.355
X187.815Y-108.555
X152.215Y-72.955
X134.415Y-37.355
X170.015Y-90.755
X152.215Y-90.755
X134.415Y-108.555
X116.615Y-108.555
X205.615Y-90.755
X170.015Y-108.555
X187.815Y-72.955
X116.615Y-126.355
X205.615Y-108.555
X170.015Y-55.155
X170.015Y-126.355
X116.615Y-72.955
T0
M30
